<?xml version="1.0" encoding="UTF-8" standalone="no"?><!DOCTYPE svg PUBLIC "-//W3C//DTD SVG 1.1//EN" "http://www.w3.org/Graphics/SVG/1.1/DTD/svg11.dtd"><svg width="100%" height="100%" viewBox="0 0 58 58" version="1.1" xmlns="http://www.w3.org/2000/svg" xmlns:xlink="http://www.w3.org/1999/xlink" xml:space="preserve" xmlns:serif="http://www.serif.com/" style="fill-rule:evenodd;clip-rule:evenodd;stroke-linejoin:round;stroke-miterlimit:1.41421;"><g id="g3801"><path id="path3031" d="M8.733,53.599l6.781,-44.773l13.255,-4.238l13.64,4.007l6.781,44.619l-40.457,0.385Z" style="fill:#fff;fill-rule:nonzero;"/><g id="g3022"><path id="path3010" d="M8.057,53.029c0.12,-0.534 1.702,-10.875 3.515,-22.98c1.813,-12.105 3.354,-22.075 3.425,-22.156c0.07,-0.08 3.259,-0.99 7.085,-2.02l6.957,-1.873l6.915,1.87c3.803,1.028 6.98,1.937 7.061,2.02c0.081,0.083 1.624,10.054 3.429,22.159c1.805,12.105 3.38,22.446 3.5,22.98l0.218,0.971l-21.162,0l-21.162,0l0.219,-0.971Zm40.361,-0.647c-0.005,-0.797 -6.412,-43.347 -6.548,-43.483c-0.084,-0.084 -3.009,-0.894 -6.499,-1.8l-6.348,-1.648l-6.377,1.657c-3.507,0.911 -6.427,1.705 -6.488,1.765c-0.108,0.107 -6.572,42.871 -6.576,43.509c-0.001,0.178 8.737,0.323 19.418,0.323c10.681,0 19.419,-0.145 19.418,-0.323Zm-12.097,-1.981c-0.348,-0.318 -1.557,-0.918 -2.687,-1.332c-1.787,-0.656 -3.334,-2.123 -2.8,-2.657c0.098,-0.098 1.281,0.026 2.629,0.276c1.348,0.249 2.664,0.321 2.926,0.159c0.706,-0.436 0.254,-5.363 -0.547,-5.959c-0.356,-0.265 -0.827,-0.791 -1.047,-1.169c-0.362,-0.621 -0.705,-0.626 -3.556,-0.058c-3.103,0.619 -3.173,0.613 -4.195,-0.346c-0.571,-0.537 -0.954,-1.112 -0.851,-1.279c0.103,-0.166 2.103,-0.419 4.445,-0.562c2.553,-0.155 5.107,-0.586 6.38,-1.075c2.269,-0.872 3.522,-0.759 4.919,0.443c1.345,1.158 1.049,1.622 -1.034,1.622c-2.836,0 -3.376,0.293 -2.66,1.443c0.319,0.512 0.693,2.792 0.831,5.066c0.2,3.301 0.118,4.323 -0.405,5.07c-0.753,1.076 -1.448,1.182 -2.348,0.358Zm-15.687,-0.824c-0.469,-0.736 -0.529,-1.494 -0.252,-3.129c0.202,-1.187 0.379,-2.611 0.393,-3.164l0.026,-1.006l-1.454,0.898c-1.458,0.902 -3.103,1.111 -4.912,0.626c-1.452,-0.389 -1.194,-0.74 1.157,-1.575c2.445,-0.869 6.503,-3.903 6.503,-4.863c0,-0.576 -0.139,-0.576 -1.249,-0.002c-1.581,0.818 -4.609,1.317 -4.921,0.811c-0.131,-0.211 0.817,-0.936 2.106,-1.611c2.752,-1.441 4.927,-3.741 4.927,-5.211c0,-0.971 0.088,-1.011 1.304,-0.587c1.222,0.426 2.149,1.487 2.149,2.458c0,0.234 -0.692,0.852 -1.537,1.375l-1.537,0.95l0.889,0.947c1.253,1.333 1.114,2.155 -0.602,3.569l-1.493,1.231l0.611,1.714c1.629,4.576 -0.048,9.805 -2.108,6.569l0,0Zm8.176,-15.199c-0.461,-0.363 -0.752,-0.681 -0.648,-0.706c0.105,-0.025 1.647,-0.29 3.427,-0.588c1.78,-0.299 3.875,-0.81 4.656,-1.135c1.224,-0.51 1.579,-0.501 2.586,0.064c0.642,0.36 1.227,0.966 1.3,1.346c0.108,0.559 -0.422,0.737 -2.802,0.937c-1.614,0.136 -4.003,0.359 -5.308,0.495c-1.77,0.184 -2.587,0.079 -3.211,-0.413Zm3.967,-6.417c-1.834,-1.058 -2.116,-2.011 -0.595,-2.011c0.913,0 1.046,-0.233 1.231,-2.158c0.114,-1.187 0.114,-3.129 0,-4.316l-0.207,-2.157l-1.672,0c-1.198,0 -1.671,0.183 -1.671,0.647c0,0.356 0.35,0.647 0.777,0.647c0.909,0 1.812,0.796 1.812,1.597c0,0.336 -0.52,0.561 -1.294,0.561c-0.984,0 -1.295,0.197 -1.295,0.819c0,0.649 0.291,0.805 1.403,0.755c1.149,-0.052 1.427,0.112 1.54,0.907c0.121,0.852 -0.052,0.971 -1.402,0.971c-1.496,0 -1.541,0.048 -1.541,1.64c0,1.536 -0.588,2.676 -1.381,2.676c-0.19,0 -0.345,-0.895 -0.345,-1.989c0,-1.925 -0.036,-1.98 -1.12,-1.708c-0.616,0.155 -1.376,0.07 -1.688,-0.189c-0.68,-0.565 -0.872,-0.285 -1.252,1.821c-0.346,1.918 -0.791,2.27 -2.03,1.607c-0.877,-0.469 -0.909,-0.674 -0.562,-3.58c0.203,-1.695 0.366,-4.296 0.362,-5.78c-0.008,-2.82 0.293,-3.181 1.635,-1.966c0.759,0.687 0.791,0.687 0.528,0c-0.242,-0.63 0.04,-0.734 2.031,-0.75c1.271,-0.01 3.186,-0.216 4.254,-0.458c4.2,-0.95 4.147,-0.952 5.008,0.147c0.713,0.91 0.817,1.809 0.817,7.052c0,5.698 -0.044,6.012 -0.863,6.078c-0.474,0.038 -1.59,-0.35 -2.48,-0.863Zm-5.072,-5.97c0,-0.58 -0.248,-0.801 -0.796,-0.708c-0.439,0.075 -1.118,-0.131 -1.511,-0.457c-0.64,-0.531 -0.713,-0.44 -0.713,0.884c0,1.434 0.044,1.472 1.51,1.301c1.15,-0.135 1.51,-0.378 1.51,-1.02Zm-0.012,-2.93c0.733,-0.463 0.425,-0.621 -2.037,-1.047c-1.341,-0.232 -1.916,0.374 -1.115,1.175c0.42,0.42 2.414,0.339 3.152,-0.128Zm-0.851,-4.168c0,-0.21 0.861,-0.838 1.913,-1.396c2.229,-1.182 2.711,-2.025 1.524,-2.66c-1.217,-0.651 -1.044,-1.286 0.351,-1.286c1.526,0 3.117,1.102 3.117,2.16c0,1.249 -2.738,3.093 -4.966,3.344c-1.066,0.12 -1.939,0.047 -1.939,-0.162Zm-4.747,-0.97c0,-0.268 0.165,-0.488 0.366,-0.488c0.201,0 1.089,-0.704 1.975,-1.564c1.225,-1.189 1.551,-1.798 1.364,-2.544c-0.289,-1.153 0.4,-1.547 1.797,-1.028c1.402,0.521 1.232,2.103 -0.431,4.016c-1.086,1.248 -1.817,1.667 -3.237,1.855c-1.219,0.16 -1.834,0.078 -1.834,-0.247Z" style="fill:#cfcfcf;fill-rule:nonzero;"/><path id="path3008" d="M8.735,49.145c0.412,-2.67 1.968,-13.011 3.459,-22.98c1.491,-9.968 2.735,-18.166 2.765,-18.216c0.03,-0.051 3.21,-0.948 7.065,-1.995l7.011,-1.903l6.952,1.88c3.824,1.034 6.994,1.932 7.045,1.995c0.051,0.063 1.498,9.533 3.217,21.044c1.718,11.512 3.269,21.853 3.446,22.98l0.322,2.05l-21.016,0l-21.015,0l0.749,-4.855Zm39.666,2.805c-0.034,-1.387 -6.295,-42.815 -6.502,-43.022c-0.113,-0.113 -3.061,-0.974 -6.552,-1.913l-6.347,-1.709l-6.347,1.709c-3.491,0.939 -6.423,1.784 -6.515,1.876c-0.171,0.171 -6.552,42.292 -6.556,43.275c-0.001,0.424 4.169,0.539 19.418,0.539c18.214,0 19.418,-0.047 19.401,-0.755Zm-12.051,-1.601c-0.288,-0.347 -0.943,-0.757 -1.455,-0.912c-2.192,-0.659 -3.737,-1.622 -3.737,-2.329c0,-0.67 0.231,-0.706 2.139,-0.329c3.086,0.61 3.471,0.343 3.471,-2.406c0,-1.865 -0.232,-2.62 -1.187,-3.867c-1.271,-1.66 -1.256,-1.658 -5.206,-0.659c-1.634,0.414 -2.003,0.365 -3.021,-0.394c-1.482,-1.107 -1.173,-1.626 0.999,-1.675c3.225,-0.072 7.294,-0.669 8.773,-1.287c2.132,-0.891 3.666,-0.766 4.749,0.387c1.173,1.249 0.86,1.586 -1.476,1.586c-1.009,0 -2.147,0.12 -2.53,0.267c-0.633,0.243 -0.63,0.314 0.029,0.796c1.07,0.783 1.69,9.094 0.782,10.48c-0.735,1.121 -1.58,1.245 -2.33,0.342l0,0Zm-15.552,-0.452c-0.393,-0.473 -0.457,-1.596 -0.237,-4.125l0.303,-3.474l-1.819,0.928c-1.418,0.724 -2.233,0.866 -3.7,0.646c-1.034,-0.155 -1.881,-0.419 -1.881,-0.586c0,-0.167 0.945,-0.639 2.1,-1.049c2.478,-0.88 6.963,-4.082 6.963,-4.97c0,-0.423 -0.241,-0.521 -0.755,-0.307c-2.199,0.913 -4.684,1.48 -5.439,1.24c-0.701,-0.222 -0.46,-0.459 1.339,-1.314c2.461,-1.17 5.286,-4.017 5.286,-5.328c0,-1.228 1.358,-1.095 2.622,0.257l1.046,1.119l-1.676,1.412l-1.677,1.412l0.921,0.922c1.285,1.285 1.16,1.941 -0.646,3.39c-1.394,1.119 -1.512,1.362 -1.062,2.202c0.768,1.435 1.103,6.234 0.513,7.337c-0.586,1.095 -1.439,1.207 -2.201,0.288Zm8.31,-15.372c-0.919,-0.934 -0.631,-1.106 2.303,-1.38c1.564,-0.146 3.451,-0.568 4.194,-0.939c1.475,-0.736 3.38,-0.535 4.191,0.441c0.836,1.008 0.15,1.375 -3.126,1.672c-1.726,0.157 -4.013,0.391 -5.081,0.52c-1.278,0.154 -2.126,0.046 -2.481,-0.314Zm4.639,-6.202c-0.295,-0.356 -0.781,-0.647 -1.079,-0.647c-0.298,0 -0.765,-0.269 -1.037,-0.598c-0.396,-0.477 -0.277,-0.653 0.587,-0.87c0.675,-0.169 1.186,-0.678 1.355,-1.35c0.378,-1.506 0.019,-7.011 -0.487,-7.475c-0.687,-0.63 -3.634,-0.081 -3.362,0.627c0.127,0.332 0.56,0.603 0.962,0.603c0.869,0 1.766,0.812 1.766,1.597c0,0.336 -0.52,0.561 -1.294,0.561c-1.011,0 -1.295,0.191 -1.295,0.871c0,0.697 0.202,0.821 1.003,0.62c0.629,-0.158 1.206,-0.007 1.548,0.404c0.756,0.911 0.224,1.557 -1.282,1.557c-1.128,0 -1.269,0.147 -1.269,1.323c0,1.571 -0.738,3.121 -1.316,2.764c-0.226,-0.14 -0.41,-1.04 -0.41,-2.001c0,-1.626 -0.072,-1.73 -1.03,-1.489c-0.651,0.163 -1.225,0.022 -1.563,-0.385c-0.847,-1.021 -1.161,-0.769 -1.417,1.142c-0.132,0.982 -0.518,2.064 -0.858,2.405c-0.537,0.537 -0.718,0.519 -1.375,-0.137c-0.645,-0.646 -0.702,-1.14 -0.389,-3.376c0.202,-1.44 0.369,-3.93 0.371,-5.532c0.003,-1.968 0.171,-2.914 0.518,-2.913c0.742,0 1.859,1.749 1.859,2.909c0,1.022 0.242,1.042 3.135,0.256c1.116,-0.303 0.462,-1.007 -0.936,-1.007c-1.074,0 -2.631,-1.106 -2.631,-1.868c0,-0.16 1.105,-0.29 2.454,-0.29c1.35,0 3.692,-0.311 5.206,-0.69c4.058,-1.018 4.221,-0.79 4.596,6.441c0.164,3.152 0.171,6.06 0.017,6.463c-0.348,0.906 -1.627,0.953 -2.347,0.085l0,0Zm-5.826,-6.265c0,-0.361 -0.401,-0.646 -0.921,-0.654c-0.507,-0.007 -1.235,-0.274 -1.619,-0.592c-0.618,-0.513 -0.696,-0.41 -0.696,0.917c0,1.487 0.009,1.494 1.618,1.232c1.024,-0.166 1.618,-0.498 1.618,-0.903Zm-1.079,-7.048c0,-0.084 0.971,-0.755 2.158,-1.493c2.355,-1.464 2.685,-2.294 1.187,-2.991c-0.87,-0.405 -0.892,-0.484 -0.215,-0.76c2.051,-0.836 4.607,1.499 3.328,3.04c-0.89,1.072 -3.693,2.355 -5.146,2.355c-0.721,0 -1.312,-0.068 -1.312,-0.151Zm-4.4,-0.941c-0.162,-0.162 0.519,-0.918 1.514,-1.68c1.456,-1.117 1.807,-1.653 1.803,-2.76c-0.003,-1.204 0.139,-1.373 1.158,-1.373c0.773,0 1.251,0.282 1.429,0.842c0.335,1.056 -0.777,3.261 -2.075,4.111c-1.175,0.77 -3.416,1.273 -3.829,0.86Z" style="fill:#afafaf;fill-rule:nonzero;"/><path id="path3006" d="M8.271,53.461c-0.035,-1.274 6.65,-45.022 6.929,-45.342c0.417,-0.478 12.448,-3.732 13.8,-3.732c1.34,0 13.371,3.249 13.821,3.732c0.305,0.329 6.895,43.463 6.894,45.126c-0.001,0.709 -1.275,0.755 -20.715,0.755c-16.276,0 -20.717,-0.116 -20.729,-0.539Zm40.161,-1.295c0.031,-1.297 -6.229,-42.867 -6.503,-43.186c-0.168,-0.196 -3.145,-1.104 -6.617,-2.018l-6.312,-1.663l-6.292,1.657c-3.461,0.912 -6.407,1.772 -6.547,1.912c-0.267,0.267 -6.534,41.194 -6.563,42.866l-0.018,0.971l19.42,0c15.241,0 19.422,-0.116 19.432,-0.539l0,0Zm-11.796,-1.772c-0.133,-0.346 -0.796,-0.75 -1.475,-0.899c-1.726,-0.379 -4.003,-1.837 -4.003,-2.564c0,-0.482 0.336,-0.53 1.618,-0.232c0.89,0.207 2.152,0.38 2.805,0.386c1.171,0.01 1.187,-0.026 1.187,-2.731c0,-2.461 -0.133,-2.88 -1.305,-4.106l-1.305,-1.366l-2.823,0.654c-2.885,0.67 -3.78,0.523 -4.875,-0.796c-0.669,-0.806 -0.02,-0.988 3.874,-1.083c1.565,-0.038 3.895,-0.37 5.179,-0.739c3.948,-1.133 4.642,-1.185 5.787,-0.435c1.933,1.267 1.387,1.981 -1.511,1.981c-2.713,0 -3.065,0.205 -1.865,1.082c0.944,0.691 1.588,8.486 0.837,10.133c-0.562,1.233 -1.771,1.64 -2.125,0.715Zm-15.828,-0.485c-0.382,-0.46 -0.445,-1.605 -0.224,-4.1c0.169,-1.903 0.2,-3.461 0.07,-3.461c-0.129,0 -0.924,0.406 -1.764,0.902c-1.192,0.703 -1.912,0.838 -3.262,0.61c-0.953,-0.161 -1.732,-0.439 -1.732,-0.617c0,-0.179 0.816,-0.594 1.814,-0.924c2.165,-0.714 6.817,-4.106 6.817,-4.97c0,-0.754 0.016,-0.754 -1.876,0.037c-0.852,0.356 -2.283,0.645 -3.181,0.642l-1.632,-0.006l1.942,-1.102c2.706,-1.536 5.178,-4.034 5.178,-5.232c0,-1.398 1.427,-1.292 2.594,0.191l0.931,1.183l-1.645,1.382l-1.646,1.381l0.962,1.024c1.27,1.351 1.227,1.602 -0.534,3.126l-1.495,1.294l0.632,2.36c0.739,2.757 0.795,4.279 0.212,5.812c-0.471,1.238 -1.362,1.431 -2.161,0.468l0,0Zm8.516,-15.338c-1.343,-0.826 -0.816,-1.155 2.264,-1.413c1.661,-0.139 3.584,-0.587 4.275,-0.995c1.078,-0.637 1.444,-0.663 2.591,-0.189c0.734,0.305 1.335,0.724 1.335,0.933c0,0.208 0.048,0.524 0.108,0.702c0.059,0.178 -1.252,0.451 -2.913,0.605c-1.662,0.155 -3.895,0.403 -4.963,0.551c-1.129,0.157 -2.259,0.076 -2.697,-0.194Zm3.395,-6.83c-1.358,-0.927 -1.522,-1.173 -0.863,-1.298c1.666,-0.317 1.891,-0.917 1.891,-5.052c0,-2.212 -0.182,-4.134 -0.405,-4.272c-0.223,-0.138 -1.18,-0.127 -2.125,0.025c-1.221,0.195 -1.654,0.448 -1.491,0.872c0.126,0.328 0.573,0.597 0.994,0.597c0.934,0 1.91,1.09 1.528,1.708c-0.153,0.247 -0.752,0.45 -1.332,0.45c-0.785,0 -1.053,0.233 -1.053,0.913c0,0.729 0.192,0.864 0.949,0.666c0.94,-0.246 2.072,0.335 2.072,1.063c0,0.208 -0.373,0.379 -0.828,0.379c-1.473,0 -2.193,0.502 -2.193,1.528c0,1.471 -0.793,3.313 -1.294,3.004c-0.238,-0.147 -0.432,-1.033 -0.432,-1.968c0,-1.595 -0.079,-1.701 -1.269,-1.701c-0.698,0 -1.389,-0.194 -1.536,-0.432c-0.539,-0.871 -0.971,-0.387 -1.204,1.347c-0.296,2.207 -0.905,2.918 -1.937,2.259c-0.527,-0.336 -0.716,-0.961 -0.649,-2.148c0.051,-0.92 0.148,-3.469 0.215,-5.664c0.086,-2.797 0.281,-3.99 0.652,-3.991c0.939,-0.003 1.78,1.872 2.09,4.661c0.236,2.121 0.44,2.668 0.927,2.481c0.343,-0.131 1.093,-0.239 1.667,-0.239c0.745,0 1.044,-0.24 1.044,-0.836c0,-0.627 -0.35,-0.869 -1.403,-0.971c-1.803,-0.174 -1.896,-1.336 -0.132,-1.641c0.699,-0.121 1.233,-0.366 1.187,-0.544c-0.046,-0.178 -0.084,-0.491 -0.084,-0.695c0,-0.205 -0.466,-0.283 -1.036,-0.174c-0.7,0.134 -1.367,-0.132 -2.05,-0.815l-1.013,-1.013l3.452,-0.239c1.899,-0.132 4.171,-0.484 5.05,-0.782c1.895,-0.644 3.247,-0.128 3.552,1.357c0.381,1.857 0.723,10.908 0.439,11.647c-0.391,1.019 -1.39,0.876 -3.38,-0.482l0,0Zm-5.445,-12.983c0,-0.221 0.372,-0.52 0.827,-0.665c1.245,-0.395 3.057,-1.937 3.057,-2.602c0,-0.323 -0.391,-0.712 -0.87,-0.863c-1.015,-0.322 -0.731,-1.077 0.405,-1.077c1.016,0 3.054,1.611 3.054,2.414c0,0.882 -3.81,3.196 -5.263,3.196c-0.666,0 -1.21,-0.181 -1.21,-0.403Zm-4.521,-0.875c-0.11,-0.178 0.589,-0.959 1.554,-1.734c1.464,-1.177 1.724,-1.616 1.572,-2.652c-0.153,-1.047 -0.033,-1.241 0.769,-1.241c0.524,0 1.206,0.306 1.516,0.681c0.471,0.567 0.432,0.927 -0.234,2.164c-0.439,0.816 -1.053,1.694 -1.363,1.951c-0.755,0.628 -3.562,1.239 -3.814,0.831Z" style="fill:#8f8f8f;fill-rule:nonzero;"/><path id="path3004" d="M8.298,53.245c0.02,-1.299 6.713,-44.953 6.924,-45.164c0.33,-0.33 12.845,-3.709 13.737,-3.709c1.136,0 13.52,3.37 13.866,3.774c0.252,0.292 6.901,44.009 6.893,45.315c-0.003,0.424 -4.436,0.539 -20.718,0.539c-19.445,0 -20.713,-0.046 -20.702,-0.755Zm40.179,-0.309c0.154,-0.155 -6.067,-43.716 -6.301,-44.124c-0.03,-0.05 -2.988,-0.88 -6.575,-1.844l-6.521,-1.752l-5.974,1.566c-3.285,0.861 -6.262,1.724 -6.614,1.917c-0.481,0.264 -1.46,5.834 -3.905,22.195c-1.795,12.013 -3.173,21.933 -3.063,22.043c0.262,0.262 38.691,0.261 38.953,-0.001l0,0Zm-11.85,-2.563c-0.128,-0.334 -0.787,-0.729 -1.466,-0.878c-1.557,-0.342 -4.003,-1.812 -4.003,-2.405c0,-0.296 0.962,-0.352 2.805,-0.163l2.805,0.287l0,-2.8c0,-2.538 -0.125,-2.931 -1.326,-4.188c-1.283,-1.342 -1.393,-1.374 -3.346,-0.955c-1.11,0.238 -2.31,0.543 -2.665,0.677c-0.356,0.134 -1.326,-0.172 -2.157,-0.682c-1.368,-0.839 -1.429,-0.955 -0.648,-1.236c0.475,-0.17 1.105,-0.219 1.4,-0.108c0.853,0.319 7.976,-0.798 9.26,-1.453c1.527,-0.779 2.948,-0.752 4.133,0.078c1.849,1.295 1.218,1.917 -1.954,1.927c-2.839,0.009 -2.889,0.029 -1.965,0.755c0.836,0.657 0.984,1.311 1.243,5.514c0.257,4.164 0.201,4.861 -0.44,5.502c-0.893,0.893 -1.368,0.929 -1.676,0.128Zm-15.79,-0.429c-0.385,-0.464 -0.447,-1.616 -0.223,-4.174c0.177,-2.036 0.145,-3.455 -0.076,-3.347c-2.782,1.352 -3.668,1.59 -5.075,1.361c-2.02,-0.328 -1.984,-0.743 0.119,-1.373c2.082,-0.623 6.945,-4.142 6.945,-5.025c0,-0.804 -0.751,-0.805 -2.158,0c-0.593,0.339 -1.856,0.615 -2.805,0.612l-1.726,-0.003l1.726,-0.891c2.449,-1.263 5.394,-4.221 5.394,-5.418c0,-1.153 0.713,-1.263 2.062,-0.318c1.361,0.953 1.192,1.948 -0.569,3.353l-1.527,1.218l1.096,0.863c0.603,0.474 1.096,1.052 1.096,1.284c0,0.232 -0.706,1.069 -1.568,1.859c-0.871,0.798 -1.436,1.65 -1.271,1.917c0.578,0.935 1.068,5.47 0.752,6.957c-0.348,1.636 -1.344,2.147 -2.192,1.125Zm8.487,-15.398c-1.367,-0.796 -0.796,-1.141 2.252,-1.359c1.792,-0.129 3.465,-0.516 4.14,-0.958c1.25,-0.819 2.739,-0.646 3.831,0.445c1.04,1.04 0.471,1.403 -2.244,1.428c-1.362,0.012 -3.156,0.222 -3.985,0.466c-1.874,0.552 -3.02,0.546 -3.994,-0.022l0,0Zm3.395,-6.805c-1.358,-0.927 -1.522,-1.173 -0.863,-1.298c1.666,-0.317 1.891,-0.917 1.891,-5.052c0,-2.212 -0.182,-4.134 -0.405,-4.272c-0.223,-0.138 -1.18,-0.127 -2.125,0.025c-1.221,0.195 -1.654,0.448 -1.491,0.872c0.126,0.328 0.573,0.597 0.994,0.597c0.934,0 1.91,1.09 1.528,1.708c-0.153,0.247 -0.752,0.45 -1.332,0.45c-0.785,0 -1.053,0.233 -1.053,0.913c0,0.729 0.192,0.864 0.949,0.666c0.925,-0.242 2.072,0.332 2.072,1.036c0,0.193 -0.629,0.412 -1.398,0.486c-1.23,0.119 -1.427,0.318 -1.643,1.661c-0.479,2.978 -1.706,3.588 -1.706,0.848c0,-1.614 -0.081,-1.726 -1.242,-1.726c-0.683,0 -1.479,-0.286 -1.769,-0.635c-0.446,-0.538 -0.251,-0.68 1.264,-0.922c1.498,-0.24 1.77,-0.434 1.661,-1.185c-0.098,-0.677 -0.448,-0.902 -1.425,-0.912c-1.841,-0.02 -1.747,-1.265 0.108,-1.444c1.518,-0.146 1.517,-0.145 1.166,-1.06c-0.147,-0.382 -0.626,-0.545 -1.253,-0.425c-0.674,0.129 -1.355,-0.146 -2.028,-0.819l-1.013,-1.013l3.884,-0.263c2.136,-0.145 4.419,-0.517 5.075,-0.827c1.066,-0.504 1.296,-0.464 2.199,0.385c0.919,0.862 1.033,1.432 1.284,6.369c0.371,7.317 -0.059,8.069 -3.329,5.837l0,0Zm-11.062,-0.289c-0.437,-0.526 -0.438,-1.276 -0.006,-3.803c0.296,-1.731 0.469,-4.155 0.384,-5.386c-0.158,-2.282 -0.085,-2.467 0.751,-1.909c1.105,0.738 1.575,2.545 1.532,5.889c-0.064,4.956 -1.134,7.049 -2.661,5.209l0,0Zm5.934,-12.549c-0.178,-0.178 0.387,-0.727 1.257,-1.22c2.111,-1.197 2.786,-2.304 1.761,-2.887c-0.42,-0.239 -0.647,-0.625 -0.503,-0.858c0.553,-0.895 3.641,0.841 3.641,2.047c0,1.281 -5.287,3.787 -6.156,2.918Zm-3.147,-2.889c1.494,-1.431 1.876,-2.068 1.684,-2.805c-0.196,-0.748 -0.064,-0.953 0.611,-0.953c1.332,0 1.926,0.985 1.412,2.338c-0.698,1.834 -2.536,3.272 -4.184,3.272l-1.455,0l1.932,-1.852Z" style="fill:#6f6f6f;fill-rule:nonzero;"/><path id="path3002" d="M8.286,53.602c0,-0.546 6.417,-43.122 6.713,-44.536c0.222,-1.063 0.662,-1.248 7.119,-2.987l6.882,-1.854l6.912,1.862c5.877,1.583 6.944,1.998 7.122,2.771c0.257,1.112 6.68,44.104 6.68,44.71c0,0.282 -7.172,0.432 -20.714,0.432c-12.376,0 -20.714,-0.16 -20.714,-0.398Zm40.263,-0.789c0.169,-0.305 -6.155,-43.743 -6.414,-44.056c-0.067,-0.08 -3.046,-0.915 -6.621,-1.855l-6.5,-1.708l-6.527,1.722c-3.59,0.947 -6.57,1.782 -6.621,1.855c-0.247,0.352 -6.567,43.761 -6.413,44.042c0.098,0.178 8.894,0.324 19.547,0.324c10.653,0 19.45,-0.146 19.549,-0.324Zm-11.784,-2.485c-0.274,-0.329 -1.21,-0.825 -2.082,-1.101c-1.922,-0.609 -3.525,-1.576 -3.525,-2.125c0,-0.239 1.157,-0.298 2.805,-0.144l2.805,0.262l0,-2.79c0,-2.488 -0.14,-2.946 -1.292,-4.236l-1.292,-1.448l-2.193,0.507c-3.045,0.702 -4.032,0.638 -5.209,-0.343l-1.019,-0.848l2.075,-0.015c2.975,-0.02 8.085,-0.871 9.448,-1.572c1.524,-0.784 2.946,-0.76 4.133,0.072c1.883,1.319 1.221,1.917 -2.12,1.917l-3.079,0l1.09,0.858c0.988,0.777 1.119,1.258 1.396,5.133c0.168,2.352 0.182,4.667 0.031,5.145c-0.358,1.126 -1.341,1.489 -1.972,0.728l0,0Zm-15.661,-0.258c-0.688,-0.4 -0.742,-0.857 -0.48,-4.086c0.173,-2.126 0.131,-3.636 -0.1,-3.636c-0.217,0 -0.825,0.302 -1.351,0.67c-0.645,0.452 -1.694,0.628 -3.225,0.54l-2.268,-0.131l2.805,-1.384c3.44,-1.698 6.042,-3.8 6.042,-4.884c0,-0.789 -0.048,-0.789 -1.834,0.022c-1.009,0.458 -2.514,0.829 -3.345,0.823l-1.51,-0.009l1.726,-0.904c3.227,-1.69 6.073,-4.653 5.623,-5.855c-0.278,-0.745 0.679,-0.676 1.833,0.132c1.149,0.805 1.248,2.151 0.204,2.758c-0.415,0.242 -1.106,0.715 -1.534,1.051c-0.74,0.582 -0.725,0.666 0.319,1.71c1.303,1.303 1.157,1.887 -0.806,3.227c-1.461,0.998 -1.466,1.01 -0.838,2.512c0.706,1.69 0.666,7.551 -0.054,7.765c-0.237,0.071 -0.78,-0.074 -1.207,-0.321Zm8.22,-15.5c-1.375,-0.844 -0.787,-1.284 1.726,-1.294c1.533,-0.006 3.201,-0.336 4.363,-0.863c1.605,-0.728 2.05,-0.774 3.016,-0.311c0.623,0.299 1.202,0.901 1.286,1.338c0.129,0.668 -0.042,0.752 -1.073,0.527c-0.675,-0.147 -2.198,-0.064 -3.385,0.183c-3.818,0.798 -5.162,0.893 -5.933,0.42Zm3.574,-6.806l-1.928,-1.12l1.403,-0.363l1.404,-0.364l-0.123,-4.407l-0.123,-4.407l-1.885,0.087c-2.161,0.099 -2.329,0.192 -1.981,1.098c0.149,0.389 0.583,0.575 1.052,0.453c0.507,-0.133 0.969,0.11 1.267,0.666c0.413,0.772 0.328,0.891 -0.719,1.012c-0.837,0.096 -1.226,0.414 -1.32,1.078c-0.111,0.78 0.106,0.965 1.261,1.079c1.998,0.196 2.168,1.216 0.203,1.216c-1.35,0 -1.546,0.133 -1.546,1.051c0,1.4 -0.733,3.264 -1.284,3.264c-0.243,0 -0.442,-0.84 -0.442,-1.867c0,-1.801 -0.043,-1.861 -1.211,-1.689c-0.734,0.107 -1.422,-0.076 -1.745,-0.466c-0.454,-0.546 -0.272,-0.687 1.211,-0.937c1.49,-0.252 1.745,-0.451 1.745,-1.365c0,-0.882 -0.155,-1.021 -0.884,-0.79c-1.11,0.353 -2.466,-0.61 -1.618,-1.148c0.308,-0.196 1.011,-0.358 1.563,-0.362c0.725,-0.005 0.959,-0.216 0.846,-0.762c-0.089,-0.43 -0.503,-0.724 -0.963,-0.684c-1.192,0.106 -2.828,-0.616 -2.828,-1.247c0,-0.385 0.897,-0.578 2.967,-0.641c1.633,-0.049 3.778,-0.413 4.769,-0.81c1.751,-0.701 1.828,-0.695 2.796,0.215c0.909,0.854 1.016,1.412 1.232,6.418c0.218,5.029 -0.042,7.073 -0.883,6.955c-0.169,-0.024 -1.176,-0.547 -2.236,-1.163Zm-11.223,-0.291c-0.413,-0.497 -0.414,-1.263 -0.005,-3.56c0.287,-1.609 0.451,-4.043 0.365,-5.408c-0.158,-2.523 -0.091,-2.713 0.751,-2.151c1.033,0.69 1.467,2.353 1.467,5.619c0,5.067 -1.06,7.329 -2.578,5.5l0,0Zm6.036,-12.636c0.003,-0.178 0.691,-0.768 1.53,-1.312c1.899,-1.23 2.266,-2.107 1.216,-2.902c-0.756,-0.572 -0.721,-0.614 0.526,-0.627c1.562,-0.016 2.918,1.239 2.505,2.317c-0.486,1.267 -5.795,3.586 -5.777,2.524Zm-3.267,-2.823c1.494,-1.431 1.876,-2.068 1.684,-2.805c-0.198,-0.756 -0.065,-0.953 0.642,-0.953c0.491,0 1.079,0.334 1.308,0.742c0.894,1.598 -2.01,4.868 -4.322,4.868l-1.244,0l1.932,-1.852Z" style="fill:#4f4f4f;fill-rule:nonzero;"/><path id="path3000" d="M8.469,52.382c0.143,-0.89 1.706,-11.207 3.473,-22.927c1.768,-11.72 3.271,-21.359 3.339,-21.42c0.069,-0.061 3.185,-0.929 6.924,-1.929l6.798,-1.817l6.883,1.831c6.447,1.715 6.897,1.902 7.116,2.955c0.229,1.104 6.712,44.286 6.712,44.709c0,0.119 -9.338,0.216 -20.752,0.216l-20.752,0l0.259,-1.618Zm40.217,-0.432c-0.128,-0.653 -1.621,-10.605 -3.317,-22.117c-1.696,-11.511 -3.275,-21.049 -3.509,-21.195c-0.233,-0.146 -3.23,-0.995 -6.66,-1.885l-6.235,-1.619l-6.267,1.661c-3.447,0.913 -6.42,1.761 -6.606,1.884c-0.187,0.124 -1.734,9.643 -3.439,21.154c-1.704,11.512 -3.206,21.464 -3.336,22.117l-0.237,1.187l39.84,0l-0.234,-1.187Zm-11.891,-1.585c-0.29,-0.35 -1.24,-0.862 -2.112,-1.138c-1.922,-0.609 -3.525,-1.576 -3.525,-2.125c0,-0.239 1.157,-0.298 2.805,-0.144l2.805,0.262l0,-2.977c0,-2.753 -0.098,-3.069 -1.306,-4.209l-1.305,-1.232l-2.828,0.534c-2.287,0.431 -3.027,0.426 -3.873,-0.026c-0.575,-0.308 -1.045,-0.692 -1.045,-0.854c0,-0.162 1.734,-0.417 3.854,-0.568c2.12,-0.15 5.148,-0.698 6.731,-1.217c2.684,-0.882 2.953,-0.899 4.021,-0.253c0.63,0.381 1.208,0.997 1.285,1.37c0.116,0.565 -0.38,0.677 -3.021,0.679l-3.161,0.002l1.152,0.969c1.07,0.9 1.171,1.288 1.437,5.509c0.262,4.151 0.214,4.606 -0.55,5.297c-0.731,0.662 -0.902,0.677 -1.364,0.121l0,0Zm-15.744,-0.492c-0.509,-0.508 -0.586,-1.39 -0.378,-4.331l0.261,-3.693l-1.469,0.895c-1.416,0.863 -5.146,1.281 -5.13,0.575c0.004,-0.178 1.058,-0.778 2.342,-1.334c2.845,-1.231 5.85,-3.722 5.85,-4.849c0,-1.012 0.113,-1.014 -1.942,0.034c-0.931,0.474 -2.38,0.863 -3.22,0.862l-1.527,0l1.726,-0.854c2.653,-1.314 4.859,-3.328 5.457,-4.983c0.627,-1.732 0.912,-1.819 2.095,-0.635c1.231,1.231 1.076,1.956 -0.647,3.02c-1.748,1.08 -1.824,1.323 -0.648,2.058c1.272,0.794 1.054,2.069 -0.578,3.371c-1.407,1.123 -1.428,1.187 -0.882,2.716c0.804,2.25 0.779,7.229 -0.037,7.542c-0.35,0.134 -0.922,-0.043 -1.273,-0.394Zm8.381,-15.492c-1.327,-0.739 -0.851,-0.943 2.885,-1.233c1.469,-0.114 3.075,-0.49 3.569,-0.836c1.006,-0.705 2.763,-0.526 3.495,0.355c0.674,0.812 0.182,1.401 -0.985,1.179c-0.539,-0.102 -2.437,0.118 -4.217,0.489c-3.819,0.798 -3.404,0.794 -4.747,0.046Zm4.958,-5.849c-0.149,-0.241 -0.985,-0.756 -1.859,-1.145l-1.589,-0.706l1.295,-0.261l1.294,-0.261l0.123,-4.428c0.138,-4.954 0.012,-5.168 -2.742,-4.651c-1.129,0.212 -1.497,0.481 -1.394,1.018c0.081,0.419 0.573,0.753 1.153,0.782c0.557,0.028 1.181,0.32 1.386,0.648c0.28,0.449 0.056,0.629 -0.911,0.731c-1.035,0.109 -1.283,0.338 -1.283,1.187c0,0.872 0.213,1.051 1.249,1.051c0.711,0 1.355,0.279 1.496,0.648c0.191,0.497 -0.093,0.647 -1.228,0.647c-1.372,0 -1.497,0.116 -1.747,1.618c-0.442,2.659 -0.607,3.003 -1.081,2.254c-0.221,-0.35 -0.405,-1.233 -0.408,-1.963c-0.006,-1.209 -0.116,-1.312 -1.218,-1.15c-0.724,0.106 -1.421,-0.075 -1.733,-0.451c-0.437,-0.526 -0.242,-0.672 1.211,-0.904c1.507,-0.241 1.733,-0.424 1.733,-1.398c0,-0.965 -0.143,-1.085 -1.03,-0.862c-0.639,0.16 -1.223,0.024 -1.542,-0.359c-0.424,-0.512 -0.243,-0.669 1.051,-0.911c1.876,-0.352 1.998,-1.673 0.162,-1.743c-1.585,-0.06 -2.525,-0.481 -2.523,-1.13c0.001,-0.387 0.878,-0.578 2.913,-0.637c1.601,-0.046 3.769,-0.388 4.818,-0.762c1.838,-0.653 1.943,-0.644 2.904,0.259c0.79,0.742 0.983,1.35 0.927,2.92c-0.039,1.09 -0.013,3.663 0.059,5.718c0.071,2.055 -0.002,3.948 -0.162,4.208c-0.366,0.591 -0.97,0.606 -1.324,0.033l0,0Zm-12.727,-1.29c-0.34,-0.635 -0.288,-1.791 0.199,-4.356c0.364,-1.92 0.551,-4.298 0.416,-5.284l-0.246,-1.794l1.11,1.211c1.007,1.097 1.111,1.546 1.111,4.791c0,5.27 -1.261,7.916 -2.59,5.432Zm6.059,-12.405c0.009,-0.178 0.624,-0.712 1.365,-1.186c2.008,-1.285 2.481,-2.28 1.449,-3.047c-0.791,-0.587 -0.763,-0.622 0.515,-0.622c0.903,0 1.573,0.315 2.015,0.947c0.602,0.859 0.595,1.023 -0.083,1.772c-1.384,1.53 -5.312,3.125 -5.261,2.136Zm-3.217,-2.777c1.584,-1.46 1.91,-2.003 1.7,-2.837c-0.222,-0.885 -0.119,-1.011 0.729,-0.891c0.715,0.101 1.025,0.47 1.125,1.34c0.192,1.674 -2.322,4.194 -4.185,4.194l-1.328,0l1.959,-1.806Z" style="fill:#2f2f2f;fill-rule:nonzero;"/><path id="path2998" d="M8.524,52.382c0.12,-0.653 1.678,-10.89 3.463,-22.749c1.785,-11.86 3.285,-21.585 3.333,-21.613c0.047,-0.027 3.157,-0.867 6.91,-1.865l6.823,-1.814l6.771,1.815c3.723,0.998 6.822,1.85 6.885,1.893c0.063,0.043 1.563,9.768 3.333,21.612c1.77,11.844 3.316,22.068 3.435,22.721l0.216,1.186l-20.693,0l-20.693,0l0.217,-1.186Zm40.327,0.527c0,-1.288 -6.582,-44.062 -6.811,-44.266c-0.17,-0.151 -3.174,-1.011 -6.675,-1.91l-6.365,-1.634l-6.365,1.634c-3.501,0.899 -6.495,1.755 -6.654,1.903c-0.159,0.147 -1.672,9.589 -3.364,20.982c-1.691,11.392 -3.185,21.345 -3.32,22.116l-0.244,1.403l19.899,0c10.944,0 19.899,-0.102 19.899,-0.228Zm-12.321,-2.736c-0.463,-0.431 -1.746,-1.116 -2.853,-1.521c-3.143,-1.15 -2.975,-1.843 0.436,-1.805l2.871,0.032l-0.035,-2.648c-0.028,-2.117 -0.245,-2.914 -1.079,-3.968c-1.181,-1.492 -1.703,-1.577 -5.234,-0.848c-2.338,0.483 -2.577,0.458 -3.399,-0.364l-0.884,-0.884l4.079,-0.268c2.244,-0.148 4.927,-0.582 5.963,-0.966c3.13,-1.159 3.562,-1.174 4.842,-0.166c1.58,1.243 0.926,1.681 -2.527,1.693l-2.589,0.009l1.145,0.968c1.065,0.901 1.166,1.292 1.426,5.521c0.252,4.095 0.199,4.624 -0.521,5.276c-0.751,0.679 -0.853,0.675 -1.641,-0.061l0,0Zm-15.58,-0.512c-0.316,-0.316 -0.402,-1.737 -0.252,-4.144l0.228,-3.664l-1.465,0.893c-0.873,0.533 -2.207,0.894 -3.299,0.895c-2.069,0.002 -2.444,-0.615 -0.648,-1.064c2.567,-0.64 7.013,-4.097 7.013,-5.452c0,-0.923 0.86,-1.08 1.64,-0.301c0.895,0.896 0.569,1.989 -0.939,3.139l-1.456,1.111l0.612,1.777c0.808,2.345 0.615,6.992 -0.298,7.165c-0.361,0.069 -0.872,-0.091 -1.136,-0.355Zm-3.327,-12.458c2.458,-1.116 5.222,-3.711 5.551,-5.213c0.251,-1.14 0.365,-1.207 1.316,-0.774c0.889,0.405 1.872,1.945 1.421,2.227c-0.081,0.05 -1.216,0.883 -2.521,1.85c-2.519,1.865 -4.593,2.746 -6.43,2.73c-0.98,-0.008 -0.895,-0.112 0.663,-0.82Zm12.123,-2.662c-1.211,-0.706 -0.439,-1.255 1.761,-1.253c1.113,0.001 2.938,-0.325 4.054,-0.726c1.628,-0.583 2.249,-0.628 3.129,-0.227c1.593,0.726 1.347,1.381 -0.52,1.39c-0.89,0.004 -2.977,0.295 -4.639,0.647c-1.661,0.352 -3.02,0.634 -3.02,0.627c-0.001,-0.007 -0.345,-0.213 -0.765,-0.458Zm3.414,-6.798c-1.597,-1.09 -1.623,-1.146 -0.647,-1.375c0.982,-0.231 1.023,-0.406 1.141,-4.86l0.122,-4.621l-1.417,0.006c-0.779,0.003 -1.849,0.122 -2.378,0.263c-0.803,0.216 -0.886,0.397 -0.506,1.107c0.25,0.467 0.712,0.75 1.028,0.629c0.315,-0.121 0.913,0.155 1.328,0.613c0.731,0.808 0.712,0.834 -0.606,0.834c-1.216,0 -1.362,0.135 -1.362,1.255c0,1.043 0.146,1.216 0.865,1.028c0.476,-0.125 1.188,0.039 1.582,0.364c0.637,0.524 0.529,0.614 -0.973,0.806c-1.618,0.206 -1.695,0.288 -1.826,1.942c-0.197,2.486 -0.787,2.754 -1.124,0.51c-0.274,-1.824 -0.361,-1.925 -1.626,-1.866c-0.735,0.033 -1.423,-0.182 -1.527,-0.478c-0.111,-0.315 0.169,-0.54 0.674,-0.54c1.534,0 2.229,-0.5 2.229,-1.603c0,-0.922 -0.15,-1.042 -1.03,-0.821c-0.639,0.16 -1.223,0.024 -1.542,-0.359c-0.424,-0.511 -0.246,-0.668 1.03,-0.907c1.122,-0.211 1.542,-0.512 1.542,-1.105c0,-0.613 -0.313,-0.815 -1.259,-0.815c-1.616,0 -2.626,-0.392 -2.621,-1.017c0.003,-0.317 1.144,-0.524 3.199,-0.58c1.758,-0.047 3.905,-0.383 4.772,-0.745c1.504,-0.628 1.622,-0.614 2.519,0.302c0.877,0.895 0.942,1.376 0.942,6.965c0,3.647 -0.169,6.042 -0.432,6.104c-0.237,0.055 -1.181,-0.411 -2.097,-1.036l0,0Zm-11.47,-0.449c-0.305,-0.57 -0.237,-1.83 0.227,-4.208c0.363,-1.867 0.547,-4.14 0.408,-5.052c-0.188,-1.235 -0.112,-1.612 0.298,-1.476c1.023,0.337 1.617,2.256 1.624,5.242c0.01,4.909 -1.329,7.787 -2.557,5.494Zm6.283,-12.481c-0.118,-0.191 0.466,-0.714 1.299,-1.163c2.124,-1.143 2.577,-2.142 1.36,-2.995l-0.961,-0.673l0.988,0c1.429,0 2.656,0.774 2.656,1.675c0,0.991 -1.104,1.994 -3.13,2.84c-1.838,0.768 -1.925,0.781 -2.212,0.316Zm-3.303,-2.709c1.478,-1.434 1.766,-1.962 1.546,-2.837c-0.234,-0.934 -0.14,-1.057 0.718,-0.935c0.715,0.101 1.025,0.47 1.125,1.34c0.182,1.588 -2.322,4.194 -4.031,4.194c-1.173,0 -1.172,-0.001 0.642,-1.762Z" style="fill:#030303;fill-rule:nonzero;"/></g></g></svg>