<?xml version="1.0" encoding="UTF-8" standalone="no"?><!DOCTYPE svg PUBLIC "-//W3C//DTD SVG 1.1//EN" "http://www.w3.org/Graphics/SVG/1.1/DTD/svg11.dtd"><svg width="100%" height="100%" viewBox="0 0 39 39" version="1.1" xmlns="http://www.w3.org/2000/svg" xmlns:xlink="http://www.w3.org/1999/xlink" xml:space="preserve" xmlns:serif="http://www.serif.com/" style="fill-rule:evenodd;clip-rule:evenodd;stroke-miterlimit:2;"><g id="g3801"><g id="path3031"><path d="M6.5,35.249l4.358,-28.774l8.518,-2.724l8.766,2.575l4.358,28.675l-26,0.248Z" style="fill:none;fill-rule:nonzero;stroke:#000;stroke-width:1.6px;"/><path d="M6.5,35.249l4.358,-28.774l8.518,-2.724l8.766,2.575l4.358,28.675l-26,0.248Z" style="fill:#fff;fill-rule:nonzero;"/></g><g id="g3022"><g id="path3004"><path d="M24.426,33.175c-0.082,-0.214 -0.505,-0.468 -0.942,-0.564c-1,-0.22 -2.572,-1.164 -2.572,-1.545c0,-0.191 0.618,-0.227 1.802,-0.105l1.803,0.184l0,-1.799c0,-1.631 -0.08,-1.884 -0.852,-2.692c-0.825,-0.862 -0.895,-0.883 -2.151,-0.613c-0.713,0.153 -1.484,0.349 -1.712,0.435c-0.229,0.086 -0.852,-0.111 -1.386,-0.439c-0.88,-0.539 -0.919,-0.613 -0.417,-0.794c0.305,-0.109 0.71,-0.141 0.9,-0.069c0.548,0.205 5.126,-0.513 5.951,-0.934c0.981,-0.501 1.894,-0.483 2.656,0.05c1.188,0.832 0.783,1.232 -1.256,1.238c-1.824,0.006 -1.856,0.019 -1.263,0.486c0.538,0.422 0.633,0.842 0.799,3.543c0.165,2.676 0.129,3.124 -0.283,3.536c-0.574,0.574 -0.879,0.597 -1.077,0.082Zm-10.147,-0.275c-0.248,-0.298 -0.288,-1.039 -0.144,-2.683c0.114,-1.308 0.094,-2.22 -0.048,-2.151c-1.788,0.869 -2.358,1.022 -3.262,0.875c-1.298,-0.211 -1.275,-0.478 0.077,-0.882c1.338,-0.401 4.463,-2.662 4.463,-3.23c0,-0.516 -0.483,-0.517 -1.387,0c-0.381,0.218 -1.193,0.395 -1.803,0.394l-1.109,-0.002l1.109,-0.573c1.574,-0.812 3.467,-2.713 3.467,-3.482c0,-0.741 0.458,-0.812 1.325,-0.204c0.875,0.612 0.766,1.252 -0.366,2.155l-0.981,0.782l0.704,0.555c0.388,0.305 0.705,0.676 0.705,0.825c0,0.149 -0.454,0.687 -1.008,1.195c-0.56,0.513 -0.923,1.06 -0.817,1.232c0.372,0.601 0.687,3.515 0.483,4.471c-0.223,1.051 -0.863,1.38 -1.408,0.723Zm5.454,-9.896c-0.879,-0.511 -0.512,-0.733 1.447,-0.873c1.152,-0.083 2.227,-0.332 2.661,-0.616c0.803,-0.526 1.76,-0.415 2.462,0.286c0.668,0.668 0.303,0.902 -1.442,0.918c-0.876,0.007 -2.028,0.142 -2.561,0.299c-1.205,0.355 -1.941,0.351 -2.567,-0.014Zm2.182,-4.373c-0.873,-0.596 -0.978,-0.754 -0.555,-0.834c1.071,-0.204 1.215,-0.59 1.215,-3.247c0,-1.422 -0.117,-2.657 -0.26,-2.746c-0.143,-0.088 -0.758,-0.081 -1.365,0.017c-0.785,0.125 -1.063,0.287 -0.959,0.56c0.081,0.211 0.369,0.384 0.639,0.384c0.6,0 1.228,0.7 0.982,1.097c-0.098,0.159 -0.483,0.289 -0.856,0.289c-0.504,0 -0.677,0.15 -0.677,0.587c0,0.469 0.124,0.555 0.61,0.428c0.595,-0.155 1.332,0.214 1.332,0.666c0,0.124 -0.404,0.265 -0.899,0.312c-0.79,0.077 -0.917,0.205 -1.055,1.068c-0.308,1.914 -1.097,2.306 -1.097,0.545c0,-1.037 -0.052,-1.109 -0.798,-1.109c-0.439,0 -0.951,-0.184 -1.137,-0.409c-0.287,-0.345 -0.161,-0.437 0.812,-0.592c0.963,-0.154 1.138,-0.279 1.068,-0.762c-0.063,-0.435 -0.288,-0.579 -0.916,-0.586c-1.183,-0.013 -1.123,-0.813 0.069,-0.928c0.976,-0.094 0.975,-0.093 0.75,-0.681c-0.095,-0.245 -0.402,-0.35 -0.805,-0.273c-0.434,0.083 -0.871,-0.094 -1.304,-0.526l-0.651,-0.651l2.496,-0.169c1.373,-0.094 2.84,-0.333 3.262,-0.532c0.685,-0.324 0.833,-0.298 1.413,0.248c0.591,0.553 0.664,0.92 0.825,4.093c0.239,4.702 -0.038,5.185 -2.139,3.751Zm-7.109,-0.186c-0.281,-0.338 -0.282,-0.82 -0.004,-2.444c0.19,-1.112 0.301,-2.67 0.247,-3.461c-0.102,-1.467 -0.055,-1.586 0.482,-1.227c0.71,0.474 1.012,1.635 0.985,3.784c-0.041,3.185 -0.729,4.531 -1.71,3.348Zm3.813,-8.065c-0.114,-0.114 0.249,-0.467 0.808,-0.784c1.357,-0.769 1.791,-1.48 1.132,-1.855c-0.27,-0.154 -0.416,-0.402 -0.323,-0.551c0.355,-0.576 2.339,0.54 2.339,1.315c0,0.823 -3.397,2.434 -3.956,1.875Zm-2.022,-1.856c0.96,-0.92 1.205,-1.329 1.082,-1.803c-0.126,-0.481 -0.041,-0.612 0.393,-0.612c0.856,0 1.237,0.633 0.907,1.502c-0.448,1.179 -1.63,2.103 -2.689,2.103l-0.935,0l1.242,-1.19Z" style="fill:none;fill-rule:nonzero;stroke:#000;stroke-width:0.1px;"/><path d="M24.426,33.175c-0.082,-0.214 -0.505,-0.468 -0.942,-0.564c-1,-0.22 -2.572,-1.164 -2.572,-1.545c0,-0.191 0.618,-0.227 1.802,-0.105l1.803,0.184l0,-1.799c0,-1.631 -0.08,-1.884 -0.852,-2.692c-0.825,-0.862 -0.895,-0.883 -2.151,-0.613c-0.713,0.153 -1.484,0.349 -1.712,0.435c-0.229,0.086 -0.852,-0.111 -1.386,-0.439c-0.88,-0.539 -0.919,-0.613 -0.417,-0.794c0.305,-0.109 0.71,-0.141 0.9,-0.069c0.548,0.205 5.126,-0.513 5.951,-0.934c0.981,-0.501 1.894,-0.483 2.656,0.05c1.188,0.832 0.783,1.232 -1.256,1.238c-1.824,0.006 -1.856,0.019 -1.263,0.486c0.538,0.422 0.633,0.842 0.799,3.543c0.165,2.676 0.129,3.124 -0.283,3.536c-0.574,0.574 -0.879,0.597 -1.077,0.082Zm-10.147,-0.275c-0.248,-0.298 -0.288,-1.039 -0.144,-2.683c0.114,-1.308 0.094,-2.22 -0.048,-2.151c-1.788,0.869 -2.358,1.022 -3.262,0.875c-1.298,-0.211 -1.275,-0.478 0.077,-0.882c1.338,-0.401 4.463,-2.662 4.463,-3.23c0,-0.516 -0.483,-0.517 -1.387,0c-0.381,0.218 -1.193,0.395 -1.803,0.394l-1.109,-0.002l1.109,-0.573c1.574,-0.812 3.467,-2.713 3.467,-3.482c0,-0.741 0.458,-0.812 1.325,-0.204c0.875,0.612 0.766,1.252 -0.366,2.155l-0.981,0.782l0.704,0.555c0.388,0.305 0.705,0.676 0.705,0.825c0,0.149 -0.454,0.687 -1.008,1.195c-0.56,0.513 -0.923,1.06 -0.817,1.232c0.372,0.601 0.687,3.515 0.483,4.471c-0.223,1.051 -0.863,1.38 -1.408,0.723Zm5.454,-9.896c-0.879,-0.511 -0.512,-0.733 1.447,-0.873c1.152,-0.083 2.227,-0.332 2.661,-0.616c0.803,-0.526 1.76,-0.415 2.462,0.286c0.668,0.668 0.303,0.902 -1.442,0.918c-0.876,0.007 -2.028,0.142 -2.561,0.299c-1.205,0.355 -1.941,0.351 -2.567,-0.014Zm2.182,-4.373c-0.873,-0.596 -0.978,-0.754 -0.555,-0.834c1.071,-0.204 1.215,-0.59 1.215,-3.247c0,-1.422 -0.117,-2.657 -0.26,-2.746c-0.143,-0.088 -0.758,-0.081 -1.365,0.017c-0.785,0.125 -1.063,0.287 -0.959,0.56c0.081,0.211 0.369,0.384 0.639,0.384c0.6,0 1.228,0.7 0.982,1.097c-0.098,0.159 -0.483,0.289 -0.856,0.289c-0.504,0 -0.677,0.15 -0.677,0.587c0,0.469 0.124,0.555 0.61,0.428c0.595,-0.155 1.332,0.214 1.332,0.666c0,0.124 -0.404,0.265 -0.899,0.312c-0.79,0.077 -0.917,0.205 -1.055,1.068c-0.308,1.914 -1.097,2.306 -1.097,0.545c0,-1.037 -0.052,-1.109 -0.798,-1.109c-0.439,0 -0.951,-0.184 -1.137,-0.409c-0.287,-0.345 -0.161,-0.437 0.812,-0.592c0.963,-0.154 1.138,-0.279 1.068,-0.762c-0.063,-0.435 -0.288,-0.579 -0.916,-0.586c-1.183,-0.013 -1.123,-0.813 0.069,-0.928c0.976,-0.094 0.975,-0.093 0.75,-0.681c-0.095,-0.245 -0.402,-0.35 -0.805,-0.273c-0.434,0.083 -0.871,-0.094 -1.304,-0.526l-0.651,-0.651l2.496,-0.169c1.373,-0.094 2.84,-0.333 3.262,-0.532c0.685,-0.324 0.833,-0.298 1.413,0.248c0.591,0.553 0.664,0.92 0.825,4.093c0.239,4.702 -0.038,5.185 -2.139,3.751Zm-7.109,-0.186c-0.281,-0.338 -0.282,-0.82 -0.004,-2.444c0.19,-1.112 0.301,-2.67 0.247,-3.461c-0.102,-1.467 -0.055,-1.586 0.482,-1.227c0.71,0.474 1.012,1.635 0.985,3.784c-0.041,3.185 -0.729,4.531 -1.71,3.348Zm3.813,-8.065c-0.114,-0.114 0.249,-0.467 0.808,-0.784c1.357,-0.769 1.791,-1.48 1.132,-1.855c-0.27,-0.154 -0.416,-0.402 -0.323,-0.551c0.355,-0.576 2.339,0.54 2.339,1.315c0,0.823 -3.397,2.434 -3.956,1.875Zm-2.022,-1.856c0.96,-0.92 1.205,-1.329 1.082,-1.803c-0.126,-0.481 -0.041,-0.612 0.393,-0.612c0.856,0 1.237,0.633 0.907,1.502c-0.448,1.179 -1.63,2.103 -2.689,2.103l-0.935,0l1.242,-1.19Z" style="fill-rule:nonzero;"/></g></g></g></svg>