<?xml version="1.0" encoding="UTF-8" standalone="no"?>
<!DOCTYPE svg PUBLIC "-//W3C//DTD SVG 1.1//EN" "http://www.w3.org/Graphics/SVG/1.1/DTD/svg11.dtd">
<svg width="100%" height="100%" viewBox="0 0 555 555" version="1.1" xmlns="http://www.w3.org/2000/svg" xmlns:xlink="http://www.w3.org/1999/xlink" xml:space="preserve" xmlns:serif="http://www.serif.com/" style="fill-rule:evenodd;clip-rule:evenodd;stroke-linejoin:round;stroke-miterlimit:1.41421;">
    <g>
        <g transform="matrix(0.0803347,0,0,2.7989,1.88326,-445.655)">
            <rect x="175.724" y="164.942" width="12.448" height="186.859"/>
        </g>
        <g transform="matrix(0.0803347,0,0,2.7989,59.8833,-445.655)">
            <rect x="175.724" y="164.942" width="12.448" height="186.859"/>
        </g>
        <g transform="matrix(0.0803347,0,0,2.7989,117.883,-445.655)">
            <rect x="175.724" y="164.942" width="12.448" height="186.859"/>
        </g>
        <g transform="matrix(0.0803347,0,0,2.7989,175.883,-445.655)">
            <rect x="175.724" y="164.942" width="12.448" height="186.859"/>
        </g>
        <g transform="matrix(0.0803347,0,0,2.7989,233.883,-445.655)">
            <rect x="175.724" y="164.942" width="12.448" height="186.859"/>
        </g>
        <g transform="matrix(0.0803347,0,0,2.7989,291.883,-445.655)">
            <rect x="175.724" y="164.942" width="12.448" height="186.859"/>
        </g>
        <g transform="matrix(0.0803347,0,0,2.7989,349.883,-445.655)">
            <rect x="175.724" y="164.942" width="12.448" height="186.859"/>
        </g>
        <g transform="matrix(0.0803347,0,0,2.7989,407.883,-445.655)">
            <rect x="175.724" y="164.942" width="12.448" height="186.859"/>
        </g>
        <g transform="matrix(0.0803347,0,0,2.7989,465.883,-445.655)">
            <rect x="175.724" y="164.942" width="12.448" height="186.859"/>
        </g>
        <g transform="matrix(0.0803347,0,0,2.7989,523.883,-445.655)">
            <rect x="175.724" y="164.942" width="12.448" height="186.859"/>
        </g>
    </g>
    <g transform="matrix(6.12323e-17,1,-1,6.12323e-17,555,-5.68434e-14)">
        <g transform="matrix(0.0803347,0,0,2.7989,1.88326,-445.655)">
            <rect x="175.724" y="164.942" width="12.448" height="186.859"/>
        </g>
        <g transform="matrix(0.0803347,0,0,2.7989,59.8833,-445.655)">
            <rect x="175.724" y="164.942" width="12.448" height="186.859"/>
        </g>
        <g transform="matrix(0.0803347,0,0,2.7989,117.883,-445.655)">
            <rect x="175.724" y="164.942" width="12.448" height="186.859"/>
        </g>
        <g transform="matrix(0.0803347,0,0,2.7989,175.883,-445.655)">
            <rect x="175.724" y="164.942" width="12.448" height="186.859"/>
        </g>
        <g transform="matrix(0.0803347,0,0,2.7989,233.883,-445.655)">
            <rect x="175.724" y="164.942" width="12.448" height="186.859"/>
        </g>
        <g transform="matrix(0.0803347,0,0,2.7989,291.883,-445.655)">
            <rect x="175.724" y="164.942" width="12.448" height="186.859"/>
        </g>
        <g transform="matrix(0.0803347,0,0,2.7989,349.883,-445.655)">
            <rect x="175.724" y="164.942" width="12.448" height="186.859"/>
        </g>
        <g transform="matrix(0.0803347,0,0,2.7989,407.883,-445.655)">
            <rect x="175.724" y="164.942" width="12.448" height="186.859"/>
        </g>
        <g transform="matrix(0.0803347,0,0,2.7989,465.883,-445.655)">
            <rect x="175.724" y="164.942" width="12.448" height="186.859"/>
        </g>
        <g transform="matrix(0.0803347,0,0,2.7989,523.883,-445.655)">
            <rect x="175.724" y="164.942" width="12.448" height="186.859"/>
        </g>
    </g>
</svg>
