<?xml version="1.0" encoding="UTF-8" standalone="no"?><!DOCTYPE svg PUBLIC "-//W3C//DTD SVG 1.1//EN" "http://www.w3.org/Graphics/SVG/1.1/DTD/svg11.dtd"><svg width="100%" height="100%" viewBox="0 0 39 39" version="1.1" xmlns="http://www.w3.org/2000/svg" xmlns:xlink="http://www.w3.org/1999/xlink" xml:space="preserve" xmlns:serif="http://www.serif.com/" style="fill-rule:evenodd;clip-rule:evenodd;stroke-miterlimit:2;"><g id="g3834"><g id="path3064"><path d="M19.348,4.03l8.549,2.379l4.353,28.561l-25.5,-0.304l4.023,-28.359l8.575,-2.277Z" style="fill:none;fill-rule:nonzero;stroke:#000;stroke-width:1.6px;"/><path d="M19.348,4.03l8.549,2.379l4.353,28.561l-25.5,-0.304l4.023,-28.359l8.575,-2.277Z" style="fill:#fff;fill-rule:nonzero;"/></g><g id="g3055"><g id="path3037"><path d="M24.127,32.183c-0.347,-0.409 -1.139,-0.976 -1.759,-1.262l-1.127,-0.52l1.621,-0.006l1.62,-0.006l-0.005,-1.339c-0.002,-0.736 -0.097,-1.479 -0.211,-1.651c-0.219,-0.332 -2.845,-0.116 -5.531,0.455c-1.126,0.239 -1.501,0.212 -2.043,-0.143c-0.944,-0.618 -0.902,-1.343 0.057,-0.979c0.473,0.18 1.664,0.172 3.452,-0.021c3.241,-0.35 3.788,-0.489 3.627,-0.925c-0.067,-0.18 -0.296,-0.277 -0.509,-0.214c-0.213,0.062 -1.197,0.174 -2.187,0.246c-2.255,0.167 -2.118,-0.295 0.225,-0.755c1.661,-0.327 3.175,-1.196 2.778,-1.594c-0.112,-0.113 -0.785,0.016 -1.494,0.286c-0.708,0.271 -1.545,0.426 -1.858,0.344c-0.346,-0.09 -0.783,0.064 -1.113,0.394c-0.298,0.298 -0.796,0.542 -1.106,0.542c-0.936,0 -0.657,-0.957 0.564,-1.938c1.22,-0.981 1.419,-1.443 0.619,-1.443c-0.278,0 -0.663,-0.156 -0.853,-0.347c-0.275,-0.274 0.052,-0.423 1.563,-0.711c1.052,-0.201 2.258,-0.439 2.683,-0.531c0.57,-0.122 0.819,-0.039 0.957,0.318c0.243,0.634 -0.338,0.98 -1.658,0.985c-0.924,0.004 -1.103,0.118 -1.433,0.92c-0.478,1.16 -0.128,1.295 1.622,0.627c1.065,-0.406 1.345,-0.419 2.017,-0.092c1.064,0.519 1.133,0.941 0.293,1.782c-0.499,0.498 -0.587,0.712 -0.294,0.712c0.231,0 0.494,0.196 0.586,0.435c0.131,0.342 0.429,0.395 1.411,0.248c0.974,-0.146 1.362,-0.08 1.79,0.307c0.849,0.769 0.383,1.06 -1.347,0.845c-1.436,-0.18 -1.539,-0.155 -1.346,0.324c0.377,0.932 0.495,3.881 0.186,4.674c-0.379,0.975 -0.985,0.986 -1.797,0.033Zm-10.759,-0.975c-0.872,-1.317 -0.801,-1.633 0.216,-0.966l0.705,0.462l0.2,-1.861c0.109,-1.024 0.132,-1.928 0.05,-2.01c-0.082,-0.082 -0.524,0.045 -0.982,0.282c-0.64,0.331 -0.875,0.689 -1.01,1.534c-0.197,1.231 -0.873,2.007 -1.34,1.54c-0.198,-0.198 -0.145,-0.634 0.166,-1.379c0.298,-0.713 0.352,-1.124 0.155,-1.189c-0.42,-0.14 -1.136,-0.886 -1.136,-1.184c0,-0.136 0.612,-0.176 1.359,-0.087c1.514,0.179 3.15,-0.443 3.15,-1.197c0,-0.385 -0.067,-0.384 -0.626,0.007c-0.746,0.522 -1.945,0.572 -2.417,0.101c-0.537,-0.537 -0.399,-0.759 0.437,-0.701c0.703,0.048 0.765,-0.025 0.678,-0.793c-0.053,-0.465 -0.295,-1.067 -0.537,-1.338c-0.367,-0.411 -0.373,-0.494 -0.036,-0.494c0.748,0 1.656,0.864 1.656,1.576c0,0.611 0.07,0.661 0.563,0.397c0.721,-0.385 0.721,-1.252 0,-1.973c-1.252,-1.252 -0.34,-1.916 1.023,-0.744l0.772,0.665l-0.474,2.161c-0.262,1.189 -0.475,3.153 -0.475,4.366c0,2.361 -0.397,3.978 -0.977,3.978c-0.196,0 -0.7,-0.519 -1.12,-1.153Zm6.078,-1.35c-0.283,-0.183 -0.108,-0.34 0.659,-0.593c0.815,-0.269 1.014,-0.463 0.906,-0.879c-0.192,-0.731 0.16,-0.875 0.889,-0.365c1.124,0.788 0.651,1.527 -1.222,1.911c-0.465,0.096 -1.02,0.062 -1.232,-0.074Zm-3.222,-10.961c-0.487,-0.539 -0.456,-0.552 1.628,-0.686c2.422,-0.155 3.331,-0.695 3.191,-1.894c-0.123,-1.055 -1.068,-1.15 -1.074,-0.108c-0.007,1.218 -0.364,1.624 -1.087,1.237c-0.673,-0.359 -0.776,-0.754 -0.247,-0.943c0.194,-0.069 0.27,-0.214 0.17,-0.322c-0.1,-0.109 -0.624,0.191 -1.164,0.665c-1.246,1.094 -2.176,1.154 -2.176,0.14c0,-1.417 0.467,-1.846 1.908,-1.755c1.064,0.067 1.332,-0.01 1.413,-0.41c0.062,-0.298 -0.069,-0.493 -0.329,-0.493c-0.237,0 -0.781,-0.159 -1.21,-0.352l-0.779,-0.353l1.116,-0.141c0.745,-0.093 1.145,-0.297 1.205,-0.612c0.065,-0.339 -0.058,-0.432 -0.439,-0.332c-0.292,0.076 -0.685,-0.049 -0.876,-0.278c-0.289,-0.349 -0.215,-0.443 0.443,-0.569c2.408,-0.462 3.224,-0.498 3.629,-0.162c0.514,0.427 0.071,0.815 -0.939,0.822c-0.362,0.002 -0.634,0.178 -0.634,0.409c0,0.306 0.243,0.366 0.986,0.245c0.78,-0.126 0.986,-0.066 0.986,0.287c0,0.288 -0.351,0.512 -0.986,0.632c-0.591,0.111 -0.986,0.349 -0.986,0.595c0,0.273 0.177,0.354 0.526,0.243c0.29,-0.091 0.86,-0.04 1.268,0.115c0.933,0.355 0.978,1.276 0.108,2.203l-0.634,0.675l0.779,-0.196c0.816,-0.204 1.616,0.216 1.616,0.85c0,0.241 -0.814,0.405 -2.606,0.527c-1.434,0.097 -2.99,0.252 -3.458,0.343c-0.632,0.123 -0.98,0.025 -1.348,-0.382Zm1.213,-2.889c0,-0.149 -0.254,-0.272 -0.563,-0.272c-0.379,0 -0.564,0.188 -0.564,0.574c0,0.486 0.086,0.527 0.564,0.272c0.309,-0.166 0.563,-0.424 0.563,-0.574Zm-3.343,-3.162c3.042,-2.861 4.578,-5.176 3.941,-5.944c-0.518,-0.624 0.404,-0.825 1.407,-0.306c0.607,0.314 0.796,0.577 0.68,0.943c-0.126,0.398 0.342,0.836 2.146,2.008c3.118,2.026 4.186,3.001 4.186,3.824c0,0.376 -0.167,0.675 -0.377,0.675c-0.207,0 -1.759,-1.204 -3.449,-2.677l-3.072,-2.676l-2.257,2.358c-1.929,2.015 -4.044,3.565 -4.852,3.556c-0.123,-0.002 0.619,-0.794 1.647,-1.761Z" style="fill:none;fill-rule:nonzero;stroke:#000;stroke-width:0.25px;stroke-linecap:square;"/><path d="M24.127,32.183c-0.347,-0.409 -1.139,-0.976 -1.759,-1.262l-1.127,-0.52l1.621,-0.006l1.62,-0.006l-0.005,-1.339c-0.002,-0.736 -0.097,-1.479 -0.211,-1.651c-0.219,-0.332 -2.845,-0.116 -5.531,0.455c-1.126,0.239 -1.501,0.212 -2.043,-0.143c-0.944,-0.618 -0.902,-1.343 0.057,-0.979c0.473,0.18 1.664,0.172 3.452,-0.021c3.241,-0.35 3.788,-0.489 3.627,-0.925c-0.067,-0.18 -0.296,-0.277 -0.509,-0.214c-0.213,0.062 -1.197,0.174 -2.187,0.246c-2.255,0.167 -2.118,-0.295 0.225,-0.755c1.661,-0.327 3.175,-1.196 2.778,-1.594c-0.112,-0.113 -0.785,0.016 -1.494,0.286c-0.708,0.271 -1.545,0.426 -1.858,0.344c-0.346,-0.09 -0.783,0.064 -1.113,0.394c-0.298,0.298 -0.796,0.542 -1.106,0.542c-0.936,0 -0.657,-0.957 0.564,-1.938c1.22,-0.981 1.419,-1.443 0.619,-1.443c-0.278,0 -0.663,-0.156 -0.853,-0.347c-0.275,-0.274 0.052,-0.423 1.563,-0.711c1.052,-0.201 2.258,-0.439 2.683,-0.531c0.57,-0.122 0.819,-0.039 0.957,0.318c0.243,0.634 -0.338,0.98 -1.658,0.985c-0.924,0.004 -1.103,0.118 -1.433,0.92c-0.478,1.16 -0.128,1.295 1.622,0.627c1.065,-0.406 1.345,-0.419 2.017,-0.092c1.064,0.519 1.133,0.941 0.293,1.782c-0.499,0.498 -0.587,0.712 -0.294,0.712c0.231,0 0.494,0.196 0.586,0.435c0.131,0.342 0.429,0.395 1.411,0.248c0.974,-0.146 1.362,-0.08 1.79,0.307c0.849,0.769 0.383,1.06 -1.347,0.845c-1.436,-0.18 -1.539,-0.155 -1.346,0.324c0.377,0.932 0.495,3.881 0.186,4.674c-0.379,0.975 -0.985,0.986 -1.797,0.033Zm-10.759,-0.975c-0.872,-1.317 -0.801,-1.633 0.216,-0.966l0.705,0.462l0.2,-1.861c0.109,-1.024 0.132,-1.928 0.05,-2.01c-0.082,-0.082 -0.524,0.045 -0.982,0.282c-0.64,0.331 -0.875,0.689 -1.01,1.534c-0.197,1.231 -0.873,2.007 -1.34,1.54c-0.198,-0.198 -0.145,-0.634 0.166,-1.379c0.298,-0.713 0.352,-1.124 0.155,-1.189c-0.42,-0.14 -1.136,-0.886 -1.136,-1.184c0,-0.136 0.612,-0.176 1.359,-0.087c1.514,0.179 3.15,-0.443 3.15,-1.197c0,-0.385 -0.067,-0.384 -0.626,0.007c-0.746,0.522 -1.945,0.572 -2.417,0.101c-0.537,-0.537 -0.399,-0.759 0.437,-0.701c0.703,0.048 0.765,-0.025 0.678,-0.793c-0.053,-0.465 -0.295,-1.067 -0.537,-1.338c-0.367,-0.411 -0.373,-0.494 -0.036,-0.494c0.748,0 1.656,0.864 1.656,1.576c0,0.611 0.07,0.661 0.563,0.397c0.721,-0.385 0.721,-1.252 0,-1.973c-1.252,-1.252 -0.34,-1.916 1.023,-0.744l0.772,0.665l-0.474,2.161c-0.262,1.189 -0.475,3.153 -0.475,4.366c0,2.361 -0.397,3.978 -0.977,3.978c-0.196,0 -0.7,-0.519 -1.12,-1.153Zm6.078,-1.35c-0.283,-0.183 -0.108,-0.34 0.659,-0.593c0.815,-0.269 1.014,-0.463 0.906,-0.879c-0.192,-0.731 0.16,-0.875 0.889,-0.365c1.124,0.788 0.651,1.527 -1.222,1.911c-0.465,0.096 -1.02,0.062 -1.232,-0.074Zm-3.222,-10.961c-0.487,-0.539 -0.456,-0.552 1.628,-0.686c2.422,-0.155 3.331,-0.695 3.191,-1.894c-0.123,-1.055 -1.068,-1.15 -1.074,-0.108c-0.007,1.218 -0.364,1.624 -1.087,1.237c-0.673,-0.359 -0.776,-0.754 -0.247,-0.943c0.194,-0.069 0.27,-0.214 0.17,-0.322c-0.1,-0.109 -0.624,0.191 -1.164,0.665c-1.246,1.094 -2.176,1.154 -2.176,0.14c0,-1.417 0.467,-1.846 1.908,-1.755c1.064,0.067 1.332,-0.01 1.413,-0.41c0.062,-0.298 -0.069,-0.493 -0.329,-0.493c-0.237,0 -0.781,-0.159 -1.21,-0.352l-0.779,-0.353l1.116,-0.141c0.745,-0.093 1.145,-0.297 1.205,-0.612c0.065,-0.339 -0.058,-0.432 -0.439,-0.332c-0.292,0.076 -0.685,-0.049 -0.876,-0.278c-0.289,-0.349 -0.215,-0.443 0.443,-0.569c2.408,-0.462 3.224,-0.498 3.629,-0.162c0.514,0.427 0.071,0.815 -0.939,0.822c-0.362,0.002 -0.634,0.178 -0.634,0.409c0,0.306 0.243,0.366 0.986,0.245c0.78,-0.126 0.986,-0.066 0.986,0.287c0,0.288 -0.351,0.512 -0.986,0.632c-0.591,0.111 -0.986,0.349 -0.986,0.595c0,0.273 0.177,0.354 0.526,0.243c0.29,-0.091 0.86,-0.04 1.268,0.115c0.933,0.355 0.978,1.276 0.108,2.203l-0.634,0.675l0.779,-0.196c0.816,-0.204 1.616,0.216 1.616,0.85c0,0.241 -0.814,0.405 -2.606,0.527c-1.434,0.097 -2.99,0.252 -3.458,0.343c-0.632,0.123 -0.98,0.025 -1.348,-0.382Zm1.213,-2.889c0,-0.149 -0.254,-0.272 -0.563,-0.272c-0.379,0 -0.564,0.188 -0.564,0.574c0,0.486 0.086,0.527 0.564,0.272c0.309,-0.166 0.563,-0.424 0.563,-0.574Zm-3.343,-3.162c3.042,-2.861 4.578,-5.176 3.941,-5.944c-0.518,-0.624 0.404,-0.825 1.407,-0.306c0.607,0.314 0.796,0.577 0.68,0.943c-0.126,0.398 0.342,0.836 2.146,2.008c3.118,2.026 4.186,3.001 4.186,3.824c0,0.376 -0.167,0.675 -0.377,0.675c-0.207,0 -1.759,-1.204 -3.449,-2.677l-3.072,-2.676l-2.257,2.358c-1.929,2.015 -4.044,3.565 -4.852,3.556c-0.123,-0.002 0.619,-0.794 1.647,-1.761Z" style="fill-rule:nonzero;"/></g></g></g></svg>