<?xml version="1.0" encoding="UTF-8" standalone="no"?><!DOCTYPE svg PUBLIC "-//W3C//DTD SVG 1.1//EN" "http://www.w3.org/Graphics/SVG/1.1/DTD/svg11.dtd"><svg width="100%" height="100%" viewBox="0 0 58 58" version="1.1" xmlns="http://www.w3.org/2000/svg" xmlns:xlink="http://www.w3.org/1999/xlink" xml:space="preserve" xmlns:serif="http://www.serif.com/" style="fill-rule:evenodd;clip-rule:evenodd;stroke-linejoin:round;stroke-miterlimit:1.41421;"><g id="g3834"><path id="path3064" d="M28.903,4.777l13.51,3.76l6.878,45.133l-40.296,-0.48l6.358,-44.815l13.55,-3.598Z" style="fill:#fff;fill-rule:nonzero;"/><g id="g3055"><path id="path3043" d="M8.072,53.402c0,-1.944 6.776,-45.495 7.111,-45.701c0.224,-0.139 3.424,-1.028 7.112,-1.976l6.705,-1.725l6.705,1.725c3.688,0.948 6.888,1.837 7.112,1.976c0.335,0.206 7.111,43.757 7.111,45.701c0,0.492 -3.708,0.598 -20.928,0.598c-17.22,0 -20.928,-0.106 -20.928,-0.598Zm40.26,-1.517c-0.096,-0.429 -1.582,-10.281 -3.3,-21.895c-1.719,-11.614 -3.174,-21.153 -3.233,-21.199c-0.06,-0.045 -2.964,-0.84 -6.454,-1.767l-6.345,-1.683l-6.345,1.683c-3.49,0.927 -6.393,1.721 -6.453,1.766c-0.059,0.045 -1.511,9.484 -3.227,20.976c-1.716,11.492 -3.225,21.345 -3.352,21.896l-0.232,1.002l19.559,0c18.397,0 19.548,-0.046 19.382,-0.779Zm-12.576,-2.989c-0.891,-0.945 -2.067,-1.657 -3.036,-1.839c-2.208,-0.414 -1.028,-1.056 1.957,-1.065c2.253,-0.007 2.338,-0.051 2.332,-1.231c-0.013,-2.655 -0.417,-3.229 -2.272,-3.229c-1.95,0 -1.997,0.069 -1.043,1.524c0.619,0.946 0.618,1.116 -0.015,1.748c-0.879,0.879 -3.381,1.371 -4.752,0.934c-0.971,-0.31 -0.916,-0.385 0.819,-1.123c1.541,-0.656 1.816,-0.955 1.609,-1.747c-0.195,-0.747 -0.48,-0.899 -1.303,-0.692c-3.356,0.842 -4.949,0.803 -5.897,-0.145c-0.519,-0.519 -1.044,-0.944 -1.166,-0.944c-0.123,0 -0.226,1.453 -0.229,3.228c-0.007,3.159 -0.604,5.219 -1.61,5.55c-0.527,0.174 -3.08,-3.785 -2.691,-4.173c0.123,-0.124 0.659,0.009 1.19,0.293c0.532,0.285 1.022,0.451 1.089,0.37c0.068,-0.081 0.247,-1.395 0.399,-2.919l0.277,-2.772l-1.55,0.739c-1.092,0.521 -1.55,1.036 -1.55,1.741c0,1.776 -0.814,3.286 -1.771,3.286c-1.045,0 -1.137,-0.91 -0.292,-2.892c0.515,-1.209 0.482,-1.377 -0.354,-1.792c-0.508,-0.252 -0.991,-0.932 -1.073,-1.512c-0.125,-0.871 -0.009,-0.995 0.667,-0.717c0.451,0.184 1.184,0.44 1.631,0.568c1.116,0.32 4.308,-0.79 4.308,-1.497c0,-0.433 -0.322,-0.391 -1.296,0.168c-1.12,0.642 -1.449,0.661 -2.425,0.139c-1.72,-0.921 -1.854,-1.815 -0.272,-1.815c1.103,0 1.322,-0.179 1.322,-1.082c0,-0.594 -0.325,-1.405 -0.721,-1.802c-0.92,-0.92 -0.531,-1.311 0.936,-0.943c0.816,0.205 1.224,0.671 1.412,1.612c0.146,0.728 0.541,1.324 0.877,1.324c0.921,0 0.748,-2.136 -0.278,-3.44c-0.49,-0.623 -0.89,-1.306 -0.89,-1.518c0,-0.648 1.966,-0.428 3.068,0.344c1.099,0.769 1.117,1.292 0.242,6.694l-0.301,1.857l2.101,0.315c3.142,0.471 11.353,-0.434 10.616,-1.171c-0.203,-0.203 -1.215,-0.155 -2.249,0.107c-1.98,0.503 -5.213,0.16 -4.799,-0.509c0.133,-0.216 1.391,-0.629 2.795,-0.919c2.82,-0.581 5.002,-1.548 5.002,-2.216c0,-0.581 -0.072,-0.569 -2.646,0.446c-1.228,0.484 -2.524,0.769 -2.88,0.632c-0.356,-0.137 -1.265,0.209 -2.02,0.767c-1.229,0.909 -1.444,0.944 -2.051,0.337c-0.624,-0.624 -0.495,-2.168 0.182,-2.173c0.158,-0.002 0.888,-0.49 1.622,-1.085l1.336,-1.083l-1.558,-1.346l-1.559,-1.346l2.352,-0.018c1.294,-0.01 3.078,-0.321 3.965,-0.692c1.451,-0.606 1.721,-0.603 2.685,0.028c1.584,1.038 1.029,1.713 -1.758,2.137c-2.203,0.336 -2.507,0.511 -2.708,1.559c-0.306,1.592 -0.108,1.686 1.719,0.815c1.954,-0.932 3.28,-0.948 4.555,-0.055c1.249,0.875 1.254,1.698 0.015,2.852c-0.82,0.764 -0.855,0.908 -0.222,0.908c0.413,0 0.752,0.226 0.752,0.503c0,0.332 0.674,0.427 1.985,0.279c2.116,-0.238 3.803,0.512 3.803,1.692c0,0.48 -0.603,0.642 -2.382,0.642l-2.382,0l0.212,3.307c0.117,1.819 0.083,3.823 -0.075,4.453c-0.415,1.652 -1.979,1.487 -3.756,-0.396l0,0Zm-11.988,-20.327c-0.954,-0.982 -0.65,-1.149 2.656,-1.456c2.393,-0.222 3.471,-0.542 4.23,-1.255c1.278,-1.2 1.346,-2.582 0.127,-2.582c-0.695,0 -0.89,0.297 -0.89,1.35c0,0.794 -0.278,1.456 -0.674,1.609c-0.867,0.332 -2.109,-0.691 -1.804,-1.486c0.129,-0.335 -0.574,0.039 -1.563,0.834c-1.447,1.163 -1.943,1.348 -2.551,0.953c-0.996,-0.647 -0.823,-2.722 0.323,-3.868c0.751,-0.751 1.061,-0.809 2.014,-0.374c1.105,0.503 2.473,0.319 2.473,-0.333c0,-0.182 -0.851,-0.689 -1.892,-1.127l-1.892,-0.797l1.892,-0.447c2.163,-0.512 2.461,-1.087 0.668,-1.293c-0.729,-0.084 -1.225,-0.411 -1.225,-0.809c0,-0.853 6.231,-1.74 6.977,-0.994c0.726,0.726 0.015,1.439 -1.437,1.439c-0.72,0 -1.309,0.226 -1.309,0.501c0,0.314 0.475,0.406 1.27,0.247c1.52,-0.304 2.519,0.445 1.781,1.334c-0.269,0.325 -0.953,0.59 -1.521,0.59c-0.568,0 -1.156,0.2 -1.308,0.445c-0.163,0.264 0.356,0.445 1.278,0.445c1.392,0 2.957,0.903 2.949,1.702c-0.001,0.166 -0.29,0.853 -0.641,1.527c-0.583,1.117 -0.569,1.224 0.156,1.224c0.721,0 2.269,1.277 2.269,1.872c0,0.133 -1.653,0.361 -3.673,0.505c-2.021,0.145 -4.675,0.388 -5.9,0.54c-1.544,0.191 -2.397,0.1 -2.783,-0.296Zm1.712,-4.676c0.517,-0.622 0.484,-0.697 -0.242,-0.557c-0.462,0.09 -0.923,0.414 -1.025,0.72c-0.264,0.794 0.561,0.688 1.267,-0.163Zm-4.654,-5.626c4.6,-4.744 6.659,-7.714 5.946,-8.574c-0.635,-0.764 -0.218,-1.556 0.819,-1.556c1.177,0 2.811,1.334 2.644,2.158c-0.103,0.508 1.029,1.507 3.649,3.221c4.668,3.052 6.813,5.024 6.61,6.076c-0.317,1.648 -2.115,0.795 -6.545,-3.106c-2.433,-2.143 -4.558,-3.896 -4.721,-3.896c-0.164,0 -1.818,1.617 -3.677,3.593c-2.86,3.039 -6.622,5.758 -7.97,5.758c-0.174,0 1.287,-1.653 3.245,-3.674Z" style="fill:#cfcfcf;fill-rule:nonzero;"/><path id="path3041" d="M8.07,53.666c-0.004,-0.545 6.76,-45.742 6.862,-45.851c0.051,-0.055 3.237,-0.933 7.081,-1.952l6.987,-1.852l6.987,1.852c3.844,1.019 7.03,1.897 7.081,1.952c0.102,0.109 6.866,45.306 6.862,45.851c-0.001,0.184 -9.42,0.334 -20.93,0.334c-11.51,0 -20.929,-0.15 -20.93,-0.334Zm40.314,-2.004c-0.124,-0.551 -1.535,-9.918 -3.136,-20.816c-1.601,-10.898 -3.017,-20.34 -3.146,-20.983c-0.219,-1.088 -0.652,-1.279 -6.335,-2.791c-3.354,-0.892 -6.4,-1.623 -6.767,-1.623c-0.367,0 -3.413,0.731 -6.767,1.623c-5.682,1.512 -6.116,1.703 -6.335,2.791c-0.13,0.643 -1.544,9.985 -3.144,20.76c-1.6,10.776 -3.023,20.143 -3.162,20.817l-0.255,1.224l39.272,0l-0.225,-1.002Zm-12.234,-2.525c-0.519,-0.728 -1.757,-1.594 -2.814,-1.968c-2.008,-0.711 -1.873,-0.776 1.898,-0.907c1.37,-0.048 1.576,-0.209 1.704,-1.332c0.081,-0.704 0.027,-1.755 -0.12,-2.338c-0.238,-0.951 -0.504,-1.057 -2.595,-1.036c-2.247,0.022 -2.294,0.048 -1.327,0.722c1.991,1.389 0.974,3.171 -2.04,3.575c-2.275,0.306 -2.78,-0.531 -0.73,-1.208c1.331,-0.439 1.534,-0.673 1.285,-1.483c-0.411,-1.337 -0.254,-1.303 -3.255,-0.713c-2.848,0.561 -3.588,0.342 -4.479,-1.325c-0.333,-0.622 0.181,-0.706 4.365,-0.717c5.337,-0.013 8.441,-0.475 7.761,-1.155c-0.286,-0.286 -1.125,-0.264 -2.428,0.064c-1.309,0.33 -2.515,0.361 -3.517,0.091l-1.526,-0.412l2.004,-0.557c3.376,-0.938 5.766,-1.852 6.051,-2.313c0.531,-0.859 -0.235,-0.91 -2.226,-0.15c-1.11,0.424 -2.413,0.667 -2.896,0.541c-0.529,-0.139 -1.182,0.105 -1.641,0.612c-0.842,0.931 -2.623,1.125 -3.109,0.339c-0.18,-0.291 0.608,-1.362 1.866,-2.536c1.879,-1.753 2.055,-2.057 1.287,-2.216c-1.015,-0.209 -2.004,-0.919 -2.004,-1.439c0,-0.193 1.253,-0.469 2.783,-0.614c5.911,-0.557 5.9,-0.558 5.9,0.401c0,0.719 -0.405,0.943 -2.159,1.194c-2.494,0.357 -2.302,0.224 -2.699,1.875c-0.265,1.102 -0.196,1.246 0.494,1.021c4.046,-1.317 4.48,-1.363 5.656,-0.592c1.376,0.902 1.461,1.66 0.303,2.709c-0.842,0.762 -0.842,0.785 0.016,1.643c0.74,0.741 1.111,0.805 2.476,0.428c1.414,-0.39 3.26,-0.044 3.26,0.612c0,0.094 0.133,0.519 0.296,0.944c0.268,0.696 0.03,0.748 -2.404,0.528l-2.701,-0.245l0.401,1.398c0.579,2.02 0.494,6.698 -0.134,7.326c-0.893,0.892 -2.027,0.603 -3.003,-0.767l0.001,0Zm-15.499,0.542c-0.306,-0.113 -0.556,-0.408 -0.556,-0.655c0,-0.247 -0.401,-0.959 -0.891,-1.582c-1.007,-1.28 -1.164,-2.109 -0.334,-1.77c0.306,0.125 0.88,0.358 1.276,0.518c0.598,0.241 0.771,-0.171 1.029,-2.453c0.171,-1.509 0.216,-2.837 0.102,-2.952c-0.115,-0.115 -0.829,0.112 -1.586,0.503c-0.966,0.5 -1.377,1.036 -1.377,1.793c0,1.652 -0.939,3.349 -1.853,3.349c-0.958,0 -1.029,-0.971 -0.21,-2.892c0.515,-1.209 0.482,-1.377 -0.354,-1.792c-0.508,-0.252 -0.986,-0.898 -1.064,-1.436c-0.13,-0.91 -0.045,-0.945 1.236,-0.498c1.627,0.567 4.165,0.182 5.124,-0.778c1.206,-1.206 0.729,-1.506 -0.882,-0.556c-1.468,0.866 -1.632,0.878 -2.671,0.197c-1.468,-0.961 -1.402,-1.595 0.167,-1.595c1.146,0 1.252,-0.123 1.055,-1.225c-0.121,-0.673 -0.525,-1.575 -0.898,-2.003c-0.618,-0.709 -0.598,-0.78 0.212,-0.78c1.051,0 2.364,1.318 2.364,2.373c0,1.169 1.208,0.869 1.443,-0.358c0.133,-0.699 -0.076,-1.361 -0.572,-1.81c-0.43,-0.389 -0.884,-1.095 -1.008,-1.569c-0.311,-1.191 1.608,-1.172 2.809,0.029c0.998,0.998 1.11,2.169 0.423,4.455c-0.257,0.856 -0.62,4.015 -0.806,7.021c-0.339,5.478 -0.839,6.963 -2.178,6.466l0,0Zm3.117,-21.111c-0.948,-0.974 -0.628,-1.284 1.336,-1.295c2.741,-0.015 5.345,-0.713 5.999,-1.608c0.87,-1.19 0.709,-2.389 -0.322,-2.389c-0.695,0 -0.89,0.297 -0.89,1.35c0,1.625 -1.09,2.205 -2.15,1.144c-0.654,-0.654 -0.664,-0.796 -0.077,-1.167c0.368,-0.232 0.445,-0.425 0.173,-0.429c-0.273,-0.004 -1.246,0.59 -2.164,1.319c-1.358,1.079 -1.831,1.238 -2.544,0.856c-0.523,-0.28 -0.773,-0.74 -0.62,-1.139c0.142,-0.369 0.257,-0.95 0.257,-1.292c0,-1.072 2.032,-2.113 3.055,-1.565c0.488,0.261 1.203,0.354 1.588,0.206c1.077,-0.413 0.838,-1.509 -0.328,-1.509c-0.565,0 -1.397,-0.27 -1.848,-0.6c-0.748,-0.547 -0.657,-0.627 1.028,-0.896c1.842,-0.294 2.601,-1.175 1.012,-1.175c-0.459,0 -1.083,-0.299 -1.386,-0.663c-0.736,-0.887 -0.164,-1.072 3.781,-1.222c2.526,-0.097 3.117,0.007 3.117,0.549c0,0.428 -0.52,0.718 -1.447,0.807c-0.796,0.077 -1.447,0.352 -1.447,0.612c0,0.289 0.525,0.368 1.352,0.203c0.999,-0.2 1.424,-0.087 1.624,0.434c0.317,0.826 -0.557,1.489 -1.975,1.499c-0.551,0.004 -1.001,0.207 -1.001,0.452c0,0.245 0.514,0.445 1.142,0.445c2.5,0 3.515,1.516 2.404,3.592c-0.38,0.709 -0.313,0.861 0.376,0.861c0.461,0 1.196,0.397 1.635,0.881c0.991,1.096 0.743,1.195 -3.776,1.519c-1.837,0.132 -4.242,0.364 -5.344,0.516c-1.364,0.188 -2.181,0.094 -2.56,-0.296Zm2.018,-4.777c0.128,-0.384 -0.086,-0.544 -0.594,-0.446c-0.436,0.085 -0.883,0.424 -0.993,0.753c-0.128,0.383 0.086,0.544 0.594,0.445c0.437,-0.084 0.883,-0.423 0.993,-0.752Zm-4.758,-5.702c4.789,-4.931 6.526,-7.453 5.764,-8.371c-0.652,-0.786 -0.251,-1.581 0.799,-1.581c1.208,0 2.801,1.335 2.655,2.225c-0.097,0.587 0.962,1.533 3.875,3.462c4.6,3.046 6.696,5.069 6.305,6.086c-0.469,1.222 -1.531,0.761 -4.813,-2.088c-1.763,-1.531 -3.951,-3.431 -4.861,-4.223l-1.655,-1.441l-2.513,2.863c-2.99,3.405 -5.346,5.341 -7.675,6.303c-1.605,0.663 -1.476,0.466 2.119,-3.235Z" style="fill:#b0b0b0;fill-rule:nonzero;"/><path id="path3039" d="M8.188,52.776c0.125,-0.674 1.692,-11.076 3.483,-23.117l3.256,-21.891l7.036,-1.839l7.037,-1.839l7.037,1.839l7.036,1.839l3.256,21.891c1.791,12.041 3.358,22.443 3.483,23.117l0.227,1.224l-21.039,0l-21.039,0l0.227,-1.224Zm40.386,0c-0.154,-2.902 -6.663,-43.918 -7.002,-44.126c-0.261,-0.16 -3.206,-0.985 -6.546,-1.833l-6.072,-1.544l-6.029,1.544c-3.317,0.848 -6.243,1.674 -6.503,1.835c-0.363,0.224 -6.914,41.332 -6.996,43.901c-0.014,0.437 4.188,0.556 19.574,0.556c10.775,0 19.584,-0.15 19.574,-0.333Zm-12.719,-3.919c-0.788,-0.874 -2.033,-1.677 -2.894,-1.868c-1.391,-0.309 -1.298,-0.354 1.16,-0.559c2.549,-0.212 2.678,-0.281 2.817,-1.5c0.081,-0.704 0.027,-1.755 -0.12,-2.338c-0.241,-0.964 -0.497,-1.058 -2.817,-1.048l-2.552,0.012l1.224,0.759c0.674,0.418 1.225,1.124 1.225,1.57c0,1.082 -2.845,2.274 -4.405,1.846c-1.154,-0.316 -1.15,-0.322 0.509,-0.983c1.702,-0.678 1.968,-1.164 1.254,-2.293c-0.339,-0.536 -0.788,-0.549 -2.866,-0.084c-2.731,0.611 -3.896,0.28 -4.771,-1.354c-0.472,-0.882 -0.423,-0.919 0.769,-0.599c1.975,0.531 10.118,0.058 11.271,-0.654c0.859,-0.531 0.126,-1.432 -0.786,-0.967c-1.317,0.672 -3.375,0.898 -4.982,0.548l-1.559,-0.339l1.781,-0.512c0.98,-0.282 2.609,-0.717 3.622,-0.967c1.788,-0.441 3.227,-1.539 2.702,-2.064c-0.142,-0.142 -1.166,0.088 -2.276,0.512c-1.11,0.424 -2.413,0.667 -2.896,0.541c-0.529,-0.139 -1.182,0.105 -1.641,0.612c-0.959,1.06 -2.85,1.131 -2.85,0.106c0,-0.405 0.851,-1.543 1.892,-2.529c1.666,-1.578 1.786,-1.815 1.002,-1.983c-1.069,-0.229 -2.004,-0.936 -2.004,-1.515c0,-0.232 0.378,-0.301 0.84,-0.155c0.461,0.147 1.713,0.037 2.782,-0.244c1.069,-0.281 2.645,-0.538 3.502,-0.57c1.282,-0.049 1.559,0.098 1.559,0.831c0,0.665 -0.338,0.921 -1.336,1.012c-2.544,0.233 -3.339,0.556 -3.339,1.356c0,0.436 -0.241,1.034 -0.535,1.327c-0.813,0.814 1.066,0.692 2.912,-0.189c1.709,-0.815 3.669,-0.441 4.486,0.855c0.365,0.579 0.258,0.96 -0.475,1.693c-0.929,0.93 -0.931,0.961 -0.101,1.792c0.671,0.67 1.216,0.786 2.634,0.56c1.376,-0.221 1.99,-0.103 2.667,0.509c1.491,1.35 1.063,1.695 -1.743,1.401l-2.622,-0.274l0.385,1.658c0.53,2.279 0.502,5.769 -0.054,6.808c-0.674,1.258 -1.804,1.017 -3.371,-0.72Zm-15.76,0.202c0,-0.268 -0.423,-1.081 -0.939,-1.806c-1.134,-1.592 -0.87,-2.043 0.624,-1.065l1.098,0.72l0.315,-2.945c0.174,-1.62 0.217,-3.045 0.095,-3.166c-0.121,-0.122 -0.84,0.1 -1.597,0.491c-1.053,0.545 -1.377,1.013 -1.377,1.988c0,1.724 -1.504,3.588 -2.28,2.825c-0.451,-0.444 -0.414,-0.862 0.191,-2.13c0.916,-1.92 0.919,-1.993 0.101,-1.993c-0.567,0 -1.575,-1.259 -1.575,-1.966c0,-0.134 0.858,-0.126 1.906,0.018c2.247,0.308 5.219,-0.74 5.219,-1.84c0,-0.65 -0.09,-0.652 -0.99,-0.022c-1.178,0.825 -3.074,0.904 -3.819,0.159c-0.869,-0.869 -0.617,-1.29 0.69,-1.153c1.12,0.117 1.211,0.014 1.072,-1.207c-0.084,-0.735 -0.466,-1.687 -0.848,-2.115c-0.58,-0.65 -0.59,-0.78 -0.058,-0.78c1.166,0 2.617,1.365 2.617,2.461c0,0.738 0.195,0.999 0.624,0.834c1.07,-0.41 1.205,-2.073 0.251,-3.089c-1.887,-2.008 -0.312,-3.41 1.713,-1.524c1.132,1.055 1.178,1.902 0.297,5.548c-0.355,1.47 -0.648,4.316 -0.652,6.325c-0.007,4.017 -0.605,5.92 -1.859,5.92c-0.451,0 -0.819,-0.219 -0.819,-0.488Zm3.775,-20.733c-0.798,-0.796 -0.72,-0.829 2.711,-1.139c2.834,-0.256 3.686,-0.508 4.311,-1.274c0.939,-1.149 1.011,-2.452 0.155,-2.781c-0.859,-0.33 -1.156,0.073 -1.156,1.568c0,1.553 -1.114,2.107 -2.15,1.07c-0.646,-0.646 -0.658,-0.798 -0.09,-1.15c0.361,-0.222 0.532,-0.528 0.381,-0.679c-0.151,-0.151 -0.973,0.339 -1.827,1.089c-2.071,1.818 -3.439,1.829 -3.439,0.028c0,-0.739 0.395,-1.731 0.884,-2.22c0.737,-0.738 1.065,-0.802 1.976,-0.387c1.288,0.587 2.483,0.241 2.483,-0.719c0,-0.415 -0.401,-0.682 -1.028,-0.682c-0.565,0 -1.397,-0.27 -1.848,-0.6c-0.748,-0.547 -0.657,-0.627 1.028,-0.896c1.842,-0.294 2.601,-1.176 1.012,-1.176c-0.459,0 -1.071,-0.283 -1.359,-0.63c-0.415,-0.5 -0.357,-0.677 0.28,-0.854c1.81,-0.504 5.741,-0.722 6.314,-0.35c0.921,0.599 0.177,1.389 -1.308,1.389c-0.839,0 -1.309,0.229 -1.309,0.637c0,0.498 0.295,0.552 1.359,0.247c1.065,-0.306 1.416,-0.241 1.623,0.299c0.311,0.811 -0.573,1.472 -1.981,1.482c-0.551,0.004 -1.001,0.207 -1.001,0.452c0,0.245 0.514,0.445 1.142,0.445c2.739,0 3.803,2.179 1.963,4.019l-0.902,0.902l1.131,-0.284c1.188,-0.298 2.454,0.407 2.454,1.367c0,0.375 -1.251,0.645 -3.896,0.843c-2.143,0.16 -4.615,0.406 -5.494,0.547c-1.199,0.193 -1.802,0.052 -2.419,-0.563l0,0Zm1.916,-4.535c0.128,-0.384 -0.086,-0.544 -0.594,-0.446c-0.436,0.085 -0.883,0.424 -0.993,0.753c-0.128,0.383 0.086,0.544 0.594,0.445c0.437,-0.084 0.883,-0.423 0.993,-0.752Zm-4.917,-5.391c1.757,-1.702 3.944,-4.222 4.858,-5.6c1.425,-2.145 1.586,-2.629 1.122,-3.371c-0.439,-0.704 -0.419,-0.913 0.11,-1.116c1.087,-0.417 3.154,0.844 3.154,1.924c0,0.729 1.009,1.634 4.068,3.651c2.237,1.475 4.583,3.295 5.213,4.044c1.128,1.34 1.173,2.673 0.09,2.673c-0.304,0 -2.737,-1.901 -5.407,-4.225l-4.854,-4.224l-3.117,3.354c-3.105,3.341 -6.535,5.98 -7.778,5.983c-0.36,0.001 0.784,-1.39 2.541,-3.093Z" style="fill:#909090;fill-rule:nonzero;"/><path id="path3037" d="M8.245,52.776c0.135,-0.674 1.678,-10.943 3.43,-22.821c1.752,-11.877 3.311,-21.736 3.466,-21.908c0.154,-0.172 3.335,-1.126 7.07,-2.121l6.789,-1.809l6.789,1.809c3.735,0.995 6.916,1.949 7.07,2.121c0.155,0.172 1.714,10.031 3.466,21.908c1.752,11.878 3.295,22.147 3.43,22.821l0.243,1.224l-20.998,0l-20.998,0l0.243,-1.224Zm40.23,-1.114c-0.129,-0.796 -1.591,-10.664 -3.249,-21.929c-1.658,-11.265 -3.149,-20.641 -3.315,-20.834c-0.165,-0.193 -3.138,-1.115 -6.606,-2.048l-6.305,-1.696l-6.305,1.696c-3.468,0.933 -6.44,1.855 -6.604,2.048c-0.242,0.285 -6.714,42.732 -6.69,43.877c0.004,0.183 8.85,0.333 19.657,0.333l19.65,0l-0.233,-1.447Zm-12.02,-2.397c-0.549,-0.645 -1.8,-1.542 -2.78,-1.994l-1.781,-0.821l2.561,-0.01l2.56,-0.01l-0.007,-2.115c-0.004,-1.163 -0.154,-2.338 -0.334,-2.61c-0.346,-0.524 -4.495,-0.183 -8.74,0.719c-1.78,0.378 -2.372,0.336 -3.228,-0.225c-1.492,-0.977 -1.425,-2.123 0.09,-1.547c0.747,0.284 2.629,0.272 5.455,-0.033c5.122,-0.553 5.985,-0.773 5.731,-1.462c-0.105,-0.285 -0.467,-0.438 -0.804,-0.339c-0.337,0.099 -1.892,0.275 -3.456,0.39c-3.563,0.263 -3.347,-0.466 0.355,-1.194c2.625,-0.517 5.018,-1.889 4.391,-2.519c-0.178,-0.178 -1.241,0.025 -2.361,0.453c-1.12,0.428 -2.442,0.672 -2.937,0.543c-0.547,-0.143 -1.237,0.101 -1.758,0.622c-0.471,0.471 -1.258,0.857 -1.748,0.857c-1.479,0 -1.039,-1.512 0.891,-3.063c1.928,-1.549 2.242,-2.28 0.979,-2.28c-0.44,0 -1.048,-0.246 -1.349,-0.548c-0.434,-0.433 0.082,-0.668 2.471,-1.124c1.661,-0.317 3.568,-0.694 4.239,-0.838c0.901,-0.193 1.295,-0.062 1.512,0.502c0.384,1.002 -0.534,1.548 -2.619,1.556c-1.461,0.006 -1.743,0.187 -2.265,1.454c-0.756,1.833 -0.202,2.047 2.563,0.991c1.683,-0.642 2.126,-0.662 3.188,-0.145c1.68,0.819 1.79,1.487 0.462,2.815c-0.788,0.788 -0.927,1.126 -0.464,1.126c0.364,0 0.78,0.309 0.925,0.687c0.208,0.541 0.679,0.624 2.23,0.392c1.54,-0.231 2.153,-0.126 2.829,0.485c1.342,1.215 0.606,1.676 -2.128,1.335c-2.27,-0.284 -2.433,-0.245 -2.127,0.512c0.596,1.473 0.781,6.134 0.294,7.386c-0.6,1.541 -1.557,1.558 -2.84,0.052l0,0Zm-17.002,-1.54c-1.378,-2.081 -1.266,-2.58 0.342,-1.527l1.114,0.73l0.315,-2.941c0.173,-1.617 0.209,-3.046 0.079,-3.175c-0.129,-0.13 -0.828,0.071 -1.552,0.445c-1.01,0.523 -1.382,1.088 -1.596,2.424c-0.311,1.945 -1.379,3.171 -2.117,2.433c-0.312,-0.312 -0.229,-1.002 0.262,-2.178c0.471,-1.128 0.556,-1.776 0.245,-1.88c-0.663,-0.221 -1.794,-1.399 -1.794,-1.87c0,-0.216 0.966,-0.278 2.147,-0.138c2.392,0.283 4.978,-0.7 4.978,-1.892c0,-0.608 -0.106,-0.607 -0.99,0.012c-1.178,0.825 -3.074,0.904 -3.819,0.159c-0.848,-0.848 -0.63,-1.199 0.69,-1.108c1.112,0.076 1.21,-0.039 1.072,-1.252c-0.084,-0.735 -0.466,-1.687 -0.848,-2.115c-0.58,-0.65 -0.59,-0.78 -0.058,-0.78c1.183,0 2.617,1.364 2.617,2.49c0,0.966 0.111,1.044 0.89,0.627c1.139,-0.609 1.139,-1.978 0,-3.117c-1.979,-1.979 -0.537,-3.028 1.617,-1.176l1.22,1.05l-0.75,3.415c-0.413,1.879 -0.751,4.983 -0.751,6.899c0,3.732 -0.627,6.287 -1.543,6.287c-0.31,0 -1.107,-0.82 -1.77,-1.822Zm9.605,-2.134c-0.448,-0.288 -0.171,-0.537 1.041,-0.937c1.288,-0.425 1.603,-0.731 1.431,-1.388c-0.302,-1.155 0.254,-1.383 1.405,-0.577c1.776,1.245 1.03,2.412 -1.931,3.02c-0.735,0.151 -1.611,0.098 -1.946,-0.118Zm-5.092,-17.321c-0.77,-0.851 -0.721,-0.871 2.572,-1.083c3.828,-0.245 5.265,-1.098 5.043,-2.993c-0.194,-1.667 -1.688,-1.817 -1.697,-0.171c-0.011,1.925 -0.575,2.567 -1.718,1.955c-1.063,-0.568 -1.226,-1.192 -0.39,-1.49c0.306,-0.11 0.427,-0.339 0.269,-0.51c-0.158,-0.171 -0.986,0.302 -1.84,1.052c-1.968,1.728 -3.439,1.823 -3.439,0.221c0,-2.239 0.738,-2.917 3.016,-2.773c1.681,0.106 2.104,-0.017 2.233,-0.649c0.097,-0.471 -0.109,-0.779 -0.52,-0.779c-0.374,0 -1.234,-0.25 -1.912,-0.556l-1.232,-0.557l1.764,-0.223c1.177,-0.148 1.81,-0.47 1.905,-0.967c0.102,-0.536 -0.092,-0.683 -0.695,-0.525c-0.46,0.12 -1.082,-0.078 -1.383,-0.44c-0.457,-0.551 -0.341,-0.699 0.699,-0.898c3.806,-0.73 5.095,-0.787 5.735,-0.256c0.813,0.674 0.112,1.288 -1.484,1.298c-0.571,0.004 -1.001,0.282 -1.001,0.647c0,0.483 0.383,0.578 1.558,0.387c1.232,-0.2 1.558,-0.105 1.558,0.453c0,0.455 -0.555,0.81 -1.558,0.999c-0.934,0.175 -1.558,0.552 -1.558,0.94c0,0.431 0.279,0.56 0.831,0.385c0.458,-0.145 1.359,-0.064 2.004,0.181c1.474,0.561 1.545,2.017 0.17,3.481l-1.002,1.067l1.231,-0.309c1.29,-0.323 2.554,0.341 2.554,1.343c0,0.381 -1.286,0.64 -4.119,0.832c-2.265,0.154 -4.724,0.398 -5.464,0.542c-0.999,0.195 -1.549,0.039 -2.13,-0.604Zm1.917,-4.564c0,-0.236 -0.401,-0.43 -0.89,-0.43c-0.599,0 -0.891,0.297 -0.891,0.907c0,0.768 0.136,0.833 0.891,0.429c0.489,-0.262 0.89,-0.67 0.89,-0.906Zm-5.282,-4.997c4.807,-4.521 7.233,-8.18 6.227,-9.393c-0.819,-0.986 0.638,-1.304 2.223,-0.484c0.959,0.496 1.259,0.912 1.075,1.491c-0.199,0.628 0.54,1.32 3.391,3.172c4.928,3.202 6.615,4.743 6.615,6.043c0,0.594 -0.264,1.067 -0.596,1.067c-0.327,0 -2.78,-1.903 -5.45,-4.23l-4.854,-4.229l-3.567,3.726c-3.048,3.184 -6.39,5.634 -7.668,5.62c-0.193,-0.003 0.979,-1.255 2.604,-2.783Z" style="fill:#6f6f6f;fill-rule:nonzero;"/><path id="path3035" d="M8.352,52.553c0.123,-0.796 1.673,-11.165 3.445,-23.043l3.22,-21.595l6.992,-1.863l6.991,-1.863l6.991,1.863l6.992,1.863l3.22,21.595c1.772,11.878 3.322,22.247 3.445,23.043l0.224,1.447l-20.872,0l-20.872,0l0.224,-1.447Zm40.247,0.223c0.031,-1.332 -6.433,-43.61 -6.714,-43.919c-0.197,-0.216 -3.176,-1.151 -6.621,-2.078l-6.264,-1.685l-6.264,1.685c-3.445,0.927 -6.425,1.862 -6.623,2.078c-0.31,0.338 -6.734,42.159 -6.713,43.696c0.007,0.437 4.228,0.556 19.6,0.556c10.775,0 19.595,-0.15 19.599,-0.333Zm-12.475,-3.896c-0.845,-0.872 -2.142,-1.762 -2.883,-1.977c-1.17,-0.341 -1.009,-0.398 1.236,-0.432l2.582,-0.041l-0.133,-2.56l-0.134,-2.56l-2.449,0.158c-1.347,0.087 -3.899,0.408 -5.671,0.714c-2.707,0.467 -3.366,0.455 -4.119,-0.072c-1.567,-1.098 -1.138,-1.852 0.774,-1.361c2.38,0.611 10.575,-0.507 10.575,-1.443c0,-0.377 -0.291,-0.589 -0.668,-0.488c-0.368,0.099 -1.971,0.25 -3.562,0.336c-3.227,0.174 -2.84,-0.214 1.368,-1.371c2.692,-0.74 4.943,-2.484 3.208,-2.484c-0.498,0 -1.662,0.316 -2.586,0.702c-0.924,0.386 -2.066,0.601 -2.536,0.478c-0.498,-0.13 -1.216,0.136 -1.714,0.634c-1.062,1.062 -2.638,1.134 -2.638,0.121c0,-0.405 0.801,-1.423 1.781,-2.261c0.979,-0.839 1.781,-1.666 1.781,-1.838c0,-0.172 -0.651,-0.584 -1.447,-0.915l-1.447,-0.602l2.559,-0.37c1.408,-0.203 2.979,-0.594 3.492,-0.869c1.149,-0.615 3.077,-0.19 3.077,0.678c0,0.595 -0.903,0.874 -4.008,1.238c-0.616,0.072 -1.061,0.383 -0.996,0.695c0.065,0.31 -0.086,0.944 -0.335,1.409c-0.645,1.206 0.144,1.521 1.741,0.695c1.367,-0.707 3.436,-0.891 4.674,-0.416c1.054,0.405 0.872,2.281 -0.281,2.898l-0.985,0.527l0.985,0.365c0.542,0.2 0.986,0.594 0.986,0.874c0,0.354 0.624,0.417 2.031,0.206c2.13,-0.319 3.312,0.181 3.312,1.403c0,0.525 -0.471,0.587 -2.52,0.331c-2.182,-0.273 -2.484,-0.222 -2.252,0.383c0.532,1.386 0.794,5.908 0.417,7.214c-0.533,1.853 -1.419,1.853 -3.215,0.001l0,0Zm-16.083,-0.335c-0.292,-0.551 -0.84,-1.478 -1.218,-2.061l-0.687,-1.059l1.369,0.708l1.369,0.708l0.273,-1.652c0.151,-0.909 0.276,-2.388 0.279,-3.286l0.004,-1.632l-1.73,0.948c-0.952,0.521 -1.641,1.182 -1.531,1.469c0.266,0.695 -1.026,3.742 -1.588,3.742c-0.863,0 -0.958,-0.874 -0.272,-2.515c0.62,-1.485 0.622,-1.705 0.02,-2.042c-0.372,-0.208 -0.881,-0.762 -1.132,-1.23c-0.426,-0.797 -0.319,-0.835 1.696,-0.596c2.397,0.284 4.983,-0.697 4.983,-1.891c0,-0.589 -0.18,-0.575 -1.325,0.102c-1.011,0.597 -1.61,0.682 -2.524,0.359c-1.626,-0.575 -1.788,-1.355 -0.276,-1.333c1.108,0.017 1.215,-0.115 1.076,-1.317c-0.085,-0.735 -0.364,-1.591 -0.62,-1.904c-0.677,-0.825 -0.12,-1.143 0.975,-0.557c0.519,0.278 1.058,1.072 1.196,1.763c0.193,0.966 0.449,1.207 1.097,1.038c1.142,-0.299 1.115,-2.361 -0.045,-3.354c-1.057,-0.905 -1.172,-2.107 -0.202,-2.107c0.843,0 2.88,1.969 2.858,2.763c-0.009,0.317 -0.306,1.779 -0.661,3.248c-0.355,1.47 -0.649,4.175 -0.654,6.011c-0.016,5.598 -1.328,8.326 -2.73,5.677l0,0Zm9.85,-3.643c1.157,-0.424 1.548,-0.821 1.52,-1.546c-0.046,-1.203 1.468,-1.138 2.219,0.095c0.716,1.176 -0.748,2.097 -3.268,2.055l-2.03,-0.034l1.559,-0.57l0,0Zm-5.928,-16.635c-0.766,-0.847 -0.714,-0.868 2.557,-1.078c1.865,-0.12 3.662,-0.483 4.072,-0.824c1.029,-0.853 1.507,-2.316 0.974,-2.977c-0.808,-1.002 -1.675,-0.627 -1.675,0.724c0,1.767 -1.001,2.553 -1.99,1.564c-0.591,-0.591 -0.627,-0.822 -0.171,-1.104c0.317,-0.196 0.463,-0.47 0.324,-0.609c-0.139,-0.139 -1.013,0.351 -1.941,1.089c-2.131,1.693 -3.347,1.765 -3.347,0.199c0,-1.727 0.792,-2.865 1.993,-2.865c0.59,0 1.196,0.201 1.347,0.446c0.385,0.622 2.003,-0.291 2.003,-1.13c0,-0.358 -0.362,-0.652 -0.805,-0.652c-0.443,0 -1.194,-0.294 -1.67,-0.654c-0.81,-0.612 -0.759,-0.654 0.806,-0.668c1.396,-0.011 1.669,-0.167 1.669,-0.952c0,-0.622 -0.21,-0.857 -0.624,-0.698c-0.344,0.131 -0.995,-0.041 -1.447,-0.384c-0.453,-0.343 -0.622,-0.631 -0.378,-0.64c0.245,-0.01 1.718,-0.225 3.274,-0.477c2.122,-0.344 2.989,-0.325 3.472,0.075c0.785,0.652 0.059,1.264 -1.514,1.274c-0.571,0.004 -1.001,0.282 -1.001,0.647c0,0.483 0.383,0.578 1.558,0.387c2.191,-0.355 2.191,0.982 0,1.393c-2.249,0.422 -2.033,1.502 0.334,1.673c1.599,0.116 1.915,0.3 2.04,1.183c0.09,0.633 -0.261,1.492 -0.89,2.181l-1.039,1.135l1.074,-0.265c1.245,-0.308 2.711,0.342 2.711,1.203c0,0.434 -1.157,0.663 -4.341,0.857c-2.388,0.146 -4.848,0.388 -5.467,0.538c-0.797,0.193 -1.354,0.021 -1.908,-0.591Zm1.386,-3.744c0.785,-0.785 0.653,-1.247 -0.356,-1.247c-0.594,0 -0.891,0.297 -0.891,0.891c0,1.009 0.462,1.141 1.247,0.356Zm-4.244,-6.256c3.351,-3.285 6.114,-6.904 6.114,-8.006c0,-0.335 -0.241,-0.85 -0.534,-1.144c-0.416,-0.416 -0.225,-0.534 0.858,-0.534c1.62,0 2.794,0.979 2.527,2.107c-0.138,0.579 0.503,1.179 2.424,2.272c4.394,2.498 7.638,5.274 7.638,6.536c0,0.609 -0.253,1.107 -0.561,1.107c-0.308,0 -2.758,-1.915 -5.445,-4.256l-4.885,-4.256l-3.588,3.753c-2.984,3.122 -6.372,5.649 -7.572,5.649c-0.147,0 1.213,-1.452 3.024,-3.228Z" style="fill:#4f4f4f;fill-rule:nonzero;"/><path id="path3033" d="M8.289,52.998c0.128,-0.551 1.637,-10.519 3.353,-22.152c1.715,-11.633 3.209,-21.555 3.32,-22.051c0.167,-0.75 1.35,-1.205 7.119,-2.739l6.919,-1.838l6.919,1.838c5.769,1.534 6.952,1.989 7.119,2.739c0.111,0.496 1.605,10.418 3.32,22.051c1.716,11.633 3.225,21.601 3.353,22.152l0.234,1.002l-20.945,0l-20.945,0l0.234,-1.002Zm40.308,-0.445c0.007,-0.719 -6.336,-43.705 -6.475,-43.881c-0.058,-0.074 -3.034,-0.923 -6.614,-1.886l-6.508,-1.752l-6.508,1.752c-3.58,0.963 -6.556,1.812 -6.613,1.886c-0.164,0.209 -6.477,42.785 -6.474,43.658c0.003,0.731 1.234,0.779 19.595,0.779c15.374,0 19.593,-0.119 19.597,-0.556Zm-12.278,-3.505c-0.719,-0.765 -1.909,-1.659 -2.644,-1.986c-1.332,-0.595 -1.33,-0.597 0.965,-0.614c1.267,-0.01 2.374,-0.238 2.464,-0.509c0.09,-0.27 0.056,-1.422 -0.075,-2.56c-0.236,-2.038 -0.263,-2.068 -1.797,-2.003c-0.856,0.036 -3.502,0.318 -5.88,0.626c-4.493,0.582 -5.695,0.333 -5.695,-1.182c0,-0.483 0.223,-0.502 1.114,-0.096c0.843,0.383 2.367,0.368 6.241,-0.064c2.82,-0.314 5.221,-0.725 5.337,-0.912c0.469,-0.76 -0.996,-1.356 -2.203,-0.897c-0.658,0.25 -2.135,0.442 -3.283,0.425c-2.398,-0.035 -1.9,-0.371 2.228,-1.508c2.563,-0.705 4.135,-1.767 3.687,-2.492c-0.134,-0.217 -1.276,0.011 -2.538,0.509c-1.261,0.497 -2.716,0.797 -3.234,0.667c-0.604,-0.151 -1.209,0.078 -1.692,0.641c-0.413,0.483 -1.153,0.877 -1.645,0.877c-1.255,0 -1.156,-1.508 0.155,-2.367c2.237,-1.466 3.201,-2.976 1.898,-2.976c-0.337,0 -0.862,-0.3 -1.167,-0.668c-0.472,-0.568 -0.355,-0.668 0.785,-0.668c0.736,0 2.373,-0.334 3.637,-0.742c2.132,-0.689 2.352,-0.689 3.03,-0.011c0.958,0.958 0.739,1.116 -2.12,1.528c-2.294,0.33 -2.417,0.416 -2.72,1.898c-0.175,0.853 -0.23,1.639 -0.124,1.745c0.107,0.107 0.9,-0.142 1.762,-0.553c1.604,-0.765 3.584,-0.96 4.841,-0.478c1.057,0.406 0.871,2.281 -0.288,2.902l-0.993,0.531l0.993,0.443c0.546,0.244 0.993,0.635 0.993,0.871c0,0.255 0.818,0.305 2.031,0.123c2.092,-0.314 3.312,0.18 3.312,1.339c0,0.439 -0.604,0.519 -2.465,0.327l-2.464,-0.255l0.349,1.957c0.515,2.88 0.305,6.69 -0.392,7.132c-0.877,0.556 -0.979,0.514 -2.403,-1Zm-16.633,-1.096c-1.03,-1.746 -0.943,-2.458 0.186,-1.522c0.379,0.315 0.794,0.468 0.923,0.339c0.267,-0.267 0.992,-6.572 0.755,-6.572c-0.707,0 -3.698,1.932 -3.645,2.354c0.256,2.016 -0.8,4.286 -1.726,3.713c-0.348,-0.215 -0.309,-0.812 0.135,-2.071c0.599,-1.7 0.579,-1.814 -0.517,-2.91c-1.379,-1.38 -1.22,-1.647 0.66,-1.108c1.951,0.559 5.419,-0.593 5.419,-1.801c0,-1.033 -0.173,-1.048 -1.571,-0.132c-1.198,0.785 -3.083,0.563 -3.455,-0.407c-0.165,-0.43 0.134,-0.535 1.112,-0.391c1.311,0.192 1.332,0.165 1.016,-1.308c-0.177,-0.828 -0.528,-1.76 -0.779,-2.073c-0.627,-0.777 -0.301,-0.96 0.903,-0.504c0.616,0.233 1.111,0.886 1.269,1.675c0.2,0.999 0.452,1.243 1.104,1.073c1.142,-0.299 1.115,-2.361 -0.045,-3.354c-1.082,-0.927 -1.217,-2.328 -0.186,-1.932c0.388,0.149 0.884,0.27 1.103,0.27c0.219,0 0.708,0.473 1.087,1.05c0.616,0.942 0.618,1.343 0.016,3.896c-0.369,1.566 -0.685,4.449 -0.702,6.409c-0.033,3.643 -0.702,6.484 -1.596,6.775c-0.276,0.09 -0.936,-0.571 -1.466,-1.469l0,0Zm10.205,-3.005c1.033,-0.395 1.607,-0.929 1.704,-1.586c0.169,-1.148 1.285,-1.12 2.023,0.052c0.731,1.16 -0.193,1.782 -2.922,1.968l-2.364,0.161l1.559,-0.595Zm-5.815,-16.728l-1.087,-0.905l2.754,-0.015c3.349,-0.018 4.758,-0.51 5.735,-2.001c0.6,-0.916 0.637,-1.264 0.192,-1.801c-0.91,-1.096 -1.779,-0.795 -1.779,0.615c0,1.471 -0.865,2.402 -1.733,1.866c-0.366,-0.226 -0.475,-0.722 -0.289,-1.31c0.408,-1.284 -0.032,-1.191 -1.831,0.39c-1.859,1.631 -3.272,1.77 -3.272,0.321c0,-2.251 2.164,-3.755 3.505,-2.436c0.454,0.446 0.745,0.337 1.471,-0.552l0.905,-1.108l-1.309,-0.268c-2.389,-0.489 -2.734,-1.057 -0.791,-1.301c1.226,-0.153 1.822,-0.464 1.925,-1.002c0.115,-0.605 -0.157,-0.779 -1.22,-0.779c-0.753,0 -1.369,-0.171 -1.369,-0.379c0,-0.441 5.755,-1.475 6.308,-1.134c0.745,0.461 0.34,1.004 -0.965,1.291c-0.743,0.163 -1.335,0.583 -1.335,0.946c0,0.504 0.353,0.586 1.558,0.36c1.218,-0.229 1.558,-0.147 1.558,0.376c0,0.41 -0.6,0.78 -1.558,0.96c-2.247,0.421 -2.034,1.502 0.33,1.673c2.301,0.167 2.683,1.159 1.211,3.15l-0.993,1.344l1.101,-0.276c1.214,-0.305 2.889,0.627 2.438,1.356c-0.153,0.249 -2.138,0.567 -4.409,0.707c-2.272,0.14 -4.543,0.381 -5.047,0.536c-0.592,0.181 -1.301,-0.039 -2.004,-0.624l0,0Zm1.535,-3.997c0.694,-0.768 0.697,-0.858 0.029,-1.115c-0.969,-0.371 -1.538,0.03 -1.538,1.086c0,1.091 0.538,1.101 1.509,0.029l0,0Zm-4.115,-6.177c3.102,-3.234 5.723,-6.798 5.723,-7.784c0,-0.335 -0.241,-0.85 -0.534,-1.144c-0.416,-0.416 -0.23,-0.534 0.836,-0.534c1.509,0 2.606,0.968 2.224,1.963c-0.167,0.435 0.707,1.206 2.733,2.41c4.723,2.809 7.654,5.326 7.654,6.574c0,0.591 -0.165,1.075 -0.366,1.075c-0.476,0 -2.687,-1.726 -6.989,-5.455c-1.907,-1.653 -3.626,-3.005 -3.82,-3.005c-0.193,0 -0.654,0.431 -1.023,0.958c-1.949,2.783 -7.713,7.947 -8.87,7.947c-0.248,0 0.846,-1.352 2.432,-3.005Z" style="fill:#2f2f2f;fill-rule:nonzero;"/><path id="path3031" d="M8.518,52.9c0,-0.698 6.095,-41.983 6.479,-43.886c0.212,-1.048 0.711,-1.251 7.115,-2.891l6.888,-1.764l6.888,1.764c6.404,1.64 6.903,1.843 7.115,2.891c0.384,1.903 6.479,43.188 6.479,43.886c0,0.567 -2.75,0.655 -20.482,0.655c-17.732,0 -20.482,-0.088 -20.482,-0.655Zm40.074,-0.66c0,-0.863 -6.137,-42.617 -6.379,-43.395c-0.069,-0.224 -3.02,-1.178 -6.558,-2.121l-6.432,-1.716l-6.457,1.636c-3.551,0.9 -6.588,1.755 -6.749,1.899c-0.162,0.144 -1.719,9.88 -3.461,21.635c-1.742,11.755 -3.244,21.724 -3.338,22.152c-0.162,0.733 1.001,0.779 19.601,0.779c19.318,0 19.773,-0.02 19.773,-0.869Zm-12.232,-3.318c-0.874,-0.873 -2.136,-1.741 -2.804,-1.929c-1.035,-0.289 -0.85,-0.373 1.232,-0.563l2.449,-0.222l-0.152,-2.449c-0.083,-1.347 -0.228,-2.527 -0.32,-2.622c-0.093,-0.094 -1.928,0.073 -4.078,0.372c-8.043,1.118 -7.999,1.118 -8.571,0.05c-0.498,-0.932 -0.456,-0.957 1.102,-0.664c1.691,0.317 11.357,-0.613 11.345,-1.092c-0.004,-0.151 -0.183,-0.552 -0.398,-0.891c-0.313,-0.495 -0.677,-0.517 -1.84,-0.111c-1.684,0.586 -5.263,0.687 -4.635,0.13c0.233,-0.206 1.569,-0.62 2.97,-0.919c2.896,-0.619 4.862,-1.915 4.094,-2.697c-0.352,-0.359 -1.055,-0.247 -2.596,0.413c-1.162,0.498 -2.556,0.794 -3.098,0.658c-0.658,-0.165 -1.261,0.057 -1.815,0.669c-0.455,0.503 -1.086,0.915 -1.401,0.915c-1.372,0 -1.01,-1.102 0.999,-3.037c1.937,-1.867 2.06,-2.098 1.191,-2.221c-0.533,-0.076 -1.209,-0.427 -1.501,-0.78c-0.449,-0.54 -0.245,-0.641 1.294,-0.641c1.005,0 2.634,-0.323 3.622,-0.718c1.437,-0.575 1.927,-0.609 2.458,-0.168c1.146,0.951 0.741,1.278 -1.959,1.584c-2.591,0.293 -2.625,0.315 -2.881,1.891c-0.142,0.877 -0.169,1.684 -0.059,1.794c0.109,0.109 1.061,-0.131 2.116,-0.534c2.971,-1.134 5.227,-0.883 5.227,0.583c0,0.425 -0.395,1.131 -0.878,1.568c-0.87,0.787 -0.867,0.802 0.249,1.68c0.888,0.699 1.507,0.825 2.931,0.597c1.834,-0.293 3.041,0.213 3.041,1.276c0,0.379 -0.703,0.481 -2.36,0.343l-2.361,-0.195l0.183,4.182c0.149,3.405 0.054,4.29 -0.512,4.76c-0.59,0.49 -0.935,0.337 -2.284,-1.012Zm-16.632,-1.192c-1.03,-1.805 -1.031,-1.809 -0.073,-1.296c0.529,0.282 1.062,0.413 1.184,0.291c0.272,-0.272 1.037,-6.231 0.827,-6.441c-0.082,-0.082 -0.97,0.269 -1.973,0.781c-1.533,0.782 -1.825,1.148 -1.825,2.287c0,1.506 -0.69,3.078 -1.351,3.078c-0.637,0 -0.521,-1.649 0.217,-3.076c0.614,-1.187 0.591,-1.278 -0.445,-1.75c-0.601,-0.274 -1.092,-0.792 -1.092,-1.152c0,-0.536 0.245,-0.569 1.359,-0.181c2.042,0.712 5.32,-0.611 5.32,-2.147l0,-1.109l-1.174,0.923c-1.386,1.09 -2.513,1.178 -3.279,0.255c-0.469,-0.565 -0.374,-0.668 0.613,-0.668c1.301,0 1.302,-0.002 0.759,-2.338c-0.22,-0.949 -0.22,-1.669 0,-1.669c0.615,0 1.852,2.138 1.534,2.652c-0.321,0.52 0.225,0.602 1.288,0.194c1.001,-0.384 0.871,-2.211 -0.266,-3.749c-1.177,-1.592 -0.867,-2.059 0.825,-1.244c1.146,0.553 1.253,0.805 1.199,2.824c-0.107,4.033 -1.084,13.331 -1.508,14.35c-0.584,1.401 -0.953,1.26 -2.139,-0.815Zm10.496,-2.854c0.957,-0.416 1.448,-0.938 1.448,-1.541c0,-1.091 0.991,-1.195 1.823,-0.193c0.512,0.616 0.449,0.839 -0.44,1.558c-0.606,0.491 -1.711,0.833 -2.657,0.822l-1.621,-0.017l1.447,-0.629l0,0Zm-6.17,-16.651l-1.063,-0.861l2.225,0.056c3.649,0.092 5.278,-0.421 6.177,-1.943c0.931,-1.576 0.69,-2.646 -0.598,-2.646c-0.639,0 -0.906,0.294 -0.911,1.002c-0.01,1.402 -0.67,2.292 -1.472,1.985c-0.43,-0.165 -0.591,-0.598 -0.439,-1.178c0.326,-1.247 -0.062,-1.159 -2.093,0.474c-2.622,2.107 -4.349,0.677 -2.276,-1.884c0.745,-0.919 0.971,-0.974 2.025,-0.494c1.478,0.673 1.387,0.679 2.226,-0.159c0.873,-0.873 0.899,-1.527 0.061,-1.527c-0.352,0 -1.203,-0.237 -1.893,-0.527l-1.253,-0.528l1.777,-0.252c1.211,-0.171 1.824,-0.499 1.925,-1.031c0.115,-0.605 -0.157,-0.779 -1.22,-0.779c-0.753,0 -1.369,-0.162 -1.369,-0.36c0,-0.434 5.332,-1.381 6.123,-1.087c1.04,0.386 0.561,1.002 -0.78,1.002c-0.734,0 -1.335,0.084 -1.335,0.186c0,0.103 -0.127,0.515 -0.281,0.917c-0.234,0.611 -0.005,0.708 1.4,0.593c1.052,-0.086 1.754,0.071 1.876,0.419c0.117,0.333 -0.188,0.557 -0.761,0.557c-1.165,0 -2.68,0.763 -2.68,1.351c0,0.236 0.762,0.43 1.692,0.43c2.867,0 3.558,1.469 1.609,3.419l-1.153,1.152l1.174,-0.224c0.755,-0.144 1.525,0.068 2.155,0.593c0.979,0.818 0.979,0.819 -1.054,0.833c-1.857,0.014 -6.279,0.654 -8.034,1.163c-0.395,0.115 -1.196,-0.179 -1.78,-0.652Zm1.557,-4.003c0.712,-0.787 0.71,-0.853 -0.031,-1.137c-0.83,-0.319 -2.093,0.893 -1.66,1.593c0.364,0.59 0.867,0.454 1.691,-0.456l0,0Zm-3.869,-6.403c3.685,-3.801 6.138,-7.418 5.478,-8.078c-0.735,-0.734 -0.51,-1.158 0.612,-1.158c1.238,0 2.264,1.049 1.915,1.958c-0.166,0.431 0.996,1.423 3.623,3.097c4.396,2.799 6.762,4.83 6.762,5.802c0,1.814 -1.189,1.083 -7.698,-4.735c-1.576,-1.408 -3.028,-2.56 -3.226,-2.56c-0.199,0 -1.764,1.522 -3.478,3.382c-2.734,2.967 -5.888,5.523 -6.815,5.523c-0.169,0 1.103,-1.454 2.827,-3.231Z" style="fill:#030303;fill-rule:nonzero;"/></g></g></svg>