<?xml version="1.0" encoding="UTF-8" standalone="no"?><!DOCTYPE svg PUBLIC "-//W3C//DTD SVG 1.1//EN" "http://www.w3.org/Graphics/SVG/1.1/DTD/svg11.dtd"><svg width="100%" height="100%" viewBox="0 0 58 58" version="1.1" xmlns="http://www.w3.org/2000/svg" xmlns:xlink="http://www.w3.org/1999/xlink" xml:space="preserve" xmlns:serif="http://www.serif.com/" style="fill-rule:evenodd;clip-rule:evenodd;stroke-linejoin:round;stroke-miterlimit:1.41421;"><g id="g3792"><path id="path3022" d="M28.836,5.049c-4.318,1.002 -8.689,2.089 -12.838,3.609c-1.491,6.331 -2.103,12.881 -3.191,19.305c-1.284,8.332 -2.438,16.689 -3.859,24.997c4.846,0.346 9.999,0.049 14.963,0.148c8.323,0 16.647,0 24.971,0c-0.586,-5.657 -1.719,-11.523 -2.503,-17.26c-1.461,-8.959 -2.486,-18.012 -4.287,-26.903c-0.886,-1.093 -2.799,-0.957 -4.038,-1.564c-3.053,-0.81 -6.098,-1.875 -9.218,-2.332Z" style="fill:#fff;fill-rule:nonzero;"/><path id="path3010" d="M8.077,53.065c0.086,-0.514 1.646,-10.92 3.466,-23.124c1.821,-12.204 3.361,-22.229 3.423,-22.278c0.372,-0.293 13.243,-3.531 14.034,-3.531c0.791,0 13.662,3.238 14.034,3.531c0.062,0.049 1.602,10.074 3.423,22.278c1.82,12.204 3.38,22.61 3.466,23.124l0.156,0.935l-21.079,0l-21.079,0l0.156,-0.935Zm40.345,-1.454c-0.117,-0.629 -1.572,-10.4 -3.233,-21.714c-1.661,-11.313 -3.146,-20.716 -3.3,-20.895c-0.155,-0.178 -3.118,-1.095 -6.585,-2.036l-6.304,-1.713l-6.304,1.713c-3.467,0.941 -6.43,1.858 -6.585,2.036c-0.154,0.179 -1.639,9.582 -3.3,20.895c-1.661,11.314 -3.116,21.085 -3.233,21.714l-0.213,1.142l39.27,0l-0.213,-1.142Zm-10.855,-2.854c-0.66,-0.826 -2.062,-1.902 -3.117,-2.389l-1.918,-0.887l3.013,-0.122l3.013,-0.122l0,-1.592c0,-0.876 -0.108,-2.134 -0.241,-2.795c-0.224,-1.124 -0.354,-1.194 -1.973,-1.073c-0.954,0.072 -2.145,0.217 -2.647,0.322l-0.914,0.192l1.034,1.034c0.857,0.857 0.955,1.179 0.576,1.887c-0.583,1.09 -2.055,1.646 -4.357,1.646c-2.444,0 -2.685,-0.628 -0.519,-1.35c1.805,-0.601 2.275,-1.3 1.592,-2.364c-0.315,-0.49 -0.738,-0.515 -2.363,-0.144c-2.372,0.543 -3.723,0.134 -4.39,-1.33c-0.623,-1.369 -0.24,-1.692 1.268,-1.067c1.248,0.517 3.066,0.422 9.09,-0.475c2.756,-0.411 3.539,-0.792 2.695,-1.314c-0.175,-0.108 -1.305,0.059 -2.51,0.372c-1.205,0.313 -2.418,0.499 -2.695,0.415c-0.276,-0.085 -1.054,-0.276 -1.728,-0.425c-1.598,-0.354 -0.836,-0.856 2.264,-1.492c2.633,-0.541 5.402,-1.949 5.402,-2.747c0,-0.783 -0.48,-0.688 -2.907,0.571c-1.649,0.855 -2.315,1.014 -2.844,0.677c-0.543,-0.346 -0.982,-0.185 -2.06,0.757c-1.113,0.973 -1.522,1.116 -2.181,0.763c-1.302,-0.697 -0.959,-1.67 1.369,-3.889c1.924,-1.832 2.078,-2.096 1.299,-2.228c-0.486,-0.083 -1.313,-0.608 -1.839,-1.167l-0.955,-1.017l2.254,-0.009c1.348,-0.006 2.99,-0.343 4.084,-0.839c2.025,-0.919 3.136,-0.772 3.819,0.505c0.653,1.219 0.037,1.624 -2.87,1.887c-2.412,0.219 -2.511,0.273 -2.48,1.36c0.018,0.622 -0.1,1.346 -0.262,1.607c-0.43,0.696 1.1,0.596 2.066,-0.134c1.686,-1.276 6.001,-0.395 6.001,1.225c0,0.312 -0.484,1.143 -1.076,1.846c-0.853,1.013 -0.936,1.279 -0.403,1.279c0.371,0 0.789,0.301 0.93,0.668c0.209,0.545 0.64,0.618 2.321,0.395c2.29,-0.304 3.63,0.423 3.63,1.967c0,0.765 -0.192,0.805 -2.675,0.551l-2.674,-0.274l0.389,1.356c0.57,1.987 0.492,8.366 -0.11,8.967c-0.905,0.906 -2.177,0.531 -3.401,-1.004l0,0Zm-18.856,-1.28c-0.745,-1.284 -1.26,-2.43 -1.144,-2.545c0.177,-0.177 0.715,0.032 2.773,1.077c0.313,0.16 0.968,-6.073 0.669,-6.372c-0.108,-0.108 -0.926,0.134 -1.817,0.538c-1.442,0.655 -1.625,0.905 -1.666,2.278c-0.056,1.888 -1.142,3.651 -2.249,3.651c-1.067,0 -1.068,-1.287 -0.002,-3.636c0.77,-1.696 0.772,-1.766 0.042,-1.766c-0.88,0 -1.465,-0.628 -1.897,-2.035c-0.276,-0.898 -0.21,-0.968 0.676,-0.711c2.495,0.723 3.698,0.731 5.517,0.037c1.358,-0.519 1.907,-0.96 1.907,-1.533c0,-0.782 -0.032,-0.78 -1.095,0.056c-1.386,1.09 -3.234,1.103 -4.308,0.03c-1.268,-1.268 -1.045,-1.74 0.67,-1.418l1.5,0.281l-0.292,-1.821c-0.16,-1.001 -0.554,-2.028 -0.876,-2.282c-0.862,-0.679 -0.718,-0.993 0.453,-0.993c0.571,0 1.413,0.374 1.87,0.831c0.457,0.457 0.831,1.299 0.831,1.87c0,1.131 0.035,1.159 1.005,0.787c0.94,-0.361 0.839,-2.577 -0.156,-3.422c-0.447,-0.379 -0.94,-1.224 -1.095,-1.878c-0.277,-1.166 -0.257,-1.182 1.125,-0.89c2.982,0.632 3.944,2.822 2.831,6.445c-0.246,0.798 -0.601,4.163 -0.79,7.477c-0.188,3.314 -0.579,6.54 -0.867,7.169c-0.859,1.872 -2.054,1.468 -3.615,-1.224l0,-0.001Zm2.139,-22.974c-1.205,-0.487 -2.775,-2.548 -2.301,-3.021c0.227,-0.227 1.021,-0.199 1.986,0.068c0.885,0.246 2.683,0.448 3.998,0.449l2.389,0.003l0,-1.889l0,-1.889l-1.35,0.24c-0.954,0.17 -1.748,-0.006 -2.702,-0.598c-2.019,-1.254 -1.675,-1.682 1.351,-1.682l2.701,0l0,-1.479c0,-0.915 -0.164,-1.378 -0.431,-1.213c-0.833,0.515 -3.686,-0.292 -4.733,-1.339c-1.166,-1.166 -1.056,-2.031 0.175,-1.373c1.201,0.643 7.074,0.494 9.552,-0.242c2.416,-0.718 4.164,-0.354 4.164,0.867c0,0.779 -1.239,1.322 -3.77,1.651c-1.829,0.238 -1.893,0.293 -1.718,1.485c0.217,1.478 0.66,1.828 1.628,1.286c0.771,-0.431 3.029,0.451 3.029,1.184c0,0.562 -1.601,1.338 -2.11,1.023c-0.237,-0.146 -0.867,-0.157 -1.4,-0.023c-0.745,0.187 -1.01,0.594 -1.146,1.752l-0.176,1.509l3.49,-0.283c3.838,-0.311 5.498,0.248 5.498,1.854c0,0.785 -0.282,0.821 -6.13,0.774c-4.708,-0.037 -6.551,0.107 -7.948,0.623c-2.011,0.741 -2.744,0.789 -4.046,0.263Zm16.925,-5.673c-0.484,-0.339 -0.879,-0.821 -0.879,-1.072c0,-0.251 -0.483,-1.09 -1.073,-1.863l-1.072,-1.406l1.176,0.281c1.626,0.389 2.273,0.761 3.37,1.934c1.524,1.63 0.27,3.381 -1.522,2.126Z" style="fill:#d0d0d0;fill-rule:nonzero;"/><path id="path3008" d="M8.222,53.159c0,-1.71 6.647,-45.035 6.954,-45.325c0.408,-0.385 12.793,-3.702 13.824,-3.702c1.031,0 13.416,3.317 13.824,3.702c0.307,0.29 6.954,43.615 6.954,45.325c0,0.833 -0.196,0.841 -20.778,0.841c-20.582,0 -20.778,-0.008 -20.778,-0.841Zm40.207,-1.756c-0.116,-0.743 -1.585,-10.643 -3.265,-21.999l-3.055,-20.649l-4.581,-1.253c-2.519,-0.69 -5.468,-1.488 -6.554,-1.774c-2.146,-0.567 -1.629,-0.654 -10.502,1.774l-4.581,1.253l-3.055,20.649c-1.68,11.356 -3.149,21.256 -3.265,21.999l-0.211,1.35l39.28,0l-0.211,-1.35Zm-10.811,-2.784c-0.745,-1.053 -1.693,-1.797 -2.701,-2.119c-2.685,-0.858 -2.49,-1.227 0.649,-1.227l2.992,0l-0.006,-1.974c-0.01,-3.541 -0.217,-3.848 -2.428,-3.595c-1.061,0.121 -2.397,0.318 -2.968,0.437l-1.039,0.217l1.143,0.601c1.713,0.901 1.567,2.517 -0.299,3.296c-1.603,0.67 -3.868,0.78 -4.735,0.231c-0.406,-0.257 -0.053,-0.53 1.246,-0.963c1.623,-0.541 1.818,-0.745 1.855,-1.941c0.031,-1.002 -0.108,-1.279 -0.556,-1.107c-1.21,0.464 -3.838,0.735 -4.797,0.495c-0.926,-0.233 -2.243,-2.202 -1.782,-2.663c0.116,-0.116 0.775,0.024 1.466,0.31c1.904,0.789 12.281,-0.419 11.942,-1.389c-0.091,-0.261 -0.614,-0.423 -1.162,-0.361c-0.548,0.063 -1.972,0.226 -3.163,0.362c-2.452,0.282 -4.083,-0.081 -3.028,-0.673c0.343,-0.192 1.816,-0.658 3.273,-1.036c2.953,-0.765 4.622,-1.687 4.622,-2.554c0,-0.787 -0.573,-0.724 -2.547,0.283c-0.925,0.472 -2.215,0.803 -2.866,0.735c-0.789,-0.083 -1.525,0.196 -2.208,0.838c-1.152,1.082 -2.891,1.084 -3.097,0.003c-0.074,-0.387 0.826,-1.639 2.074,-2.886c1.901,-1.901 2.089,-2.226 1.372,-2.373c-0.925,-0.189 -2.286,-1.267 -2.286,-1.811c0,-0.193 0.932,-0.351 2.07,-0.351c1.138,0 2.821,-0.301 3.74,-0.668c1.867,-0.747 3.52,-0.526 3.924,0.526c0.4,1.042 -0.163,1.357 -2.951,1.648l-2.532,0.265l-0.229,1.704c-0.125,0.937 -0.165,1.767 -0.087,1.845c0.077,0.077 0.899,-0.247 1.827,-0.72c1.837,-0.937 3.81,-1.104 5.07,-0.43c1.048,0.561 1.056,2.538 0.015,3.48c-0.774,0.7 -0.772,0.733 0.104,1.629c0.797,0.817 1.106,0.875 2.875,0.54c1.666,-0.315 2.114,-0.256 2.805,0.37c0.453,0.41 0.823,1.111 0.823,1.56c0,0.754 -0.197,0.794 -2.664,0.53l-2.664,-0.286l0.369,1.588c0.507,2.186 0.481,7.494 -0.042,8.471c-0.706,1.319 -2.144,0.967 -3.419,-0.836l0,-0.001Zm-18.529,-0.88c-1.869,-3.006 -1.762,-3.556 0.393,-2.022l1.207,0.859l0.021,-0.963c0.012,-0.53 0.162,-2.225 0.333,-3.768c0.172,-1.543 0.209,-2.797 0.083,-2.787c-0.126,0.011 -0.978,0.432 -1.892,0.935c-1.457,0.804 -1.674,1.117 -1.761,2.541c-0.113,1.851 -1.077,3.57 -2.001,3.57c-1.059,0 -1.156,-1.178 -0.273,-3.302l0.843,-2.029l-0.96,-0.241c-0.589,-0.148 -1.134,-0.741 -1.411,-1.537c-0.43,-1.233 -0.407,-1.282 0.478,-0.998c2.14,0.686 3.758,0.692 5.523,0.017c1.292,-0.493 1.848,-0.943 1.848,-1.496c0,-0.77 -0.035,-0.77 -1.351,0.033c-1.77,1.079 -2.873,1.042 -3.979,-0.135c-1.218,-1.297 -1.156,-1.427 0.655,-1.372c1.492,0.046 1.553,-0.005 1.429,-1.199c-0.072,-0.686 -0.498,-1.761 -0.948,-2.389l-0.818,-1.143l1.052,0c1.344,0 2.713,1.363 2.713,2.701c0,0.762 0.222,1.039 0.831,1.039c0.693,0 0.831,-0.277 0.831,-1.662c0,-0.915 -0.196,-1.663 -0.436,-1.663c-0.452,0 -1.824,-2.865 -1.518,-3.17c0.476,-0.476 3.446,1.004 4,1.993c0.556,0.992 0.543,1.492 -0.12,4.779c-0.408,2.019 -0.877,6.038 -1.043,8.932c-0.412,7.148 -1.361,8.287 -3.729,4.477l0,0Zm1.315,-23.639c-0.729,-0.444 -1.545,-1.22 -1.815,-1.724c-0.483,-0.902 -0.456,-0.913 1.532,-0.648c3.014,0.402 3.125,0.41 5.035,0.339l1.766,-0.065l0,-1.9c0,-1.716 -0.09,-1.893 -0.935,-1.824c-1.787,0.145 -2.35,-0.022 -3.509,-1.042l-1.166,-1.026l2.805,-0.013l2.805,-0.013l0,-1.398c0,-1.358 -0.048,-1.398 -1.695,-1.398c-1.838,0 -3.817,-1.158 -4.056,-2.374c-0.118,-0.6 -0.004,-0.644 0.7,-0.267c1.212,0.648 7.408,0.545 9.74,-0.162c1.964,-0.596 4.038,-0.32 4.038,0.537c0,0.808 -1.611,1.737 -3.012,1.737c-2.321,0 -2.657,0.258 -2.467,1.892c0.165,1.408 0.214,1.445 1.594,1.186c1.052,-0.198 1.636,-0.077 2.23,0.461c1.072,0.97 0.688,1.447 -1.175,1.454c-1.977,0.008 -2.382,0.311 -2.717,2.03l-0.275,1.412l3.367,-0.26c3.771,-0.29 5.78,0.335 5.78,1.799c0,0.771 -0.31,0.807 -6.338,0.746c-5.123,-0.052 -6.645,0.069 -7.946,0.633c-2.057,0.893 -2.665,0.877 -4.286,-0.112Zm16.506,-6.641c-0.458,-0.899 -1.023,-1.752 -1.255,-1.895c-1.091,-0.674 -0.248,-0.981 1.122,-0.409c2.083,0.871 3.028,1.795 3.028,2.963c0,0.76 -0.227,0.975 -1.031,0.975c-0.781,0 -1.232,-0.396 -1.864,-1.634Z" style="fill:#b0b0b0;fill-rule:nonzero;"/><path id="path3006" d="M8.222,53.399c0,-1.487 6.712,-45.337 6.976,-45.573c0.163,-0.146 3.335,-1.067 7.049,-2.046l6.753,-1.78l6.753,1.78c3.714,0.979 6.886,1.9 7.049,2.046c0.264,0.236 6.976,44.086 6.976,45.573c0,0.516 -2.936,0.601 -20.778,0.601c-17.842,0 -20.778,-0.085 -20.778,-0.601Zm40.312,-0.957c0.003,-0.812 -6.293,-43.464 -6.442,-43.647c-0.247,-0.301 -12.179,-3.403 -13.092,-3.403c-0.913,0 -12.845,3.102 -13.092,3.403c-0.149,0.183 -6.445,42.835 -6.442,43.647c0.002,0.682 1.211,0.727 19.534,0.727c18.323,0 19.532,-0.045 19.534,-0.727Zm-10.686,-3.684c-0.638,-0.826 -2.095,-1.937 -3.238,-2.469l-2.078,-0.968l3.013,-0.024l3.013,-0.024l0,-2.251c0,-3.494 -0.086,-3.586 -3.053,-3.292c-2.457,0.243 -4.704,0.93 -3.141,0.959c0.838,0.016 2.038,1.319 2.038,2.213c0,0.374 -0.366,0.876 -0.814,1.115c-1.278,0.684 -4.405,0.985 -5.26,0.506c-0.665,-0.373 -0.496,-0.504 1.195,-0.93c1.86,-0.469 1.97,-0.574 1.97,-1.891c0,-1.357 -0.036,-1.387 -1.35,-1.1c-2.885,0.63 -4.521,0.381 -5.429,-0.828c-0.469,-0.625 -0.77,-1.219 -0.669,-1.32c0.101,-0.101 0.972,0.027 1.937,0.285c1.375,0.367 2.79,0.325 6.565,-0.193c2.646,-0.364 4.928,-0.779 5.072,-0.922c0.143,-0.143 0.053,-0.468 -0.2,-0.721c-0.337,-0.336 -0.82,-0.334 -1.801,0.007c-1.584,0.553 -4.512,0.604 -5.317,0.094c-0.62,-0.393 0.924,-1.017 3.741,-1.513c1.918,-0.337 4.1,-1.652 4.1,-2.471c0,-0.844 -0.542,-0.794 -2.568,0.24c-1.064,0.543 -2.186,0.799 -2.983,0.682c-0.984,-0.144 -1.456,0.038 -2.049,0.793c-0.784,0.997 -2.528,1.323 -2.999,0.561c-0.467,-0.756 0.213,-1.969 1.659,-2.96c0.782,-0.535 1.586,-1.342 1.787,-1.793c0.299,-0.67 0.137,-0.936 -0.891,-1.46c-2.073,-1.056 -1.871,-1.679 0.543,-1.679c1.169,0 2.797,-0.281 3.618,-0.623c1.945,-0.813 2.776,-0.787 3.59,0.113c1.013,1.119 0.333,1.664 -2.468,1.981l-2.544,0.288l-0.23,1.71c-0.126,0.94 -0.166,1.773 -0.088,1.85c0.077,0.078 0.899,-0.246 1.827,-0.719c1.853,-0.946 3.186,-1.072 4.808,-0.455c1.315,0.5 1.468,2.427 0.279,3.503c-0.77,0.697 -0.766,0.734 0.187,1.687c0.87,0.87 1.161,0.933 2.709,0.585c2.033,-0.456 3.709,0.338 3.709,1.758c0,0.807 -0.156,0.838 -2.767,0.559c-2.603,-0.279 -2.748,-0.25 -2.45,0.486c0.553,1.365 0.754,7.781 0.282,8.99c-0.622,1.592 -1.852,1.456 -3.255,-0.359l0,0Zm-18.759,-1.019c-1.683,-2.706 -1.651,-3.165 0.145,-2.105c1.32,0.778 1.456,0.792 1.468,0.145c0.008,-0.393 0.182,-2.02 0.388,-3.616c0.205,-1.597 0.315,-2.961 0.244,-3.032c-0.071,-0.071 -0.972,0.28 -2.001,0.78c-1.74,0.845 -1.874,1.026 -1.895,2.547c-0.025,1.824 -1.008,3.646 -1.966,3.646c-1.05,0 -1.126,-1.087 -0.218,-3.139c0.475,-1.074 0.864,-2.003 0.864,-2.063c0,-0.06 -0.465,-0.227 -1.033,-0.369c-0.644,-0.162 -1.132,-0.655 -1.297,-1.311c-0.332,-1.326 -0.047,-1.618 1.02,-1.047c1.99,1.065 6.417,-0.042 6.855,-1.714c0.114,-0.436 0.081,-0.731 -0.072,-0.655c-0.153,0.076 -0.975,0.493 -1.826,0.927c-1.72,0.876 -3.232,0.535 -4,-0.901c-0.364,-0.679 -0.243,-0.74 1.201,-0.602l1.606,0.153l-0.243,-1.6c-0.134,-0.88 -0.625,-2.021 -1.092,-2.535l-0.849,-0.935l1.039,0c1.257,0 2.846,1.581 2.846,2.832c0,0.613 0.255,0.908 0.786,0.908c1.248,0 1.396,-2.667 0.209,-3.781c-0.504,-0.474 -1.01,-1.22 -1.125,-1.657c-0.32,-1.226 1.973,-1.068 3.266,0.224c1.193,1.194 1.262,2.288 0.364,5.753c-0.36,1.391 -0.789,5.092 -0.952,8.224c-0.397,7.614 -1.311,8.819 -3.732,4.923Zm1.315,-23.639c-0.729,-0.444 -1.53,-1.191 -1.781,-1.661c-0.413,-0.771 -0.339,-0.853 0.777,-0.853c0.679,0 1.706,0.179 2.282,0.398c0.576,0.219 1.991,0.287 3.144,0.15l2.096,-0.248l0,-1.812l0,-1.813l-1.639,0c-1.182,0 -1.964,-0.298 -2.805,-1.07l-1.166,-1.07l1.602,0.22c0.881,0.121 2.143,0.112 2.805,-0.021c1.042,-0.208 1.203,-0.428 1.203,-1.643c0,-1.382 -0.026,-1.402 -1.847,-1.402c-1.353,0 -2.158,-0.268 -3.013,-1.004c-1.463,-1.259 -1.131,-1.626 1.031,-1.14c1.538,0.345 3.382,0.233 10.104,-0.617c1.513,-0.192 1.964,-0.105 2.164,0.417c0.371,0.965 -1.261,1.928 -3.267,1.928c-0.94,0 -1.797,0.088 -1.904,0.195c-0.107,0.108 -0.117,0.86 -0.022,1.673c0.167,1.435 0.212,1.469 1.596,1.21c1.052,-0.198 1.636,-0.077 2.23,0.461c1.121,1.014 0.672,1.448 -1.499,1.448c-1.912,0 -1.959,0.043 -2.445,2.245l-0.267,1.206l3.357,-0.258c2.12,-0.164 3.727,-0.09 4.364,0.2c1.048,0.478 1.63,1.414 1.255,2.02c-0.119,0.193 -2.972,0.33 -6.338,0.305c-4.81,-0.036 -6.512,0.103 -7.941,0.65c-2.283,0.875 -2.464,0.87 -4.076,-0.114l0,0Zm16.673,-6.332c-0.383,-0.757 -0.984,-1.704 -1.335,-2.104c-0.581,-0.663 -0.564,-0.727 0.197,-0.727c1.428,0 3.658,1.784 3.658,2.925c0,1.674 -1.655,1.612 -2.52,-0.094Z" style="fill:#909090;fill-rule:nonzero;"/><path id="path3004" d="M8.222,53.55c0,-1.315 6.764,-45.508 6.996,-45.713c0.152,-0.134 3.315,-1.04 7.029,-2.015l6.753,-1.771l6.753,1.771c3.714,0.975 6.877,1.881 7.029,2.015c0.232,0.205 6.996,44.398 6.996,45.713c0,0.317 -6.15,0.45 -20.778,0.45c-14.628,0 -20.778,-0.133 -20.778,-0.45Zm40.312,-1.316c0.002,-1.069 -6.252,-43.254 -6.442,-43.454c-0.069,-0.072 -3.043,-0.945 -6.609,-1.941l-6.483,-1.811l-6.483,1.811c-3.566,0.996 -6.54,1.869 -6.609,1.941c-0.19,0.2 -6.444,42.385 -6.442,43.454l0.002,0.935l39.063,0l0.002,-0.935l0.001,0Zm-10.754,-3.569c-0.713,-0.901 -2.046,-1.938 -2.961,-2.304c-0.915,-0.366 -1.663,-0.778 -1.663,-0.915c0,-0.137 1.168,-0.185 2.597,-0.107l2.597,0.142l0.123,-2.811c0.092,-2.099 -0.023,-2.867 -0.453,-3.032c-0.316,-0.121 -2.522,0.091 -4.902,0.472c-2.379,0.381 -4.942,0.785 -5.695,0.898c-1.505,0.225 -2.752,-0.583 -3.13,-2.028c-0.174,-0.666 -0.076,-0.772 0.478,-0.52c1.373,0.625 4.918,0.63 8.74,0.012c2.138,-0.345 3.966,-0.706 4.062,-0.802c0.095,-0.095 0.065,-0.455 -0.067,-0.8c-0.207,-0.54 -0.45,-0.551 -1.776,-0.077c-1.782,0.636 -4.597,0.738 -5.451,0.198c-0.433,-0.275 -0.101,-0.502 1.247,-0.853c1.011,-0.263 2.492,-0.649 3.292,-0.856c1.824,-0.473 3.324,-1.508 3.324,-2.292c0,-0.844 -0.951,-0.745 -2.685,0.278c-0.97,0.572 -1.934,0.811 -2.772,0.688c-0.957,-0.14 -1.532,0.059 -2.258,0.785c-1.143,1.143 -2.472,1.268 -2.856,0.268c-0.193,-0.503 0.333,-1.285 1.826,-2.717c1.153,-1.105 2.092,-2.143 2.087,-2.306c-0.005,-0.163 -0.603,-0.577 -1.329,-0.92c-2.194,-1.036 -1.889,-1.571 1.004,-1.764c1.441,-0.096 3.233,-0.435 3.981,-0.755c1.573,-0.67 2.795,-0.185 2.795,1.11c0,0.647 -0.458,0.851 -2.598,1.155c-2.37,0.338 -2.597,0.458 -2.597,1.378c0,0.555 -0.194,1.37 -0.43,1.812c-0.581,1.085 0.344,1.074 2.399,-0.027c3.852,-2.064 7.344,0.419 4.412,3.137c-0.806,0.747 -0.924,1.019 -0.439,1.019c0.363,0 0.932,0.388 1.264,0.862c0.539,0.77 0.776,0.815 2.205,0.418c0.881,-0.244 1.742,-0.446 1.913,-0.447c0.557,-0.004 1.974,1.643 1.974,2.295c0,0.534 -0.438,0.59 -2.77,0.351c-2.613,-0.268 -2.753,-0.239 -2.456,0.508c0.528,1.332 0.769,6.938 0.364,8.48c-0.553,2.107 -1.761,2.132 -3.396,0.067l0,0Zm-18.707,-0.952c-0.729,-1.172 -1.219,-2.237 -1.089,-2.367c0.13,-0.13 0.771,0.079 1.424,0.464l1.188,0.702l0.232,-1.762c0.128,-0.969 0.352,-2.732 0.498,-3.918l0.265,-2.155l-2.11,1.116c-1.859,0.984 -2.11,1.274 -2.113,2.44c-0.007,2.656 -1.469,4.65 -2.589,3.53c-0.402,-0.402 -0.021,-1.827 1.269,-4.747c0.076,-0.173 -0.128,-0.314 -0.455,-0.314c-0.777,0 -1.969,-1.334 -1.969,-2.204c0,-0.563 0.189,-0.612 1.066,-0.279c3.043,1.157 7.245,-0.308 7.245,-2.525c0,-0.203 -0.68,0.093 -1.512,0.657c-1.76,1.194 -2.525,1.271 -3.797,0.38c-1.321,-0.925 -1.143,-1.431 0.504,-1.431c1.416,0 1.427,-0.014 1.192,-1.559c-0.13,-0.857 -0.618,-1.979 -1.085,-2.493l-0.849,-0.935l0.923,0c1.23,0 2.962,1.788 2.962,3.059c0,1.532 1.499,0.976 1.83,-0.679c0.204,-1.02 0.042,-1.511 -0.786,-2.375c-1.961,-2.046 -1.072,-3.179 1.464,-1.868c1.635,0.846 1.882,2.17 1.031,5.51c-0.392,1.537 -0.844,5.319 -1.003,8.404c-0.409,7.897 -1.332,9.218 -3.736,5.349Zm9.326,-3.235c-0.13,-0.21 0.561,-0.65 1.533,-0.979c1.545,-0.523 1.754,-0.738 1.65,-1.698c-0.092,-0.842 0.063,-1.099 0.662,-1.099c1.107,0 2.288,1.431 1.98,2.4c-0.397,1.252 -5.201,2.386 -5.825,1.376Zm-7.503,-20.211c-2.688,-1.378 -3.015,-2.925 -0.519,-2.464c1.55,0.286 6.585,0.352 6.762,0.088c0.036,-0.053 -0.018,-0.892 -0.119,-1.863c-0.182,-1.739 -0.21,-1.767 -1.781,-1.767c-1.122,0 -1.941,-0.311 -2.761,-1.051l-1.166,-1.051l1.933,0.261c2.855,0.386 3.677,0.001 3.677,-1.719c0,-1.411 -0.02,-1.426 -1.847,-1.426c-1.353,0 -2.158,-0.268 -3.013,-1.004c-1.472,-1.267 -1.196,-1.548 1.029,-1.048c1.618,0.363 3.288,0.244 10.088,-0.72c1.011,-0.143 1.64,-0.013 1.994,0.413c0.796,0.96 -0.926,1.943 -3.405,1.943c-1.906,0 -2.018,0.059 -1.783,0.935c0.138,0.514 0.253,1.283 0.256,1.709c0.005,0.661 0.221,0.733 1.492,0.494c1.549,-0.29 2.669,0.236 2.669,1.254c0,0.36 -0.675,0.593 -1.96,0.676c-1.895,0.122 -1.973,0.179 -2.332,1.708c-0.205,0.869 -0.287,1.666 -0.182,1.771c0.104,0.104 1.651,-0.014 3.438,-0.262c2.971,-0.413 3.339,-0.384 4.324,0.352c0.591,0.441 1.076,1.063 1.076,1.382c0,0.468 -1.224,0.582 -6.441,0.598c-5.154,0.015 -6.751,0.161 -7.987,0.727c-1.876,0.859 -1.889,0.859 -3.442,0.064Zm16.34,-6.289c-0.274,-0.644 -0.87,-1.592 -1.323,-2.106c-0.823,-0.933 -0.823,-0.935 0.018,-0.935c1.434,0 3.666,1.781 3.666,2.925c0,1.569 -1.707,1.653 -2.361,0.116l0,0Z" style="fill:#6f6f6f;fill-rule:nonzero;"/><path id="path3002" d="M8.34,52.603c0.124,-0.769 1.671,-11.101 3.436,-22.96c1.765,-11.86 3.263,-21.627 3.329,-21.706c0.067,-0.078 3.22,-0.976 7.008,-1.994l6.887,-1.851l6.887,1.851c3.788,1.018 6.941,1.916 7.008,1.994c0.066,0.079 1.564,9.846 3.329,21.706c1.765,11.859 3.312,22.191 3.436,22.96l0.227,1.397l-20.887,0l-20.887,0l0.227,-1.397Zm40.412,-0.369c-0.116,-0.514 -1.62,-10.461 -3.342,-22.104c-1.723,-11.644 -3.235,-21.272 -3.36,-21.397c-0.125,-0.125 -3.113,-1.01 -6.639,-1.966l-6.411,-1.737l-6.411,1.737c-3.527,0.956 -6.514,1.841 -6.639,1.966c-0.125,0.125 -1.637,9.753 -3.36,21.397c-1.722,11.643 -3.226,21.59 -3.342,22.104l-0.211,0.935l39.926,0l-0.211,-0.935Zm-11.009,-3.616c-0.716,-0.904 -1.947,-1.876 -2.736,-2.162c-2.12,-0.766 -1.745,-1.226 0.76,-0.932c2.803,0.329 3.144,-0.077 2.825,-3.368l-0.242,-2.493l-2.285,0.085c-1.257,0.046 -4.015,0.403 -6.129,0.792c-3.631,0.669 -3.887,0.668 -4.634,-0.008c-0.435,-0.393 -0.889,-1.092 -1.009,-1.552c-0.174,-0.663 -0.075,-0.773 0.478,-0.529c1.404,0.62 4.115,0.684 8.007,0.189c4.428,-0.565 5.094,-0.816 4.722,-1.785c-0.228,-0.594 -0.432,-0.602 -1.936,-0.071c-1.808,0.638 -3.794,0.725 -5.076,0.222c-0.628,-0.246 -0.363,-0.424 1.247,-0.836c3.47,-0.89 5.443,-1.697 6.205,-2.539c0.688,-0.76 0.689,-0.824 0.018,-1.081c-0.406,-0.156 -1.515,0.127 -2.578,0.658c-1.146,0.572 -2.29,0.85 -2.969,0.72c-0.808,-0.154 -1.352,0.057 -2.03,0.788c-1.064,1.148 -2.42,1.308 -2.796,0.329c-0.175,-0.456 0.409,-1.315 1.826,-2.688c1.145,-1.11 2.082,-2.166 2.082,-2.345c0,-0.18 -0.561,-0.576 -1.246,-0.879c-1.796,-0.795 -1.547,-1.18 0.963,-1.494c1.215,-0.152 2.733,-0.547 3.372,-0.879c1.484,-0.77 2.493,-0.765 3.14,0.015c0.932,1.122 0.18,1.748 -2.453,2.046c-2.446,0.277 -2.529,0.326 -2.529,1.488c0,0.661 -0.187,1.317 -0.415,1.458c-0.635,0.392 -0.495,1.039 0.224,1.039c0.352,0 1.408,-0.392 2.347,-0.871c3.705,-1.89 7.01,0.595 4.225,3.177c-0.806,0.747 -0.924,1.019 -0.439,1.019c0.363,0 0.944,0.405 1.291,0.901c0.582,0.831 0.763,0.863 2.295,0.403c1.761,-0.527 3.085,-0.113 3.556,1.114c0.395,1.031 -0.176,1.245 -2.709,1.016l-2.508,-0.228l0.326,1.825c0.525,2.941 0.385,7.652 -0.25,8.418c-0.866,1.043 -1.523,0.828 -2.94,-0.962l0,0Zm-17.982,0.084c-0.315,-0.629 -0.911,-1.658 -1.325,-2.286c-0.849,-1.291 -0.345,-1.503 1.188,-0.498c0.968,0.634 0.988,0.619 1.22,-0.935c0.13,-0.869 0.354,-2.637 0.499,-3.929l0.263,-2.35l-2.121,1.015c-1.955,0.936 -2.121,1.129 -2.121,2.474c0,1.771 -1.036,3.911 -1.894,3.911c-1.032,0 -1.096,-0.988 -0.2,-3.078c1.004,-2.343 1.002,-2.324 0.289,-2.324c-0.733,0 -1.935,-1.345 -1.935,-2.166c0,-0.575 0.188,-0.581 1.713,-0.056c1.358,0.468 2.026,0.492 3.221,0.113c2.246,-0.711 3.377,-1.549 3.377,-2.5c0,-0.845 -0.006,-0.846 -1.142,-0.045c-1.812,1.276 -2.933,1.477 -4.072,0.731c-1.422,-0.931 -1.27,-1.479 0.409,-1.479c1.416,0 1.427,-0.014 1.191,-1.559c-0.131,-0.857 -0.493,-1.853 -0.805,-2.214c-0.739,-0.855 -0.717,-1.214 0.075,-1.214c1.005,0 2.682,1.929 2.682,3.085c0,0.82 0.156,0.987 0.727,0.776c1.655,-0.611 1.781,-2.192 0.312,-3.937c-1.752,-2.082 -1.17,-3.027 1.199,-1.948c1.759,0.802 2.13,2.424 1.293,5.66c-0.399,1.543 -0.85,5.33 -1.003,8.415c-0.275,5.57 -0.757,7.48 -1.889,7.48c-0.318,0 -0.836,-0.514 -1.151,-1.142Zm8.884,-4.193c-0.409,-0.274 -0.069,-0.534 1.247,-0.953c1.611,-0.513 1.796,-0.701 1.69,-1.715c-0.093,-0.881 0.057,-1.139 0.662,-1.139c0.843,0 2.158,1.218 2.158,1.997c0,1.219 -4.52,2.64 -5.757,1.81Zm-7.756,-20.236c-1.3,-0.642 -2.522,-2.166 -2.086,-2.602c0.138,-0.138 1.092,-0.025 2.12,0.25c2.434,0.651 6.561,0.229 6.228,-0.637c-0.126,-0.328 -0.229,-1.143 -0.229,-1.81c0,-1.135 -0.105,-1.213 -1.639,-1.213c-1.132,0 -1.998,-0.309 -2.8,-0.999l-1.162,-0.999l5.601,0.45l0,-1.666l0,-1.667l-2.155,-0.207c-1.578,-0.151 -2.36,-0.46 -2.919,-1.15c-0.421,-0.519 -0.707,-1.001 -0.637,-1.072c0.07,-0.07 0.92,0.074 1.889,0.32c1.296,0.329 2.664,0.311 5.181,-0.067c5.229,-0.786 6.7,-0.765 6.87,0.096c0.176,0.895 -1.392,1.559 -3.685,1.559c-1.752,0 -1.774,0.034 -1.367,2.066c0.244,1.221 0.375,1.317 1.488,1.094c1.405,-0.281 2.815,0.33 2.815,1.218c0,0.443 -0.501,0.609 -1.845,0.609c-2.087,0 -2.123,0.031 -2.538,2.245l-0.303,1.615l2.655,-0.343c3.878,-0.501 4.912,-0.406 5.856,0.539c1.566,1.566 0.681,1.825 -5.213,1.527c-4.916,-0.248 -5.73,-0.187 -8.053,0.603c-3.036,1.032 -2.529,1.002 -4.072,0.241Zm16.637,-5.99c-0.15,-0.471 -0.769,-1.448 -1.377,-2.17l-1.105,-1.314l1.212,0.305c1.949,0.489 3.613,1.875 3.468,2.891c-0.175,1.225 -1.832,1.442 -2.198,0.288Z" style="fill:#4f4f4f;fill-rule:nonzero;"/><path id="path3000" d="M8.337,52.857c0.121,-0.628 1.673,-10.96 3.45,-22.96c1.777,-11.999 3.267,-21.87 3.311,-21.935c0.043,-0.066 3.189,-0.949 6.991,-1.963l6.911,-1.845l6.911,1.845c3.802,1.014 6.948,1.897 6.991,1.963c0.044,0.065 1.534,9.936 3.311,21.935c1.777,12 3.329,22.332 3.45,22.96l0.219,1.143l-20.882,0l-20.882,0l0.219,-1.143Zm40.439,-0.831c-0.131,-0.628 -1.631,-10.567 -3.335,-22.086c-1.704,-11.518 -3.249,-21.076 -3.432,-21.238c-0.184,-0.162 -3.186,-1.069 -6.672,-2.014l-6.337,-1.72l-6.337,1.72c-3.486,0.945 -6.488,1.852 -6.672,2.014c-0.183,0.162 -1.728,9.72 -3.432,21.238c-1.704,11.519 -3.204,21.458 -3.335,22.086l-0.237,1.143l40.026,0l-0.237,-1.143Zm-11.034,-3.471c-0.753,-0.938 -1.953,-1.959 -2.666,-2.269c-1.294,-0.563 -1.292,-0.565 1.048,-0.581c2.787,-0.019 2.943,-0.251 2.569,-3.821l-0.264,-2.53l-2.741,0.263c-1.507,0.146 -4.183,0.568 -5.947,0.939c-2.976,0.627 -3.282,0.626 -4.259,-0.014c-1.933,-1.267 -1.353,-1.846 1.608,-1.609c1.463,0.118 4.222,-0.007 6.129,-0.277c4.798,-0.68 4.999,-0.754 4.447,-1.637c-0.419,-0.671 -0.628,-0.68 -2.8,-0.114c-2.091,0.545 -5.11,0.409 -4.498,-0.203c0.121,-0.121 1.577,-0.569 3.237,-0.996c3.239,-0.833 5.541,-2.478 4.677,-3.342c-0.328,-0.328 -1.062,-0.146 -2.646,0.657c-1.417,0.718 -2.576,1.034 -3.279,0.893c-0.796,-0.159 -1.35,0.057 -2.075,0.811c-1.115,1.157 -2.237,1.158 -2.46,0c-0.097,-0.502 0.521,-1.387 1.761,-2.526c1.051,-0.965 1.909,-1.924 1.908,-2.132c-0.002,-0.208 -0.609,-0.739 -1.351,-1.182l-1.348,-0.804l2.236,-0.3c1.229,-0.165 2.975,-0.633 3.879,-1.041c1.835,-0.827 3.028,-0.466 3.028,0.917c0,0.572 -0.34,0.816 -1.247,0.895c-3.341,0.294 -3.851,0.504 -4.051,1.667c-0.107,0.623 -0.346,1.487 -0.53,1.921c-0.287,0.677 -0.192,0.756 0.669,0.553c0.552,-0.129 1.849,-0.561 2.884,-0.959c1.663,-0.64 2.024,-0.656 3.112,-0.135c1.649,0.791 1.769,1.866 0.37,3.326c-0.635,0.663 -0.94,1.206 -0.678,1.206c0.262,0 0.861,0.412 1.33,0.915c0.78,0.837 1.004,0.875 2.614,0.438c1.633,-0.442 1.834,-0.404 2.784,0.534c1.391,1.372 0.748,1.806 -2.17,1.465l-2.393,-0.28l0.315,2.1c0.447,2.976 0.265,7.643 -0.326,8.355c-0.794,0.956 -1.41,0.72 -2.876,-1.103l0,0Zm-17.981,0.147c-0.315,-0.629 -0.911,-1.658 -1.325,-2.286c-0.845,-1.284 -0.478,-1.47 0.94,-0.477c0.523,0.366 1.044,0.573 1.157,0.459c0.256,-0.256 0.967,-5.079 0.978,-6.638l0.009,-1.15l-2.078,1.053c-1.778,0.901 -2.078,1.228 -2.078,2.266c0,2.499 -1.317,4.564 -2.359,3.698c-0.408,-0.338 -0.345,-0.883 0.297,-2.573c0.973,-2.561 0.955,-2.352 0.202,-2.352c-0.642,0 -2.146,-1.95 -1.784,-2.312c0.114,-0.114 1.028,0.011 2.03,0.278c1.618,0.432 2.066,0.381 4.004,-0.453c1.729,-0.745 2.181,-1.138 2.181,-1.898l0,-0.959l-1.857,1.038c-1.659,0.928 -1.978,0.98 -2.982,0.491c-1.739,-0.848 -1.718,-1.587 0.045,-1.587l1.508,0l-0.28,-1.559c-0.153,-0.857 -0.566,-1.887 -0.916,-2.288c-0.832,-0.952 -0.473,-1.266 0.867,-0.756c1.262,0.48 2.112,1.872 1.822,2.983c-0.24,0.916 -0.25,0.913 1.143,0.383c1.405,-0.534 1.416,-2.175 0.027,-3.826c-1.757,-2.088 -1.169,-3.027 1.215,-1.941c1.583,0.721 2.02,2.588 1.251,5.341c-0.352,1.257 -0.783,4.998 -0.959,8.312c-0.315,5.959 -0.783,7.895 -1.907,7.895c-0.318,0 -0.836,-0.514 -1.151,-1.142l0,0Zm9.035,-4.151c-0.641,-0.162 -0.408,-0.365 1.039,-0.908c1.641,-0.614 1.852,-0.834 1.747,-1.82c-0.093,-0.863 0.06,-1.121 0.662,-1.121c0.843,0 2.158,1.218 2.158,1.997c0,1.13 -3.664,2.34 -5.606,1.852Zm-7.514,-20.255c-1.404,-0.598 -2.937,-2.167 -2.523,-2.581c0.155,-0.155 1.186,-0.051 2.291,0.232c1.181,0.303 2.85,0.403 4.054,0.244l2.046,-0.272l-0.01,-1.827c-0.01,-1.809 -0.025,-1.828 -1.464,-1.831c-1.193,-0.002 -4.156,-1.276 -4.156,-1.786c0,-0.075 1.136,-0.054 2.524,0.046c1.389,0.1 2.7,0.007 2.914,-0.207c0.215,-0.215 0.271,-0.986 0.125,-1.715c-0.236,-1.179 -0.42,-1.324 -1.688,-1.324c-1.68,0 -3.667,-0.936 -4.037,-1.901c-0.204,-0.531 -0.098,-0.617 0.469,-0.381c1.469,0.611 4.586,0.698 7.404,0.207c5.585,-0.974 5.56,-0.973 5.846,-0.228c0.413,1.076 -0.36,1.522 -3.062,1.767l-2.484,0.225l0.417,1.645c0.397,1.562 0.483,1.633 1.729,1.399c1.454,-0.273 3.043,0.572 2.557,1.359c-0.163,0.264 -1.095,0.479 -2.072,0.479c-1.764,0 -1.778,0.012 -2.203,1.87l-0.428,1.87l1.501,-0.018c0.825,-0.01 2.297,-0.172 3.271,-0.361c1.993,-0.385 4.463,0.515 4.463,1.626c0,0.531 -0.863,0.603 -5.818,0.487c-4.951,-0.116 -6.163,-0.015 -8.133,0.679c-1.968,0.693 -2.499,0.738 -3.533,0.297l0,0Zm15.624,-7.123c-0.713,-1.056 -1.209,-2.007 -1.102,-2.114c0.106,-0.106 0.869,0.128 1.696,0.52c1.62,0.769 2.505,1.976 2.142,2.923c-0.42,1.094 -1.433,0.602 -2.736,-1.329Z" style="fill:#2f2f2f;fill-rule:nonzero;"/><path id="path2998" d="M8.374,52.857c0.114,-0.4 1.653,-10.545 3.421,-22.544c1.767,-12 3.347,-21.972 3.51,-22.162c0.163,-0.189 3.311,-1.155 6.995,-2.148l6.7,-1.803l6.7,1.803c3.684,0.993 6.832,1.959 6.995,2.148c0.163,0.19 1.743,10.162 3.51,22.162c1.768,11.999 3.307,22.144 3.421,22.544c0.196,0.686 -0.982,0.727 -20.626,0.727c-19.644,0 -20.822,-0.041 -20.626,-0.727Zm40.572,0.208c-0.009,-0.608 -6.635,-44.478 -6.729,-44.545c-0.07,-0.05 -3.072,-0.881 -6.672,-1.846l-6.545,-1.755l-6.545,1.755c-3.6,0.965 -6.602,1.796 -6.672,1.846c-0.094,0.067 -6.72,43.937 -6.729,44.545c-0.001,0.057 8.975,0.104 19.946,0.104c10.971,0 19.946,-0.047 19.946,-0.104Zm-11.099,-4.523c-0.866,-0.945 -2.136,-1.966 -2.821,-2.269c-1.223,-0.541 -1.201,-0.552 1.118,-0.568c1.301,-0.009 2.49,-0.218 2.642,-0.465c0.153,-0.246 0.149,-1.649 -0.008,-3.117l-0.286,-2.668l-1.733,0.015c-1.537,0.013 -5.462,0.627 -9.274,1.451c-1.021,0.221 -1.499,0.091 -2.182,-0.591c-1.163,-1.164 -1.135,-1.85 0.061,-1.445c1.599,0.541 12.126,-0.373 12.57,-1.092c0.1,-0.161 -0.046,-0.597 -0.324,-0.969c-0.466,-0.621 -0.687,-0.622 -2.738,-0.015c-1.599,0.473 -2.6,0.552 -3.532,0.278c-1.256,-0.369 -1.198,-0.408 1.651,-1.115c3.293,-0.817 5.567,-2.013 5.567,-2.927c0,-1.088 -0.706,-1.081 -3.137,0.032c-1.897,0.868 -2.549,0.999 -3.139,0.63c-0.615,-0.384 -0.967,-0.243 -2.015,0.806c-0.699,0.698 -1.504,1.193 -1.788,1.098c-1.159,-0.386 -0.7,-1.637 1.322,-3.607c2.338,-2.277 2.59,-2.938 1.12,-2.938c-0.543,0 -1.199,-0.254 -1.457,-0.565c-0.382,-0.461 -0.056,-0.607 1.772,-0.796c1.233,-0.127 2.85,-0.546 3.593,-0.93c1.051,-0.544 1.568,-0.6 2.332,-0.252c2.015,0.919 0.996,2.102 -1.858,2.157c-2.107,0.04 -2.764,0.422 -2.811,1.633c-0.022,0.571 -0.183,1.366 -0.356,1.766c-0.251,0.578 -0.114,0.725 0.664,0.714c0.538,-0.007 1.342,-0.288 1.786,-0.623c0.443,-0.336 1.668,-0.61 2.722,-0.61c3.024,0 3.762,1.353 1.834,3.365c-1.061,1.107 -1.064,1.129 -0.208,1.401c0.479,0.152 0.871,0.552 0.871,0.888c0,0.485 0.525,0.587 2.535,0.492c2.281,-0.109 2.602,-0.021 3.21,0.879l0.675,0.999l-2.835,-0.228l-2.835,-0.227l0.279,1.862c0.437,2.911 0.298,8.048 -0.234,8.689c-0.72,0.867 -1.032,0.738 -2.753,-1.138Zm-18.514,-0.832c-0.791,-1.226 -1.377,-2.301 -1.301,-2.389c0.075,-0.088 0.631,0.163 1.234,0.558c0.603,0.395 1.246,0.561 1.43,0.368c0.183,-0.193 0.466,-1.985 0.627,-3.982l0.294,-3.632l-2.116,0.931c-1.958,0.86 -2.118,1.039 -2.133,2.385c-0.02,1.807 -0.833,3.48 -1.78,3.663c-0.9,0.173 -0.95,-1.335 -0.094,-2.832c0.816,-1.428 0.766,-1.977 -0.208,-2.286c-0.817,-0.259 -1.908,-1.762 -1.544,-2.127c0.102,-0.102 1.006,0.029 2.008,0.29c1.569,0.41 2.111,0.361 3.9,-0.35c1.707,-0.679 2.102,-1.03 2.214,-1.971l0.137,-1.145l-1.432,0.886c-1.696,1.048 -3.309,1.137 -4.214,0.232c-0.918,-0.918 -0.834,-1.027 0.698,-0.907l1.35,0.105l-0.142,-1.87c-0.078,-1.028 -0.335,-2.103 -0.57,-2.389c-0.318,-0.385 -0.214,-0.52 0.403,-0.52c1.122,0 1.902,1.032 1.902,2.516c0,1.321 0.023,1.337 1.42,0.963c1.368,-0.367 1.306,-2.831 -0.104,-4.138c-1.455,-1.349 -1.4,-2.43 0.104,-2.054c2.164,0.54 2.708,1.416 2.457,3.959c-0.124,1.258 -0.416,3.128 -0.648,4.157c-0.232,1.028 -0.435,3.553 -0.45,5.61c-0.032,4.204 -0.486,6.681 -1.39,7.585c-0.539,0.539 -0.784,0.346 -2.052,-1.616Zm10.083,-3.831c2.219,-0.726 2.589,-1.075 2.311,-2.183c-0.308,-1.229 0.509,-1.328 1.867,-0.228c1.866,1.511 -0.024,3.012 -3.686,2.93l-1.947,-0.043l1.455,-0.476Zm-9.641,-20.649c-0.696,-0.696 -1.154,-1.377 -1.019,-1.512c0.136,-0.136 1.087,-0.011 2.113,0.276c1.18,0.33 2.714,0.417 4.168,0.235l2.301,-0.287l0,-1.84c0,-1.878 -0.133,-2.004 -1.945,-1.861c-0.498,0.04 -1.526,-0.267 -2.285,-0.681l-1.38,-0.753l2.795,-0.123l2.795,-0.122l-0.077,-1.748l-0.077,-1.747l-1.985,-0.003c-1.619,-0.002 -2.195,-0.217 -3.133,-1.165l-1.15,-1.162l1.17,0.438c1.721,0.644 5.796,0.533 9.019,-0.245c2.963,-0.715 4.148,-0.589 4.148,0.442c0,0.691 -2.369,1.481 -4.454,1.485c-0.877,0.001 -1.282,0.181 -1.177,0.522c0.088,0.285 0.278,1.056 0.423,1.713c0.237,1.077 0.394,1.172 1.604,0.976c1.448,-0.235 3.043,0.589 2.583,1.335c-0.151,0.243 -1.084,0.443 -2.075,0.443c-1.621,0 -1.827,0.114 -2.073,1.143c-0.15,0.628 -0.377,1.494 -0.505,1.923c-0.221,0.738 -0.023,0.764 3.724,0.483c3.73,-0.28 4.008,-0.244 4.872,0.62c1.394,1.393 0.511,1.612 -5.449,1.347c-4.26,-0.19 -5.695,-0.103 -7.38,0.449c-3.022,0.988 -4.094,0.876 -5.551,-0.581Zm17.822,-5.072c-0.311,-0.515 -0.881,-1.45 -1.266,-2.078c-0.798,-1.301 -0.677,-1.377 0.898,-0.562c1.589,0.822 2.719,2.186 2.431,2.936c-0.357,0.932 -1.413,0.781 -2.063,-0.296Z" style="fill:#020202;fill-rule:nonzero;"/></g></svg>