<?xml version="1.0" encoding="UTF-8" standalone="no"?><!DOCTYPE svg PUBLIC "-//W3C//DTD SVG 1.1//EN" "http://www.w3.org/Graphics/SVG/1.1/DTD/svg11.dtd"><svg width="100%" height="100%" viewBox="0 0 39 39" version="1.1" xmlns="http://www.w3.org/2000/svg" xmlns:xlink="http://www.w3.org/1999/xlink" xml:space="preserve" xmlns:serif="http://www.serif.com/" style="fill-rule:evenodd;clip-rule:evenodd;stroke-linejoin:round;stroke-miterlimit:2;"><g id="g3810"><path id="path3040" d="M19.468,2.643c-2.825,0.714 -5.636,1.485 -8.422,2.342c-0.322,0.113 -0.78,0.183 -0.829,0.597c-0.488,2.357 -0.812,4.751 -1.198,7.128c-1.194,7.766 -2.331,15.543 -3.519,23.307c0.107,0.469 0.699,0.291 1.042,0.33c8.896,0.017 17.792,0.021 26.688,-0.023c0.462,-0.107 0.191,-0.657 0.191,-0.972c-1.388,-9.051 -2.674,-18.12 -4.137,-27.159c-0.192,-0.936 -0.241,-1.92 -0.564,-2.82c-0.239,-0.343 -0.74,-0.323 -1.096,-0.486c-2.643,-0.784 -5.293,-1.564 -7.969,-2.229c-0.062,-0.011 -0.123,-0.022 -0.187,-0.015Zm3.513,4.31c0.252,-0.062 0.633,0.114 0.522,0.42c-0.273,0.434 -0.875,0.431 -1.323,0.54c-0.752,0.153 -1.556,0.078 -2.28,0.333c-0.435,0.244 -0.124,0.782 -0.054,1.141c0.171,0.429 0.191,0.964 0.522,1.304c0.649,0.252 1.382,0.011 2.051,0.169c0.172,0.091 0.473,0.229 0.476,0.439c-0.538,0.257 -1.183,0.151 -1.766,0.243c-0.446,-0.007 -0.904,0.24 -1.011,0.7c-0.177,0.658 -0.404,1.327 -0.427,2.01c0.115,0.456 0.704,0.323 1.055,0.341c1.11,-0.004 2.201,-0.272 3.306,-0.269c0.576,0.035 1.23,0.067 1.647,0.518c0.071,0.091 0.333,0.253 0.232,0.371c-0.48,0.217 -1.048,0.096 -1.562,0.14c-2.015,0.023 -4.032,-0.094 -6.044,-0.007c-1.171,0.059 -2.226,0.738 -3.389,0.772c-0.901,-0.064 -1.63,-0.711 -2.169,-1.388c-0.056,-0.144 0.29,0.001 0.397,-0.01c1.284,0.294 2.611,0.461 3.925,0.286c0.448,-0.078 0.935,-0.044 1.348,-0.239c0.164,-0.469 0.012,-0.998 0.047,-1.491c-0.038,-0.476 0.077,-1.191 -0.469,-1.415c-0.583,-0.135 -1.21,-0.006 -1.776,-0.247c-0.392,-0.125 -0.759,-0.318 -1.117,-0.523c0.974,-0.003 1.978,0.197 2.933,-0.047c0.561,-0.242 0.48,-0.983 0.411,-1.479c-0.068,-0.477 -0.222,-1.097 -0.795,-1.164c-1.013,-0.115 -2.166,-0.152 -2.927,-0.918c-0.256,-0.229 0.176,-0.034 0.322,-0.014c2.248,0.468 4.556,0.019 6.781,-0.384c0.377,-0.058 0.754,-0.121 1.134,-0.132Zm1.75,10.955c0.376,-0.05 0.693,0.28 0.838,0.583c-0.35,0.465 -1.015,0.383 -1.532,0.492c-0.715,0.108 -1.632,0.07 -2.092,0.733c-0.279,0.678 -0.399,1.418 -0.594,2.122c-0.031,0.438 0.522,0.592 0.86,0.436c1.042,-0.258 2.021,-0.801 3.084,-0.938c0.534,-0.067 1.02,0.257 1.459,0.525c0.389,0.282 0.127,0.812 -0.11,1.107c-0.274,0.453 -0.806,0.769 -0.921,1.302c0.028,0.507 0.691,0.39 0.91,0.766c0.311,0.387 0.719,0.812 1.269,0.713c0.688,-0.026 1.34,-0.391 2.026,-0.28c0.432,0.206 0.746,0.609 0.988,1.013c-1.13,-0.001 -2.252,-0.101 -3.37,-0.24c-0.453,0.09 -0.207,0.621 -0.197,0.925c0.318,1.993 0.442,4.061 0.075,6.055c-0.039,0.302 -0.317,0.732 -0.664,0.523c-0.758,-0.484 -1.212,-1.325 -1.927,-1.874c-0.268,-0.228 -0.553,-0.433 -0.859,-0.606c0.718,-0.071 1.508,0.039 2.162,-0.316c0.57,-0.466 0.413,-1.3 0.396,-1.948c-0.093,-0.809 -0.1,-1.648 -0.296,-2.433c-0.247,-0.28 -0.705,-0.06 -1.04,-0.109c-2.411,0.083 -4.757,0.708 -7.14,1.019c-0.566,0.087 -0.979,-0.403 -1.35,-0.746c-0.101,-0.072 -0.132,-0.319 0.055,-0.231c1.248,0.148 2.516,0.1 3.77,0.061c1.605,-0.106 3.215,-0.285 4.781,-0.659c0.381,-0.067 0.732,-0.467 0.514,-0.852c-0.167,-0.446 -0.611,-0.794 -1.102,-0.67c-1.201,0.224 -2.397,0.642 -3.633,0.464c1.642,-0.546 3.5,-0.804 4.831,-2.017c0.356,-0.3 0.577,-0.973 0.112,-1.276c-0.563,-0.245 -1.166,0.112 -1.695,0.296c-0.84,0.362 -1.699,0.819 -2.646,0.722c-0.66,-0.066 -1.202,0.355 -1.65,0.783c-0.265,0.185 -0.633,0.553 -0.967,0.331c-0.244,-0.343 0.071,-0.755 0.303,-1.012c0.644,-0.785 1.457,-1.435 2.039,-2.27c0.23,-0.488 -0.362,-0.809 -0.688,-1.046c-0.203,-0.132 -0.426,-0.228 -0.624,-0.368c1.292,-0.209 2.626,-0.378 3.821,-0.952c0.256,-0.102 0.53,-0.126 0.804,-0.128Zm-10.769,1.054c0.909,0.074 1.878,0.725 1.897,1.706c0.085,1.261 -0.404,2.464 -0.514,3.71c-0.33,2.277 -0.351,4.587 -0.582,6.871c-0.131,0.748 -0.186,1.579 -0.625,2.219c-0.22,0.247 -0.464,-0.154 -0.586,-0.315c-0.411,-0.638 -0.81,-1.348 -1.165,-1.981c0.423,0.203 0.866,0.573 1.355,0.488c0.429,-0.255 0.326,-0.862 0.461,-1.28c0.25,-1.394 0.38,-2.808 0.445,-4.218c-0.182,-0.444 -0.7,-0.116 -0.992,0.008c-0.747,0.401 -1.63,0.671 -2.188,1.345c-0.415,0.595 -0.147,1.37 -0.415,2.019c-0.166,0.448 -0.313,1.037 -0.79,1.244c-0.2,0.035 -0.387,-0.193 -0.281,-0.389c0.149,-0.894 0.65,-1.685 0.827,-2.571c0.021,-0.356 -0.337,-0.552 -0.639,-0.586c-0.396,-0.235 -0.756,-0.63 -0.916,-1.042c1.047,0.131 2.132,0.588 3.176,0.18c0.703,-0.256 1.447,-0.507 2.032,-0.988c0.415,-0.393 0.438,-1.013 0.413,-1.544c-0.096,-0.337 -0.487,-0.22 -0.688,-0.058c-0.646,0.344 -1.255,0.778 -1.954,1.005c-0.577,0.098 -1.132,-0.237 -1.516,-0.638c0.541,-0.079 1.123,0.029 1.647,-0.13c0.198,-0.409 0.037,-0.898 0.012,-1.338c-0.049,-0.688 -0.35,-1.375 -0.742,-1.893c0.541,0.09 1.081,0.37 1.306,0.904c0.247,0.374 0.229,0.83 0.143,1.252c-0.04,0.404 0.437,0.622 0.763,0.433c0.655,-0.159 1.347,-0.637 1.325,-1.385c0.065,-1.089 -0.841,-1.85 -1.353,-2.706c-0.062,-0.142 -0.093,-0.38 0.144,-0.322Zm7.757,8.865c0.523,0.077 0.988,0.494 1.196,0.969c0.076,0.401 -0.428,0.584 -0.717,0.726c-0.741,0.316 -1.543,0.5 -2.356,0.445c0.604,-0.285 1.379,-0.438 1.736,-1.057c0.027,-0.345 -0.044,-0.717 0.032,-1.05c0.03,-0.027 0.07,-0.032 0.109,-0.033Z" style="fill:#fff;fill-rule:nonzero;"/><path id="path3004" d="M25.571,33.035c-0.493,-0.622 -1.412,-1.337 -2.044,-1.59c-0.631,-0.252 -1.147,-0.537 -1.147,-0.631c0,-0.095 0.806,-0.128 1.791,-0.074l1.792,0.098l0.086,-1.939c0.063,-1.449 -0.016,-1.978 -0.313,-2.092c-0.219,-0.083 -1.741,0.063 -3.382,0.326c-1.641,0.262 -3.41,0.541 -3.93,0.619c-1.037,0.155 -1.899,-0.403 -2.159,-1.399c-0.121,-0.46 -0.053,-0.533 0.33,-0.359c0.947,0.431 3.393,0.434 6.03,0.009c1.475,-0.239 2.736,-0.488 2.801,-0.554c0.067,-0.066 0.046,-0.314 -0.044,-0.552c-0.144,-0.373 -0.312,-0.38 -1.226,-0.053c-1.23,0.438 -3.172,0.509 -3.761,0.136c-0.299,-0.189 -0.07,-0.345 0.86,-0.588c0.697,-0.181 1.719,-0.447 2.271,-0.59c1.259,-0.327 2.294,-1.041 2.294,-1.581c0,-0.583 -0.657,-0.515 -1.853,0.191c-0.669,0.394 -1.334,0.559 -1.912,0.475c-0.661,-0.097 -1.057,0.04 -1.558,0.541c-0.788,0.789 -1.706,0.874 -1.97,0.185c-0.134,-0.347 0.229,-0.887 1.259,-1.874c0.796,-0.763 1.444,-1.479 1.44,-1.592c-0.003,-0.112 -0.415,-0.398 -0.916,-0.634c-1.514,-0.715 -1.304,-1.084 0.692,-1.217c0.994,-0.066 2.23,-0.3 2.746,-0.52c1.086,-0.464 1.929,-0.129 1.929,0.765c0,0.447 -0.316,0.587 -1.792,0.797c-1.636,0.233 -1.792,0.316 -1.792,0.951c0,0.382 -0.134,0.945 -0.297,1.25c-0.4,0.748 0.238,0.74 1.655,-0.019c2.658,-1.424 5.067,0.289 3.044,2.164c-0.557,0.516 -0.637,0.703 -0.303,0.703c0.251,0 0.644,0.268 0.872,0.595c0.373,0.532 0.536,0.562 1.522,0.288c0.608,-0.168 1.201,-0.307 1.32,-0.308c0.384,-0.003 1.362,1.133 1.362,1.584c0,0.368 -0.303,0.406 -1.912,0.242c-1.802,-0.185 -1.899,-0.165 -1.695,0.35c0.366,0.919 0.532,4.786 0.253,5.85c-0.383,1.454 -1.216,1.471 -2.343,0.047Zm-12.907,-0.657c-0.503,-0.808 -0.841,-1.543 -0.752,-1.633c0.09,-0.09 0.532,0.054 0.983,0.32l0.819,0.485l0.161,-1.216c0.088,-0.669 0.242,-1.886 0.343,-2.703l0.182,-1.487l-1.455,0.77c-1.282,0.678 -1.456,0.879 -1.458,1.683c-0.004,1.833 -1.013,3.208 -1.786,2.436c-0.277,-0.277 -0.014,-1.261 0.875,-3.275c0.054,-0.12 -0.088,-0.217 -0.313,-0.217c-0.536,0 -1.358,-0.921 -1.358,-1.521c0,-0.388 0.13,-0.422 0.735,-0.193c2.099,0.798 4.999,-0.212 4.999,-1.741c0,-0.14 -0.47,0.063 -1.044,0.453c-1.214,0.824 -1.742,0.876 -2.62,0.262c-0.912,-0.638 -0.788,-0.988 0.348,-0.988c0.977,0 0.985,-0.009 0.822,-1.075c-0.09,-0.591 -0.426,-1.365 -0.748,-1.72l-0.586,-0.645l0.637,0c0.849,0 2.044,1.234 2.044,2.111c0,1.057 1.034,0.673 1.262,-0.469c0.141,-0.703 0.029,-1.042 -0.543,-1.638c-1.352,-1.412 -0.739,-2.194 1.01,-1.289c1.129,0.583 1.3,1.498 0.712,3.802c-0.27,1.059 -0.582,3.669 -0.692,5.798c-0.282,5.448 -0.919,6.359 -2.577,3.69Zm6.434,-2.232c-0.089,-0.144 0.387,-0.448 1.058,-0.675c1.066,-0.361 1.21,-0.51 1.137,-1.172c-0.063,-0.581 0.044,-0.758 0.458,-0.758c0.763,0 1.578,0.987 1.365,1.656c-0.273,0.863 -3.588,1.646 -4.018,0.949Zm-5.177,-13.944c-1.855,-0.95 -2.079,-2.018 -0.357,-1.7c1.068,0.197 4.542,0.243 4.664,0.061c0.025,-0.037 -0.012,-0.616 -0.082,-1.286c-0.125,-1.2 -0.144,-1.218 -1.228,-1.218c-0.774,0 -1.339,-0.216 -1.905,-0.726l-0.804,-0.726l1.333,0.181c1.969,0.266 2.537,0.001 2.537,-1.186c0,-0.974 -0.014,-0.984 -1.274,-0.984c-0.934,0 -1.489,-0.185 -2.079,-0.692c-1.016,-0.875 -0.825,-1.068 0.709,-0.723c1.117,0.25 2.269,0.168 6.96,-0.497c0.698,-0.099 1.132,-0.009 1.376,0.285c0.55,0.662 -0.638,1.34 -2.348,1.34c-1.316,0 -1.393,0.041 -1.231,0.645c0.095,0.355 0.175,0.886 0.176,1.179c0.004,0.457 0.153,0.506 1.03,0.341c1.069,-0.2 1.842,0.163 1.842,0.866c0,0.248 -0.466,0.409 -1.353,0.466c-1.308,0.084 -1.361,0.124 -1.608,1.178c-0.142,0.6 -0.199,1.15 -0.126,1.222c0.071,0.072 1.139,-0.009 2.372,-0.181c2.049,-0.285 2.303,-0.264 2.983,0.243c0.408,0.305 0.742,0.734 0.742,0.953c0,0.323 -0.845,0.402 -4.444,0.413c-3.555,0.011 -4.657,0.111 -5.51,0.502c-1.294,0.593 -1.303,0.593 -2.375,0.044Z" style="fill-rule:nonzero;"/></g></svg>