<?xml version="1.0" encoding="UTF-8" standalone="no"?><!DOCTYPE svg PUBLIC "-//W3C//DTD SVG 1.1//EN" "http://www.w3.org/Graphics/SVG/1.1/DTD/svg11.dtd"><svg width="100%" height="100%" viewBox="0 0 39 39" version="1.1" xmlns="http://www.w3.org/2000/svg" xmlns:xlink="http://www.w3.org/1999/xlink" xml:space="preserve" xmlns:serif="http://www.serif.com/" style="fill-rule:evenodd;clip-rule:evenodd;stroke-miterlimit:2;"><g id="g3810"><path id="path3040" d="M19.468,2.643c-2.825,0.714 -5.636,1.485 -8.422,2.342c-0.322,0.113 -0.78,0.183 -0.829,0.597c-0.488,2.357 -0.812,4.751 -1.198,7.128c-1.194,7.766 -2.331,15.543 -3.519,23.307c0.107,0.469 0.699,0.291 1.042,0.33c8.896,0.017 17.792,0.021 26.688,-0.023c0.462,-0.107 0.191,-0.657 0.191,-0.972c-1.388,-9.051 -2.674,-18.12 -4.137,-27.159c-0.192,-0.936 -0.241,-1.92 -0.564,-2.82c-0.239,-0.343 -0.74,-0.323 -1.096,-0.486c-2.643,-0.784 -5.293,-1.564 -7.969,-2.229c-0.062,-0.011 -0.123,-0.022 -0.187,-0.015Z" style="fill:none;fill-rule:nonzero;stroke:#000;stroke-width:2px;"/><path d="M19.468,2.643c-2.825,0.714 -5.636,1.485 -8.422,2.342c-0.322,0.113 -0.78,0.183 -0.829,0.597c-0.488,2.357 -0.812,4.751 -1.198,7.128c-1.194,7.766 -2.331,15.543 -3.519,23.307c0.107,0.469 0.699,0.291 1.042,0.33c8.896,0.017 17.792,0.021 26.688,-0.023c0.462,-0.107 0.191,-0.657 0.191,-0.972c-1.388,-9.051 -2.674,-18.12 -4.137,-27.159c-0.192,-0.936 -0.241,-1.92 -0.564,-2.82c-0.239,-0.343 -0.74,-0.323 -1.096,-0.486c-2.643,-0.784 -5.293,-1.564 -7.969,-2.229c-0.062,-0.011 -0.123,-0.022 -0.187,-0.015Z" style="fill:#fff;fill-rule:nonzero;"/><path id="path3004" d="M25.571,33.035c-0.493,-0.622 -1.412,-1.337 -2.044,-1.59c-0.631,-0.252 -1.147,-0.537 -1.147,-0.631c0,-0.095 0.806,-0.128 1.791,-0.074l1.792,0.098l0.086,-1.939c0.063,-1.449 -0.016,-1.978 -0.313,-2.092c-0.219,-0.083 -1.741,0.063 -3.382,0.326c-1.641,0.262 -3.41,0.541 -3.93,0.619c-1.037,0.155 -1.899,-0.403 -2.159,-1.399c-0.121,-0.46 -0.053,-0.533 0.33,-0.359c0.947,0.431 3.393,0.434 6.03,0.009c1.475,-0.239 2.736,-0.488 2.801,-0.554c0.067,-0.066 0.046,-0.314 -0.044,-0.552c-0.144,-0.373 -0.312,-0.38 -1.226,-0.053c-1.23,0.438 -3.172,0.509 -3.761,0.136c-0.299,-0.189 -0.07,-0.345 0.86,-0.588c0.697,-0.181 1.719,-0.447 2.271,-0.59c1.259,-0.327 2.294,-1.041 2.294,-1.581c0,-0.583 -0.657,-0.515 -1.853,0.191c-0.669,0.394 -1.334,0.559 -1.912,0.475c-0.661,-0.097 -1.057,0.04 -1.558,0.541c-0.788,0.789 -1.706,0.874 -1.97,0.185c-0.134,-0.347 0.229,-0.887 1.259,-1.874c0.796,-0.763 1.444,-1.479 1.44,-1.592c-0.003,-0.112 -0.415,-0.398 -0.916,-0.634c-1.514,-0.715 -1.304,-1.084 0.692,-1.217c0.994,-0.066 2.23,-0.3 2.746,-0.52c1.086,-0.464 1.929,-0.129 1.929,0.765c0,0.447 -0.316,0.587 -1.792,0.797c-1.636,0.233 -1.792,0.316 -1.792,0.951c0,0.382 -0.134,0.945 -0.297,1.25c-0.4,0.748 0.238,0.74 1.655,-0.019c2.658,-1.424 5.067,0.289 3.044,2.164c-0.557,0.516 -0.637,0.703 -0.303,0.703c0.251,0 0.644,0.268 0.872,0.595c0.373,0.532 0.536,0.562 1.522,0.288c0.608,-0.168 1.201,-0.307 1.32,-0.308c0.384,-0.003 1.362,1.133 1.362,1.584c0,0.368 -0.303,0.406 -1.912,0.242c-1.802,-0.185 -1.899,-0.165 -1.695,0.35c0.366,0.919 0.532,4.786 0.253,5.85c-0.383,1.454 -1.216,1.471 -2.343,0.047Zm-12.907,-0.657c-0.503,-0.808 -0.841,-1.543 -0.752,-1.633c0.09,-0.09 0.532,0.054 0.983,0.32l0.819,0.485l0.161,-1.216c0.088,-0.669 0.242,-1.886 0.343,-2.703l0.182,-1.487l-1.455,0.77c-1.282,0.678 -1.456,0.879 -1.458,1.683c-0.004,1.833 -1.013,3.208 -1.786,2.436c-0.277,-0.277 -0.014,-1.261 0.875,-3.275c0.054,-0.12 -0.088,-0.217 -0.313,-0.217c-0.536,0 -1.358,-0.921 -1.358,-1.521c0,-0.388 0.13,-0.422 0.735,-0.193c2.099,0.798 4.999,-0.212 4.999,-1.741c0,-0.14 -0.47,0.063 -1.044,0.453c-1.214,0.824 -1.742,0.876 -2.62,0.262c-0.912,-0.638 -0.788,-0.988 0.348,-0.988c0.977,0 0.985,-0.009 0.822,-1.075c-0.09,-0.591 -0.426,-1.365 -0.748,-1.72l-0.586,-0.645l0.637,0c0.849,0 2.044,1.234 2.044,2.111c0,1.057 1.034,0.673 1.262,-0.469c0.141,-0.703 0.029,-1.042 -0.543,-1.638c-1.352,-1.412 -0.739,-2.194 1.01,-1.289c1.129,0.583 1.3,1.498 0.712,3.802c-0.27,1.059 -0.582,3.669 -0.692,5.798c-0.282,5.448 -0.919,6.359 -2.577,3.69Zm6.434,-2.232c-0.089,-0.144 0.387,-0.448 1.058,-0.675c1.066,-0.361 1.21,-0.51 1.137,-1.172c-0.063,-0.581 0.044,-0.758 0.458,-0.758c0.763,0 1.578,0.987 1.365,1.656c-0.273,0.863 -3.588,1.646 -4.018,0.949Zm-5.177,-13.944c-1.855,-0.95 -2.079,-2.018 -0.357,-1.7c1.068,0.197 4.542,0.243 4.664,0.061c0.025,-0.037 -0.012,-0.616 -0.082,-1.286c-0.125,-1.2 -0.144,-1.218 -1.228,-1.218c-0.774,0 -1.339,-0.216 -1.905,-0.726l-0.804,-0.726l1.333,0.181c1.969,0.266 2.537,0.001 2.537,-1.186c0,-0.974 -0.014,-0.984 -1.274,-0.984c-0.934,0 -1.489,-0.185 -2.079,-0.692c-1.016,-0.875 -0.825,-1.068 0.709,-0.723c1.117,0.25 2.269,0.168 6.96,-0.497c0.698,-0.099 1.132,-0.009 1.376,0.285c0.55,0.662 -0.638,1.34 -2.348,1.34c-1.316,0 -1.393,0.041 -1.231,0.645c0.095,0.355 0.175,0.886 0.176,1.179c0.004,0.457 0.153,0.506 1.03,0.341c1.069,-0.2 1.842,0.163 1.842,0.866c0,0.248 -0.466,0.409 -1.353,0.466c-1.308,0.084 -1.361,0.124 -1.608,1.178c-0.142,0.6 -0.199,1.15 -0.126,1.222c0.071,0.072 1.139,-0.009 2.372,-0.181c2.049,-0.285 2.303,-0.264 2.983,0.243c0.408,0.305 0.742,0.734 0.742,0.953c0,0.323 -0.845,0.402 -4.444,0.413c-3.555,0.011 -4.657,0.111 -5.51,0.502c-1.294,0.593 -1.303,0.593 -2.375,0.044Z" style="fill-rule:nonzero;"/></g></svg>