<?xml version="1.0" encoding="UTF-8" standalone="no"?><!DOCTYPE svg PUBLIC "-//W3C//DTD SVG 1.1//EN" "http://www.w3.org/Graphics/SVG/1.1/DTD/svg11.dtd"><svg width="100%" height="100%" viewBox="0 0 58 58" version="1.1" xmlns="http://www.w3.org/2000/svg" xmlns:xlink="http://www.w3.org/1999/xlink" xml:space="preserve" xmlns:serif="http://www.serif.com/" style="fill-rule:evenodd;clip-rule:evenodd;stroke-linejoin:round;stroke-miterlimit:1.41421;"><g id="g3810"><path id="path3040" d="M28.952,10.662c-3.08,0.778 -6.144,1.619 -9.18,2.553c-0.351,0.123 -0.85,0.199 -0.904,0.651c-0.532,2.569 -0.885,5.178 -1.305,7.769c-1.302,8.464 -2.541,16.941 -3.836,25.403c0.117,0.512 0.762,0.318 1.136,0.36c9.696,0.019 19.392,0.023 29.088,-0.025c0.504,-0.117 0.209,-0.716 0.209,-1.059c-1.513,-9.866 -2.915,-19.75 -4.51,-29.603c-0.209,-1.02 -0.262,-2.092 -0.614,-3.073c-0.261,-0.374 -0.807,-0.352 -1.195,-0.53c-2.881,-0.854 -5.769,-1.705 -8.686,-2.43c-0.067,-0.012 -0.134,-0.023 -0.203,-0.016Zm3.828,4.698c0.275,-0.068 0.691,0.124 0.57,0.458c-0.298,0.473 -0.954,0.469 -1.442,0.588c-0.82,0.167 -1.697,0.085 -2.486,0.363c-0.474,0.266 -0.135,0.853 -0.058,1.244c0.186,0.467 0.208,1.05 0.569,1.421c0.707,0.275 1.506,0.012 2.235,0.184c0.187,0.1 0.516,0.25 0.519,0.479c-0.587,0.28 -1.29,0.164 -1.925,0.265c-0.486,-0.008 -0.985,0.261 -1.102,0.763c-0.193,0.717 -0.44,1.446 -0.465,2.19c0.125,0.498 0.767,0.352 1.15,0.372c1.209,-0.004 2.399,-0.296 3.603,-0.293c0.628,0.038 1.34,0.073 1.795,0.564c0.077,0.1 0.363,0.276 0.253,0.405c-0.523,0.236 -1.142,0.105 -1.703,0.152c-2.196,0.026 -4.394,-0.102 -6.587,-0.007c-1.277,0.064 -2.426,0.804 -3.694,0.841c-0.982,-0.07 -1.777,-0.775 -2.364,-1.513c-0.061,-0.156 0.316,0.002 0.432,-0.01c1.4,0.32 2.846,0.502 4.279,0.311c0.488,-0.085 1.019,-0.048 1.469,-0.26c0.178,-0.511 0.013,-1.088 0.051,-1.625c-0.041,-0.519 0.084,-1.298 -0.511,-1.543c-0.636,-0.147 -1.319,-0.006 -1.936,-0.269c-0.427,-0.136 -0.827,-0.347 -1.217,-0.57c1.061,-0.003 2.156,0.215 3.196,-0.051c0.612,-0.264 0.524,-1.072 0.448,-1.612c-0.074,-0.52 -0.242,-1.196 -0.866,-1.269c-1.104,-0.125 -2.361,-0.166 -3.19,-1c-0.28,-0.25 0.191,-0.038 0.351,-0.016c2.45,0.51 4.965,0.021 7.39,-0.418c0.411,-0.064 0.822,-0.132 1.236,-0.144l0,0Zm1.908,11.94c0.41,-0.054 0.755,0.305 0.913,0.636c-0.381,0.507 -1.106,0.417 -1.669,0.536c-0.78,0.118 -1.779,0.076 -2.281,0.799c-0.304,0.739 -0.435,1.546 -0.647,2.313c-0.034,0.477 0.569,0.645 0.937,0.475c1.136,-0.281 2.203,-0.873 3.362,-1.022c0.582,-0.073 1.112,0.28 1.59,0.572c0.424,0.307 0.138,0.885 -0.12,1.206c-0.299,0.494 -0.878,0.839 -1.004,1.42c0.031,0.552 0.753,0.425 0.992,0.835c0.339,0.421 0.784,0.885 1.383,0.777c0.75,-0.029 1.461,-0.427 2.208,-0.306c0.471,0.225 0.814,0.664 1.077,1.105c-1.231,-0.002 -2.454,-0.111 -3.673,-0.262c-0.494,0.098 -0.225,0.677 -0.214,1.008c0.346,2.172 0.481,4.427 0.081,6.6c-0.042,0.329 -0.345,0.798 -0.724,0.57c-0.826,-0.528 -1.321,-1.444 -2.1,-2.043c-0.292,-0.248 -0.603,-0.472 -0.936,-0.66c0.782,-0.078 1.643,0.042 2.356,-0.344c0.622,-0.509 0.45,-1.417 0.432,-2.124c-0.101,-0.882 -0.109,-1.796 -0.323,-2.652c-0.269,-0.305 -0.768,-0.065 -1.133,-0.118c-2.628,0.09 -5.185,0.771 -7.782,1.11c-0.617,0.095 -1.068,-0.439 -1.472,-0.813c-0.11,-0.078 -0.144,-0.348 0.06,-0.252c1.36,0.162 2.742,0.109 4.109,0.067c1.749,-0.116 3.504,-0.311 5.211,-0.718c0.415,-0.074 0.798,-0.509 0.56,-0.929c-0.182,-0.486 -0.665,-0.865 -1.201,-0.73c-1.309,0.244 -2.612,0.699 -3.96,0.505c1.79,-0.595 3.815,-0.876 5.266,-2.198c0.388,-0.327 0.629,-1.061 0.122,-1.391c-0.614,-0.267 -1.271,0.122 -1.847,0.323c-0.916,0.394 -1.852,0.892 -2.884,0.787c-0.72,-0.072 -1.31,0.387 -1.799,0.853c-0.289,0.202 -0.69,0.603 -1.054,0.361c-0.266,-0.374 0.078,-0.823 0.33,-1.103c0.702,-0.856 1.589,-1.564 2.223,-2.474c0.251,-0.532 -0.395,-0.882 -0.75,-1.14c-0.221,-0.144 -0.464,-0.249 -0.68,-0.401c1.408,-0.228 2.862,-0.412 4.165,-1.038c0.279,-0.111 0.577,-0.138 0.876,-0.14l0,0Zm-11.738,1.149c0.991,0.081 2.047,0.79 2.068,1.86c0.092,1.374 -0.44,2.685 -0.56,4.043c-0.36,2.482 -0.383,5 -0.635,7.489c-0.142,0.816 -0.203,1.721 -0.681,2.419c-0.24,0.269 -0.506,-0.168 -0.639,-0.343c-0.448,-0.696 -0.883,-1.469 -1.269,-2.159c0.461,0.221 0.943,0.624 1.476,0.531c0.468,-0.278 0.356,-0.939 0.503,-1.395c0.272,-1.519 0.414,-3.06 0.485,-4.597c-0.198,-0.484 -0.763,-0.127 -1.081,0.009c-0.814,0.437 -1.777,0.731 -2.385,1.465c-0.453,0.649 -0.16,1.494 -0.453,2.201c-0.18,0.489 -0.341,1.13 -0.861,1.356c-0.217,0.038 -0.421,-0.21 -0.306,-0.424c0.163,-0.974 0.709,-1.837 0.902,-2.802c0.022,-0.388 -0.368,-0.602 -0.697,-0.639c-0.431,-0.256 -0.824,-0.687 -0.998,-1.136c1.141,0.143 2.323,0.641 3.461,0.197c0.767,-0.28 1.578,-0.553 2.215,-1.077c0.453,-0.429 0.478,-1.104 0.45,-1.683c-0.104,-0.367 -0.531,-0.24 -0.75,-0.063c-0.704,0.374 -1.367,0.848 -2.129,1.095c-0.629,0.107 -1.234,-0.258 -1.653,-0.695c0.59,-0.086 1.224,0.031 1.795,-0.142c0.216,-0.446 0.041,-0.979 0.014,-1.458c-0.054,-0.75 -0.382,-1.499 -0.809,-2.064c0.589,0.098 1.178,0.404 1.423,0.985c0.27,0.408 0.25,0.905 0.156,1.365c-0.043,0.44 0.477,0.678 0.832,0.472c0.714,-0.173 1.468,-0.694 1.444,-1.51c0.071,-1.186 -0.917,-2.016 -1.475,-2.949c-0.067,-0.155 -0.101,-0.414 0.157,-0.351l0,0Zm8.455,9.663c0.57,0.083 1.077,0.538 1.304,1.056c0.082,0.437 -0.467,0.636 -0.782,0.791c-0.808,0.345 -1.682,0.545 -2.568,0.485c0.659,-0.311 1.503,-0.477 1.892,-1.152c0.03,-0.376 -0.048,-0.782 0.035,-1.144c0.033,-0.03 0.077,-0.035 0.119,-0.036l0,0Z" style="fill:#fff;fill-rule:nonzero;"/><path id="path3010" d="M13.266,47.097c0.065,-0.387 1.238,-8.212 2.607,-17.39c1.369,-9.177 2.527,-16.716 2.573,-16.752c0.28,-0.22 9.959,-2.655 10.554,-2.655c0.595,0 10.274,2.435 10.554,2.655c0.046,0.037 1.204,7.575 2.573,16.752c1.369,9.178 2.542,17.003 2.607,17.39l0.117,0.703l-15.851,0l-15.851,0l0.117,-0.703Zm30.339,-1.094c-0.088,-0.473 -1.182,-7.82 -2.431,-16.328c-1.249,-8.508 -2.366,-15.579 -2.482,-15.713c-0.116,-0.134 -2.344,-0.823 -4.952,-1.532l-4.74,-1.287l-4.74,1.287c-2.608,0.709 -4.836,1.398 -4.952,1.532c-0.116,0.134 -1.233,7.205 -2.482,15.713c-1.249,8.508 -2.343,15.855 -2.431,16.328l-0.161,0.859l29.532,0l-0.161,-0.859Zm-8.163,-2.146c-0.496,-0.621 -1.55,-1.43 -2.344,-1.797l-1.442,-0.667l2.266,-0.091l2.266,-0.092l0,-1.197c0,-0.659 -0.082,-1.605 -0.181,-2.102c-0.169,-0.845 -0.267,-0.898 -1.485,-0.807c-0.717,0.054 -1.612,0.163 -1.99,0.243l-0.687,0.144l0.777,0.777c0.645,0.645 0.719,0.887 0.434,1.42c-0.439,0.819 -1.545,1.237 -3.277,1.237c-1.837,0 -2.019,-0.472 -0.39,-1.015c1.357,-0.452 1.711,-0.978 1.197,-1.778c-0.237,-0.368 -0.555,-0.387 -1.777,-0.108c-1.784,0.408 -2.799,0.101 -3.301,-1.001c-0.469,-1.029 -0.18,-1.271 0.953,-0.802c0.939,0.389 2.306,0.317 6.836,-0.357c2.072,-0.309 2.661,-0.596 2.026,-0.988c-0.131,-0.081 -0.981,0.045 -1.887,0.28c-0.906,0.235 -1.818,0.375 -2.026,0.312c-0.208,-0.064 -0.793,-0.208 -1.3,-0.32c-1.202,-0.266 -0.629,-0.643 1.703,-1.122c1.979,-0.406 4.062,-1.465 4.062,-2.065c0,-0.589 -0.361,-0.518 -2.187,0.429c-1.239,0.643 -1.741,0.763 -2.138,0.509c-0.408,-0.26 -0.738,-0.139 -1.549,0.57c-0.837,0.731 -1.144,0.839 -1.641,0.573c-0.978,-0.524 -0.721,-1.255 1.031,-2.924c1.446,-1.378 1.562,-1.577 0.976,-1.676c-0.365,-0.062 -0.988,-0.457 -1.383,-0.878l-0.718,-0.764l1.695,-0.007c1.014,-0.004 2.248,-0.258 3.071,-0.631c1.523,-0.691 2.358,-0.581 2.872,0.38c0.491,0.917 0.028,1.221 -2.158,1.419c-1.814,0.165 -1.888,0.205 -1.865,1.023c0.013,0.468 -0.075,1.011 -0.197,1.208c-0.323,0.523 0.827,0.448 1.553,-0.101c1.268,-0.959 4.513,-0.297 4.513,0.921c0,0.235 -0.364,0.86 -0.809,1.389c-0.641,0.761 -0.704,0.961 -0.303,0.961c0.279,0 0.593,0.226 0.7,0.503c0.157,0.41 0.48,0.465 1.745,0.297c1.722,-0.229 2.73,0.318 2.73,1.479c0,0.575 -0.145,0.605 -2.012,0.414l-2.011,-0.206l0.292,1.02c0.429,1.494 0.37,6.291 -0.082,6.743c-0.681,0.681 -1.637,0.399 -2.558,-0.755l0,0Zm-14.179,-0.962c-0.56,-0.966 -0.947,-1.827 -0.861,-1.914c0.134,-0.134 0.538,0.023 2.085,0.81c0.236,0.12 0.729,-4.567 0.504,-4.792c-0.081,-0.081 -0.696,0.101 -1.366,0.405c-1.085,0.492 -1.223,0.68 -1.253,1.713c-0.043,1.42 -0.859,2.745 -1.692,2.745c-0.802,0 -0.803,-0.968 -0.001,-2.734c0.579,-1.275 0.58,-1.328 0.032,-1.328c-0.662,0 -1.102,-0.472 -1.427,-1.53c-0.207,-0.676 -0.158,-0.728 0.509,-0.535c1.876,0.544 2.781,0.55 4.148,0.027c1.022,-0.39 1.434,-0.721 1.434,-1.152c0,-0.588 -0.023,-0.587 -0.823,0.042c-1.042,0.82 -2.432,0.83 -3.239,0.023c-0.954,-0.954 -0.786,-1.309 0.503,-1.067l1.128,0.212l-0.219,-1.37c-0.121,-0.753 -0.417,-1.525 -0.659,-1.716c-0.648,-0.51 -0.54,-0.747 0.34,-0.747c0.43,0 1.063,0.282 1.407,0.625c0.343,0.344 0.625,0.977 0.625,1.407c0,0.85 0.026,0.871 0.755,0.591c0.707,-0.271 0.631,-1.938 -0.117,-2.573c-0.336,-0.285 -0.707,-0.921 -0.824,-1.412c-0.208,-0.877 -0.192,-0.889 0.846,-0.669c2.243,0.475 2.966,2.121 2.129,4.846c-0.184,0.6 -0.451,3.131 -0.593,5.623c-0.142,2.492 -0.436,4.918 -0.652,5.39c-0.646,1.409 -1.545,1.104 -2.719,-0.92l0,0Zm1.608,-17.277c-0.906,-0.366 -2.086,-1.916 -1.73,-2.272c0.17,-0.17 0.768,-0.149 1.493,0.052c0.666,0.185 2.018,0.337 3.007,0.338l1.797,0.002l0,-1.421l0,-1.42l-1.016,0.18c-0.717,0.128 -1.314,-0.005 -2.031,-0.45c-1.519,-0.943 -1.26,-1.264 1.015,-1.264l2.032,0l0,-1.113c0,-0.688 -0.124,-1.036 -0.324,-0.912c-0.627,0.388 -2.772,-0.219 -3.56,-1.006c-0.877,-0.877 -0.794,-1.528 0.132,-1.033c0.903,0.483 5.319,0.371 7.183,-0.182c1.817,-0.54 3.131,-0.266 3.131,0.652c0,0.586 -0.932,0.994 -2.835,1.242c-1.376,0.179 -1.424,0.22 -1.292,1.116c0.163,1.111 0.496,1.375 1.224,0.967c0.58,-0.324 2.278,0.34 2.278,0.891c0,0.422 -1.204,1.006 -1.587,0.769c-0.178,-0.11 -0.652,-0.118 -1.053,-0.017c-0.559,0.14 -0.759,0.446 -0.861,1.317l-0.132,1.135l2.624,-0.213c2.886,-0.234 4.134,0.187 4.134,1.394c0,0.591 -0.212,0.617 -4.609,0.582c-3.541,-0.028 -4.927,0.081 -5.977,0.468c-1.512,0.558 -2.064,0.594 -3.043,0.199l0,-0.001Z" style="fill:#d0d0d0;fill-rule:nonzero;"/><path id="path3008" d="M13.375,47.167c0,-1.285 4.999,-33.866 5.23,-34.084c0.306,-0.289 9.619,-2.783 10.395,-2.783c0.776,0 10.089,2.494 10.395,2.783c0.231,0.218 5.23,32.799 5.23,34.084c0,0.627 -0.148,0.633 -15.625,0.633c-15.477,0 -15.625,-0.006 -15.625,-0.633Zm30.236,-1.32c-0.088,-0.559 -1.193,-8.003 -2.456,-16.543l-2.297,-15.528l-3.445,-0.942c-1.894,-0.519 -4.112,-1.119 -4.929,-1.335c-1.614,-0.426 -1.224,-0.491 -7.897,1.335l-3.445,0.942l-2.297,15.528c-1.263,8.54 -2.368,15.984 -2.456,16.543l-0.158,1.015l29.538,0l-0.158,-1.015Zm-8.13,-2.093c-0.56,-0.792 -1.274,-1.352 -2.032,-1.594c-2.019,-0.645 -1.872,-0.923 0.489,-0.923l2.25,0l-0.004,-1.484c-0.008,-2.663 -0.164,-2.894 -1.827,-2.704c-0.798,0.091 -1.802,0.239 -2.232,0.329l-0.781,0.163l0.859,0.452c1.289,0.677 1.179,1.893 -0.224,2.479c-1.205,0.504 -2.909,0.587 -3.561,0.173c-0.305,-0.193 -0.04,-0.398 0.938,-0.724c1.22,-0.407 1.366,-0.56 1.394,-1.46c0.024,-0.753 -0.081,-0.961 -0.418,-0.832c-0.91,0.349 -2.886,0.553 -3.607,0.372c-0.696,-0.175 -1.687,-1.655 -1.34,-2.002c0.087,-0.087 0.583,0.018 1.102,0.233c1.432,0.593 9.235,-0.315 8.981,-1.045c-0.069,-0.196 -0.462,-0.318 -0.874,-0.271c-0.413,0.047 -1.483,0.17 -2.379,0.272c-1.844,0.212 -3.07,-0.061 -2.277,-0.506c0.258,-0.144 1.365,-0.495 2.461,-0.779c2.221,-0.575 3.476,-1.268 3.476,-1.92c0,-0.593 -0.431,-0.545 -1.915,0.212c-0.696,0.355 -1.666,0.604 -2.156,0.553c-0.593,-0.063 -1.146,0.147 -1.66,0.63c-0.866,0.814 -2.174,0.815 -2.329,0.003c-0.055,-0.291 0.621,-1.232 1.559,-2.17c1.43,-1.43 1.572,-1.674 1.033,-1.785c-0.696,-0.142 -1.719,-0.953 -1.719,-1.362c0,-0.145 0.7,-0.264 1.556,-0.264c0.856,0 2.121,-0.226 2.812,-0.502c1.404,-0.562 2.648,-0.395 2.951,0.396c0.301,0.783 -0.122,1.02 -2.219,1.239l-1.904,0.199l-0.172,1.281c-0.094,0.705 -0.124,1.329 -0.066,1.388c0.059,0.058 0.677,-0.186 1.374,-0.541c1.382,-0.705 2.865,-0.831 3.813,-0.324c0.788,0.422 0.794,1.909 0.011,2.617c-0.582,0.527 -0.58,0.551 0.078,1.225c0.6,0.614 0.832,0.658 2.163,0.406c1.252,-0.236 1.589,-0.192 2.109,0.278c0.34,0.308 0.619,0.836 0.619,1.173c0,0.568 -0.149,0.597 -2.004,0.399l-2.003,-0.215l0.277,1.194c0.382,1.644 0.362,5.635 -0.031,6.37c-0.531,0.992 -1.612,0.727 -2.571,-0.629l0,0Zm-13.934,-0.663c-1.405,-2.26 -1.325,-2.674 0.295,-1.52l0.908,0.646l0.016,-0.724c0.009,-0.399 0.122,-1.674 0.251,-2.834c0.129,-1.16 0.157,-2.103 0.062,-2.095c-0.095,0.008 -0.735,0.324 -1.423,0.703c-1.095,0.604 -1.259,0.84 -1.324,1.91c-0.085,1.393 -0.81,2.685 -1.505,2.685c-0.796,0 -0.869,-0.886 -0.205,-2.483l0.634,-1.526l-0.722,-0.181c-0.443,-0.111 -0.853,-0.558 -1.061,-1.156c-0.324,-0.927 -0.306,-0.964 0.359,-0.75c1.61,0.516 2.826,0.52 4.153,0.013c0.972,-0.371 1.39,-0.71 1.39,-1.126c0,-0.579 -0.026,-0.578 -1.016,0.025c-1.331,0.812 -2.16,0.784 -2.992,-0.102c-0.916,-0.974 -0.869,-1.072 0.492,-1.031c1.122,0.034 1.168,-0.004 1.075,-0.901c-0.054,-0.516 -0.374,-1.325 -0.713,-1.797l-0.615,-0.86l0.791,0c1.011,0 2.041,1.025 2.041,2.032c0,0.572 0.166,0.781 0.625,0.781c0.52,0 0.625,-0.209 0.625,-1.25c0,-0.688 -0.148,-1.25 -0.329,-1.25c-0.339,0 -1.371,-2.155 -1.141,-2.385c0.358,-0.357 2.591,0.755 3.008,1.499c0.418,0.746 0.408,1.122 -0.09,3.594c-0.307,1.518 -0.66,4.541 -0.785,6.717c-0.309,5.375 -1.023,6.232 -2.804,3.366l0,0Zm0.989,-17.776c-0.548,-0.334 -1.162,-0.917 -1.365,-1.296c-0.363,-0.678 -0.343,-0.687 1.152,-0.487c2.266,0.302 2.35,0.308 3.786,0.254l1.329,-0.049l0,-1.428c0,-1.29 -0.069,-1.423 -0.704,-1.372c-1.344,0.109 -1.767,-0.017 -2.638,-0.784l-0.877,-0.771l2.109,-0.01l2.11,-0.01l0,-1.051c0,-1.021 -0.037,-1.051 -1.275,-1.051c-1.382,0 -2.871,-0.871 -3.05,-1.785c-0.089,-0.452 -0.003,-0.485 0.526,-0.201c0.911,0.487 5.571,0.41 7.325,-0.122c1.476,-0.448 3.036,-0.241 3.036,0.404c0,0.607 -1.211,1.306 -2.265,1.306c-1.745,0 -1.998,0.194 -1.855,1.423c0.124,1.059 0.161,1.086 1.199,0.891c0.791,-0.148 1.229,-0.057 1.676,0.347c0.807,0.73 0.518,1.088 -0.883,1.094c-1.487,0.006 -1.791,0.234 -2.043,1.526l-0.207,1.062l2.531,-0.195c2.836,-0.219 4.347,0.251 4.347,1.352c0,0.58 -0.233,0.607 -4.766,0.561c-3.852,-0.039 -4.997,0.052 -5.975,0.477c-1.547,0.67 -2.004,0.659 -3.223,-0.085l0,0Z" style="fill:#b0b0b0;fill-rule:nonzero;"/><path id="path3006" d="M13.375,47.348c0,-1.119 5.047,-34.093 5.246,-34.271c0.122,-0.11 2.508,-0.802 5.301,-1.538l5.078,-1.339l5.078,1.339c2.793,0.736 5.179,1.428 5.301,1.538c0.199,0.178 5.246,33.152 5.246,34.271c0,0.388 -2.208,0.452 -15.625,0.452c-13.417,0 -15.625,-0.064 -15.625,-0.452Zm30.315,-0.72c0.002,-0.611 -4.733,-32.684 -4.845,-32.822c-0.186,-0.226 -9.159,-2.559 -9.845,-2.559c-0.686,0 -9.659,2.333 -9.845,2.559c-0.112,0.138 -4.847,32.211 -4.845,32.822c0.002,0.513 0.911,0.547 14.69,0.547c13.779,0 14.688,-0.034 14.69,-0.547Zm-8.036,-2.77c-0.48,-0.621 -1.576,-1.457 -2.435,-1.857l-1.563,-0.728l2.266,-0.018l2.266,-0.018l0,-1.693c0,-2.627 -0.065,-2.696 -2.296,-2.476c-1.848,0.183 -3.538,0.7 -2.362,0.722c0.63,0.012 1.533,0.992 1.533,1.664c0,0.281 -0.276,0.659 -0.613,0.839c-0.961,0.514 -3.312,0.74 -3.955,0.38c-0.501,-0.28 -0.373,-0.379 0.898,-0.699c1.399,-0.353 1.482,-0.432 1.482,-1.422c0,-1.021 -0.027,-1.043 -1.016,-0.827c-2.169,0.474 -3.399,0.286 -4.082,-0.623c-0.353,-0.47 -0.579,-0.917 -0.503,-0.993c0.076,-0.075 0.731,0.021 1.456,0.214c1.035,0.276 2.099,0.245 4.937,-0.145c1.99,-0.273 3.706,-0.585 3.814,-0.693c0.108,-0.107 0.04,-0.351 -0.15,-0.542c-0.253,-0.253 -0.617,-0.252 -1.354,0.005c-1.192,0.416 -3.393,0.454 -3.999,0.071c-0.466,-0.296 0.695,-0.765 2.813,-1.138c1.443,-0.254 3.084,-1.243 3.084,-1.858c0,-0.635 -0.408,-0.597 -1.932,0.18c-0.8,0.409 -1.643,0.601 -2.243,0.513c-0.74,-0.108 -1.094,0.029 -1.541,0.596c-0.589,0.75 -1.9,0.995 -2.254,0.422c-0.352,-0.568 0.159,-1.48 1.247,-2.226c0.588,-0.402 1.192,-1.009 1.344,-1.348c0.224,-0.504 0.102,-0.704 -0.67,-1.098c-1.559,-0.794 -1.408,-1.262 0.408,-1.262c0.879,0 2.103,-0.211 2.72,-0.469c1.463,-0.611 2.088,-0.592 2.701,0.085c0.761,0.841 0.25,1.251 -1.857,1.49l-1.913,0.216l-0.172,1.286c-0.095,0.707 -0.125,1.334 -0.067,1.392c0.058,0.058 0.676,-0.185 1.374,-0.541c1.394,-0.711 2.396,-0.806 3.616,-0.342c0.988,0.376 1.104,1.825 0.209,2.634c-0.579,0.524 -0.576,0.552 0.141,1.269c0.654,0.654 0.873,0.701 2.037,0.439c1.529,-0.343 2.789,0.255 2.789,1.323c0,0.606 -0.117,0.63 -2.08,0.419c-1.957,-0.209 -2.067,-0.187 -1.843,0.366c0.416,1.027 0.567,5.852 0.212,6.761c-0.468,1.197 -1.392,1.095 -2.447,-0.27l0,0Zm-14.107,-0.767c-1.265,-2.034 -1.241,-2.38 0.109,-1.583c0.993,0.586 1.095,0.596 1.104,0.109c0.006,-0.295 0.137,-1.518 0.292,-2.719c0.154,-1.2 0.237,-2.226 0.183,-2.28c-0.053,-0.053 -0.73,0.211 -1.505,0.587c-1.308,0.636 -1.409,0.771 -1.425,1.915c-0.018,1.372 -0.757,2.742 -1.478,2.742c-0.79,0 -0.847,-0.818 -0.164,-2.36c0.357,-0.808 0.65,-1.506 0.65,-1.552c0,-0.045 -0.35,-0.17 -0.777,-0.277c-0.484,-0.122 -0.851,-0.493 -0.975,-0.986c-0.25,-0.997 -0.036,-1.217 0.767,-0.788c1.496,0.801 4.826,-0.031 5.154,-1.288c0.086,-0.328 0.062,-0.55 -0.053,-0.493c-0.116,0.057 -0.734,0.371 -1.374,0.697c-1.293,0.659 -2.43,0.403 -3.008,-0.677c-0.273,-0.511 -0.182,-0.557 0.904,-0.453l1.207,0.115l-0.183,-1.203c-0.1,-0.662 -0.47,-1.52 -0.821,-1.907l-0.638,-0.703l0.781,0c0.945,0 2.14,1.189 2.14,2.13c0,0.461 0.192,0.683 0.591,0.683c0.939,0 1.05,-2.005 0.158,-2.844c-0.379,-0.356 -0.76,-0.917 -0.846,-1.246c-0.241,-0.921 1.484,-0.802 2.455,0.169c0.898,0.898 0.95,1.72 0.275,4.326c-0.271,1.046 -0.594,3.829 -0.717,6.185c-0.298,5.725 -0.985,6.631 -2.806,3.701l0,0Zm0.989,-17.776c-0.548,-0.334 -1.151,-0.896 -1.34,-1.249c-0.31,-0.58 -0.254,-0.641 0.585,-0.641c0.511,0 1.283,0.134 1.716,0.299c0.433,0.165 1.497,0.216 2.364,0.113l1.577,-0.187l0,-1.363l0,-1.362l-1.233,0c-0.889,0 -1.477,-0.225 -2.109,-0.805l-0.877,-0.805l1.204,0.165c0.663,0.092 1.612,0.085 2.11,-0.015c0.783,-0.157 0.904,-0.322 0.904,-1.236c0,-1.039 -0.019,-1.054 -1.388,-1.054c-1.018,0 -1.623,-0.202 -2.266,-0.755c-1.1,-0.947 -0.851,-1.223 0.775,-0.858c1.156,0.26 2.543,0.176 7.598,-0.464c1.138,-0.143 1.477,-0.078 1.628,0.314c0.278,0.726 -0.949,1.45 -2.458,1.45c-0.706,0 -1.35,0.066 -1.431,0.147c-0.081,0.081 -0.088,0.647 -0.017,1.258c0.126,1.079 0.16,1.105 1.201,0.909c0.791,-0.148 1.229,-0.057 1.676,0.347c0.843,0.763 0.506,1.089 -1.127,1.089c-1.438,0 -1.473,0.033 -1.839,1.689l-0.2,0.907l2.524,-0.195c1.594,-0.123 2.803,-0.067 3.282,0.151c0.788,0.359 1.226,1.063 0.944,1.519c-0.09,0.145 -2.235,0.248 -4.767,0.229c-3.616,-0.027 -4.896,0.078 -5.971,0.489c-1.717,0.658 -1.853,0.654 -3.065,-0.086l0,0Z" style="fill:#909090;fill-rule:nonzero;"/><path id="path3004" d="M13.375,47.462c0,-0.99 5.086,-34.222 5.261,-34.376c0.114,-0.101 2.493,-0.783 5.286,-1.515l5.078,-1.332l5.078,1.332c2.793,0.732 5.172,1.414 5.286,1.515c0.175,0.154 5.261,33.386 5.261,34.376c0,0.238 -4.625,0.338 -15.625,0.338c-11,0 -15.625,-0.1 -15.625,-0.338Zm30.314,-0.99c0.002,-0.804 -4.701,-32.527 -4.844,-32.677c-0.052,-0.054 -2.288,-0.711 -4.969,-1.46l-4.876,-1.362l-4.876,1.362c-2.681,0.749 -4.917,1.406 -4.969,1.46c-0.143,0.15 -4.846,31.873 -4.844,32.677l0.002,0.703l29.375,0l0.002,-0.703l-0.001,0Zm-8.086,-2.684c-0.537,-0.678 -1.539,-1.457 -2.227,-1.733c-0.688,-0.275 -1.251,-0.585 -1.251,-0.688c0,-0.103 0.879,-0.139 1.953,-0.08l1.953,0.106l0.093,-2.113c0.069,-1.579 -0.017,-2.156 -0.341,-2.28c-0.238,-0.091 -1.897,0.068 -3.686,0.355c-1.789,0.286 -3.717,0.59 -4.283,0.675c-1.131,0.169 -2.07,-0.439 -2.354,-1.525c-0.131,-0.501 -0.057,-0.581 0.36,-0.391c1.032,0.469 3.698,0.473 6.572,0.009c1.608,-0.26 2.983,-0.531 3.054,-0.603c0.072,-0.072 0.05,-0.343 -0.049,-0.602c-0.156,-0.406 -0.339,-0.414 -1.336,-0.058c-1.34,0.478 -3.457,0.555 -4.099,0.149c-0.326,-0.207 -0.076,-0.377 0.937,-0.641c0.76,-0.198 1.874,-0.488 2.476,-0.644c1.372,-0.356 2.5,-1.134 2.5,-1.723c0,-0.635 -0.716,-0.561 -2.02,0.208c-0.729,0.43 -1.454,0.61 -2.084,0.518c-0.72,-0.106 -1.152,0.044 -1.698,0.59c-0.859,0.86 -1.859,0.953 -2.147,0.201c-0.146,-0.378 0.25,-0.966 1.372,-2.042c0.868,-0.832 1.574,-1.612 1.57,-1.735c-0.004,-0.122 -0.453,-0.434 -0.999,-0.691c-1.65,-0.78 -1.421,-1.182 0.755,-1.327c1.083,-0.072 2.43,-0.327 2.993,-0.567c1.183,-0.505 2.102,-0.14 2.102,0.834c0,0.487 -0.344,0.64 -1.953,0.869c-1.783,0.254 -1.953,0.344 -1.953,1.036c0,0.417 -0.146,1.03 -0.324,1.363c-0.436,0.815 0.259,0.807 1.804,-0.021c2.897,-1.552 5.523,0.315 3.318,2.359c-0.607,0.562 -0.695,0.766 -0.331,0.766c0.274,0 0.702,0.292 0.951,0.649c0.406,0.579 0.584,0.612 1.659,0.314c0.662,-0.184 1.309,-0.335 1.438,-0.336c0.419,-0.003 1.485,1.235 1.485,1.726c0,0.401 -0.33,0.443 -2.084,0.264c-1.964,-0.202 -2.07,-0.18 -1.847,0.382c0.398,1.001 0.579,5.216 0.275,6.376c-0.417,1.585 -1.325,1.603 -2.554,0.051l0,0Zm-14.068,-0.716c-0.548,-0.881 -0.916,-1.682 -0.819,-1.78c0.098,-0.098 0.58,0.059 1.071,0.349l0.893,0.528l0.175,-1.325c0.096,-0.729 0.264,-2.055 0.374,-2.946l0.199,-1.621l-1.586,0.839c-1.398,0.74 -1.587,0.959 -1.589,1.835c-0.005,1.998 -1.105,3.497 -1.947,2.655c-0.302,-0.302 -0.015,-1.374 0.954,-3.57c0.058,-0.13 -0.096,-0.236 -0.342,-0.236c-0.584,0 -1.48,-1.004 -1.48,-1.658c0,-0.423 0.142,-0.46 0.801,-0.21c2.288,0.87 5.449,-0.231 5.449,-1.898c0,-0.153 -0.512,0.069 -1.138,0.494c-1.323,0.898 -1.899,0.955 -2.855,0.285c-0.994,-0.695 -0.859,-1.076 0.379,-1.076c1.065,0 1.073,-0.01 0.896,-1.172c-0.098,-0.644 -0.465,-1.488 -0.816,-1.875l-0.638,-0.703l0.694,0c0.925,0 2.228,1.345 2.228,2.301c0,1.152 1.127,0.734 1.376,-0.511c0.153,-0.767 0.031,-1.136 -0.592,-1.786c-1.474,-1.539 -0.806,-2.391 1.101,-1.404c1.23,0.635 1.416,1.632 0.775,4.143c-0.294,1.155 -0.634,3.999 -0.754,6.32c-0.307,5.938 -1.001,6.931 -2.809,4.022Zm7.013,-2.433c-0.097,-0.157 0.422,-0.488 1.153,-0.736c1.162,-0.393 1.319,-0.555 1.24,-1.277c-0.069,-0.633 0.048,-0.826 0.499,-0.826c0.832,0 1.72,1.076 1.488,1.805c-0.298,0.941 -3.911,1.794 -4.38,1.034Zm-5.642,-15.198c-2.022,-1.036 -2.267,-2.2 -0.39,-1.853c1.165,0.215 4.951,0.265 5.084,0.066c0.027,-0.04 -0.013,-0.671 -0.089,-1.401c-0.137,-1.308 -0.157,-1.328 -1.339,-1.328c-0.844,0 -1.459,-0.235 -2.076,-0.791l-0.877,-0.791l1.453,0.197c2.147,0.29 2.766,0.001 2.766,-1.293c0,-1.061 -0.016,-1.072 -1.389,-1.072c-1.018,0 -1.623,-0.202 -2.266,-0.755c-1.107,-0.953 -0.899,-1.164 0.773,-0.788c1.217,0.273 2.473,0.183 7.586,-0.541c0.761,-0.108 1.234,-0.01 1.5,0.31c0.599,0.722 -0.696,1.461 -2.56,1.461c-1.434,0 -1.518,0.044 -1.341,0.703c0.103,0.387 0.19,0.965 0.192,1.285c0.004,0.498 0.166,0.551 1.122,0.372c1.165,-0.218 2.008,0.177 2.008,0.943c0,0.271 -0.508,0.446 -1.475,0.508c-1.425,0.092 -1.483,0.135 -1.753,1.284c-0.154,0.654 -0.216,1.254 -0.137,1.332c0.078,0.079 1.242,-0.01 2.585,-0.197c2.234,-0.311 2.511,-0.288 3.252,0.265c0.445,0.332 0.809,0.8 0.809,1.039c0,0.352 -0.921,0.438 -4.844,0.45c-3.875,0.012 -5.076,0.121 -6.006,0.547c-1.41,0.646 -1.42,0.646 -2.588,0.048l0,0Z" style="fill:#6f6f6f;fill-rule:nonzero;"/><path id="path3002" d="M13.464,46.749c0.094,-0.578 1.256,-8.347 2.583,-17.266c1.328,-8.918 2.455,-16.263 2.504,-16.322c0.05,-0.059 2.422,-0.734 5.27,-1.5l5.179,-1.392l5.179,1.392c2.848,0.766 5.22,1.441 5.27,1.5c0.049,0.059 1.176,7.404 2.504,16.322c1.327,8.919 2.489,16.688 2.583,17.266l0.171,1.051l-15.707,0l-15.707,0l0.171,-1.051Zm30.389,-0.277c-0.087,-0.387 -1.218,-7.867 -2.513,-16.623c-1.295,-8.755 -2.432,-15.996 -2.526,-16.09c-0.094,-0.094 -2.341,-0.759 -4.993,-1.478l-4.821,-1.306l-4.821,1.306c-2.652,0.719 -4.898,1.384 -4.993,1.478c-0.094,0.094 -1.231,7.335 -2.526,16.09c-1.295,8.756 -2.426,16.236 -2.513,16.623l-0.159,0.703l30.024,0l-0.159,-0.703Zm-8.279,-2.72c-0.538,-0.679 -1.463,-1.41 -2.057,-1.625c-1.594,-0.576 -1.312,-0.923 0.572,-0.701c2.108,0.248 2.364,-0.058 2.124,-2.533l-0.182,-1.875l-1.718,0.064c-0.946,0.035 -3.02,0.303 -4.609,0.596c-2.731,0.503 -2.923,0.502 -3.485,-0.006c-0.327,-0.296 -0.668,-0.821 -0.759,-1.167c-0.13,-0.499 -0.056,-0.582 0.36,-0.398c1.056,0.466 3.095,0.514 6.021,0.142c3.33,-0.425 3.831,-0.614 3.551,-1.343c-0.171,-0.446 -0.325,-0.452 -1.456,-0.053c-1.36,0.48 -2.853,0.545 -3.817,0.167c-0.472,-0.185 -0.273,-0.318 0.937,-0.629c2.61,-0.668 4.094,-1.276 4.667,-1.909c0.517,-0.571 0.518,-0.619 0.013,-0.813c-0.305,-0.117 -1.139,0.096 -1.938,0.495c-0.862,0.43 -1.723,0.639 -2.233,0.542c-0.608,-0.117 -1.017,0.042 -1.526,0.592c-0.8,0.863 -1.821,0.983 -2.103,0.247c-0.132,-0.342 0.307,-0.989 1.373,-2.021c0.861,-0.835 1.566,-1.628 1.566,-1.764c0,-0.135 -0.422,-0.432 -0.938,-0.66c-1.35,-0.598 -1.163,-0.888 0.725,-1.124c0.914,-0.114 2.055,-0.411 2.536,-0.661c1.115,-0.579 1.874,-0.575 2.361,0.012c0.7,0.843 0.136,1.314 -1.845,1.538c-1.839,0.208 -1.902,0.245 -1.902,1.119c0,0.497 -0.14,0.991 -0.312,1.097c-0.477,0.295 -0.372,0.781 0.169,0.781c0.264,0 1.059,-0.295 1.765,-0.655c2.786,-1.421 5.271,0.447 3.177,2.389c-0.607,0.561 -0.695,0.766 -0.331,0.766c0.274,0 0.711,0.305 0.972,0.678c0.437,0.625 0.573,0.648 1.726,0.303c1.324,-0.397 2.319,-0.085 2.673,0.837c0.298,0.776 -0.132,0.937 -2.037,0.764l-1.886,-0.171l0.246,1.373c0.395,2.211 0.289,5.754 -0.189,6.33c-0.65,0.784 -1.145,0.622 -2.211,-0.724l0,0Zm-13.522,0.063c-0.236,-0.472 -0.685,-1.246 -0.996,-1.718c-0.639,-0.971 -0.259,-1.13 0.894,-0.375c0.727,0.477 0.743,0.466 0.917,-0.703c0.097,-0.653 0.266,-1.983 0.375,-2.955l0.197,-1.766l-1.594,0.763c-1.47,0.703 -1.595,0.849 -1.595,1.86c0,1.332 -0.779,2.941 -1.424,2.941c-0.776,0 -0.825,-0.743 -0.151,-2.315c0.755,-1.761 0.754,-1.747 0.217,-1.747c-0.551,0 -1.454,-1.012 -1.454,-1.629c0,-0.432 0.141,-0.437 1.288,-0.042c1.021,0.352 1.523,0.37 2.422,0.085c1.689,-0.535 2.54,-1.165 2.54,-1.88c0,-0.636 -0.005,-0.636 -0.86,-0.034c-1.363,0.96 -2.205,1.111 -3.062,0.55c-1.069,-0.701 -0.955,-1.113 0.308,-1.113c1.065,0 1.073,-0.01 0.895,-1.172c-0.098,-0.644 -0.37,-1.393 -0.605,-1.665c-0.556,-0.643 -0.539,-0.913 0.056,-0.913c0.756,0 2.018,1.451 2.018,2.32c0,0.617 0.117,0.742 0.546,0.584c1.245,-0.459 1.339,-1.648 0.235,-2.961c-1.317,-1.565 -0.88,-2.276 0.901,-1.465c1.323,0.603 1.602,1.823 0.973,4.257c-0.3,1.16 -0.64,4.007 -0.754,6.328c-0.207,4.189 -0.57,5.625 -1.421,5.625c-0.239,0 -0.629,-0.387 -0.866,-0.86l0,0Zm6.681,-3.152c-0.307,-0.206 -0.052,-0.402 0.938,-0.717c1.211,-0.386 1.35,-0.527 1.27,-1.29c-0.069,-0.662 0.044,-0.856 0.499,-0.856c0.633,0 1.622,0.915 1.622,1.502c0,0.916 -3.399,1.985 -4.329,1.361Zm-5.832,-15.218c-0.978,-0.483 -1.897,-1.629 -1.569,-1.957c0.104,-0.103 0.821,-0.018 1.595,0.189c1.83,0.489 4.933,0.172 4.683,-0.479c-0.095,-0.247 -0.172,-0.86 -0.172,-1.361c0,-0.854 -0.08,-0.912 -1.233,-0.912c-0.851,0 -1.503,-0.233 -2.106,-0.751l-0.873,-0.752l4.212,0.338l0,-1.253l0,-1.253l-1.621,-0.155c-1.187,-0.114 -1.775,-0.346 -2.196,-0.866c-0.316,-0.39 -0.531,-0.752 -0.478,-0.805c0.053,-0.053 0.692,0.055 1.42,0.24c0.975,0.247 2.004,0.234 3.896,-0.05c3.933,-0.591 5.039,-0.576 5.166,0.072c0.133,0.673 -1.046,1.172 -2.77,1.172c-1.318,0 -1.334,0.025 -1.029,1.554c0.184,0.918 0.282,0.99 1.12,0.823c1.056,-0.211 2.117,0.247 2.117,0.916c0,0.333 -0.378,0.457 -1.388,0.457c-1.57,0 -1.596,0.024 -1.909,1.689l-0.228,1.214l1.997,-0.258c2.916,-0.377 3.693,-0.305 4.404,0.405c1.177,1.178 0.512,1.373 -3.92,1.149c-3.697,-0.187 -4.309,-0.141 -6.056,0.453c-2.283,0.776 -1.902,0.754 -3.062,0.181l0,0Z" style="fill:#4f4f4f;fill-rule:nonzero;"/><path id="path3000" d="M13.462,46.94c0.091,-0.472 1.258,-8.242 2.594,-17.265c1.336,-9.024 2.456,-16.447 2.489,-16.496c0.033,-0.049 2.399,-0.713 5.258,-1.476l5.197,-1.387l5.197,1.387c2.859,0.763 5.225,1.427 5.258,1.476c0.033,0.049 1.153,7.472 2.489,16.496c1.336,9.023 2.503,16.793 2.594,17.265l0.165,0.86l-15.703,0l-15.703,0l0.165,-0.86Zm30.409,-0.625c-0.098,-0.472 -1.226,-7.946 -2.508,-16.608c-1.281,-8.662 -2.443,-15.849 -2.581,-15.971c-0.138,-0.122 -2.395,-0.803 -5.016,-1.515l-4.766,-1.293l-4.766,1.293c-2.621,0.712 -4.878,1.393 -5.016,1.515c-0.138,0.122 -1.3,7.309 -2.581,15.971c-1.282,8.662 -2.41,16.136 -2.508,16.608l-0.179,0.86l30.1,0l-0.179,-0.86Zm-8.297,-2.61c-0.566,-0.705 -1.469,-1.473 -2.005,-1.706c-0.973,-0.424 -0.971,-0.425 0.788,-0.437c2.096,-0.015 2.213,-0.189 1.932,-2.873l-0.199,-1.903l-2.06,0.198c-1.134,0.109 -3.146,0.427 -4.472,0.706c-2.239,0.472 -2.469,0.471 -3.204,-0.011c-1.453,-0.952 -1.017,-1.388 1.21,-1.209c1.1,0.088 3.174,-0.006 4.609,-0.209c3.608,-0.511 3.759,-0.567 3.344,-1.231c-0.315,-0.504 -0.472,-0.511 -2.105,-0.085c-1.573,0.409 -3.843,0.307 -3.383,-0.153c0.09,-0.091 1.186,-0.428 2.434,-0.749c2.436,-0.626 4.167,-1.864 3.517,-2.514c-0.247,-0.246 -0.798,-0.109 -1.99,0.494c-1.066,0.541 -1.937,0.778 -2.465,0.672c-0.599,-0.119 -1.016,0.043 -1.561,0.61c-0.838,0.871 -1.682,0.871 -1.85,0c-0.073,-0.377 0.392,-1.043 1.325,-1.9c0.79,-0.725 1.435,-1.446 1.434,-1.603c-0.001,-0.156 -0.458,-0.556 -1.016,-0.888l-1.013,-0.605l1.681,-0.225c0.924,-0.124 2.237,-0.477 2.917,-0.784c1.38,-0.622 2.277,-0.35 2.277,0.69c0,0.43 -0.256,0.613 -0.938,0.673c-2.512,0.222 -2.896,0.379 -3.046,1.254c-0.081,0.468 -0.26,1.118 -0.398,1.444c-0.216,0.509 -0.145,0.568 0.502,0.416c0.415,-0.097 1.391,-0.422 2.169,-0.721c1.25,-0.482 1.522,-0.493 2.34,-0.101c1.241,0.594 1.331,1.403 0.279,2.501c-0.478,0.498 -0.707,0.906 -0.51,0.906c0.197,0 0.647,0.31 1,0.689c0.587,0.629 0.755,0.657 1.965,0.329c1.229,-0.333 1.38,-0.304 2.094,0.401c1.046,1.032 0.563,1.359 -1.632,1.102l-1.799,-0.211l0.237,1.58c0.336,2.238 0.199,5.747 -0.245,6.282c-0.597,0.72 -1.061,0.542 -2.163,-0.829l0,0Zm-13.522,0.11c-0.236,-0.472 -0.685,-1.246 -0.996,-1.718c-0.635,-0.966 -0.359,-1.106 0.707,-0.359c0.393,0.275 0.785,0.431 0.87,0.345c0.193,-0.192 0.727,-3.819 0.736,-4.992l0.006,-0.864l-1.563,0.791c-1.337,0.678 -1.562,0.924 -1.562,1.704c0,1.88 -0.991,3.432 -1.775,2.782c-0.306,-0.255 -0.259,-0.665 0.224,-1.936c0.732,-1.925 0.718,-1.768 0.152,-1.768c-0.483,0 -1.614,-1.467 -1.342,-1.739c0.086,-0.086 0.773,0.008 1.527,0.209c1.217,0.325 1.554,0.287 3.011,-0.341c1.3,-0.56 1.64,-0.856 1.64,-1.427l0,-0.721l-1.397,0.781c-1.247,0.697 -1.487,0.737 -2.242,0.369c-1.308,-0.638 -1.292,-1.194 0.034,-1.194l1.134,0l-0.21,-1.172c-0.116,-0.644 -0.426,-1.418 -0.69,-1.72c-0.625,-0.716 -0.355,-0.952 0.653,-0.569c0.949,0.361 1.588,1.408 1.369,2.243c-0.18,0.689 -0.188,0.687 0.86,0.288c1.056,-0.401 1.065,-1.635 0.021,-2.877c-1.322,-1.57 -0.88,-2.276 0.913,-1.459c1.19,0.542 1.519,1.946 0.941,4.016c-0.265,0.946 -0.589,3.758 -0.721,6.25c-0.237,4.482 -0.589,5.938 -1.434,5.938c-0.239,0 -0.629,-0.387 -0.866,-0.86l0,0Zm6.795,-3.121c-0.483,-0.121 -0.307,-0.275 0.781,-0.682c1.234,-0.462 1.392,-0.628 1.313,-1.369c-0.069,-0.649 0.046,-0.843 0.499,-0.843c0.633,0 1.622,0.915 1.622,1.502c0,0.849 -2.755,1.759 -4.215,1.392Zm-5.651,-15.231c-1.055,-0.45 -2.208,-1.63 -1.897,-1.942c0.117,-0.116 0.892,-0.037 1.722,0.176c0.889,0.227 2.144,0.303 3.049,0.183l1.538,-0.204l-0.007,-1.375c-0.007,-1.36 -0.018,-1.374 -1.101,-1.376c-0.896,-0.002 -3.125,-0.96 -3.125,-1.344c0,-0.056 0.855,-0.041 1.899,0.035c1.044,0.075 2.03,0.005 2.191,-0.156c0.161,-0.161 0.204,-0.741 0.094,-1.289c-0.178,-0.887 -0.316,-0.996 -1.27,-0.996c-1.263,0 -2.757,-0.704 -3.036,-1.43c-0.153,-0.399 -0.073,-0.463 0.353,-0.286c1.105,0.459 3.449,0.525 5.568,0.155c4.2,-0.732 4.181,-0.731 4.396,-0.171c0.31,0.809 -0.27,1.145 -2.303,1.329l-1.868,0.169l0.314,1.237c0.299,1.175 0.364,1.228 1.3,1.052c1.094,-0.205 2.289,0.43 1.923,1.022c-0.122,0.198 -0.823,0.36 -1.558,0.36c-1.326,0 -1.337,0.009 -1.657,1.407l-0.321,1.406l1.128,-0.014c0.621,-0.007 1.728,-0.129 2.46,-0.271c1.499,-0.29 3.356,0.387 3.356,1.222c0,0.4 -0.649,0.454 -4.375,0.367c-3.723,-0.088 -4.634,-0.012 -6.116,0.51c-1.479,0.522 -1.879,0.555 -2.656,0.224l-0.001,0Z" style="fill:#2f2f2f;fill-rule:nonzero;"/><path id="path2998" d="M13.489,46.94c0.086,-0.3 1.244,-7.929 2.573,-16.953c1.329,-9.023 2.517,-16.522 2.639,-16.665c0.123,-0.142 2.49,-0.869 5.261,-1.615l5.038,-1.357l5.038,1.357c2.771,0.746 5.138,1.473 5.261,1.615c0.122,0.143 1.31,7.642 2.639,16.665c1.329,9.024 2.487,16.653 2.573,16.953c0.147,0.516 -0.739,0.547 -15.511,0.547c-14.772,0 -15.658,-0.031 -15.511,-0.547Zm30.51,0.157c-0.006,-0.457 -4.989,-33.447 -5.06,-33.498c-0.052,-0.037 -2.31,-0.662 -5.017,-1.388l-4.922,-1.32l-4.922,1.32c-2.707,0.726 -4.965,1.351 -5.017,1.388c-0.071,0.051 -5.054,33.041 -5.06,33.498c-0.001,0.043 6.749,0.078 14.999,0.078c8.25,0 15,-0.035 14.999,-0.078Zm-8.346,-3.401c-0.651,-0.711 -1.606,-1.479 -2.122,-1.707c-0.919,-0.407 -0.903,-0.415 0.841,-0.427c0.978,-0.007 1.872,-0.164 1.987,-0.35c0.115,-0.185 0.112,-1.24 -0.006,-2.343l-0.215,-2.007l-1.303,0.011c-1.156,0.01 -4.107,0.472 -6.974,1.092c-0.767,0.166 -1.127,0.068 -1.641,-0.445c-0.875,-0.875 -0.853,-1.391 0.046,-1.087c1.203,0.407 9.119,-0.28 9.453,-0.82c0.075,-0.122 -0.035,-0.45 -0.244,-0.729c-0.35,-0.467 -0.516,-0.468 -2.059,-0.012c-1.202,0.356 -1.955,0.415 -2.656,0.209c-0.944,-0.277 -0.901,-0.306 1.242,-0.838c2.476,-0.614 4.186,-1.514 4.186,-2.202c0,-0.818 -0.531,-0.812 -2.359,0.025c-1.426,0.653 -1.916,0.751 -2.36,0.474c-0.463,-0.289 -0.728,-0.183 -1.516,0.605c-0.526,0.526 -1.131,0.898 -1.345,0.826c-0.871,-0.29 -0.526,-1.23 0.995,-2.712c1.758,-1.712 1.947,-2.209 0.842,-2.209c-0.409,0 -0.902,-0.191 -1.096,-0.425c-0.287,-0.347 -0.041,-0.457 1.333,-0.599c0.927,-0.096 2.143,-0.41 2.702,-0.699c0.79,-0.409 1.179,-0.451 1.754,-0.189c1.515,0.69 0.748,1.58 -1.397,1.621c-1.585,0.031 -2.079,0.318 -2.115,1.228c-0.016,0.43 -0.137,1.028 -0.268,1.328c-0.188,0.435 -0.085,0.545 0.5,0.537c0.405,-0.005 1.009,-0.216 1.343,-0.468c0.333,-0.253 1.255,-0.459 2.047,-0.459c2.274,0 2.829,1.017 1.379,2.53c-0.797,0.833 -0.8,0.85 -0.156,1.054c0.36,0.114 0.654,0.415 0.654,0.668c0,0.365 0.396,0.441 1.907,0.369c1.715,-0.081 1.957,-0.015 2.414,0.662l0.507,0.751l-2.131,-0.171l-2.132,-0.171l0.21,1.4c0.328,2.189 0.224,6.052 -0.177,6.534c-0.541,0.652 -0.776,0.555 -2.069,-0.855l-0.001,0Zm-13.922,-0.627c-0.596,-0.921 -1.036,-1.73 -0.979,-1.796c0.057,-0.066 0.474,0.123 0.928,0.42c0.453,0.297 0.937,0.421 1.075,0.276c0.138,-0.144 0.351,-1.492 0.472,-2.994l0.221,-2.731l-1.591,0.7c-1.473,0.647 -1.593,0.782 -1.604,1.793c-0.015,1.359 -0.627,2.618 -1.339,2.755c-0.676,0.13 -0.714,-1.004 -0.07,-2.13c0.613,-1.073 0.576,-1.486 -0.157,-1.719c-0.614,-0.195 -1.435,-1.325 -1.161,-1.599c0.077,-0.077 0.756,0.022 1.51,0.218c1.18,0.308 1.587,0.271 2.933,-0.263c1.283,-0.511 1.581,-0.775 1.665,-1.482l0.103,-0.861l-1.077,0.665c-1.276,0.789 -2.489,0.856 -3.169,0.175c-0.69,-0.69 -0.627,-0.772 0.525,-0.682l1.015,0.079l-0.107,-1.406c-0.058,-0.773 -0.251,-1.582 -0.428,-1.797c-0.239,-0.289 -0.161,-0.39 0.302,-0.39c0.845,0 1.431,0.775 1.431,1.891c0,0.994 0.017,1.006 1.068,0.724c1.029,-0.275 0.982,-2.128 -0.078,-3.111c-1.095,-1.015 -1.053,-1.827 0.078,-1.545c1.627,0.406 2.036,1.065 1.847,2.977c-0.093,0.946 -0.312,2.353 -0.487,3.126c-0.174,0.774 -0.327,2.672 -0.338,4.219c-0.024,3.162 -0.365,5.024 -1.046,5.704c-0.405,0.405 -0.589,0.26 -1.542,-1.216l0,0Zm7.582,-2.88c1.669,-0.546 1.947,-0.809 1.738,-1.642c-0.232,-0.924 0.382,-0.998 1.404,-0.171c1.403,1.136 -0.018,2.265 -2.772,2.203l-1.464,-0.032l1.094,-0.358l0,0Zm-7.25,-15.528c-0.523,-0.524 -0.868,-1.035 -0.766,-1.137c0.102,-0.102 0.817,-0.008 1.589,0.208c0.887,0.248 2.04,0.313 3.134,0.176l1.73,-0.216l0,-1.383c0,-1.412 -0.1,-1.508 -1.462,-1.399c-0.375,0.029 -1.148,-0.201 -1.719,-0.513l-1.038,-0.566l2.102,-0.092l2.102,-0.092l-0.058,-1.314l-0.058,-1.314l-1.492,-0.002c-1.218,-0.002 -1.651,-0.163 -2.356,-0.876l-0.865,-0.874l0.88,0.329c1.294,0.484 4.358,0.401 6.782,-0.184c2.228,-0.538 3.12,-0.443 3.12,0.332c0,0.52 -1.782,1.114 -3.35,1.117c-0.66,0.001 -0.964,0.136 -0.886,0.392c0.067,0.215 0.21,0.795 0.319,1.288c0.178,0.81 0.296,0.882 1.206,0.735c1.089,-0.177 2.289,0.443 1.942,1.003c-0.113,0.184 -0.815,0.334 -1.56,0.334c-1.219,0 -1.374,0.085 -1.559,0.859c-0.112,0.473 -0.283,1.123 -0.38,1.446c-0.165,0.555 -0.017,0.575 2.801,0.363c2.805,-0.21 3.014,-0.183 3.664,0.466c1.048,1.048 0.384,1.213 -4.098,1.013c-3.204,-0.142 -4.282,-0.077 -5.55,0.338c-2.273,0.743 -3.078,0.659 -4.174,-0.437l0,0Z" style="fill:#020202;fill-rule:nonzero;"/></g></svg>