<?xml version="1.0" encoding="UTF-8" standalone="no"?><!DOCTYPE svg PUBLIC "-//W3C//DTD SVG 1.1//EN" "http://www.w3.org/Graphics/SVG/1.1/DTD/svg11.dtd"><svg width="100%" height="100%" viewBox="0 0 39 39" version="1.1" xmlns="http://www.w3.org/2000/svg" xmlns:xlink="http://www.w3.org/1999/xlink" xml:space="preserve" xmlns:serif="http://www.serif.com/" style="fill-rule:evenodd;clip-rule:evenodd;stroke-miterlimit:2;"><g id="g3792"><path id="path3040" d="M19.52,2.668c-0.074,0.018 -9.259,2.908 -9.252,2.939c0.006,0.023 -3.662,22.951 -4.85,30.714c-0.001,0.01 10.344,0.018 19.373,0.004c3.294,-0.005 6.413,-0.013 8.791,-0.025c0.002,0 -3.319,-21.858 -4.783,-30.898c-0.002,-0.012 -9.256,-2.74 -9.279,-2.734Z" style="fill:none;fill-rule:nonzero;stroke:#000;stroke-width:1.6px;"/><path d="M19.52,2.668c-0.074,0.018 -9.259,2.908 -9.252,2.939c0.006,0.023 -3.662,22.951 -4.85,30.714c-0.001,0.01 10.344,0.018 19.373,0.004c3.294,-0.005 6.413,-0.013 8.791,-0.025c0.002,0 -3.319,-21.858 -4.783,-30.898c-0.002,-0.012 -9.256,-2.74 -9.279,-2.734Z" style="fill:#fff;fill-rule:nonzero;"/><g id="path3004"><path d="M25.334,11.708c-0.192,-0.452 -0.61,-1.116 -0.927,-1.477c-0.577,-0.654 -0.577,-0.655 0.012,-0.655c1.006,0 2.571,1.249 2.571,2.051c0,1.1 -1.197,1.159 -1.656,0.081Z" style="fill:none;fill-rule:nonzero;stroke:#000;stroke-width:0.1px;"/><path d="M25.334,11.708c-0.192,-0.452 -0.61,-1.116 -0.927,-1.477c-0.577,-0.654 -0.577,-0.655 0.012,-0.655c1.006,0 2.571,1.249 2.571,2.051c0,1.1 -1.197,1.159 -1.656,0.081Z" style="fill-rule:nonzero;"/></g><path id="path30041" serif:id="path3004" d="M25.571,33.06c-0.493,-0.622 -1.412,-1.337 -2.044,-1.59c-0.631,-0.253 -1.147,-0.537 -1.147,-0.632c0,-0.094 0.806,-0.127 1.791,-0.073l1.792,0.097l0.086,-1.938c0.063,-1.449 -0.016,-1.978 -0.313,-2.092c-0.219,-0.084 -1.741,0.062 -3.382,0.326c-1.641,0.262 -3.41,0.541 -3.93,0.619c-1.037,0.155 -1.899,-0.403 -2.159,-1.399c-0.121,-0.46 -0.053,-0.533 0.33,-0.359c0.947,0.43 3.393,0.434 6.03,0.008c1.475,-0.238 2.736,-0.487 2.801,-0.553c0.067,-0.066 0.046,-0.315 -0.044,-0.552c-0.144,-0.373 -0.312,-0.38 -1.226,-0.054c-1.23,0.439 -3.172,0.51 -3.761,0.137c-0.299,-0.19 -0.07,-0.346 0.86,-0.588c0.697,-0.182 1.719,-0.448 2.271,-0.591c1.259,-0.326 2.294,-1.04 2.294,-1.581c0,-0.582 -0.657,-0.514 -1.853,0.191c-0.669,0.395 -1.334,0.56 -1.912,0.475c-0.661,-0.097 -1.057,0.041 -1.558,0.542c-0.788,0.789 -1.706,0.874 -1.97,0.184c-0.134,-0.347 0.229,-0.886 1.259,-1.873c0.796,-0.764 1.444,-1.479 1.44,-1.592c-0.003,-0.112 -0.415,-0.398 -0.916,-0.634c-1.514,-0.716 -1.304,-1.084 0.692,-1.218c0.994,-0.066 2.23,-0.3 2.746,-0.52c1.086,-0.463 1.929,-0.128 1.929,0.765c0,0.447 -0.316,0.588 -1.792,0.798c-1.636,0.233 -1.792,0.315 -1.792,0.95c0,0.383 -0.134,0.945 -0.297,1.251c-0.4,0.747 0.238,0.74 1.655,-0.02c2.658,-1.423 5.067,0.289 3.044,2.165c-0.557,0.515 -0.637,0.703 -0.303,0.703c0.251,0 0.644,0.267 0.872,0.595c0.373,0.531 0.536,0.561 1.522,0.288c0.608,-0.169 1.201,-0.307 1.32,-0.308c0.384,-0.003 1.362,1.133 1.362,1.583c0,0.368 -0.303,0.407 -1.912,0.243c-1.802,-0.186 -1.899,-0.166 -1.695,0.35c0.366,0.918 0.532,4.786 0.253,5.85c-0.383,1.454 -1.216,1.471 -2.343,0.047Zm-12.907,-0.657c-0.503,-0.809 -0.841,-1.543 -0.752,-1.633c0.09,-0.09 0.532,0.054 0.983,0.32l0.819,0.484l0.161,-1.215c0.088,-0.669 0.242,-1.886 0.343,-2.703l0.182,-1.488l-1.455,0.77c-1.282,0.679 -1.456,0.88 -1.458,1.684c-0.004,1.833 -1.013,3.208 -1.786,2.436c-0.277,-0.277 -0.014,-1.261 0.875,-3.276c0.054,-0.119 -0.088,-0.216 -0.313,-0.216c-0.536,0 -1.358,-0.921 -1.358,-1.521c0,-0.388 0.13,-0.422 0.735,-0.193c2.099,0.798 4.999,-0.212 4.999,-1.741c0,-0.141 -0.47,0.063 -1.044,0.453c-1.214,0.824 -1.742,0.876 -2.62,0.261c-0.912,-0.637 -0.788,-0.987 0.348,-0.987c0.977,0 0.985,-0.009 0.822,-1.075c-0.09,-0.591 -0.426,-1.365 -0.748,-1.72l-0.586,-0.645l0.637,0c0.849,0 2.044,1.234 2.044,2.111c0,1.057 1.034,0.673 1.262,-0.469c0.141,-0.704 0.029,-1.042 -0.543,-1.639c-1.352,-1.412 -0.739,-2.193 1.01,-1.288c1.129,0.583 1.3,1.497 0.712,3.801c-0.27,1.06 -0.582,3.669 -0.692,5.799c-0.282,5.448 -0.919,6.359 -2.577,3.69Zm6.434,-2.233c-0.089,-0.144 0.387,-0.447 1.058,-0.675c1.066,-0.36 1.21,-0.509 1.137,-1.171c-0.063,-0.581 0.044,-0.758 0.458,-0.758c0.763,0 1.578,0.987 1.365,1.656c-0.273,0.863 -3.588,1.646 -4.018,0.948Zm-5.177,-13.943c-1.855,-0.951 -2.079,-2.019 -0.357,-1.7c1.068,0.197 4.542,0.243 4.664,0.06c0.025,-0.036 -0.012,-0.615 -0.082,-1.285c-0.125,-1.2 -0.144,-1.218 -1.228,-1.218c-0.774,0 -1.339,-0.216 -1.905,-0.726l-0.804,-0.726l1.333,0.181c1.969,0.266 2.537,0.001 2.537,-1.186c0,-0.974 -0.014,-0.984 -1.274,-0.984c-0.934,0 -1.489,-0.185 -2.079,-0.693c-1.016,-0.874 -0.825,-1.068 0.709,-0.723c1.117,0.251 2.269,0.168 6.96,-0.496c0.698,-0.099 1.132,-0.009 1.376,0.284c0.55,0.663 -0.638,1.341 -2.348,1.341c-1.316,0 -1.393,0.04 -1.231,0.645c0.095,0.355 0.175,0.885 0.176,1.179c0.004,0.457 0.153,0.505 1.03,0.341c1.069,-0.2 1.842,0.162 1.842,0.865c0,0.249 -0.466,0.409 -1.353,0.466c-1.308,0.085 -1.361,0.124 -1.608,1.178c-0.142,0.6 -0.199,1.151 -0.126,1.222c0.071,0.073 1.139,-0.009 2.372,-0.18c2.049,-0.286 2.303,-0.265 2.983,0.243c0.408,0.304 0.742,0.734 0.742,0.953c0,0.323 -0.845,0.402 -4.444,0.413c-3.555,0.011 -4.657,0.111 -5.51,0.502c-1.294,0.592 -1.303,0.592 -2.375,0.044Z" style="fill:none;fill-rule:nonzero;stroke:#000;stroke-width:0.1px;"/><path d="M25.571,33.06c-0.493,-0.622 -1.412,-1.337 -2.044,-1.59c-0.631,-0.253 -1.147,-0.537 -1.147,-0.632c0,-0.094 0.806,-0.127 1.791,-0.073l1.792,0.097l0.086,-1.938c0.063,-1.449 -0.016,-1.978 -0.313,-2.092c-0.219,-0.084 -1.741,0.062 -3.382,0.326c-1.641,0.262 -3.41,0.541 -3.93,0.619c-1.037,0.155 -1.899,-0.403 -2.159,-1.399c-0.121,-0.46 -0.053,-0.533 0.33,-0.359c0.947,0.43 3.393,0.434 6.03,0.008c1.475,-0.238 2.736,-0.487 2.801,-0.553c0.067,-0.066 0.046,-0.315 -0.044,-0.552c-0.144,-0.373 -0.312,-0.38 -1.226,-0.054c-1.23,0.439 -3.172,0.51 -3.761,0.137c-0.299,-0.19 -0.07,-0.346 0.86,-0.588c0.697,-0.182 1.719,-0.448 2.271,-0.591c1.259,-0.326 2.294,-1.04 2.294,-1.581c0,-0.582 -0.657,-0.514 -1.853,0.191c-0.669,0.395 -1.334,0.56 -1.912,0.475c-0.661,-0.097 -1.057,0.041 -1.558,0.542c-0.788,0.789 -1.706,0.874 -1.97,0.184c-0.134,-0.347 0.229,-0.886 1.259,-1.873c0.796,-0.764 1.444,-1.479 1.44,-1.592c-0.003,-0.112 -0.415,-0.398 -0.916,-0.634c-1.514,-0.716 -1.304,-1.084 0.692,-1.218c0.994,-0.066 2.23,-0.3 2.746,-0.52c1.086,-0.463 1.929,-0.128 1.929,0.765c0,0.447 -0.316,0.588 -1.792,0.798c-1.636,0.233 -1.792,0.315 -1.792,0.95c0,0.383 -0.134,0.945 -0.297,1.251c-0.4,0.747 0.238,0.74 1.655,-0.02c2.658,-1.423 5.067,0.289 3.044,2.165c-0.557,0.515 -0.637,0.703 -0.303,0.703c0.251,0 0.644,0.267 0.872,0.595c0.373,0.531 0.536,0.561 1.522,0.288c0.608,-0.169 1.201,-0.307 1.32,-0.308c0.384,-0.003 1.362,1.133 1.362,1.583c0,0.368 -0.303,0.407 -1.912,0.243c-1.802,-0.186 -1.899,-0.166 -1.695,0.35c0.366,0.918 0.532,4.786 0.253,5.85c-0.383,1.454 -1.216,1.471 -2.343,0.047Zm-12.907,-0.657c-0.503,-0.809 -0.841,-1.543 -0.752,-1.633c0.09,-0.09 0.532,0.054 0.983,0.32l0.819,0.484l0.161,-1.215c0.088,-0.669 0.242,-1.886 0.343,-2.703l0.182,-1.488l-1.455,0.77c-1.282,0.679 -1.456,0.88 -1.458,1.684c-0.004,1.833 -1.013,3.208 -1.786,2.436c-0.277,-0.277 -0.014,-1.261 0.875,-3.276c0.054,-0.119 -0.088,-0.216 -0.313,-0.216c-0.536,0 -1.358,-0.921 -1.358,-1.521c0,-0.388 0.13,-0.422 0.735,-0.193c2.099,0.798 4.999,-0.212 4.999,-1.741c0,-0.141 -0.47,0.063 -1.044,0.453c-1.214,0.824 -1.742,0.876 -2.62,0.261c-0.912,-0.637 -0.788,-0.987 0.348,-0.987c0.977,0 0.985,-0.009 0.822,-1.075c-0.09,-0.591 -0.426,-1.365 -0.748,-1.72l-0.586,-0.645l0.637,0c0.849,0 2.044,1.234 2.044,2.111c0,1.057 1.034,0.673 1.262,-0.469c0.141,-0.704 0.029,-1.042 -0.543,-1.639c-1.352,-1.412 -0.739,-2.193 1.01,-1.288c1.129,0.583 1.3,1.497 0.712,3.801c-0.27,1.06 -0.582,3.669 -0.692,5.799c-0.282,5.448 -0.919,6.359 -2.577,3.69Zm6.434,-2.233c-0.089,-0.144 0.387,-0.447 1.058,-0.675c1.066,-0.36 1.21,-0.509 1.137,-1.171c-0.063,-0.581 0.044,-0.758 0.458,-0.758c0.763,0 1.578,0.987 1.365,1.656c-0.273,0.863 -3.588,1.646 -4.018,0.948Zm-5.177,-13.943c-1.855,-0.951 -2.079,-2.019 -0.357,-1.7c1.068,0.197 4.542,0.243 4.664,0.06c0.025,-0.036 -0.012,-0.615 -0.082,-1.285c-0.125,-1.2 -0.144,-1.218 -1.228,-1.218c-0.774,0 -1.339,-0.216 -1.905,-0.726l-0.804,-0.726l1.333,0.181c1.969,0.266 2.537,0.001 2.537,-1.186c0,-0.974 -0.014,-0.984 -1.274,-0.984c-0.934,0 -1.489,-0.185 -2.079,-0.693c-1.016,-0.874 -0.825,-1.068 0.709,-0.723c1.117,0.251 2.269,0.168 6.96,-0.496c0.698,-0.099 1.132,-0.009 1.376,0.284c0.55,0.663 -0.638,1.341 -2.348,1.341c-1.316,0 -1.393,0.04 -1.231,0.645c0.095,0.355 0.175,0.885 0.176,1.179c0.004,0.457 0.153,0.505 1.03,0.341c1.069,-0.2 1.842,0.162 1.842,0.865c0,0.249 -0.466,0.409 -1.353,0.466c-1.308,0.085 -1.361,0.124 -1.608,1.178c-0.142,0.6 -0.199,1.151 -0.126,1.222c0.071,0.073 1.139,-0.009 2.372,-0.18c2.049,-0.286 2.303,-0.265 2.983,0.243c0.408,0.304 0.742,0.734 0.742,0.953c0,0.323 -0.845,0.402 -4.444,0.413c-3.555,0.011 -4.657,0.111 -5.51,0.502c-1.294,0.592 -1.303,0.592 -2.375,0.044Z" style="fill-rule:nonzero;"/></g></svg>