<?xml version="1.0" encoding="UTF-8" standalone="no"?><!DOCTYPE svg PUBLIC "-//W3C//DTD SVG 1.1//EN" "http://www.w3.org/Graphics/SVG/1.1/DTD/svg11.dtd"><svg width="100%" height="100%" viewBox="0 0 58 58" version="1.1" xmlns="http://www.w3.org/2000/svg" xmlns:xlink="http://www.w3.org/1999/xlink" xml:space="preserve" xmlns:serif="http://www.serif.com/" style="fill-rule:evenodd;clip-rule:evenodd;stroke-linejoin:round;stroke-miterlimit:1.41421;"><g id="g3792"><path id="path3022" d="M15.549,8.498l-6.729,44.856l40.488,-0.236l-6.846,-44.502l-14.047,-3.895l-12.866,3.777Z" style="fill:#fff;fill-rule:nonzero;"/><path id="path3010" d="M7.914,53.883c0.323,-3.031 6.933,-45.78 7.105,-45.952c0.139,-0.139 3.327,-1.08 7.084,-2.092l6.832,-1.839l6.854,1.845c3.769,1.015 6.993,2.011 7.165,2.214c0.172,0.202 1.736,10.043 3.477,21.869c1.741,11.826 3.276,22.08 3.41,22.787l0.245,1.285l-21.092,0c-11.601,0 -21.087,-0.053 -21.08,-0.117Zm40.166,-2.337c-0.011,-0.578 -1.43,-10.409 -3.155,-21.846l-3.136,-20.794l-6.427,-1.716l-6.427,-1.717l-6.412,1.714l-6.412,1.714l-3.143,20.796c-1.728,11.439 -3.155,21.271 -3.17,21.849l-0.027,1.052l38.328,0l-0.019,-1.052Zm-14.335,-2.801c-1.082,-0.792 -1.875,-1.588 -1.763,-1.771c0.113,-0.182 1.104,-0.165 2.202,0.037c2.358,0.435 3.304,-0.183 4.135,-2.7c0.475,-1.44 0.425,-1.743 -0.425,-2.594c-0.962,-0.962 -0.977,-0.962 -6.355,-0.119c-4.359,0.684 -5.527,0.733 -6.101,0.256c-1.203,-0.999 -0.798,-1.409 1.394,-1.409c1.157,0 2.103,-0.21 2.103,-0.468c0,-0.257 -0.578,-0.47 -1.285,-0.473c-0.707,-0.004 -1.759,-0.134 -2.337,-0.289c-0.949,-0.254 -1.052,-0.116 -1.052,1.409c0,0.93 -0.221,1.691 -0.491,1.691c-0.971,0 -1.824,-3.084 -1.533,-5.542c0.21,-1.777 0.089,-2.669 -0.483,-3.542c-1.435,-2.19 -0.485,-2.919 1.632,-1.253c0.967,0.761 1.485,0.824 3.78,0.465c1.462,-0.23 3.208,-0.626 3.88,-0.882c1.812,-0.689 3.49,-0.564 3.815,0.284c0.351,0.915 -0.593,1.572 -2.276,1.581c-0.691,0.004 -1.387,0.218 -1.546,0.475c-0.172,0.278 0.375,0.467 1.347,0.467c1.774,0 2.668,0.793 1.634,1.448c-0.354,0.224 -1.223,0.411 -1.93,0.415c-1.932,0.011 -1.545,0.864 0.468,1.031c1.182,0.097 1.753,0.373 1.753,0.846c0,0.473 -0.571,0.748 -1.753,0.846c-0.964,0.08 -1.753,0.362 -1.753,0.628c0,0.558 4.41,0.082 5.744,-0.619c1.223,-0.643 2.509,-0.068 3.887,1.738l1.217,1.595l-1.101,2.656c-1.172,2.83 -3.171,5.333 -4.209,5.271c-0.346,-0.021 -1.516,-0.686 -2.598,-1.478Zm-6.009,-11.105c0.66,0 1.199,-0.21 1.199,-0.467c0,-0.257 -0.508,-0.467 -1.13,-0.467c-0.622,0 -1.463,-0.128 -1.87,-0.284c-1.286,-0.494 -0.801,-1.119 0.869,-1.119c0.885,0 1.739,-0.21 1.898,-0.467c0.16,-0.26 -0.191,-0.47 -0.791,-0.474c-0.593,-0.004 -1.552,-0.133 -2.131,-0.288c-0.991,-0.266 -1.051,-0.143 -1.051,2.126c0,2.236 0.064,2.374 0.904,1.924c0.497,-0.266 1.443,-0.484 2.103,-0.484Zm-8.326,11.778c-0.319,-0.516 -1.678,-4.451 -1.686,-4.883c-0.015,-0.783 1.099,-0.267 2.377,1.101c1.633,1.748 1.893,4.157 0.448,4.157c-0.499,0 -1.011,-0.168 -1.139,-0.375Zm3.465,-3.67c-0.529,-1.197 -0.867,-2.271 -0.75,-2.388c0.117,-0.117 0.843,0.236 1.614,0.785c1.454,1.035 2.198,2.49 1.693,3.307c-0.638,1.033 -1.642,0.364 -2.557,-1.704Zm4.222,-0.66c-1.611,-2.005 -1.64,-2.583 -0.105,-2.096c1.565,0.497 3.346,2.144 3.346,3.096c0,1.527 -1.61,1.03 -3.241,-1Zm4.888,-0.66c-1.023,-0.874 -1.728,-1.722 -1.567,-1.882c0.447,-0.448 3.942,0.62 4.592,1.402c0.665,0.802 0.308,2.114 -0.568,2.088c-0.329,-0.009 -1.435,-0.733 -2.457,-1.608Zm-8.606,-15.839c-0.385,-0.464 -0.456,-1.647 -0.23,-3.854l0.327,-3.184l-1.895,1.501c-3.648,2.89 -5.101,1.339 -1.924,-2.054c3.797,-4.054 4.137,-4.434 4.137,-4.617c0,-0.101 -0.716,-0.067 -1.591,0.075c-1.294,0.21 -1.689,0.074 -2.12,-0.73c-0.483,-0.903 -0.409,-0.989 0.852,-0.989c0.759,0 1.713,-0.128 2.119,-0.284c0.936,-0.359 0.957,-1.759 0.039,-2.521c-1.013,-0.84 -0.863,-1.402 0.374,-1.402c1.359,0 2.196,0.825 2.196,2.164c0,0.724 0.321,1.089 1.047,1.192c0.576,0.083 1.117,0.518 1.203,0.968c0.121,0.635 -0.165,0.818 -1.28,0.818c-1.244,0 -1.437,0.167 -1.437,1.241c0,1.197 0.032,1.212 0.903,0.423c0.654,-0.591 1.298,-0.731 2.327,-0.505c0.783,0.172 1.849,0.178 2.369,0.013c1.262,-0.401 1.25,-2.528 -0.024,-4.147c-0.685,-0.871 -0.788,-1.248 -0.35,-1.287c2.17,-0.195 3.656,1.05 3.656,3.061c0,1.426 0.043,1.455 1.914,1.277c1.665,-0.159 1.893,-0.069 1.748,0.688c-0.107,0.56 -0.792,1.027 -1.914,1.305c-2.072,0.513 -2.508,1.904 -0.463,1.474c1.573,-0.33 2.69,0.309 2.303,1.317c-0.188,0.491 -0.855,0.749 -1.937,0.749c-1.27,0 -1.651,0.191 -1.651,0.83c0,0.687 0.323,0.8 1.87,0.652c1.16,-0.111 1.869,0.018 1.869,0.338c0,0.284 0.007,0.675 0.016,0.867c0.008,0.193 -0.764,0.456 -1.717,0.585c-0.952,0.128 -1.828,0.526 -1.945,0.883c-0.171,0.518 0.283,0.602 2.246,0.413c2.001,-0.192 2.626,-0.07 3.35,0.653c1.375,1.375 0.614,1.814 -3.035,1.748c-1.845,-0.033 -4.355,0.092 -5.576,0.278c-1.7,0.259 -2.495,0.158 -3.389,-0.427c-1.724,-1.13 -1.446,-1.445 1.276,-1.445c2.028,0 2.475,-0.151 2.619,-0.886c0.13,-0.666 -0.02,-0.812 -0.604,-0.588c-0.883,0.339 -3.524,-0.866 -3.524,-1.608c0,-0.267 0.403,-0.359 0.895,-0.202c1.078,0.342 3.312,-0.157 3.312,-0.74c0,-0.229 -0.584,-0.416 -1.298,-0.416c-1.431,0 -3.532,-1.24 -3.15,-1.858c0.133,-0.216 0.659,-0.283 1.169,-0.149c1.397,0.365 3.279,-0.253 3.279,-1.078c0,-0.569 -0.312,-0.661 -1.421,-0.417c-0.935,0.205 -1.787,0.073 -2.488,-0.387c-1.011,-0.662 -1.108,-0.621 -1.844,0.777c-0.519,0.984 -0.819,2.866 -0.901,5.645c-0.124,4.169 -0.581,5.197 -1.707,3.84l0,0Zm-0.143,-9.424c-0.144,-0.144 -0.405,0.116 -0.581,0.576c-0.253,0.667 -0.2,0.72 0.262,0.262c0.319,-0.317 0.463,-0.694 0.319,-0.838Z" style="fill:#d0d0d0;fill-rule:nonzero;"/><path id="path3008" d="M8.164,52.715c0.131,-0.707 1.69,-11.036 3.464,-22.952c1.775,-11.917 3.292,-21.731 3.372,-21.809c0.081,-0.078 3.244,-0.98 7.03,-2.003l6.883,-1.861l6.884,1.835c3.786,1.009 6.977,1.928 7.091,2.042c0.114,0.114 1.64,9.834 3.392,21.601c1.752,11.767 3.308,22.077 3.458,22.913l0.274,1.519l-21.044,0l-21.043,0l0.239,-1.285Zm39.207,-7.012c-0.572,-3.792 -2.041,-13.634 -3.264,-21.872l-2.224,-14.979l-6.591,-1.722l-6.59,-1.722l-6.311,1.743c-5.233,1.446 -6.334,1.903 -6.454,2.678c-0.079,0.514 -1.563,10.347 -3.297,21.852l-3.154,20.917l38.926,0l-1.041,-6.895Zm-12.219,3.92c-0.206,-0.351 -1.058,-0.987 -1.893,-1.414c-0.836,-0.427 -1.519,-0.892 -1.519,-1.032c0,-0.14 1.09,-0.187 2.423,-0.105c2.301,0.143 2.479,0.07 3.506,-1.438c1.248,-1.832 1.347,-2.778 0.423,-4.042c-0.644,-0.88 -0.784,-0.883 -6.136,-0.105c-3.807,0.553 -5.745,0.653 -6.353,0.328c-1.486,-0.796 -0.971,-1.37 1.229,-1.37c1.157,0 2.103,-0.21 2.103,-0.468c0,-0.257 -0.508,-0.467 -1.13,-0.467c-2.937,0 -3.485,-1.251 -0.739,-1.69c2.037,-0.326 2.56,-1.114 0.739,-1.114c-0.622,0 -1.463,-0.128 -1.87,-0.284c-1.286,-0.494 -0.801,-1.119 0.869,-1.119c0.885,0 1.739,-0.21 1.898,-0.467c0.159,-0.257 -0.131,-0.468 -0.643,-0.468c-0.513,0 -1.517,-0.222 -2.232,-0.494c-1.041,-0.395 -1.164,-0.58 -0.615,-0.927c0.377,-0.239 1.256,-0.437 1.954,-0.441c0.698,-0.004 2.248,-0.339 3.443,-0.745c2.357,-0.801 4.403,-0.575 4.403,0.485c0,0.407 -0.757,0.815 -1.95,1.051c-2.425,0.479 -2.94,1.431 -0.629,1.161c1.236,-0.144 1.644,-0.018 1.644,0.51c0,0.761 -0.952,1.27 -2.375,1.27c-0.494,0 -0.897,0.21 -0.897,0.468c0,0.257 0.724,0.467 1.608,0.467c1.751,0 2.635,0.796 1.607,1.447c-0.354,0.225 -1.223,0.412 -1.93,0.415c-0.707,0.004 -1.285,0.218 -1.285,0.475c0,0.651 1.688,0.583 4.659,-0.188c2.891,-0.75 3.872,-0.386 5.249,1.944c0.764,1.294 0.743,1.417 -0.802,4.61c-1.057,2.186 -1.991,3.466 -2.798,3.833c-1.508,0.687 -1.508,0.687 -1.961,-0.086Zm-15.783,-0.379c-1.162,-3.334 -1.576,-4.824 -1.39,-5.01c0.121,-0.121 0.962,0.5 1.869,1.379c1.175,1.139 1.61,1.935 1.512,2.769c-0.148,1.26 -1.629,1.901 -1.991,0.862Zm4.25,-2.372c-0.901,-1.429 -1.382,-3.155 -0.879,-3.155c0.849,0 3.042,2.757 2.765,3.478c-0.394,1.028 -1.111,0.905 -1.886,-0.323Zm3.55,-1.834c-0.825,-1.073 -1.418,-2.032 -1.319,-2.131c0.321,-0.321 3.301,1.11 3.956,1.9c0.72,0.869 0.406,2.182 -0.522,2.182c-0.339,0 -1.291,-0.878 -2.115,-1.951Zm4.844,-0.64l-1.831,-1.616l1.662,0c1.997,0 3.924,1.378 3.494,2.498c-0.439,1.146 -1.283,0.922 -3.325,-0.882Zm-9.138,-2.988c-0.266,-0.497 -0.484,-2.305 -0.484,-4.017c0,-2.09 -0.26,-3.556 -0.793,-4.457c-0.959,-1.624 -0.682,-2.022 0.968,-1.395c1.901,0.723 2.326,2.199 1.945,6.764c-0.335,4.024 -0.736,4.786 -1.636,3.105Zm0.519,-12.991c-0.255,-0.477 -0.346,-2.173 -0.201,-3.769c0.145,-1.596 0.158,-2.902 0.029,-2.902c-0.129,0 -1.029,0.631 -1.999,1.402c-0.971,0.772 -2.029,1.403 -2.351,1.403c-1.511,0 -0.868,-1.517 1.909,-4.5c1.645,-1.767 2.995,-3.393 3.002,-3.614c0.006,-0.221 -0.535,-0.264 -1.203,-0.097c-1.178,0.296 -2.526,-0.341 -2.526,-1.195c0,-0.226 0.743,-0.41 1.651,-0.41c2.029,0 2.557,-1.023 1.49,-2.883c-0.739,-1.287 -0.73,-1.324 0.293,-1.324c1.34,0 2.175,0.832 2.175,2.164c0,0.724 0.321,1.089 1.047,1.192c0.576,0.083 1.117,0.518 1.203,0.968c0.121,0.635 -0.165,0.818 -1.28,0.818c-1.239,0 -1.437,0.169 -1.437,1.226c0,1.087 0.087,1.153 0.773,0.584c0.433,-0.359 1.824,-0.642 3.155,-0.642c2.362,0 2.383,-0.013 2.532,-1.57c0.108,-1.127 -0.145,-1.885 -0.899,-2.688l-1.05,-1.117l1.412,0c1.923,0 3.163,1.428 2.803,3.229c-0.274,1.369 -0.255,1.384 1.692,1.298c2.737,-0.12 2.724,1.137 -0.018,1.679c-2.533,0.501 -2.814,1.825 -0.352,1.659c1.593,-0.107 3.058,0.686 2.429,1.315c-0.172,0.172 -1.103,0.442 -2.067,0.599c-1.173,0.19 -1.806,0.563 -1.914,1.124c-0.14,0.727 0.065,0.797 1.519,0.524c1.075,-0.201 1.93,-0.108 2.372,0.258c1.04,0.864 0.395,1.403 -1.679,1.403c-1.242,0 -1.948,0.238 -2.133,0.721c-0.435,1.133 0.148,1.342 2.34,0.84c2.471,-0.565 4.042,-0.077 4.042,1.255c0,0.912 -0.223,0.968 -3.388,0.851c-1.864,-0.068 -4.441,0.032 -5.726,0.224c-1.972,0.294 -2.52,0.201 -3.506,-0.592l-1.168,-0.941l2.687,-0.011c2.373,-0.009 2.688,-0.12 2.688,-0.945c0,-0.718 -0.312,-0.935 -1.345,-0.935c-0.74,0 -1.607,-0.315 -1.927,-0.701c-0.491,-0.592 -0.397,-0.701 0.606,-0.701c1.623,0 2.666,-0.452 2.666,-1.154c0,-0.366 -0.42,-0.506 -1.117,-0.373c-0.626,0.12 -1.699,-0.165 -2.441,-0.649l-1.324,-0.862l2.32,-0.234c1.794,-0.181 2.358,-0.433 2.487,-1.114c0.142,-0.744 -0.028,-0.831 -1.097,-0.563c-0.836,0.21 -1.657,0.06 -2.424,-0.442c-0.638,-0.418 -1.211,-0.691 -1.274,-0.606c-1.494,2.013 -1.674,2.714 -1.674,6.511c0,2.938 -0.183,4.197 -0.669,4.6c-0.531,0.442 -0.763,0.378 -1.133,-0.313l0,0Zm-0.174,-9.271c-0.157,-0.156 -0.537,0.207 -0.845,0.807c-0.535,1.044 -0.523,1.057 0.285,0.285c0.464,-0.444 0.716,-0.935 0.56,-1.092Z" style="fill:#afafaf;fill-rule:nonzero;"/><path id="path3006" d="M8.212,52.948c0.1,-0.578 1.652,-10.923 3.449,-22.988c1.796,-12.066 3.319,-21.99 3.383,-22.054c0.064,-0.064 3.216,-0.92 7.004,-1.901l6.887,-1.785l6.888,1.785c3.788,0.981 6.956,1.853 7.04,1.938c0.085,0.084 1.605,9.903 3.379,21.82c1.774,11.916 3.333,22.245 3.465,22.952l0.239,1.285l-20.958,0l-20.957,0l0.181,-1.052Zm40.163,-1.168c-0.147,-0.707 -1.654,-10.646 -3.35,-22.086c-1.695,-11.44 -3.117,-20.83 -3.159,-20.868c-0.042,-0.037 -2.965,-0.831 -6.495,-1.765l-6.419,-1.698l-6.552,1.725c-3.774,0.993 -6.552,1.96 -6.552,2.279c0,0.677 -5.982,40.609 -6.354,42.413l-0.264,1.285l39.411,0l-0.266,-1.285Zm-13.177,-2.235c-0.488,-0.37 -1.413,-1.099 -2.056,-1.619l-1.168,-0.945l2.416,0.293l2.416,0.293l0.973,-1.907c1.25,-2.45 1.229,-3.628 -0.08,-4.459c-0.921,-0.585 -1.676,-0.556 -6.093,0.23c-3.692,0.658 -5.288,0.767 -5.96,0.407c-1.527,-0.817 -1.037,-1.393 1.186,-1.393c1.598,0 2.103,-0.176 2.103,-0.733c0,-0.52 -0.271,-0.646 -0.935,-0.436c-1.042,0.331 -2.804,-0.091 -2.804,-0.673c0,-0.206 0.841,-0.51 1.87,-0.675c2.42,-0.387 2.386,-1.02 -0.076,-1.414c-2.218,-0.355 -1.94,-1.065 0.507,-1.294c2.268,-0.213 2.31,-1.107 0.052,-1.107c-2.667,0 -3.493,-0.996 -1.128,-1.362c0.997,-0.155 2.923,-0.603 4.279,-0.996c2.607,-0.755 4.312,-0.552 4.312,0.513c0,0.401 -0.787,0.759 -2.104,0.956c-2.393,0.359 -2.861,1.39 -0.628,1.383c2.089,-0.007 2.23,1.04 0.191,1.423c-2.169,0.407 -2.244,1.49 -0.085,1.238c0.918,-0.107 1.727,0.052 1.929,0.38c0.392,0.634 -0.57,1.418 -1.64,1.339c-1.356,-0.101 -1.87,0.061 -1.87,0.587c0,0.604 4.741,0.207 6.009,-0.503c0.874,-0.489 2.224,0.127 3.421,1.559c1.073,1.283 1.054,2.074 -0.115,4.801c-1.603,3.74 -3.417,5.257 -4.922,4.114Zm-15.504,-0.324c-0.69,-0.832 -1.992,-4.709 -1.685,-5.017c0.516,-0.516 3.506,3.304 3.36,4.292c-0.177,1.198 -0.991,1.55 -1.675,0.725Zm4.38,-1.638c-0.631,-0.627 -1.707,-3.53 -1.416,-3.821c0.398,-0.399 3.093,2.73 2.886,3.351c-0.225,0.676 -1.01,0.927 -1.47,0.47Zm3.93,-1.621c-2.48,-2.632 -2.05,-3.529 0.846,-1.764c0.936,0.571 1.492,1.25 1.403,1.713c-0.234,1.204 -1.143,1.225 -2.249,0.051Zm4.268,-1.42c-1.929,-1.476 -1.956,-1.531 -0.806,-1.673c1.661,-0.205 3.779,0.907 3.779,1.984c0,1.415 -0.832,1.328 -2.973,-0.311Zm-9.301,-3.156c-0.321,-0.515 -0.58,-2.424 -0.58,-4.287c0,-2.473 -0.204,-3.584 -0.776,-4.216c-0.964,-1.065 -0.57,-1.524 0.975,-1.136c1.884,0.473 2.268,1.771 1.901,6.415c-0.181,2.284 -0.466,4.153 -0.634,4.153c-0.168,0 -0.567,-0.418 -0.886,-0.929Zm0.288,-13.177c-0.036,-0.34 -0.012,-2.084 0.055,-3.877l0.121,-3.258l-1.925,1.739c-2.099,1.896 -2.745,2.109 -3.156,1.04c-0.167,-0.437 0.802,-1.907 2.586,-3.919c1.569,-1.77 2.854,-3.375 2.854,-3.565c0,-0.191 -0.601,-0.227 -1.334,-0.08c-1.232,0.246 -2.406,-0.315 -2.406,-1.15c0,-0.19 0.789,-0.411 1.753,-0.491c1.534,-0.127 1.747,-0.291 1.708,-1.313c-0.025,-0.643 -0.206,-1.537 -0.401,-1.987c-0.274,-0.63 -0.133,-0.818 0.613,-0.818c1.038,0 1.936,1.251 1.936,2.694c0,0.618 0.318,0.875 1.052,0.849c1.556,-0.055 1.342,1.332 -0.234,1.513c-1.028,0.118 -1.285,0.387 -1.285,1.343c0,1.04 0.096,1.114 0.745,0.576c0.41,-0.34 1.83,-0.629 3.155,-0.642c2.388,-0.023 2.411,-0.037 2.56,-1.593c0.108,-1.127 -0.145,-1.885 -0.899,-2.688l-1.05,-1.117l1.473,0c1.824,0 3.089,1.644 2.64,3.432c-0.289,1.153 -0.229,1.191 1.731,1.101c1.528,-0.07 2.032,0.08 2.032,0.602c0,0.382 -0.421,0.759 -0.935,0.836c-2.513,0.381 -3.038,0.635 -3.038,1.472c0,0.754 0.262,0.846 1.809,0.639c1.129,-0.152 1.937,-0.036 2.15,0.309c0.474,0.768 0.064,1.058 -1.963,1.388c-1.201,0.195 -1.806,0.559 -1.921,1.156c-0.147,0.767 0.039,0.833 1.55,0.55c1.083,-0.204 1.961,-0.12 2.378,0.226c1.042,0.864 0.325,1.377 -1.928,1.377c-1.802,0 -2.075,0.13 -2.075,0.988c0,0.927 0.162,0.969 2.595,0.665c2.714,-0.339 3.948,0.129 3.948,1.497c0,0.581 -0.508,0.643 -3.027,0.374c-1.907,-0.204 -3.991,-0.109 -5.633,0.259c-2.458,0.55 -2.664,0.525 -3.62,-0.432l-1.015,-1.014l2.441,0c2.129,0 2.441,-0.12 2.441,-0.935c0,-0.718 -0.312,-0.935 -1.345,-0.935c-0.74,0 -1.596,-0.302 -1.902,-0.671c-0.465,-0.56 -0.263,-0.695 1.224,-0.818c1.291,-0.106 1.826,-0.384 1.945,-1.01c0.129,-0.682 -0.037,-0.799 -0.791,-0.56c-0.562,0.178 -1.588,-0.043 -2.497,-0.539l-1.542,-0.842l2.567,-0.234c2.043,-0.186 2.601,-0.415 2.735,-1.121c0.146,-0.771 -0.044,-0.852 -1.465,-0.621c-1.079,0.175 -1.979,0.022 -2.655,-0.451c-1.694,-1.187 -2.536,0.584 -2.818,5.927c-0.197,3.743 -0.362,4.46 -1.052,4.592c-0.45,0.086 -0.848,-0.122 -0.885,-0.463Zm-0.039,-9.061c-0.157,-0.156 -0.537,0.207 -0.845,0.807c-0.536,1.044 -0.523,1.057 0.285,0.285c0.464,-0.444 0.716,-0.935 0.56,-1.092Z" style="fill:#8f8f8f;fill-rule:nonzero;"/><path id="path3004" d="M8.369,53.105c0,-0.891 6.555,-45.102 6.701,-45.194c0.491,-0.309 13.116,-3.457 13.865,-3.457c0.807,0 13.475,3.18 13.899,3.489c0.06,0.044 1.579,9.951 3.376,22.017c1.797,12.065 3.348,22.41 3.448,22.988l0.182,1.052l-20.736,0c-20.119,0 -20.735,-0.027 -20.735,-0.895Zm40.025,-1.559c-0.153,-0.835 -1.653,-10.761 -3.333,-22.056c-1.681,-11.295 -3.105,-20.584 -3.164,-20.642c-0.059,-0.058 -2.997,-0.883 -6.527,-1.834l-6.42,-1.728l-6.551,1.753c-3.603,0.964 -6.551,1.915 -6.551,2.114c0,0.459 -5.994,40.356 -6.369,42.393l-0.279,1.519l39.471,0l-0.277,-1.519Zm-28.671,-2.321c-0.259,-0.33 -0.804,-1.6 -1.21,-2.822c-0.713,-2.141 -0.708,-2.205 0.131,-1.756c1.366,0.731 2.868,2.895 2.717,3.914c-0.169,1.135 -1.002,1.472 -1.638,0.664Zm15.055,0.075c-0.257,-0.246 -0.993,-0.857 -1.636,-1.359l-1.168,-0.911l2.364,0.268c2.551,0.288 2.888,0.035 4.299,-3.221c0.481,-1.11 0.417,-1.435 -0.495,-2.494c-1.036,-1.204 -1.083,-1.212 -4.076,-0.659c-1.665,0.309 -3.955,0.729 -5.09,0.935c-2.18,0.396 -4.505,-0.152 -4.014,-0.946c0.159,-0.257 1.118,-0.468 2.131,-0.468c1.346,0 1.842,-0.194 1.842,-0.719c0,-0.461 -0.377,-0.686 -1.051,-0.628c-1.755,0.15 -2.688,-0.031 -2.688,-0.523c0,-0.257 0.473,-0.47 1.052,-0.474c1.746,-0.01 3.205,-0.548 2.999,-1.104c-0.107,-0.289 -0.47,-0.46 -0.807,-0.379c-0.917,0.218 -2.777,-0.336 -2.777,-0.828c0,-0.237 0.773,-0.496 1.717,-0.575c2.427,-0.205 2.543,-1.186 0.141,-1.186c-2.863,0 -3.334,-0.875 -0.685,-1.273c1.197,-0.179 3.054,-0.636 4.125,-1.014c2.088,-0.737 4.237,-0.505 3.929,0.423c-0.103,0.312 -1.064,0.755 -2.136,0.984c-2.306,0.494 -2.662,1.624 -0.48,1.522c2.06,-0.097 2.206,0.92 0.187,1.299c-2.237,0.419 -2.2,1.56 0.048,1.49c0.986,-0.031 1.791,0.193 1.909,0.531c0.138,0.395 -0.328,0.584 -1.443,0.584c-1.573,0 -2.593,0.667 -1.972,1.289c0.161,0.161 1.887,0.024 3.837,-0.304l3.545,-0.595l1.352,1.295c1.597,1.531 1.654,2.185 0.43,4.953c-1.754,3.966 -3.852,5.556 -5.389,4.087Zm-10.714,-1.727c-0.623,-0.619 -1.694,-3.523 -1.406,-3.811c0.489,-0.489 2.996,2.706 2.709,3.454c-0.297,0.775 -0.756,0.9 -1.303,0.357Zm3.469,-2.454c-1.559,-1.969 -1.292,-2.32 0.901,-1.186c1.366,0.706 2.104,1.887 1.644,2.63c-0.477,0.772 -1.046,0.448 -2.545,-1.444Zm4.688,-0.616c-1.887,-1.444 -1.909,-1.492 -0.755,-1.634c1.509,-0.187 3.723,0.857 3.914,1.844c0.267,1.39 -1.196,1.293 -3.159,-0.21Zm-9.012,-3.11c-0.585,-0.828 -0.818,-2.06 -0.818,-4.34c0,-2.192 -0.244,-3.557 -0.783,-4.38c-0.766,-1.169 -0.759,-1.192 0.304,-1.035c0.598,0.088 1.496,0.71 1.996,1.382c0.819,1.102 0.87,1.628 0.514,5.375c-0.392,4.124 -0.4,4.145 -1.213,2.998Zm0.065,-13.184c-0.028,-0.34 -0.008,-2.072 0.046,-3.848l0.097,-3.231l-1.999,1.711c-2.206,1.888 -2.668,2.043 -3.06,1.022c-0.163,-0.424 0.831,-1.922 2.586,-3.896c1.567,-1.764 2.85,-3.35 2.85,-3.525c0,-0.175 -0.585,-0.273 -1.299,-0.219c-0.714,0.055 -1.556,-0.06 -1.87,-0.254c-1.116,-0.689 -0.544,-1.232 1.299,-1.232c1.758,0 1.87,-0.083 1.87,-1.375c0,-0.756 -0.211,-1.504 -0.468,-1.663c-0.785,-0.485 -0.521,-1.169 0.451,-1.169c1.15,0 2.04,1.585 1.625,2.893c-0.256,0.805 -0.163,0.93 0.5,0.675c0.899,-0.344 2.238,0.503 1.832,1.159c-0.141,0.228 -0.77,0.415 -1.397,0.415c-0.91,0 -1.141,0.24 -1.141,1.185c0,1.088 0.086,1.138 1.052,0.608c0.578,-0.317 2.103,-0.588 3.388,-0.601l2.338,-0.024l-0.132,-1.615c-0.073,-0.889 -0.474,-1.994 -0.893,-2.457c-0.997,-1.102 -0.451,-1.591 1.151,-1.031c1.08,0.378 1.298,0.75 1.42,2.425l0.143,1.98l1.784,-0.286c1.862,-0.297 2.79,0.288 1.78,1.124c-0.319,0.263 -1.21,0.55 -1.982,0.637c-1.018,0.115 -1.441,0.434 -1.546,1.169c-0.131,0.923 0.016,0.989 1.692,0.765c1.154,-0.155 1.963,-0.042 2.178,0.305c0.48,0.777 0.126,1 -2.051,1.292c-1.488,0.199 -1.908,0.455 -1.908,1.161c0,0.776 0.282,0.883 1.986,0.756c1.52,-0.113 1.987,0.016 1.987,0.553c0,0.491 -0.597,0.744 -1.987,0.845c-1.654,0.119 -1.986,0.306 -1.986,1.116c0,0.906 0.178,0.951 2.626,0.663c2.723,-0.32 3.917,0.12 3.917,1.443c0,0.56 -0.538,0.624 -3.015,0.358c-1.886,-0.202 -3.903,-0.11 -5.384,0.245c-2.109,0.506 -2.507,0.474 -3.645,-0.298l-1.277,-0.867l2.728,-0.141c2.223,-0.115 2.678,-0.274 2.454,-0.856c-0.151,-0.393 -0.274,-0.803 -0.274,-0.91c0,-0.108 -0.435,-0.196 -0.966,-0.196c-0.531,0 -1.425,-0.261 -1.986,-0.581c-0.949,-0.54 -0.872,-0.598 1.078,-0.818c1.511,-0.17 2.143,-0.466 2.254,-1.055c0.126,-0.661 -0.186,-0.821 -1.631,-0.833c-0.983,-0.008 -2.179,-0.312 -2.659,-0.675c-0.789,-0.598 -0.637,-0.673 1.632,-0.803c1.943,-0.111 2.538,-0.326 2.658,-0.961c0.129,-0.678 -0.194,-0.818 -1.888,-0.818c-1.125,0 -2.299,-0.254 -2.61,-0.565c-0.442,-0.442 -0.742,-0.315 -1.379,0.584c-0.581,0.822 -0.88,2.416 -1.047,5.585c-0.197,3.743 -0.362,4.46 -1.052,4.592c-0.45,0.086 -0.841,-0.122 -0.87,-0.463l0,0Zm0.52,-9.338c0,-0.854 -0.816,-0.328 -1.367,0.882c-0.58,1.273 -0.579,1.274 0.393,0.395c0.535,-0.485 0.974,-1.06 0.974,-1.277Z" style="fill:#6e6e6e;fill-rule:nonzero;"/><path id="path3002" d="M8.369,53.312c0,-1.064 6.584,-44.805 6.795,-45.148c0.103,-0.166 3.244,-1.101 6.979,-2.079l6.792,-1.776l6.895,1.784c3.792,0.981 6.929,1.802 6.971,1.825c0.144,0.078 6.701,44.291 6.701,45.187c0,0.868 -0.614,0.895 -20.567,0.895c-17.799,0 -20.566,-0.093 -20.566,-0.688Zm39.998,-2c-0.156,-0.964 -1.634,-10.882 -3.286,-22.041c-1.652,-11.158 -3.206,-20.413 -3.455,-20.566c-0.248,-0.153 -3.258,-0.99 -6.688,-1.86l-6.236,-1.581l-6.251,1.677c-3.438,0.923 -6.324,1.752 -6.414,1.842c-0.138,0.138 -6.733,43.258 -6.733,44.022c0,0.143 8.852,0.26 19.672,0.26l19.673,0l-0.282,-1.753Zm-28.649,-2.087c-0.732,-0.921 -1.666,-4.129 -1.308,-4.487c0.549,-0.549 3.112,2.722 2.957,3.771c-0.174,1.181 -0.996,1.537 -1.649,0.716Zm14.38,-0.658c-0.889,-0.631 -1.682,-1.214 -1.763,-1.295c-0.082,-0.081 0.864,-0.051 2.1,0.068c2.5,0.24 2.91,-0.043 4.069,-2.819c0.676,-1.617 0.659,-1.752 -0.393,-2.974c-1.076,-1.252 -1.155,-1.268 -3.619,-0.736c-3.979,0.859 -7.27,1.177 -8.638,0.833c-1.664,-0.417 -0.919,-1.097 1.409,-1.285c2.551,-0.206 2.811,-1.316 0.309,-1.316c-1.05,0 -1.909,-0.211 -1.909,-0.468c0,-0.257 0.509,-0.467 1.131,-0.467c1.613,0 2.609,-0.465 2.609,-1.219c0,-0.453 -0.597,-0.651 -1.963,-0.651c-2.183,0 -1.964,-0.763 0.291,-1.016c1.992,-0.222 2.075,-1.227 0.101,-1.227c-0.889,0 -1.976,-0.201 -2.415,-0.447c-0.619,-0.347 -0.252,-0.519 1.64,-0.77c1.341,-0.178 3.242,-0.645 4.225,-1.039c1.381,-0.552 2.01,-0.595 2.771,-0.188c1.332,0.713 0.886,1.233 -1.368,1.593c-2.305,0.369 -2.645,1.632 -0.411,1.527c0.81,-0.038 1.562,0.193 1.675,0.515c0.12,0.342 -0.183,0.585 -0.73,0.585c-1.448,0 -2.414,0.5 -2.414,1.25c0,0.47 0.291,0.59 0.935,0.386c1.091,-0.347 2.804,0.101 2.804,0.732c0,0.24 -0.818,0.436 -1.819,0.436c-1.169,0 -1.914,0.246 -2.083,0.686c-0.424,1.103 0.228,1.166 4.071,0.392l3.628,-0.73l1.374,1.316c0.755,0.723 1.373,1.67 1.373,2.104c0,1.093 -1.641,4.697 -2.824,6.201c-1.193,1.517 -2.055,1.521 -4.166,0.023l0,0Zm-10.786,-2.542c-0.542,-1.062 -0.898,-2.019 -0.791,-2.126c0.417,-0.417 2.675,1.803 2.675,2.629c0,1.661 -0.903,1.421 -1.884,-0.503Zm4.221,-0.906c-1.559,-1.969 -1.292,-2.32 0.901,-1.186c1.366,0.706 2.104,1.887 1.644,2.63c-0.477,0.772 -1.046,0.448 -2.545,-1.444Zm4.316,-0.948c-1.282,-1.167 -1.381,-1.389 -0.614,-1.389c1.962,0 4.214,1.304 4.237,2.454c0.018,0.859 -2.235,0.197 -3.623,-1.065Zm-8.974,-3.228c-0.266,-0.497 -0.484,-2.343 -0.484,-4.103c0,-2.189 -0.238,-3.539 -0.755,-4.277c-0.725,-1.036 -0.713,-1.072 0.304,-0.922c0.582,0.086 1.457,0.692 1.943,1.345c0.77,1.036 0.842,1.682 0.564,5.025c-0.324,3.883 -0.694,4.572 -1.572,2.932Zm0.533,-15.924c0.083,-2.057 0.027,-3.74 -0.126,-3.739c-0.153,0 -0.678,0.443 -1.168,0.983c-0.489,0.541 -1.472,1.284 -2.184,1.653c-1.136,0.587 -1.328,0.583 -1.566,-0.037c-0.171,-0.445 0.781,-1.889 2.58,-3.912c1.567,-1.764 2.85,-3.334 2.85,-3.489c0,-0.155 -0.773,-0.348 -1.717,-0.427c-0.944,-0.08 -1.808,-0.423 -1.919,-0.762c-0.112,-0.339 0.082,-0.577 0.431,-0.529c0.349,0.048 1.212,0.063 1.919,0.032c1.099,-0.047 1.286,-0.255 1.286,-1.43c0,-0.756 -0.211,-1.504 -0.468,-1.663c-0.859,-0.531 -0.48,-1.236 0.585,-1.084c0.847,0.12 1.08,0.493 1.198,1.924c0.12,1.464 0.293,1.728 0.985,1.508c0.462,-0.146 1.083,0.027 1.381,0.386c0.437,0.527 0.271,0.705 -0.869,0.933c-1.14,0.228 -1.41,0.518 -1.41,1.513c0,0.886 0.191,1.157 0.682,0.968c0.516,-0.198 0.448,0.187 -0.28,1.584c-0.799,1.534 -0.907,2.315 -0.64,4.619c0.365,3.143 0.033,4.709 -0.998,4.709c-0.582,0 -0.678,-0.65 -0.552,-3.74l0,0Zm0.386,-6.157c0,-0.852 -0.782,-0.301 -1.609,1.133l-0.874,1.519l1.241,-1.133c0.683,-0.623 1.242,-1.307 1.242,-1.519Zm4.177,9.007l-1.139,-0.948l2.688,-0.016c2.37,-0.013 2.687,-0.125 2.687,-0.95c0,-0.692 -0.311,-0.935 -1.199,-0.935c-0.66,0 -1.659,-0.261 -2.22,-0.581c-0.949,-0.54 -0.872,-0.598 1.078,-0.818c1.511,-0.17 2.143,-0.466 2.254,-1.055c0.127,-0.667 -0.185,-0.818 -1.691,-0.818c-1.038,0 -2.091,-0.295 -2.406,-0.674c-0.472,-0.569 -0.208,-0.696 1.696,-0.818c1.89,-0.121 2.278,-0.305 2.397,-1.141c0.13,-0.915 -0.025,-0.978 -1.888,-0.768c-1.502,0.169 -2.193,0.033 -2.654,-0.522c-0.558,-0.673 -0.376,-0.751 1.744,-0.751c1.302,0 2.5,-0.215 2.663,-0.479c0.433,-0.701 -0.205,-3.157 -1.036,-3.989c-0.977,-0.976 -0.398,-1.412 1.155,-0.869c1.086,0.38 1.297,0.747 1.422,2.471c0.144,2 0.164,2.021 1.636,1.752c1.823,-0.334 3.018,0.234 2.096,0.997c-0.333,0.276 -1.237,0.573 -2.009,0.66c-1.026,0.116 -1.441,0.433 -1.548,1.184c-0.132,0.929 0.041,1.018 1.82,0.935c2.769,-0.129 2.946,0.923 0.224,1.331c-1.694,0.254 -2.131,0.507 -2.131,1.233c0,0.786 0.276,0.893 1.986,0.765c1.52,-0.113 1.987,0.016 1.987,0.553c0,0.491 -0.597,0.744 -1.987,0.845c-1.652,0.119 -1.986,0.307 -1.986,1.112c0,0.904 0.18,0.948 2.734,0.659c2.176,-0.246 2.858,-0.161 3.339,0.418c0.949,1.144 0.233,1.388 -4.118,1.407c-2.232,0.01 -4.598,0.184 -5.257,0.388c-0.899,0.277 -1.483,0.133 -2.337,-0.578l0,0Z" style="fill:#4e4e4e;fill-rule:nonzero;"/><path id="path3000" d="M8.369,53.526c0,-0.714 6.544,-44.559 6.731,-45.101c0.089,-0.258 3.244,-1.285 7.01,-2.283l6.847,-1.814l6.65,1.759c3.657,0.968 6.793,1.89 6.969,2.05c0.289,0.262 6.926,43.551 6.926,45.175c0,0.595 -2.767,0.688 -20.567,0.688c-13.592,0 -20.566,-0.161 -20.566,-0.474Zm40.188,-1.045c-0.023,-1.385 -6.45,-43.425 -6.672,-43.647c-0.376,-0.376 -11.909,-3.445 -12.946,-3.445c-0.946,0 -12.606,3.097 -12.948,3.44c-0.176,0.175 -6.687,42.847 -6.687,43.823c0,0.233 8.578,0.413 19.631,0.413c15.399,0 19.63,-0.126 19.622,-0.584Zm-14.459,-3.914c-0.889,-0.631 -1.668,-1.2 -1.733,-1.265c-0.065,-0.064 0.978,-0.109 2.316,-0.098c2.432,0.018 2.435,0.017 3.602,-2.192l1.167,-2.211l-1.224,-1.224l-1.224,-1.224l-4.349,0.747c-4.932,0.847 -6.819,0.933 -7.193,0.329c-0.332,-0.538 0.838,-0.984 2.579,-0.984c0.901,0 1.364,-0.238 1.364,-0.701c0,-0.507 -0.52,-0.701 -1.87,-0.701c-2.364,0 -2.461,-0.83 -0.121,-1.024c1.223,-0.101 1.796,-0.391 1.904,-0.963c0.127,-0.67 -0.209,-0.828 -1.866,-0.874l-2.02,-0.056l1.986,-0.478c2.581,-0.62 2.674,-1.747 0.145,-1.747c-2.615,0 -2.761,-0.769 -0.218,-1.151c1.176,-0.176 2.98,-0.617 4.01,-0.981c1.353,-0.477 2.124,-0.526 2.779,-0.176c1.256,0.673 0.767,1.197 -1.447,1.551c-2.347,0.375 -2.709,1.762 -0.412,1.577c0.848,-0.069 1.556,0.128 1.675,0.465c0.134,0.378 -0.262,0.587 -1.118,0.592c-0.728,0.004 -1.614,0.191 -1.968,0.415c-0.972,0.616 -0.119,1.564 1.125,1.252c0.595,-0.149 1.413,-0.144 1.819,0.012c1.364,0.524 0.755,1.118 -1.146,1.118c-1.267,0 -1.975,0.236 -2.161,0.722c-0.465,1.212 0.099,1.275 4.126,0.459l3.879,-0.786l1.292,1.446c0.711,0.795 1.292,1.721 1.292,2.057c0,1.19 -2.787,6.343 -3.693,6.828c-1.215,0.65 -1.407,0.608 -3.297,-0.734l0,0Zm-14.718,0.175c-0.098,-0.322 -0.408,-1.302 -0.689,-2.18c-0.281,-0.877 -0.409,-1.696 -0.286,-1.819c0.573,-0.573 3.052,2.751 3.052,4.092c0,0.696 -1.863,0.612 -2.077,-0.093Zm3.819,-3.161c-0.749,-1.905 -0.521,-2.012 1.179,-0.552c0.966,0.83 1.09,2.427 0.188,2.427c-0.347,0 -0.962,-0.844 -1.367,-1.875Zm4.346,-0.447c-1.586,-2.002 -1.247,-2.391 0.953,-1.091c1.617,0.955 1.999,1.764 1.162,2.459c-0.482,0.4 -0.959,0.092 -2.115,-1.368Zm4.662,-0.95c-1.748,-1.471 -1.231,-1.847 1.246,-0.905c1.395,0.53 2.11,1.327 1.734,1.935c-0.419,0.677 -1.323,0.365 -2.98,-1.03Zm-9.338,-3.252c-0.269,-0.504 -0.46,-2.287 -0.424,-3.964c0.048,-2.172 -0.162,-3.397 -0.73,-4.263c-0.778,-1.187 -0.772,-1.212 0.244,-1.061c0.572,0.084 1.42,0.679 1.884,1.322c0.716,0.99 0.802,1.757 0.565,5.025c-0.284,3.903 -0.65,4.602 -1.539,2.941Zm0.615,-12.904c-0.155,-0.402 -0.172,-2.085 -0.039,-3.739c0.132,-1.655 0.108,-3 -0.056,-2.989c-0.163,0.01 -1.025,0.641 -1.915,1.402c-1.67,1.428 -3.298,1.825 -3.278,0.799c0.007,-0.321 1.269,-1.915 2.805,-3.542c1.536,-1.627 2.793,-3.204 2.793,-3.506c0,-0.319 -0.713,-0.548 -1.709,-0.548c-2.24,0 -2.53,-0.908 -0.328,-1.023c2.355,-0.122 2.769,-0.685 1.855,-2.519c-0.848,-1.699 -0.637,-2.282 0.555,-1.535c0.437,0.273 0.863,1.181 0.945,2.015c0.121,1.227 0.32,1.474 1.035,1.287c0.486,-0.127 1.128,0.062 1.426,0.421c0.44,0.53 0.316,0.653 -0.656,0.653c-1.331,0 -1.456,0.132 -1.905,2.011c-0.292,1.219 -0.245,1.274 0.672,0.783c0.899,-0.481 0.941,-0.445 0.48,0.417c-0.278,0.519 -0.735,1.086 -1.016,1.259c-0.315,0.195 -0.469,1.764 -0.404,4.116c0.058,2.091 0.079,4.064 0.045,4.385c-0.086,0.826 -0.97,0.727 -1.305,-0.147Zm0.31,-8.904c0,-1.077 -0.684,-0.732 -1.589,0.8l-0.855,1.448l1.222,-0.8c0.672,-0.441 1.222,-1.092 1.222,-1.448Zm4.18,8.717l-1.142,-0.98l1.168,0.066c3.284,0.186 4.207,-0.027 4.207,-0.972c0,-0.705 -0.316,-0.939 -1.285,-0.95c-0.707,-0.008 -1.694,-0.323 -2.193,-0.701c-0.839,-0.635 -0.743,-0.686 1.286,-0.686c1.881,0 2.192,-0.133 2.192,-0.935c0,-0.774 -0.311,-0.935 -1.812,-0.935c-1.041,0 -2.06,-0.298 -2.395,-0.701c-0.504,-0.608 -0.262,-0.701 1.813,-0.701c2.226,0 2.394,-0.08 2.394,-1.139c0,-1.032 -0.148,-1.115 -1.572,-0.884c-0.924,0.15 -2.031,-0.007 -2.687,-0.38c-1.061,-0.604 -0.99,-0.647 1.455,-0.869l2.571,-0.234l-0.055,-1.763c-0.03,-0.972 -0.43,-2.179 -0.89,-2.688c-0.805,-0.89 -0.803,-0.923 0.054,-0.909c1.578,0.026 2.527,1.144 2.527,2.978c0,1.702 0.019,1.72 1.752,1.585c1.308,-0.103 1.753,0.041 1.753,0.564c0,0.472 -0.571,0.748 -1.753,0.846c-1.493,0.123 -1.752,0.309 -1.752,1.257c0,1.006 0.184,1.103 1.936,1.023c1.197,-0.054 2.015,0.135 2.142,0.496c0.127,0.358 -0.215,0.587 -0.884,0.591c-2.071,0.012 -3.194,0.543 -3.194,1.51c0,0.832 0.21,0.906 1.841,0.645c1.154,-0.184 1.962,-0.1 2.163,0.227c0.448,0.725 -0.681,1.335 -2.485,1.344c-1.239,0.005 -1.519,0.191 -1.519,1.008c0,0.942 0.162,0.985 2.726,0.717c2.543,-0.266 3.817,0.109 3.817,1.125c0,0.176 -2.05,0.428 -4.557,0.56c-2.506,0.132 -4.99,0.381 -5.519,0.553c-0.643,0.209 -1.34,-0.012 -2.103,-0.668Z" style="fill:#2f2f2f;fill-rule:nonzero;"/><path id="path2998" d="M8.627,51.78c0.148,-0.964 1.68,-11.2 3.404,-22.747l3.135,-20.994l6.768,-1.805l6.768,-1.806l6.951,1.766c3.823,0.971 7.024,1.976 7.114,2.233c0.145,0.414 6.735,44.334 6.735,44.885c0,0.121 -9.258,0.221 -20.572,0.221l-20.572,0l0.269,-1.753Zm39.94,0.614c0,-1.514 -6.141,-42.17 -6.5,-43.032c-0.306,-0.737 -1.741,-1.281 -6.76,-2.562l-6.372,-1.626l-6.371,1.626c-5.041,1.287 -6.45,1.822 -6.746,2.562c-0.342,0.855 -6.528,41.775 -6.518,43.119c0.003,0.458 4.244,0.584 19.635,0.584c16.756,0 19.632,-0.098 19.632,-0.671Zm-14.469,-3.827c-0.889,-0.631 -1.661,-1.192 -1.716,-1.246c-0.055,-0.054 0.981,-0.099 2.304,-0.099c2.351,0 2.428,-0.044 3.525,-2.027c0.977,-1.765 1.045,-2.171 0.523,-3.147c-0.875,-1.635 -1.752,-1.74 -7.16,-0.859c-2.856,0.466 -5.238,0.636 -5.745,0.411c-0.767,-0.341 -0.733,-0.404 0.302,-0.55c2.549,-0.361 3.272,-0.652 3.272,-1.315c0,-0.502 -0.541,-0.692 -1.963,-0.692c-2.2,0 -1.956,-0.767 0.323,-1.016c0.882,-0.097 1.455,-0.455 1.553,-0.971c0.125,-0.657 -0.196,-0.827 -1.632,-0.866l-1.787,-0.048l1.753,-0.466c2.111,-0.561 2.377,-1.775 0.389,-1.775c-3.068,0 -3.086,-0.651 -0.035,-1.292c4.94,-1.037 6.407,-1.171 6.749,-0.618c0.35,0.567 -0.088,0.767 -2.585,1.179c-2.299,0.38 -2.342,1.739 -0.049,1.56c0.938,-0.074 1.708,0.107 1.821,0.426c0.123,0.351 -0.46,0.609 -1.583,0.702c-1.285,0.106 -1.823,0.385 -1.941,1.006c-0.139,0.731 0.098,0.836 1.588,0.701c1.06,-0.096 1.826,0.06 1.941,0.396c0.119,0.349 -0.469,0.609 -1.588,0.701c-1.3,0.107 -1.823,0.383 -1.944,1.025c-0.151,0.795 0.047,0.848 2.099,0.559c1.246,-0.175 2.958,-0.537 3.803,-0.803c1.766,-0.557 3.534,0.29 4.351,2.083c0.836,1.834 -2.623,8.347 -4.369,8.227c-0.321,-0.022 -1.311,-0.556 -2.199,-1.186l0,0Zm-15.167,-1.424c-0.409,-1.2 -0.691,-2.235 -0.627,-2.299c0.594,-0.594 3.341,3.331 2.867,4.098c-0.598,0.968 -1.56,0.196 -2.24,-1.799Zm4.255,-1.595c-0.703,-1.791 -0.701,-1.871 0.046,-1.308c1.876,1.414 2.623,3.216 1.334,3.216c-0.347,0 -0.968,-0.859 -1.38,-1.908l0,0Zm4.21,-0.663c-0.718,-0.899 -1.138,-1.635 -0.935,-1.634c0.869,0.004 3.409,1.914 3.409,2.562c0,1.202 -1.106,0.787 -2.474,-0.928Zm4.811,-0.764l-1.636,-1.428l1.636,0.332c1.895,0.385 2.805,1.007 2.805,1.918c0,1.024 -1.038,0.72 -2.805,-0.822Zm-9.312,-3.347c-0.256,-0.674 -0.422,-2.578 -0.368,-4.231c0.078,-2.391 -0.084,-3.207 -0.792,-3.992c-0.737,-0.817 -0.766,-0.987 -0.169,-0.987c0.397,0 1.192,0.381 1.767,0.846c0.944,0.764 1.038,1.226 0.973,4.781c-0.077,4.211 -0.634,5.626 -1.411,3.583Zm0.641,-12.52c-0.172,-0.279 -0.163,-2.098 0.019,-4.043l0.331,-3.536l-2.081,1.705c-3.146,2.578 -5.077,2.101 -2.335,-0.577c2.194,-2.142 4.324,-4.793 4.324,-5.381c0,-0.368 -0.567,-0.496 -1.636,-0.372c-2.28,0.267 -2.073,-0.69 0.233,-1.079c2.062,-0.349 2.386,-1.159 1.164,-2.904c-0.47,-0.671 -0.541,-1.11 -0.213,-1.313c0.807,-0.498 1.854,0.727 1.854,2.17c0,1.124 0.193,1.345 1.169,1.345c0.642,0 1.168,0.211 1.168,0.468c0,0.257 -0.503,0.467 -1.118,0.467c-1.14,0 -1.686,0.77 -1.686,2.376c0,1.036 0.478,1.144 1.384,0.312c0.35,-0.321 0.182,0.079 -0.374,0.89c-0.854,1.246 -1.01,2.135 -1.01,5.726c0,3.894 -0.375,5.069 -1.193,3.746l0,0Zm0.18,-9.299c0.208,-1.397 -0.643,-0.846 -1.625,1.052l-0.761,1.472l1.115,-0.737c0.613,-0.405 1.185,-1.209 1.271,-1.787Zm3.988,8.586c-0.827,-0.664 -0.816,-0.684 0.22,-0.397c1.863,0.515 4.283,-0.168 4.283,-1.21c0,-0.695 -0.322,-0.914 -1.345,-0.914c-0.74,0 -1.607,-0.315 -1.927,-0.701c-0.501,-0.604 -0.314,-0.701 1.345,-0.701c1.616,0 1.927,-0.151 1.927,-0.935c0,-0.746 -0.311,-0.935 -1.546,-0.935c-0.851,0 -1.955,-0.333 -2.454,-0.739c-0.864,-0.704 -0.865,-0.726 -0.027,-0.458c0.484,0.155 1.589,0.148 2.454,-0.014c1.267,-0.238 1.573,-0.513 1.573,-1.417c0,-1.034 -0.138,-1.101 -1.753,-0.85c-1.206,0.187 -2.044,0.047 -2.687,-0.447c-0.874,-0.673 -0.761,-0.72 1.753,-0.734l2.687,-0.015l0,-1.573c0,-0.883 -0.424,-2.113 -0.969,-2.804c-1.114,-1.417 -0.371,-1.698 1.333,-0.504c0.769,0.539 1.039,1.197 1.039,2.538c0,1.77 0.029,1.802 1.339,1.426c1.637,-0.469 3.033,0.187 1.932,0.91c-0.385,0.253 -1.279,0.463 -1.986,0.467c-1.072,0.006 -1.285,0.21 -1.285,1.227c0,1.077 0.14,1.184 1.208,0.916c1.421,-0.357 3.128,0.08 2.744,0.703c-0.148,0.238 -0.765,0.433 -1.371,0.433c-1.732,0 -2.581,0.49 -2.581,1.488c0,0.755 0.274,0.897 1.525,0.79c1.966,-0.17 3.266,0.526 1.949,1.042c-0.497,0.195 -1.482,0.369 -2.189,0.387c-0.992,0.025 -1.285,0.261 -1.285,1.033c0,0.931 0.174,0.982 2.532,0.739c1.739,-0.18 2.802,-0.066 3.389,0.363c0.47,0.344 0.75,0.719 0.622,0.833c-0.129,0.114 -2.786,0.33 -5.905,0.48c-4.633,0.223 -5.832,0.144 -6.544,-0.427l0,0Z" style="fill:#030303;fill-rule:nonzero;"/></g></svg>