<?xml version="1.0" encoding="UTF-8" standalone="no"?><!DOCTYPE svg PUBLIC "-//W3C//DTD SVG 1.1//EN" "http://www.w3.org/Graphics/SVG/1.1/DTD/svg11.dtd"><svg width="100%" height="100%" viewBox="0 0 39 39" version="1.1" xmlns="http://www.w3.org/2000/svg" xmlns:xlink="http://www.w3.org/1999/xlink" xml:space="preserve" xmlns:serif="http://www.serif.com/" style="fill-rule:evenodd;clip-rule:evenodd;stroke-linejoin:round;stroke-miterlimit:2;"><g id="g3792"><path id="path3022" d="M11.656,7.578l-3.906,26.036l23.5,-0.137l-3.974,-25.83l-8.153,-2.261l-7.467,2.192Z" style="fill:#fff;fill-rule:nonzero;"/><path id="path3004" d="M14.078,31.217c-0.15,-0.191 -0.466,-0.928 -0.702,-1.638c-0.414,-1.242 -0.411,-1.28 0.076,-1.019c0.793,0.424 1.665,1.68 1.577,2.272c-0.098,0.659 -0.582,0.854 -0.951,0.385Zm8.739,0.044c-0.15,-0.143 -0.577,-0.498 -0.95,-0.789l-0.678,-0.529l1.372,0.156c1.481,0.167 1.676,0.02 2.495,-1.87c0.28,-0.644 0.242,-0.833 -0.287,-1.447c-0.601,-0.699 -0.629,-0.704 -2.366,-0.383c-0.966,0.179 -2.295,0.423 -2.954,0.543c-1.265,0.23 -2.615,-0.088 -2.33,-0.549c0.092,-0.149 0.649,-0.272 1.237,-0.272c0.781,0 1.069,-0.112 1.069,-0.417c0,-0.268 -0.219,-0.398 -0.61,-0.365c-1.019,0.087 -1.56,-0.018 -1.56,-0.303c0,-0.149 0.274,-0.273 0.611,-0.275c1.013,-0.006 1.86,-0.318 1.74,-0.641c-0.062,-0.168 -0.273,-0.267 -0.468,-0.22c-0.532,0.126 -1.612,-0.195 -1.612,-0.481c0,-0.137 0.449,-0.288 0.997,-0.333c1.408,-0.119 1.476,-0.689 0.081,-0.689c-1.661,0 -1.935,-0.508 -0.397,-0.739c0.695,-0.104 1.772,-0.369 2.394,-0.588c1.212,-0.428 2.459,-0.293 2.281,0.245c-0.06,0.181 -0.618,0.438 -1.24,0.571c-1.339,0.287 -1.545,0.943 -0.279,0.884c1.196,-0.057 1.281,0.534 0.109,0.754c-1.299,0.243 -1.277,0.905 0.028,0.865c0.572,-0.018 1.039,0.112 1.108,0.308c0.08,0.229 -0.191,0.339 -0.838,0.339c-0.913,0 -1.505,0.387 -1.145,0.748c0.094,0.093 1.096,0.014 2.227,-0.177l2.058,-0.345l0.785,0.752c0.927,0.888 0.96,1.268 0.249,2.875c-1.018,2.302 -2.235,3.224 -3.127,2.372Zm-6.219,-1.003c-0.362,-0.359 -0.983,-2.044 -0.816,-2.212c0.284,-0.283 1.739,1.571 1.572,2.005c-0.172,0.45 -0.439,0.523 -0.756,0.207Zm2.013,-1.424c-0.904,-1.143 -0.75,-1.347 0.523,-0.688c0.793,0.409 1.222,1.095 0.955,1.526c-0.277,0.448 -0.608,0.26 -1.478,-0.838Zm2.721,-0.358c-1.095,-0.838 -1.108,-0.866 -0.438,-0.948c0.876,-0.108 2.161,0.497 2.272,1.07c0.155,0.807 -0.694,0.751 -1.834,-0.122Zm-5.23,-1.805c-0.34,-0.48 -0.475,-1.195 -0.475,-2.519c0,-1.272 -0.142,-2.064 -0.455,-2.542c-0.444,-0.678 -0.44,-0.692 0.177,-0.601c0.347,0.051 0.868,0.412 1.158,0.803c0.476,0.639 0.505,0.944 0.299,3.119c-0.228,2.394 -0.232,2.406 -0.704,1.74Zm0.037,-7.652c-0.016,-0.197 -0.004,-1.203 0.027,-2.233l0.056,-1.876l-1.16,0.993c-1.28,1.096 -1.548,1.186 -1.776,0.594c-0.095,-0.246 0.482,-1.116 1.501,-2.262c0.91,-1.024 1.654,-1.944 1.654,-2.046c0,-0.101 -0.339,-0.158 -0.754,-0.127c-0.414,0.032 -0.903,-0.035 -1.085,-0.147c-0.648,-0.4 -0.316,-0.715 0.754,-0.715c1.02,0 1.085,-0.048 1.085,-0.798c0,-0.439 -0.122,-0.873 -0.271,-0.966c-0.456,-0.281 -0.303,-0.678 0.261,-0.678c0.668,0 1.184,0.92 0.944,1.679c-0.149,0.467 -0.095,0.54 0.29,0.392c0.522,-0.2 1.299,0.292 1.063,0.673c-0.082,0.132 -0.447,0.24 -0.811,0.24c-0.528,0 -0.662,0.14 -0.662,0.688c0,0.632 0.05,0.661 0.611,0.353c0.335,-0.184 1.22,-0.341 1.966,-0.349l1.357,-0.014l-0.077,-0.937c-0.042,-0.516 -0.275,-1.157 -0.518,-1.426c-0.579,-0.64 -0.262,-0.924 0.668,-0.599c0.627,0.22 0.754,0.436 0.824,1.408l0.083,1.149l1.036,-0.166c1.081,-0.172 1.619,0.167 1.033,0.653c-0.185,0.152 -0.702,0.319 -1.15,0.369c-0.591,0.067 -0.837,0.252 -0.898,0.679c-0.076,0.536 0.01,0.574 0.982,0.444c0.67,-0.09 1.14,-0.025 1.264,0.177c0.279,0.451 0.074,0.58 -1.19,0.75c-0.864,0.115 -1.107,0.264 -1.107,0.674c0,0.45 0.163,0.512 1.152,0.438c0.883,-0.065 1.154,0.01 1.154,0.321c0,0.285 -0.347,0.432 -1.154,0.491c-0.96,0.069 -1.152,0.177 -1.152,0.648c0,0.525 0.103,0.552 1.524,0.384c1.58,-0.185 2.273,0.07 2.273,0.838c0,0.325 -0.312,0.362 -1.75,0.208c-1.094,-0.117 -2.265,-0.064 -3.125,0.142c-1.224,0.294 -1.455,0.275 -2.115,-0.173l-0.741,-0.503l1.583,-0.082c1.29,-0.067 1.554,-0.159 1.424,-0.497c-0.087,-0.228 -0.159,-0.466 -0.159,-0.528c0,-0.063 -0.252,-0.114 -0.56,-0.114c-0.309,0 -0.828,-0.151 -1.153,-0.337c-0.551,-0.313 -0.506,-0.347 0.625,-0.475c0.878,-0.099 1.244,-0.27 1.309,-0.612c0.073,-0.384 -0.108,-0.477 -0.947,-0.484c-0.57,-0.004 -1.265,-0.181 -1.543,-0.391c-0.458,-0.348 -0.37,-0.391 0.947,-0.467c1.128,-0.064 1.473,-0.189 1.543,-0.557c0.075,-0.394 -0.113,-0.475 -1.096,-0.475c-0.653,0 -1.334,-0.148 -1.515,-0.328c-0.257,-0.257 -0.431,-0.183 -0.8,0.339c-0.338,0.477 -0.511,1.402 -0.608,3.242c-0.114,2.172 -0.21,2.588 -0.611,2.665c-0.261,0.05 -0.488,-0.071 -0.505,-0.269Zm0.302,-5.42c0,-0.496 -0.473,-0.19 -0.793,0.512c-0.337,0.739 -0.336,0.74 0.228,0.229c0.31,-0.281 0.565,-0.615 0.565,-0.741Z" style="fill-rule:nonzero;"/></g></svg>