<?xml version="1.0" encoding="UTF-8" standalone="no"?><!DOCTYPE svg PUBLIC "-//W3C//DTD SVG 1.1//EN" "http://www.w3.org/Graphics/SVG/1.1/DTD/svg11.dtd"><svg width="100%" height="100%" viewBox="0 0 39 39" version="1.1" xmlns="http://www.w3.org/2000/svg" xmlns:xlink="http://www.w3.org/1999/xlink" xml:space="preserve" xmlns:serif="http://www.serif.com/" style="fill-rule:evenodd;clip-rule:evenodd;stroke-miterlimit:2;"><g id="g4395"><g id="path3885"><path d="M10.863,6.447l8.411,-2.547l8.69,2.443l4.536,28.757l-26,-0.14l4.363,-28.513Z" style="fill:none;fill-rule:nonzero;stroke:#f00;stroke-width:2px;"/><path d="M10.863,6.447l8.411,-2.547l8.69,2.443l4.536,28.757l-26,-0.14l4.363,-28.513Z" style="fill:#fff;fill-rule:nonzero;"/></g><g id="g3876"><path id="path3858" d="M16.91,32.693c-1.77,-0.512 -2.331,-2.414 -0.924,-3.142c1.085,-0.561 1.753,-0.532 2.54,0.112c0.516,0.421 0.581,0.605 0.313,0.877c-0.25,0.255 -0.575,0.272 -1.245,0.067c-1.807,-0.555 -2.161,0.157 -0.5,1.004c1.244,0.635 1.667,0.671 3.112,0.27c1.579,-0.438 2.703,-1.518 2.703,-2.595c0,-1.34 -0.698,-1.815 -2.67,-1.815c-0.913,0 -1.743,-0.084 -1.845,-0.185c-0.102,-0.102 -0.005,-0.46 0.215,-0.797c0.386,-0.588 0.361,-0.617 -0.69,-0.785c-1.065,-0.17 -1.38,-0.509 -0.803,-0.865c0.158,-0.098 1.173,-0.199 2.256,-0.224c2.261,-0.053 2.573,0.236 1.413,1.311l-0.772,0.716l1.193,0c3.426,0 3.889,4.593 0.596,5.911c-1.209,0.483 -3.479,0.548 -4.892,0.14Zm-2.293,-10.059c-0.696,-0.741 -0.446,-0.883 0.664,-0.377c0.559,0.256 1.238,0.177 3.597,-0.414c3.011,-0.755 4.711,-0.902 5.396,-0.469c0.598,0.378 -0.04,0.995 -1.57,1.516c-1.753,0.598 -2.219,0.563 -1.415,-0.109l0.653,-0.543l-0.692,-0.009c-0.381,-0.005 -1.562,0.24 -2.625,0.543c-2.53,0.724 -3.22,0.7 -4.008,-0.138Zm6.142,-2.809c-0.979,-0.481 -1.799,-1.476 -2.13,-2.58l-0.208,-0.691l0.793,0.745c0.436,0.41 1.245,0.934 1.796,1.165c0.925,0.386 1.038,0.38 1.451,-0.077c0.789,-0.871 0.562,-1.589 -0.657,-2.078c-1.207,-0.482 -1.347,-0.827 -0.648,-1.599c0.425,-0.47 0.425,-0.54 0,-1.011c-0.252,-0.278 -0.458,-0.738 -0.458,-1.023c0,-0.414 -0.221,-0.303 -1.096,0.552c-1.318,1.287 -2.027,2.673 -2.107,4.122c-0.061,1.099 -0.485,1.612 -1.219,1.475c-0.436,-0.081 -0.457,-0.476 -0.12,-2.239c0.269,-1.411 -0.131,-1.269 -1.486,0.522c-0.574,0.759 -1.16,1.381 -1.304,1.381c-0.428,0 -0.497,-1.045 -0.091,-1.378c0.941,-0.773 3.091,-3.185 2.957,-3.319c-0.081,-0.081 -0.851,0.173 -1.709,0.566c-1.694,0.775 -2.751,0.803 -2.89,0.075c-0.065,-0.338 0.057,-0.424 0.454,-0.32c0.89,0.233 2.991,-0.863 3.485,-1.819c0.397,-0.768 0.399,-0.854 0.011,-0.854c-0.236,0 -0.501,-0.185 -0.588,-0.412c-0.088,-0.227 -0.273,-0.343 -0.412,-0.257c-0.396,0.245 -2.109,-0.416 -2.289,-0.884c-0.138,-0.358 0.059,-0.393 1.313,-0.236c1.457,0.182 1.479,0.174 1.833,-0.682c0.524,-1.264 1.177,-1.52 1.903,-0.747c0.807,0.859 0.753,1.077 -0.445,1.806c-0.57,0.347 -0.815,0.559 -0.542,0.473c0.633,-0.201 0.947,0.559 0.517,1.249c-0.436,0.696 -0.408,0.767 0.229,0.601c0.349,-0.092 0.612,0.019 0.721,0.304c0.151,0.394 -0.068,0.835 -1.117,2.256c-0.17,0.231 -0.132,0.507 0.111,0.8c0.33,0.398 0.445,0.317 1.04,-0.737c0.368,-0.651 1.163,-1.773 1.767,-2.492c0.845,-1.006 1.136,-1.622 1.26,-2.666c0.141,-1.197 0.09,-1.396 -0.435,-1.677c-0.718,-0.384 -0.516,-0.844 0.37,-0.844c0.984,0 1.36,0.658 1.169,2.049l-0.166,1.212l0.779,-0.294c0.817,-0.308 1.69,-0.138 1.69,0.33c0,0.151 -0.492,0.407 -1.093,0.569c-1.963,0.528 -2.525,1.599 -1.118,2.13c0.814,0.307 1.098,0.991 0.553,1.328c-0.542,0.335 -0.262,0.872 0.691,1.326c0.842,0.402 0.967,0.591 0.967,1.461c0,0.768 -0.217,1.217 -0.939,1.94c-1.062,1.061 -1.318,1.108 -2.593,0.479Zm-3.792,-10.872c0.094,-0.152 0.046,-0.276 -0.106,-0.276c-0.151,0 -0.353,0.124 -0.447,0.276c-0.094,0.152 -0.046,0.277 0.106,0.277c0.152,0 0.353,-0.125 0.447,-0.277Zm7.984,2.422c0.695,-0.576 0.755,-0.737 0.474,-1.265c-0.28,-0.521 -0.253,-0.604 0.196,-0.604c0.617,0 1.434,0.829 1.434,1.457c0,0.57 -0.152,0.65 -1.658,0.881l-1.244,0.191l0.798,-0.66Z" style="fill:#f00;fill-rule:nonzero;"/></g></g></svg>