<?xml version="1.0" encoding="UTF-8" standalone="no"?><!DOCTYPE svg PUBLIC "-//W3C//DTD SVG 1.1//EN" "http://www.w3.org/Graphics/SVG/1.1/DTD/svg11.dtd"><svg width="100%" height="100%" viewBox="0 0 58 58" version="1.1" xmlns="http://www.w3.org/2000/svg" xmlns:xlink="http://www.w3.org/1999/xlink" xml:space="preserve" xmlns:serif="http://www.serif.com/" style="fill-rule:evenodd;clip-rule:evenodd;stroke-linejoin:round;stroke-miterlimit:1.41421;"><g id="g4395"><path id="path3885" d="M15.703,8.532l13.045,-3.951l13.478,3.789l7.036,44.602l-40.326,-0.217l6.767,-44.223Z" style="fill:#fff;fill-rule:nonzero;"/><g id="g3876"><path id="path3864" d="M8.222,53.464c-0.008,-0.295 1.482,-10.639 3.313,-22.988c3.023,-20.39 3.408,-22.487 4.195,-22.838c0.477,-0.212 3.664,-1.118 7.082,-2.012l6.216,-1.626l6.799,1.827c3.739,1.005 6.888,1.916 6.997,2.025c0.186,0.187 6.969,44.465 6.987,45.612c0.006,0.422 -4.431,0.536 -20.783,0.536c-16.338,0 -20.794,-0.115 -20.806,-0.536Zm39.882,-1.986c0,-0.836 -5.848,-40.327 -6.197,-41.846c-0.162,-0.707 -1.274,-1.141 -6.323,-2.47c-3.37,-0.887 -6.385,-1.61 -6.699,-1.608c-0.849,0.008 -12.243,3.079 -12.562,3.386c-0.15,0.145 -1.648,9.523 -3.328,20.84c-1.68,11.317 -3.152,21.01 -3.271,21.541l-0.217,0.964l19.299,0c18.614,0 19.298,-0.028 19.298,-0.807Zm-23.362,-2.17c-0.997,-0.408 -2.11,-1.62 -2.503,-2.726c-0.406,-1.142 1.494,-2.87 3.154,-2.87c1.812,0 2.992,0.704 2.992,1.785c0,0.831 -0.161,0.876 -2.186,0.607c-1.695,-0.225 -2.144,-0.165 -2.002,0.267c0.569,1.723 4.635,2.11 7.516,0.715c2.103,-1.017 2.922,-2.327 2.502,-4.001c-0.348,-1.385 -1.725,-1.945 -4.786,-1.945c-2.474,0 -3.028,-0.606 -1.616,-1.77c0.636,-0.524 0.53,-0.611 -0.964,-0.802c-1.276,-0.163 -1.679,-0.407 -1.679,-1.014c0,-0.702 0.43,-0.82 3.511,-0.966c1.93,-0.092 3.616,0.005 3.745,0.213c0.129,0.209 -0.145,0.863 -0.61,1.453l-0.844,1.073l1.915,0.482c2.117,0.533 3.117,1.672 3.483,3.965c0.292,1.824 -1.162,4.126 -3.278,5.188c-1.586,0.797 -6.728,1.01 -8.35,0.346Zm-2.159,-14.578c-1.094,-0.443 -2.131,-1.661 -1.744,-2.048c0.16,-0.16 0.861,-0.077 1.556,0.186c1.042,0.393 2.228,0.252 6.736,-0.8c4.341,-1.014 5.713,-1.185 6.649,-0.829c0.648,0.247 1.179,0.75 1.179,1.117c0,0.772 -2.831,2.089 -5.352,2.49l-1.709,0.271l1.28,-1.066l1.28,-1.067l-1.286,0.261c-0.708,0.143 -2.649,0.628 -4.314,1.077c-3.391,0.914 -3.097,0.886 -4.275,0.408Zm6.818,-6.609c-1.04,-1.039 -1.873,-2.279 -1.873,-2.786c0,-1.033 0.642,-1.212 1.157,-0.323c0.475,0.819 3.181,2.407 4.105,2.408c0.744,0.002 1.799,-1.896 1.406,-2.532c-0.108,-0.175 -0.977,-0.67 -1.932,-1.1c-0.954,-0.431 -1.735,-0.921 -1.735,-1.089c0,-0.168 0.392,-0.804 0.871,-1.413l0.87,-1.107l-0.87,-0.466c-0.479,-0.256 -0.871,-0.785 -0.871,-1.174c0,-0.542 -0.303,-0.419 -1.287,0.525c-1.679,1.608 -3,4.381 -3,6.298c0,1.673 -0.816,2.646 -2.016,2.403c-0.646,-0.131 -0.748,-0.518 -0.633,-2.393c0.076,-1.23 0.046,-2.237 -0.067,-2.237c-0.112,0 -0.897,0.965 -1.744,2.144c-0.847,1.179 -1.83,2.143 -2.184,2.143c-1.313,0 -0.583,-1.903 1.75,-4.561c1.317,-1.499 2.303,-2.726 2.191,-2.726c-0.113,0 -1.045,0.381 -2.073,0.847c-2.438,1.107 -4.066,1.11 -4.655,0.01c-0.421,-0.787 -0.326,-0.858 1.164,-0.859c1.834,-0.002 4.113,-1.217 4.844,-2.583c0.403,-0.753 0.351,-1.021 -0.294,-1.509c-0.431,-0.327 -1.272,-0.601 -1.868,-0.608c-1.16,-0.015 -2.989,-1.087 -2.989,-1.753c0,-0.222 1.038,-0.404 2.306,-0.404c2.152,0 2.341,-0.085 2.833,-1.272c0.72,-1.739 1.958,-2.058 3.257,-0.837c1.313,1.233 1.306,1.819 -0.031,2.535c-0.795,0.425 -0.951,0.709 -0.613,1.116c0.318,0.384 0.317,0.801 -0.006,1.403c-0.633,1.184 -0.585,1.342 0.413,1.342c1.454,0 1.458,1.175 0.011,2.823c-1.097,1.249 -1.254,1.658 -0.834,2.164c0.433,0.522 0.705,0.303 1.669,-1.348c0.634,-1.085 1.827,-2.685 2.651,-3.556c1.153,-1.218 1.553,-2.06 1.731,-3.643c0.205,-1.827 0.116,-2.134 -0.787,-2.726c-1.312,-0.86 -0.937,-1.431 0.938,-1.431c1.862,0 2.677,1.369 1.991,3.339l-0.44,1.262l1.93,-0.218c1.704,-0.192 1.912,-0.125 1.777,0.573c-0.099,0.514 -0.862,1.011 -2.186,1.422c-1.622,0.504 -2.035,0.824 -2.035,1.578c0,0.585 0.327,1.032 0.856,1.17c1.113,0.291 1.555,1.494 0.921,2.509c-0.44,0.704 -0.312,0.896 1.017,1.53c2.463,1.174 2.518,3.32 0.147,5.691c-1.909,1.909 -3.448,1.755 -5.783,-0.581l0,0Zm6.7,-10.987c0,-0.236 0.145,-0.433 0.322,-0.438c0.177,-0.006 0.799,-0.377 1.382,-0.825c1.021,-0.784 1.032,-0.847 0.303,-1.652c-0.704,-0.779 -0.707,-0.857 -0.036,-1.114c1.167,-0.448 2.745,0.869 2.745,2.288c0,1.144 -0.17,1.278 -2.165,1.705c-2.63,0.565 -2.551,0.563 -2.551,0.036l0,0Z" style="fill:#fed5d5;fill-rule:nonzero;"/><path id="path3862" d="M8.249,53.035c0.051,-2.328 6.816,-45.048 7.169,-45.266c0.25,-0.154 3.434,-1.043 7.075,-1.976l6.621,-1.695l6.791,1.814c3.735,0.997 6.843,1.865 6.907,1.928c0.063,0.064 1.565,9.752 3.338,21.53c1.772,11.778 3.331,22.042 3.465,22.808l0.243,1.393l-20.81,0c-16.369,0 -20.808,-0.114 -20.799,-0.536Zm38.915,-9.002c-0.678,-4.538 -2.143,-14.328 -3.256,-21.754l-2.022,-13.501l-6.395,-1.695l-6.394,-1.694l-6.572,1.683c-3.614,0.925 -6.571,1.876 -6.571,2.113c0,0.552 -5.944,40.351 -6.261,41.921l-0.238,1.179l38.942,0l-1.233,-8.252Zm-22.199,5.202c-3.752,-1.497 -3.294,-5.551 0.622,-5.51c1.663,0.018 2.995,1 2.633,1.943c-0.223,0.581 -0.627,0.659 -2.197,0.423c-2.223,-0.333 -2.528,0.206 -0.769,1.359c2.889,1.893 9.133,-0.415 9.133,-3.376c0,-2.083 -1.306,-2.934 -4.501,-2.934c-1.533,0 -2.787,-0.15 -2.787,-0.334c0,-0.183 0.301,-0.762 0.668,-1.286c0.635,-0.907 0.617,-0.952 -0.394,-0.952c-1.503,0 -2.417,-0.423 -2.417,-1.118c0,-0.328 0.145,-0.602 0.321,-0.607c0.177,-0.006 1.817,-0.104 3.644,-0.217c3.078,-0.191 3.322,-0.145 3.322,0.629c0,0.459 -0.409,1.122 -0.91,1.473c-0.885,0.62 -0.864,0.647 0.75,0.947c2.418,0.449 3.523,1.338 4.038,3.251c1.018,3.781 -2.238,6.79 -7.307,6.753c-1.533,-0.011 -3.265,-0.211 -3.849,-0.444Zm5.708,-14.679c0.433,-0.269 1.108,-0.724 1.5,-1.012c0.648,-0.474 0.635,-0.523 -0.145,-0.536c-0.473,-0.007 -2.208,0.373 -3.857,0.844c-3.606,1.031 -5.279,1.08 -6.549,0.19c-1.693,-1.185 -0.688,-2.119 1.089,-1.012c0.563,0.351 1.822,0.191 5.173,-0.659c4.407,-1.118 7.696,-1.464 8.601,-0.905c1.503,0.929 -0.745,2.517 -4.538,3.206c-1.604,0.291 -1.887,0.265 -1.274,-0.116Zm-0.188,-5.54c-1.575,-1.057 -3.365,-3.901 -2.808,-4.458c0.189,-0.189 0.533,-0.007 0.763,0.406c0.462,0.825 3.394,2.458 4.414,2.458c0.792,0 1.684,-1.56 1.366,-2.389c-0.128,-0.334 -1.011,-0.918 -1.962,-1.299c-0.951,-0.38 -1.729,-0.786 -1.729,-0.901c0,-0.114 0.375,-0.735 0.833,-1.379c0.826,-1.16 0.826,-1.176 -0.018,-1.899c-0.469,-0.401 -0.736,-0.917 -0.594,-1.147c0.586,-0.947 -0.574,-0.32 -1.804,0.976c-1.816,1.914 -2.704,3.826 -2.704,5.821c0,1.821 -0.777,2.809 -2.016,2.564c-0.656,-0.129 -0.748,-0.516 -0.622,-2.607c0.082,-1.35 0.066,-2.455 -0.035,-2.455c-0.102,0 -0.921,1.067 -1.819,2.372c-1.627,2.362 -2.447,2.75 -2.73,1.292c-0.088,-0.454 0.615,-1.571 1.73,-2.75c3.859,-4.08 3.854,-4.06 0.789,-2.815c-2.953,1.2 -4.429,1.225 -4.648,0.079c-0.116,-0.608 0.167,-0.751 1.496,-0.753c1.83,-0.003 3.886,-1.16 4.672,-2.629c0.459,-0.859 0.396,-1.033 -0.556,-1.526c-0.591,-0.307 -1.423,-0.558 -1.848,-0.558c-1.244,0 -2.12,-0.468 -2.618,-1.397c-0.441,-0.824 -0.366,-0.857 1.457,-0.652c2.036,0.229 3.318,-0.204 3.318,-1.121c0,-0.305 0.37,-0.89 0.822,-1.299c0.949,-0.858 2.263,-0.405 3.041,1.047c0.385,0.72 0.244,0.973 -0.955,1.704c-0.774,0.471 -1.141,0.858 -0.815,0.859c0.434,0.001 0.528,0.392 0.354,1.464c-0.208,1.282 -0.109,1.494 0.802,1.723c1.334,0.335 1.307,0.645 -0.223,2.571c-0.694,0.873 -1.156,1.865 -1.026,2.203c0.379,0.987 0.778,0.73 1.864,-1.201c0.561,-0.999 1.727,-2.59 2.59,-3.537c1.239,-1.358 1.632,-2.203 1.865,-4.006c0.268,-2.084 0.215,-2.307 -0.6,-2.52c-0.492,-0.129 -0.824,-0.45 -0.737,-0.715c0.267,-0.81 2.042,-0.809 2.938,0.001c0.806,0.73 0.836,1.446 0.137,3.267c-0.184,0.478 0.174,0.606 1.605,0.576c2.565,-0.054 2.45,0.98 -0.194,1.751c-1.685,0.491 -2.037,0.768 -2.037,1.603c0,0.647 0.307,1.089 0.856,1.232c1.109,0.29 1.555,1.493 0.927,2.499c-0.646,1.035 -0.626,1.236 0.122,1.236c0.341,0 1.136,0.444 1.768,0.987c0.963,0.829 1.1,1.205 0.851,2.34c-0.331,1.505 -2.839,3.96 -4.047,3.96c-0.428,0 -1.434,-0.44 -2.235,-0.978l0,0Zm6.872,-12.739c1.44,-1.237 1.454,-1.281 0.684,-2.132c-0.773,-0.855 -0.765,-0.869 0.48,-0.869c1.524,0 2.296,0.68 2.296,2.025c0,1.059 -0.764,1.498 -3.43,1.972l-1.5,0.267l1.47,-1.263Z" style="fill:#feb0b0;fill-rule:nonzero;"/><path id="path3860" d="M8.39,52.178c0.137,-0.766 1.608,-10.556 3.269,-21.755c1.662,-11.199 3.124,-20.867 3.251,-21.484c0.215,-1.05 0.651,-1.235 6.821,-2.894c3.625,-0.974 6.882,-1.771 7.238,-1.771c0.54,0 13.641,3.389 13.843,3.581c0.036,0.034 1.536,9.9 3.334,21.925c1.797,12.024 3.363,22.296 3.479,22.827l0.21,0.964l-20.846,0l-20.847,0l0.248,-1.393Zm39.939,-0.857c-0.134,-0.766 -1.593,-10.46 -3.242,-21.541c-1.649,-11.082 -3.073,-20.357 -3.165,-20.613c-0.169,-0.473 -11.919,-3.802 -13.129,-3.719c-0.548,0.037 -12.447,3.12 -12.706,3.292c-0.089,0.059 -6.566,43.131 -6.564,43.652c0,0.177 8.786,0.322 19.525,0.322l19.524,0l-0.243,-1.393Zm-23.247,-2.082c-2.289,-0.662 -3.541,-3.437 -2.093,-4.638c1.158,-0.961 3.41,-1.032 4.51,-0.142c1.5,1.215 0.816,1.931 -1.509,1.582c-2.64,-0.395 -2.606,0.757 0.052,1.771c2.226,0.85 4.1,0.508 6.669,-1.217c1.144,-0.768 1.49,-1.319 1.592,-2.535c0.182,-2.16 -0.994,-2.92 -4.513,-2.92c-1.48,0 -2.691,-0.15 -2.691,-0.334c0,-0.183 0.301,-0.762 0.668,-1.286c0.642,-0.916 0.621,-0.953 -0.536,-0.959c-0.662,-0.003 -1.491,-0.188 -1.843,-0.411c-1.205,-0.762 0.229,-1.361 3.443,-1.437c3.583,-0.085 4.114,0.388 2.311,2.059l-1.167,1.082l1.77,0c5.398,0 6.112,7.091 0.924,9.167c-1.875,0.75 -5.395,0.851 -7.587,0.218Zm-3.556,-15.601c-1.08,-1.15 -0.693,-1.37 1.029,-0.585c0.868,0.396 1.921,0.274 5.58,-0.643c5.782,-1.448 8.824,-1.48 8.824,-0.092c0,0.71 -2.625,1.903 -4.829,2.196l-1.816,0.24l1.286,-0.761c1.248,-0.74 1.257,-0.767 0.294,-0.914c-0.545,-0.083 -2.311,0.25 -3.924,0.74c-3.882,1.179 -5.201,1.142 -6.444,-0.181Zm9.106,-4.499c-1.433,-0.873 -3.1,-3.164 -3.102,-4.262c-0.002,-0.418 0.377,-0.262 1.177,0.483c2.373,2.214 4.463,2.678 5.269,1.171c0.669,-1.25 0.235,-2.048 -1.512,-2.778c-1.678,-0.701 -1.8,-1.057 -0.86,-2.492c0.59,-0.901 0.574,-1.053 -0.185,-1.74c-0.485,-0.439 -0.728,-1.049 -0.583,-1.463c0.451,-1.282 -2.934,2.25 -3.837,4.003c-0.485,0.942 -0.866,2.279 -0.846,2.972c0.048,1.67 -0.61,2.818 -1.616,2.818c-1.192,0 -1.393,-0.618 -0.855,-2.617c0.607,-2.254 -0.013,-3.044 -1.076,-1.371c-1.157,1.824 -2.881,3.556 -3.289,3.304c-0.87,-0.538 -0.186,-1.829 2.293,-4.33c1.46,-1.473 2.569,-2.764 2.465,-2.868c-0.105,-0.103 -1.319,0.288 -2.699,0.87c-2.773,1.171 -4.268,1.186 -4.485,0.046c-0.115,-0.603 0.162,-0.75 1.41,-0.75c2.008,0 3.903,-0.996 4.665,-2.451c0.567,-1.081 0.538,-1.188 -0.466,-1.709c-0.59,-0.306 -1.33,-0.556 -1.645,-0.556c-0.976,0 -2.698,-0.94 -2.957,-1.615c-0.206,-0.538 0.098,-0.595 1.892,-0.357c2.137,0.283 2.138,0.283 3.229,-1.444c0.599,-0.951 1.233,-1.722 1.406,-1.714c0.417,0.018 1.46,0.876 2.177,1.791c0.505,0.645 0.401,0.838 -0.858,1.606c-0.787,0.48 -1.19,0.873 -0.895,0.874c0.694,0.002 0.698,1.994 0.004,2.423c-0.359,0.222 -0.186,0.41 0.534,0.58c1.49,0.352 1.57,1.582 0.196,3.017c-0.703,0.733 -1.065,1.484 -0.911,1.887c0.418,1.088 1.07,0.773 1.946,-0.939c0.452,-0.884 1.589,-2.478 2.526,-3.541c1.331,-1.509 1.771,-2.418 2.009,-4.145c0.272,-1.98 0.209,-2.264 -0.601,-2.697c-1.11,-0.594 -0.766,-1.299 0.635,-1.299c1.487,0 2.499,1.675 1.925,3.185c-0.625,1.644 -0.565,2.168 0.177,1.552c0.741,-0.615 2.895,-0.436 3.123,0.259c0.09,0.276 -0.794,0.811 -2.003,1.213c-1.191,0.395 -2.166,0.881 -2.166,1.078c0,0.198 -0.117,0.665 -0.26,1.037c-0.183,0.478 -0.009,0.679 0.591,0.679c1.307,0 2.094,1.165 1.465,2.172c-0.692,1.109 -0.64,1.686 0.153,1.686c0.364,0 1.127,0.465 1.696,1.033c0.895,0.895 0.979,1.225 0.631,2.465c-0.45,1.605 -2.612,3.79 -3.747,3.788c-0.408,-0.001 -1.372,-0.385 -2.14,-0.854l0,0Zm-5.462,-16.721c0.146,-0.235 0.072,-0.428 -0.164,-0.428c-0.235,0 -0.547,0.193 -0.693,0.428c-0.146,0.236 -0.072,0.429 0.164,0.429c0.235,0 0.547,-0.193 0.693,-0.429Zm12.432,3.718c1.033,-0.869 1.18,-1.189 0.75,-1.628c-0.858,-0.875 -0.625,-1.3 0.635,-1.154c0.83,0.097 1.291,0.48 1.584,1.317c0.529,1.512 0.113,1.917 -2.326,2.269l-1.929,0.278l1.286,-1.082Z" style="fill:#fe8f8f;fill-rule:nonzero;"/><path id="path3858" d="M8.442,52.178c0.134,-0.766 1.593,-10.46 3.244,-21.541c1.65,-11.081 3.109,-20.75 3.243,-21.487l0.242,-1.339l6.954,-1.811l6.954,-1.811l6.619,1.778c3.641,0.978 6.749,1.914 6.909,2.079c0.159,0.165 1.762,10.138 3.561,22.162c1.8,12.025 3.371,22.201 3.491,22.613c0.205,0.707 -0.977,0.75 -20.621,0.75l-20.839,0l0.243,-1.393Zm39.938,-0.857c-0.137,-0.766 -1.626,-10.653 -3.31,-21.97c-1.684,-11.317 -3.089,-20.605 -3.122,-20.641c-0.033,-0.035 -2.977,-0.832 -6.543,-1.77l-6.483,-1.707l-6.377,1.708c-3.507,0.939 -6.423,1.75 -6.479,1.801c-0.127,0.117 -6.542,42.703 -6.542,43.436c0,0.421 4.196,0.536 19.552,0.536l19.552,0l-0.248,-1.393Zm-23.298,-2.082c-2.746,-0.795 -3.615,-3.745 -1.433,-4.873c1.682,-0.87 2.718,-0.825 3.939,0.173c0.801,0.654 0.902,0.938 0.486,1.361c-0.388,0.395 -0.892,0.421 -1.931,0.103c-2.803,-0.861 -3.352,0.244 -0.776,1.558c1.929,0.984 2.586,1.041 4.827,0.419c2.449,-0.68 4.193,-2.355 4.193,-4.026c0,-2.078 -1.083,-2.814 -4.142,-2.814c-1.416,0 -2.703,-0.13 -2.861,-0.288c-0.158,-0.158 -0.008,-0.713 0.333,-1.235c0.599,-0.913 0.56,-0.957 -1.07,-1.218c-1.652,-0.264 -2.14,-0.79 -1.246,-1.342c0.245,-0.151 1.82,-0.308 3.499,-0.347c3.508,-0.082 3.991,0.366 2.192,2.033l-1.198,1.111l1.851,0c5.314,0 6.032,7.124 0.924,9.167c-1.875,0.75 -5.395,0.851 -7.587,0.218Zm-3.556,-15.601c-1.08,-1.15 -0.693,-1.37 1.029,-0.585c0.868,0.396 1.921,0.274 5.58,-0.643c4.67,-1.17 7.306,-1.399 8.368,-0.727c0.928,0.587 -0.062,1.544 -2.434,2.352c-2.72,0.927 -3.443,0.872 -2.195,-0.169l1.012,-0.843l-1.073,-0.014c-0.59,-0.008 -2.422,0.372 -4.071,0.843c-3.924,1.122 -4.995,1.085 -6.216,-0.214l0,0Zm9.525,-4.357c-1.517,-0.747 -2.79,-2.289 -3.303,-4.002l-0.322,-1.072l1.23,1.156c0.676,0.636 1.93,1.449 2.785,1.806c1.435,0.599 1.61,0.59 2.251,-0.118c1.223,-1.352 0.871,-2.466 -1.02,-3.223c-1.872,-0.749 -2.089,-1.284 -1.005,-2.481c0.66,-0.729 0.66,-0.838 0,-1.568c-0.39,-0.431 -0.71,-1.145 -0.71,-1.587c0,-0.641 -0.343,-0.469 -1.7,0.857c-2.044,1.996 -3.143,4.145 -3.268,6.393c-0.095,1.704 -0.752,2.5 -1.89,2.288c-0.676,-0.126 -0.709,-0.739 -0.187,-3.473c0.417,-2.188 -0.203,-1.969 -2.304,0.81c-0.89,1.177 -1.8,2.141 -2.023,2.141c-0.663,0 -0.771,-1.62 -0.141,-2.137c1.459,-1.198 4.794,-4.94 4.587,-5.147c-0.127,-0.127 -1.32,0.268 -2.651,0.878c-2.627,1.202 -4.267,1.245 -4.482,0.116c-0.101,-0.525 0.087,-0.658 0.703,-0.497c1.381,0.362 4.64,-1.339 5.406,-2.821c0.616,-1.191 0.618,-1.324 0.017,-1.324c-0.367,0 -0.778,-0.288 -0.913,-0.64c-0.135,-0.352 -0.422,-0.532 -0.638,-0.398c-0.615,0.38 -3.272,-0.646 -3.551,-1.371c-0.213,-0.555 0.092,-0.61 2.037,-0.367c2.26,0.283 2.294,0.27 2.843,-1.057c0.812,-1.96 1.826,-2.358 2.952,-1.159c1.251,1.332 1.168,1.67 -0.691,2.801c-0.884,0.538 -1.263,0.868 -0.841,0.734c0.982,-0.311 1.47,0.867 0.802,1.937c-0.675,1.08 -0.633,1.19 0.355,0.932c0.542,-0.142 0.95,0.03 1.119,0.472c0.234,0.611 -0.105,1.295 -1.732,3.499c-0.264,0.358 -0.205,0.786 0.172,1.241c0.512,0.617 0.69,0.491 1.613,-1.143c0.571,-1.01 1.804,-2.75 2.741,-3.866c1.31,-1.56 1.762,-2.515 1.953,-4.135c0.22,-1.856 0.14,-2.165 -0.674,-2.601c-1.113,-0.595 -0.8,-1.309 0.573,-1.309c1.527,0 2.11,1.021 1.814,3.179l-0.258,1.88l1.209,-0.456c1.267,-0.478 2.621,-0.214 2.621,0.511c0,0.235 -0.763,0.632 -1.695,0.883c-3.045,0.819 -3.916,2.479 -1.734,3.303c1.262,0.476 1.703,1.537 0.857,2.06c-0.84,0.519 -0.406,1.353 1.072,2.057c1.306,0.623 1.5,0.916 1.5,2.266c0,1.191 -0.337,1.887 -1.457,3.008c-1.647,1.646 -2.044,1.719 -4.022,0.744l0,0Zm-5.881,-16.863c0.146,-0.235 0.072,-0.428 -0.164,-0.428c-0.235,0 -0.547,0.193 -0.693,0.428c-0.146,0.236 -0.072,0.429 0.164,0.429c0.235,0 0.547,-0.193 0.693,-0.429Zm12.383,3.756c1.079,-0.893 1.172,-1.143 0.735,-1.961c-0.434,-0.809 -0.392,-0.937 0.304,-0.937c0.958,0 2.225,1.286 2.225,2.259c0,0.884 -0.236,1.009 -2.572,1.367l-1.929,0.296l1.237,-1.024Z" style="fill:#fe6f6f;fill-rule:nonzero;"/><path id="path3856" d="M8.434,52.607c0.117,-0.531 1.673,-10.796 3.458,-22.812c1.785,-12.016 3.284,-21.869 3.332,-21.897c0.048,-0.028 3.153,-0.866 6.9,-1.863l6.814,-1.812l6.841,1.82c3.763,1.001 6.911,2.025 6.996,2.276c0.085,0.25 1.669,10.535 3.518,22.854l3.363,22.398l-20.717,0l-20.718,0l0.213,-0.964Zm40.099,-0.279c0,-0.538 -6.473,-43.525 -6.567,-43.616c-0.043,-0.04 -2.98,-0.858 -6.528,-1.816l-6.451,-1.742l-6.391,1.721c-3.516,0.946 -6.463,1.792 -6.55,1.879c-0.19,0.19 -6.521,42.137 -6.522,43.21c0,0.703 1.214,0.75 19.504,0.75c11.273,0 19.505,-0.163 19.505,-0.386Zm-23.357,-3.238c-3.177,-1.174 -3.857,-3.691 -1.288,-4.764c2.248,-0.94 4.981,0.052 4.095,1.486c-0.287,0.465 -0.65,0.474 -1.944,0.047c-1.221,-0.403 -1.706,-0.408 -2.087,-0.02c-0.679,0.691 0.998,2.039 3.005,2.416c3.298,0.618 8.301,-2.425 7.626,-4.64c-0.609,-1.997 -1.446,-2.475 -4.335,-2.475c-2.884,0 -3.297,-0.367 -2.011,-1.788c0.673,-0.743 0.643,-0.784 -0.561,-0.784c-1.515,0 -3.11,-0.995 -2.35,-1.465c0.699,-0.432 5.955,-0.58 6.592,-0.186c0.375,0.232 0.169,0.696 -0.727,1.63l-1.251,1.307l1.827,0c4.928,0 6.025,6.618 1.46,8.81c-2.139,1.027 -5.889,1.225 -8.051,0.426Zm-3.4,-15.287c-1.462,-1.15 -1.163,-1.467 0.736,-0.781c1.29,0.467 2.056,0.39 6.02,-0.604c4.746,-1.189 6.935,-1.391 7.971,-0.735c0.979,0.62 -0.161,1.636 -2.674,2.382c-2.849,0.846 -3.17,0.814 -1.955,-0.199l1.012,-0.843l-1.355,-0.014c-0.745,-0.008 -2.577,0.369 -4.072,0.838c-3.447,1.08 -4.262,1.074 -5.683,-0.044l0,0Zm10.039,-4.109c-1.194,-0.431 -3.858,-3.297 -3.858,-4.148c0,-0.83 0.017,-0.83 0.964,0.036c0.531,0.486 1.617,1.212 2.413,1.615c1.381,0.699 1.485,0.696 2.218,-0.057c1.44,-1.478 1.22,-2.423 -0.773,-3.326c-1.921,-0.871 -2.238,-1.514 -1.179,-2.393c0.812,-0.674 0.827,-1.553 0.034,-1.857c-0.336,-0.129 -0.673,-0.68 -0.751,-1.225c-0.132,-0.937 -0.238,-0.892 -1.962,0.831c-1.002,1.002 -1.822,1.75 -1.822,1.662c0,-0.088 0.965,-1.366 2.144,-2.841c1.815,-2.271 2.143,-2.96 2.143,-4.503c0,-1.41 -0.218,-1.971 -0.964,-2.478c-0.894,-0.607 -0.908,-0.678 -0.187,-0.966c0.427,-0.171 1.247,-0.096 1.821,0.165c1.146,0.522 1.35,1.778 0.608,3.731c-0.387,1.017 -0.35,1.11 0.322,0.814c1.142,-0.504 3.227,-0.469 3.408,0.058c0.088,0.255 -0.665,0.709 -1.674,1.009c-1.008,0.299 -2.075,0.741 -2.369,0.981c-0.933,0.76 -0.587,1.839 0.75,2.344c1.262,0.476 1.703,1.537 0.857,2.06c-0.84,0.519 -0.406,1.353 1.072,2.057c1.266,0.604 1.5,0.936 1.5,2.128c0,1.704 -0.907,3.099 -2.577,3.963c-0.681,0.352 -1.296,0.625 -1.367,0.606c-0.07,-0.018 -0.418,-0.138 -0.771,-0.266l0,0Zm-8.406,-2.453c-0.129,-0.335 -0.026,-0.998 0.228,-1.472c0.561,-1.049 0.609,-3.062 0.073,-3.062c-0.214,0 -1.081,0.964 -1.928,2.143c-1.453,2.023 -2.828,2.801 -2.828,1.602c0,-0.298 1.181,-1.85 2.624,-3.449c1.443,-1.599 2.543,-2.989 2.444,-3.087c-0.099,-0.099 -1.387,0.307 -2.862,0.903c-2.779,1.123 -3.936,1.199 -4.242,0.28c-0.113,-0.338 0.237,-0.536 0.946,-0.536c1.481,0 4.29,-1.456 5.134,-2.661c0.775,-1.106 0.897,-2.244 0.195,-1.81c-0.262,0.162 -0.638,0.032 -0.836,-0.288c-0.198,-0.32 -0.949,-0.611 -1.67,-0.648c-1.329,-0.066 -2.59,-0.806 -2.59,-1.519c0,-0.221 0.931,-0.267 2.146,-0.106c2.117,0.281 2.153,0.266 2.617,-1.066c0.683,-1.957 1.755,-2.394 2.894,-1.181c1.293,1.376 1.162,1.777 -0.905,2.78c-1.736,0.842 -1.764,0.885 -0.593,0.905c1.267,0.022 1.316,0.258 0.476,2.304c-0.225,0.547 -0.142,0.758 0.273,0.7c2.063,-0.288 2.198,0.668 0.387,2.73c-1.267,1.444 -1.271,1.462 -0.428,2.225c0.467,0.423 0.849,0.583 0.849,0.356c0,-0.228 0.289,-0.788 0.641,-1.246c0.569,-0.738 0.569,-0.652 0,0.762c-0.352,0.877 -0.641,2.255 -0.641,3.062c0,0.943 -0.242,1.561 -0.678,1.729c-1.045,0.4 -1.471,0.314 -1.726,-0.35Zm1.761,-14.823c0.146,-0.235 0.072,-0.428 -0.164,-0.428c-0.235,0 -0.547,0.193 -0.693,0.428c-0.146,0.236 -0.072,0.429 0.164,0.429c0.235,0 0.547,-0.193 0.693,-0.429Zm12.432,3.707c1.136,-0.95 1.223,-1.178 0.746,-1.962c-0.469,-0.772 -0.436,-0.887 0.255,-0.887c0.948,0 2.214,1.29 2.214,2.255c0,0.71 -0.438,0.912 -3.001,1.389l-1.5,0.28l1.286,-1.075Z" style="fill:#fe4e4e;fill-rule:nonzero;"/><path id="path3854" d="M8.479,52.821c0.088,-0.412 1.633,-10.685 3.432,-22.827c1.799,-12.142 3.3,-22.091 3.335,-22.109c0.036,-0.018 3.156,-0.833 6.934,-1.811l6.869,-1.778l13.666,3.665l3.319,21.841c1.825,12.012 3.327,22.274 3.338,22.805l0.018,0.964l-20.536,0c-19.334,0 -20.527,-0.044 -20.375,-0.75l0,0Zm40.053,-0.643c-0.002,-1.013 -6.407,-43.31 -6.585,-43.488c-0.099,-0.098 -3.073,-0.942 -6.609,-1.875l-6.43,-1.697l-6.313,1.7c-3.472,0.935 -6.415,1.802 -6.541,1.928c-0.256,0.256 -6.509,41.488 -6.522,43.003l-0.008,0.965l19.504,0c15.319,0 19.505,-0.115 19.504,-0.536l0,0Zm-22.64,-2.889c-1.656,-0.392 -3.508,-1.983 -3.508,-3.013c0,-1.737 3.915,-3.107 5.202,-1.821c0.819,0.819 0.093,1.936 -1.02,1.57c-2.729,-0.898 -3.787,0.157 -1.534,1.53c1.926,1.175 4.024,1.095 6.733,-0.255c2.688,-1.339 3.409,-2.546 2.636,-4.412c-0.633,-1.526 -1.585,-1.904 -4.623,-1.83c-2.378,0.057 -2.933,-0.533 -1.566,-1.667c0.598,-0.496 0.449,-0.625 -1.179,-1.017c-2.478,-0.598 -2.329,-1.285 0.301,-1.396c1.168,-0.049 2.51,-0.186 2.984,-0.304c0.473,-0.118 1.145,-0.038 1.493,0.176c0.526,0.325 0.431,0.601 -0.564,1.639l-1.195,1.248l2.046,0.23c2.593,0.293 4.003,1.751 4.003,4.14c0,3.986 -4.852,6.45 -10.209,5.182Zm-4.234,-15.638c-0.924,-0.812 -1.035,-1.061 -0.478,-1.071c0.398,-0.008 0.844,0.179 0.989,0.415c0.41,0.663 1.749,0.529 6.937,-0.693c4.859,-1.144 8.107,-1.158 7.742,-0.033c-0.215,0.665 -2.698,1.819 -4.605,2.14c-1.301,0.219 -1.372,0.19 -0.535,-0.218c0.53,-0.258 0.964,-0.633 0.964,-0.833c0,-0.611 -2.207,-0.407 -5.358,0.494c-3.82,1.092 -4.202,1.079 -5.656,-0.201l0,0Zm9.913,-4.283c-1.489,-0.626 -3.614,-2.968 -3.614,-3.983c0,-0.569 0.163,-0.535 0.964,0.197c1.048,0.959 3.443,2.269 4.147,2.269c0.242,0 0.746,-0.593 1.12,-1.317c0.819,-1.583 0.417,-2.261 -1.765,-2.981c-1.569,-0.518 -1.86,-1.271 -0.823,-2.132c0.812,-0.674 0.827,-1.553 0.034,-1.857c-0.336,-0.129 -0.673,-0.662 -0.751,-1.184c-0.138,-0.938 -0.159,-0.934 -1.64,0.295c-1.472,1.221 -1.466,1.203 0.321,-0.958c1.606,-1.942 1.822,-2.456 1.822,-4.344c0,-1.854 -0.129,-2.177 -0.964,-2.412c-0.912,-0.256 -0.921,-0.297 -0.168,-0.74c0.581,-0.343 1.089,-0.337 1.876,0.022c0.944,0.43 1.051,0.691 0.853,2.084c-0.125,0.875 -0.36,1.924 -0.524,2.33c-0.277,0.685 -0.204,0.691 1.029,0.075c0.73,-0.364 1.649,-0.599 2.042,-0.523c1.205,0.234 1.106,1.092 -0.16,1.388c-2.634,0.617 -3.555,1.193 -3.555,2.224c0,0.713 0.306,1.088 1.04,1.272c1.351,0.339 1.734,1.393 0.859,2.36c-0.65,0.719 -0.584,0.823 1.061,1.662c1.968,1.004 2.25,2.107 1.105,4.321c-0.96,1.857 -2.667,2.622 -4.309,1.932l0,0Zm-7.824,-2.067c-0.29,-0.349 -0.311,-0.781 -0.059,-1.179c0.534,-0.845 0.52,-3.415 -0.019,-3.415c-0.236,0 -1.122,0.964 -1.969,2.143c-1.457,2.028 -2.751,2.787 -2.741,1.608c0.003,-0.295 1.273,-1.935 2.822,-3.644c1.55,-1.71 2.603,-3.108 2.34,-3.108c-0.262,0 -1.643,0.491 -3.068,1.09c-1.464,0.617 -2.95,0.977 -3.416,0.829c-1.198,-0.38 -1.013,-1.062 0.288,-1.062c1.541,0 3.887,-1.183 4.899,-2.47c0.852,-1.083 1.172,-2.497 0.466,-2.061c-0.209,0.129 -0.619,-0.052 -0.91,-0.403c-0.291,-0.351 -1.143,-0.639 -1.892,-0.639c-1.281,0 -2.391,-0.627 -2.391,-1.351c0,-0.178 0.955,-0.21 2.123,-0.071c2.106,0.249 2.129,0.239 2.866,-1.307c0.819,-1.717 1.786,-1.977 2.875,-0.773c1.053,1.163 0.893,1.527 -1.112,2.534c-1.748,0.878 -1.772,0.916 -0.593,0.942c1.262,0.027 1.315,0.27 0.488,2.277c-0.247,0.602 -0.087,0.75 0.809,0.75c1.454,0 1.416,0.749 -0.129,2.588c-1.141,1.358 -1.191,1.548 -0.581,2.231c0.634,0.709 0.697,0.709 1.271,0c0.546,-0.675 0.561,-0.657 0.152,0.19c-0.249,0.515 -0.453,1.586 -0.453,2.379c0,2.044 -1.109,3.075 -2.066,1.922l0,0Zm1.638,-14.903c0,-0.197 -0.193,-0.477 -0.429,-0.623c-0.236,-0.145 -0.429,-0.173 -0.429,-0.06c0,0.113 -0.118,0.512 -0.262,0.888c-0.192,0.499 -0.077,0.611 0.429,0.417c0.38,-0.145 0.691,-0.426 0.691,-0.622Zm12.11,4.004c1.256,-0.802 1.503,-1.773 0.664,-2.612c-0.4,-0.4 -0.307,-0.514 0.419,-0.514c0.528,0 1.245,0.476 1.652,1.097c0.913,1.394 0.287,2.109 -2.2,2.507l-1.714,0.276l1.179,-0.754Z" style="fill:#fe2e2e;fill-rule:nonzero;"/><path id="path3852" d="M8.666,52.756c0,-0.825 6.339,-43.645 6.569,-44.376c0.069,-0.218 3.159,-1.21 6.869,-2.206l6.744,-1.811l6.86,1.777c5.724,1.483 6.891,1.919 7.049,2.635c0.281,1.276 6.633,43.683 6.633,44.282c0,0.393 -4.811,0.514 -20.362,0.514c-19.73,0 -20.362,-0.025 -20.362,-0.815Zm39.867,-0.807c0,-1.331 -6.321,-42.993 -6.559,-43.231c-0.125,-0.125 -3.08,-1 -6.567,-1.944l-6.339,-1.715l-6.142,1.606c-3.378,0.884 -6.394,1.816 -6.701,2.072c-0.355,0.297 -1.687,8.117 -3.656,21.471c-1.704,11.553 -3.196,21.343 -3.315,21.756c-0.204,0.707 0.927,0.75 19.531,0.75c18.672,0 19.748,-0.042 19.748,-0.765Zm-22.254,-2.633c-1.263,-0.215 -2.224,-0.709 -2.893,-1.487c-1.252,-1.454 -1.263,-2.171 -0.049,-3.021c1.737,-1.217 5.033,-0.648 4.487,0.774c-0.212,0.552 -0.49,0.59 -1.568,0.214c-2.598,-0.906 -3.468,0.391 -1.193,1.779c1.807,1.101 4.294,1.081 6.639,-0.054c2.349,-1.137 3.284,-2.485 2.909,-4.191c-0.42,-1.914 -1.311,-2.405 -4.363,-2.405c-2.771,0 -3.366,-0.43 -2.077,-1.5c0.78,-0.647 0.849,-1.336 0.107,-1.06c-0.7,0.26 -3.108,-0.4 -3.108,-0.852c0,-0.193 1.592,-0.427 3.537,-0.52c2.098,-0.101 3.536,-0.002 3.536,0.242c0,0.227 -0.627,0.907 -1.393,1.511l-1.393,1.098l1.329,0.005c3.157,0.011 5.318,1.792 5.314,4.377c-0.002,1.406 -1.469,3.624 -2.879,4.353c-1.582,0.818 -4.587,1.137 -6.942,0.737l0,0Zm-4.228,-15.274c-1.193,-0.835 -1.292,-1.687 -0.124,-1.062c1.249,0.668 2.835,0.532 7.316,-0.628c4.721,-1.223 5.953,-1.302 7.098,-0.459c0.788,0.58 0.729,0.659 -1.097,1.491c-1.061,0.483 -2.303,0.882 -2.761,0.887c-0.824,0.01 -0.824,0.003 0,-0.62c0.775,-0.586 0.71,-0.63 -0.952,-0.643c-0.981,-0.007 -3.006,0.37 -4.501,0.839c-3.29,1.031 -3.76,1.05 -4.979,0.195Zm7.57,-6.141c-0.915,-0.915 -1.664,-1.976 -1.664,-2.358c0,-0.574 0.153,-0.539 0.895,0.202c0.868,0.869 3.35,2.106 4.224,2.106c0.237,0 0.738,-0.593 1.112,-1.317c0.819,-1.583 0.417,-2.261 -1.765,-2.981c-1.703,-0.563 -1.695,-0.538 -0.715,-2.202c0.714,-1.213 0.714,-1.294 0,-1.695c-0.413,-0.232 -0.751,-0.798 -0.751,-1.257c0,-1.118 -0.351,-1.056 -1.905,0.338c-0.72,0.646 -0.49,0.301 0.512,-0.766c1.699,-1.81 1.822,-2.105 1.822,-4.361c0,-2.104 -0.121,-2.458 -0.927,-2.714c-0.828,-0.263 -0.85,-0.338 -0.206,-0.698c1.834,-1.027 3.316,0.933 2.443,3.23c-0.702,1.845 -0.556,2.067 0.872,1.328c1.289,-0.667 2.533,-0.595 2.533,0.146c0,0.202 -0.916,0.65 -2.036,0.996c-1.704,0.528 -2.058,0.82 -2.172,1.793c-0.095,0.816 0.096,1.245 0.643,1.441c1.683,0.601 1.917,1.052 1.152,2.22c-0.395,0.603 -0.545,1.158 -0.332,1.232c3.468,1.216 4.073,3.393 1.624,5.843c-1.681,1.68 -3.313,1.52 -5.359,-0.526Zm-5.688,-0.4c-0.119,-0.193 -0.101,-1.476 0.041,-2.851c0.223,-2.164 0.331,-2.399 0.806,-1.75c0.301,0.413 0.705,0.652 0.898,0.533c0.192,-0.119 0.282,0.638 0.199,1.681c-0.103,1.294 -0.402,2.03 -0.939,2.318c-0.433,0.231 -0.885,0.263 -1.005,0.069l0,0Zm-4.77,-0.945c-0.148,-0.241 1.021,-1.88 2.6,-3.644c1.578,-1.763 2.62,-3.206 2.315,-3.206c-0.306,0 -1.801,0.498 -3.324,1.108c-2.526,1.01 -2.828,1.048 -3.448,0.428c-0.619,-0.619 -0.554,-0.679 0.748,-0.679c1.999,0 4.515,-1.537 5.338,-3.262c0.662,-1.389 0.656,-1.453 -0.132,-1.453c-0.454,0 -0.945,-0.193 -1.091,-0.429c-0.145,-0.236 -0.748,-0.429 -1.339,-0.429c-1.195,0 -2.733,-0.696 -2.733,-1.238c0,-0.193 0.933,-0.261 2.073,-0.151c2.006,0.193 2.102,0.149 2.986,-1.349c1.03,-1.745 1.753,-1.927 2.847,-0.718c0.927,1.024 0.587,1.628 -1.421,2.521l-1.555,0.692l1.179,0.15c1.358,0.173 1.451,0.565 0.486,2.038c-0.685,1.045 -0.678,1.056 0.643,1.056c0.735,0 1.336,0.22 1.336,0.488c0,0.269 -1.024,1.668 -2.275,3.108c-1.25,1.441 -2.71,3.247 -3.244,4.013c-1.009,1.449 -1.529,1.699 -1.989,0.956Zm6.222,-14.434c0,-0.843 -1.034,-0.47 -1.21,0.438c-0.097,0.497 0.065,0.634 0.535,0.454c0.371,-0.142 0.675,-0.543 0.675,-0.892Zm12.324,4.281c1.06,-0.725 1.248,-1.815 0.45,-2.613c-0.4,-0.4 -0.352,-0.514 0.214,-0.514c0.777,0 2.444,1.445 2.444,2.118c0,0.566 -0.71,0.942 -2.516,1.332c-1.496,0.324 -1.519,0.312 -0.592,-0.323Z" style="fill:#fe0101;fill-rule:nonzero;"/></g></g></svg>