<?xml version="1.0" encoding="UTF-8" standalone="no"?><!DOCTYPE svg PUBLIC "-//W3C//DTD SVG 1.1//EN" "http://www.w3.org/Graphics/SVG/1.1/DTD/svg11.dtd"><svg width="100%" height="100%" viewBox="0 0 39 39" version="1.1" xmlns="http://www.w3.org/2000/svg" xmlns:xlink="http://www.w3.org/1999/xlink" xml:space="preserve" xmlns:serif="http://www.serif.com/" style="fill-rule:evenodd;clip-rule:evenodd;stroke-miterlimit:2;"><g id="g4376"><g id="path3866"><path d="M11.736,7.475l-3.986,26.18l23.5,0.069l-3.848,-26.18l-7.764,-2.268l-7.902,2.199Z" style="fill:none;fill-rule:nonzero;stroke:#f00;stroke-width:2px;"/><path d="M11.736,7.475l-3.986,26.18l23.5,0.069l-3.848,-26.18l-7.764,-2.268l-7.902,2.199Z" style="fill:#fff;fill-rule:nonzero;"/></g><path id="path3848" d="M17.942,26.923c-0.479,-0.184 -1.024,-0.487 -1.211,-0.674c-0.27,-0.272 -0.149,-0.341 0.601,-0.345c0.516,-0.002 1.122,-0.123 1.347,-0.268c0.321,-0.207 0.258,-0.264 -0.298,-0.267c-0.763,-0.005 -1.607,-0.747 -1.607,-1.413c0,-0.706 0.902,-1.271 2.177,-1.362c1.049,-0.074 1.237,-0.178 1.315,-0.729c0.09,-0.637 0.076,-0.64 -1.806,-0.451c-1.971,0.198 -2.445,0.006 -2.115,-0.855c0.131,-0.34 0.243,-0.36 0.561,-0.095c0.275,0.227 0.899,0.272 2.014,0.142c1.436,-0.166 1.681,-0.121 2.206,0.403c0.551,0.551 0.56,0.624 0.142,1.085c-0.295,0.326 -0.349,0.557 -0.158,0.674c0.557,0.344 0.282,1.186 -0.655,2.009l-0.944,0.829l1.127,0.083c1.172,0.086 1.464,0.364 1.058,1.005c-0.319,0.505 -2.661,0.647 -3.754,0.229Zm1.401,-2.708c0.599,-0.855 0.535,-1.028 -0.383,-1.028c-0.823,0 -1.566,0.824 -1.23,1.367c0.291,0.47 1.177,0.284 1.613,-0.339Zm-4.976,-5.375c0.991,-0.895 2.249,-2.3 2.795,-3.123c0.962,-1.449 0.979,-1.517 0.543,-2.182c-0.442,-0.675 -0.437,-0.687 0.28,-0.687c0.954,0 1.782,0.457 1.782,0.982c0,1.078 -3.36,4.642 -5.714,6.06c-1.658,1 -1.547,0.629 0.314,-1.05Zm7.977,-0.949c-1.492,-1.417 -2.608,-2.58 -2.479,-2.585c0.43,-0.017 3.337,1.641 4.369,2.492c0.562,0.463 1.117,1.1 1.234,1.415c0.219,0.588 0.098,1.254 -0.228,1.254c-0.101,0 -1.404,-1.159 -2.896,-2.576Zm-3.802,1.094c0.806,-0.692 0.809,-0.704 0.208,-0.865c-0.871,-0.234 -0.478,-0.646 0.616,-0.646c0.665,0 1.013,0.162 1.234,0.576c0.43,0.802 -0.165,1.334 -1.68,1.503l-1.194,0.133l0.816,-0.701Z" style="fill:#f00;fill-rule:nonzero;"/></g></svg>