<?xml version="1.0" encoding="UTF-8" standalone="no"?><!DOCTYPE svg PUBLIC "-//W3C//DTD SVG 1.1//EN" "http://www.w3.org/Graphics/SVG/1.1/DTD/svg11.dtd"><svg width="100%" height="100%" viewBox="0 0 58 58" version="1.1" xmlns="http://www.w3.org/2000/svg" xmlns:xlink="http://www.w3.org/1999/xlink" xml:space="preserve" xmlns:serif="http://www.serif.com/" style="fill-rule:evenodd;clip-rule:evenodd;stroke-linejoin:round;stroke-miterlimit:1.41421;"><g id="g4376"><path id="path3866" d="M15.606,8.311l-6.847,44.974l40.37,0.118l-6.61,-44.974l-13.338,-3.895l-13.575,3.777Z" style="fill:#fff;fill-rule:nonzero;"/><path id="path3854" d="M7.914,53.883c0.323,-3.031 6.933,-45.78 7.105,-45.952c0.139,-0.139 3.327,-1.08 7.084,-2.092l6.832,-1.839l6.854,1.845c3.769,1.015 6.993,2.011 7.165,2.214c0.172,0.202 1.736,10.043 3.477,21.869c1.741,11.826 3.276,22.08 3.41,22.787l0.245,1.285l-21.092,0c-11.601,0 -21.087,-0.053 -21.08,-0.117Zm40.166,-2.337c-0.011,-0.578 -1.43,-10.409 -3.155,-21.846l-3.136,-20.794l-6.427,-1.716l-6.427,-1.717l-6.412,1.714l-6.412,1.714l-3.143,20.796c-1.728,11.439 -3.155,21.271 -3.17,21.849l-0.027,1.052l38.328,0l-0.019,-1.052Zm-22.767,-10.047c-1.897,-0.945 -1.942,-1.522 -0.117,-1.522c0.771,0 1.402,-0.21 1.402,-0.467c0,-0.257 -0.31,-0.467 -0.69,-0.467c-0.38,0 -1.026,-0.512 -1.436,-1.138c-1.297,-1.979 0.519,-3.742 4.226,-4.102c0.937,-0.091 1.453,-0.428 1.566,-1.023c0.177,-0.931 -0.128,-0.934 -4.367,-0.049c-1.914,0.4 -3.521,-0.724 -2.608,-1.823c0.44,-0.53 0.8,-0.616 1.199,-0.285c0.337,0.28 1.713,0.354 3.365,0.181c1.776,-0.185 3.165,-0.094 3.808,0.251c1.048,0.56 1.369,2.104 0.545,2.613c-0.312,0.193 -0.306,0.593 0.016,1.196c0.6,1.12 0.04,2.294 -1.76,3.691c-1.159,0.9 -1.184,0.974 -0.241,0.714c2.279,-0.627 3.835,1.01 2.36,2.485c-0.802,0.802 -5.473,0.638 -7.268,-0.255l0,0Zm2.895,-4.297c0.854,-0.944 0.648,-1.899 -0.412,-1.899c-0.9,0 -1.813,1.278 -1.498,2.098c0.364,0.948 0.924,0.89 1.91,-0.199Zm-7.452,-10.376c5.076,-5.282 5.791,-6.464 4.908,-8.115c-0.782,-1.461 -0.452,-1.811 1.336,-1.418c3.257,0.716 3.082,2.561 -0.633,6.667c-3.162,3.494 -5.645,5.503 -8.024,6.495c-1.675,0.698 -1.514,0.456 2.413,-3.629Zm12.736,-0.544c-2.506,-2.365 -4.557,-4.461 -4.557,-4.657c0.001,-1.263 9.249,4.499 10.263,6.395c0.675,1.261 0.386,2.622 -0.549,2.586c-0.329,-0.013 -2.65,-1.958 -5.157,-4.324Zm-7.829,3.04c0,-0.25 0.559,-0.821 1.241,-1.268c1.086,-0.711 1.144,-0.867 0.467,-1.245c-0.425,-0.238 -0.773,-0.633 -0.773,-0.877c0,-0.644 3.451,-0.546 4.114,0.116c0.816,0.816 0.686,2.145 -0.258,2.641c-1.305,0.685 -4.791,1.146 -4.791,0.633Z" style="fill:#fecfcf;fill-rule:nonzero;"/><path id="path3852" d="M8.164,52.715c0.131,-0.707 1.69,-11.036 3.464,-22.952c1.775,-11.917 3.292,-21.731 3.372,-21.809c0.081,-0.078 3.244,-0.98 7.03,-2.003l6.883,-1.861l6.884,1.835c3.786,1.009 6.977,1.928 7.091,2.042c0.114,0.114 1.64,9.834 3.392,21.601c1.752,11.767 3.308,22.077 3.458,22.913l0.274,1.519l-21.044,0l-21.043,0l0.239,-1.285Zm39.207,-7.012c-0.572,-3.792 -2.041,-13.634 -3.264,-21.872l-2.224,-14.979l-6.591,-1.722l-6.59,-1.722l-6.311,1.743c-5.233,1.446 -6.334,1.903 -6.454,2.678c-0.079,0.514 -1.563,10.347 -3.297,21.852l-3.154,20.917l38.926,0l-1.041,-6.895Zm-21.535,-4.062c-2.169,-0.944 -2.39,-1.664 -0.512,-1.664c2.195,0 2.533,-0.549 0.702,-1.141c-1.251,-0.404 -1.558,-0.767 -1.675,-1.983c-0.167,-1.72 0.65,-2.34 3.784,-2.875c1.338,-0.229 2.012,-0.599 2.12,-1.164c0.146,-0.755 -0.147,-0.801 -3.312,-0.514c-2.901,0.263 -3.518,0.195 -3.75,-0.41c-0.345,-0.898 0.826,-2.03 1.303,-1.259c0.211,0.342 1.358,0.411 3.43,0.207c2.756,-0.272 3.211,-0.198 3.968,0.638c0.698,0.771 0.756,1.129 0.318,1.949c-0.402,0.751 -0.403,1.165 -0.005,1.645c0.676,0.814 0.035,2.1 -1.745,3.496c-1.268,0.994 -1.272,1.009 -0.166,0.769c2.301,-0.499 3.84,1.48 1.942,2.496c-1.257,0.673 -4.651,0.572 -6.402,-0.19l0,0Zm1.978,-3.891c0.283,-0.189 0.763,-0.817 1.068,-1.395c0.485,-0.921 0.44,-1.052 -0.359,-1.052c-1.495,0 -2.392,0.516 -2.392,1.375c0,1.3 0.687,1.737 1.683,1.072Zm-8.43,-9.312c3.334,-3.195 6.747,-7.43 6.747,-8.374c0,-0.366 -0.255,-1.074 -0.567,-1.573c-0.765,-1.225 -0.305,-1.548 1.529,-1.073c2.091,0.542 2.686,1.585 1.823,3.199c-1.455,2.717 -6.449,7.505 -9.413,9.023l-2.954,1.514l2.835,-2.716Zm17.264,0.667c-0.772,-0.845 -2.753,-2.74 -4.403,-4.212c-1.65,-1.472 -2.865,-2.81 -2.701,-2.975c0.165,-0.164 1.499,0.309 2.966,1.051c3.339,1.69 7.325,5.373 7.097,6.558c-0.268,1.391 -1.458,1.221 -2.959,-0.422Zm-10.985,-0.1c0,-0.122 0.683,-0.574 1.517,-1.006c1.491,-0.771 1.498,-0.791 0.467,-1.252c-1.665,-0.743 -1.221,-1.326 0.89,-1.17c4.045,0.3 3.076,3.65 -1.056,3.65c-1,0 -1.818,-0.1 -1.818,-0.222Z" style="fill:#feafaf;fill-rule:nonzero;"/><path id="path3850" d="M8.212,52.948c0.1,-0.578 1.652,-10.923 3.449,-22.988c1.796,-12.066 3.319,-21.99 3.383,-22.054c0.064,-0.064 3.216,-0.92 7.004,-1.901l6.887,-1.785l6.888,1.785c3.788,0.981 6.956,1.853 7.04,1.938c0.085,0.084 1.605,9.903 3.379,21.82c1.774,11.916 3.333,22.245 3.465,22.952l0.239,1.285l-20.958,0l-20.957,0l0.181,-1.052Zm40.163,-1.168c-0.147,-0.707 -1.654,-10.646 -3.35,-22.086c-1.695,-11.44 -3.117,-20.83 -3.159,-20.868c-0.042,-0.037 -2.965,-0.831 -6.495,-1.765l-6.419,-1.698l-6.552,1.725c-3.774,0.993 -6.552,1.96 -6.552,2.279c0,0.677 -5.982,40.609 -6.354,42.413l-0.264,1.285l39.411,0l-0.266,-1.285Zm-22.069,-9.973c-0.803,-0.233 -1.722,-0.74 -2.043,-1.127c-0.501,-0.603 -0.348,-0.703 1.082,-0.703c1.656,0 3.012,-0.921 1.398,-0.949c-2.148,-0.038 -3.233,-2.439 -1.766,-3.907c0.748,-0.747 3.273,-1.395 4.432,-1.136c0.407,0.09 0.739,-0.286 0.84,-0.953c0.166,-1.096 0.144,-1.101 -3.091,-0.776c-3.387,0.34 -4.201,0.011 -3.634,-1.468c0.223,-0.58 0.42,-0.616 0.955,-0.172c0.463,0.384 1.599,0.461 3.623,0.244c2.588,-0.277 3.052,-0.202 3.793,0.617c0.708,0.782 0.749,1.084 0.255,1.874c-0.433,0.693 -0.451,1.106 -0.07,1.565c0.691,0.833 -0.191,2.473 -2.008,3.729l-1.37,0.948l1.397,-0.232c1.435,-0.238 3.043,0.326 3.043,1.067c0,1.671 -3.437,2.364 -6.836,1.379Zm2.342,-4.851c0.992,-1.515 0.961,-1.653 -0.38,-1.653c-1.082,0 -2.605,1.067 -2.605,1.825c0,1.379 2.046,1.261 2.985,-0.172Zm-8.255,-9.482c1.805,-1.735 3.929,-4.178 4.72,-5.429c1.354,-2.142 1.395,-2.338 0.706,-3.388c-0.707,-1.08 -0.691,-1.116 0.523,-1.116c1.651,0 3.061,0.786 3.061,1.707c0,2.508 -9.333,11.381 -11.97,11.381c-0.177,0 1.155,-1.42 2.96,-3.155Zm13.217,-1.312c-2.443,-2.422 -4.26,-4.406 -4.039,-4.409c1.016,-0.013 6.33,3.229 8.162,4.98c2.033,1.943 2.469,3.552 1.013,3.742c-0.383,0.05 -2.694,-1.89 -5.136,-4.313Zm-6.615,2.047c1.528,-0.978 1.542,-1.016 0.57,-1.536c-1.276,-0.683 -0.768,-1.185 1.198,-1.185c1.106,0 1.696,0.288 2.088,1.02c0.465,0.869 0.39,1.146 -0.503,1.87c-0.641,0.519 -1.8,0.846 -2.984,0.841l-1.934,-0.008l1.565,-1.002l0,0Z" style="fill:#fe8f8f;fill-rule:nonzero;"/><path id="path3848" d="M8.369,53.105c0,-0.891 6.555,-45.102 6.701,-45.194c0.491,-0.309 13.116,-3.457 13.865,-3.457c0.807,0 13.475,3.18 13.899,3.489c0.06,0.044 1.579,9.951 3.376,22.017c1.797,12.065 3.349,22.41 3.448,22.988l0.182,1.052l-20.736,0c-20.119,0 -20.735,-0.027 -20.735,-0.895Zm39.977,-1.559c-0.144,-0.835 -1.632,-10.762 -3.305,-22.059c-1.674,-11.297 -3.09,-20.586 -3.147,-20.642c-0.058,-0.056 -2.994,-0.88 -6.524,-1.831l-6.42,-1.728l-6.551,1.753c-3.603,0.964 -6.551,1.915 -6.551,2.114c0,0.4 -5.903,39.979 -6.322,42.393l-0.265,1.519l39.348,0l-0.263,-1.519Zm-22.078,-9.826c-0.824,-0.316 -1.76,-0.837 -2.08,-1.158c-0.464,-0.467 -0.257,-0.586 1.031,-0.592c0.887,-0.003 1.928,-0.211 2.314,-0.46c0.552,-0.357 0.443,-0.455 -0.512,-0.46c-1.31,-0.008 -2.76,-1.282 -2.76,-2.426c0,-1.214 1.55,-2.184 3.74,-2.34c1.802,-0.128 2.125,-0.307 2.259,-1.252c0.155,-1.095 0.131,-1.101 -3.102,-0.776c-3.387,0.34 -4.201,0.011 -3.634,-1.468c0.225,-0.585 0.418,-0.618 0.964,-0.164c0.472,0.391 1.544,0.467 3.459,0.245c2.467,-0.286 2.889,-0.209 3.79,0.692c0.946,0.946 0.962,1.071 0.244,1.864c-0.507,0.56 -0.599,0.956 -0.272,1.158c0.957,0.591 0.486,2.037 -1.124,3.45l-1.622,1.425l1.936,0.143c2.014,0.148 2.515,0.624 1.818,1.726c-0.549,0.867 -4.571,1.112 -6.449,0.393Zm2.407,-4.651c1.029,-1.469 0.918,-1.766 -0.658,-1.766c-1.415,0 -2.69,1.415 -2.114,2.347c0.5,0.808 2.022,0.489 2.772,-0.581Zm-8.549,-9.235c1.703,-1.537 3.864,-3.951 4.802,-5.364c1.652,-2.489 1.681,-2.607 0.933,-3.749c-0.76,-1.16 -0.752,-1.18 0.481,-1.18c1.639,0 3.061,0.785 3.061,1.688c0,1.851 -5.773,7.973 -9.816,10.41c-2.848,1.717 -2.658,1.08 0.539,-1.805Zm13.703,-1.63c-2.563,-2.433 -4.479,-4.432 -4.258,-4.44c0.739,-0.029 5.732,2.819 7.506,4.281c0.965,0.795 1.918,1.889 2.12,2.431c0.376,1.01 0.167,2.153 -0.393,2.153c-0.173,0 -2.412,-1.991 -4.975,-4.425Zm-6.53,1.879c1.384,-1.188 1.389,-1.208 0.356,-1.486c-1.496,-0.402 -0.821,-1.109 1.058,-1.109c1.143,0 1.741,0.279 2.121,0.989c0.738,1.379 -0.283,2.293 -2.886,2.583l-2.051,0.228l1.402,-1.205Z" style="fill:#fe6f6f;fill-rule:nonzero;"/><path id="path3846" d="M8.369,53.312c0,-1.064 6.584,-44.805 6.795,-45.148c0.103,-0.166 3.244,-1.101 6.979,-2.079l6.792,-1.776l6.895,1.784c3.792,0.981 6.929,1.802 6.971,1.825c0.144,0.078 6.701,44.291 6.701,45.187c0,0.868 -0.614,0.895 -20.567,0.895c-17.799,0 -20.566,-0.093 -20.566,-0.688Zm39.998,-2c-0.156,-0.964 -1.634,-10.882 -3.286,-22.041c-1.652,-11.158 -3.206,-20.413 -3.455,-20.566c-0.248,-0.153 -3.258,-0.99 -6.688,-1.86l-6.236,-1.581l-6.251,1.677c-3.438,0.923 -6.324,1.752 -6.414,1.842c-0.138,0.138 -6.733,43.258 -6.733,44.022c0,0.143 8.852,0.26 19.672,0.26l19.673,0l-0.282,-1.753Zm-21.944,-9.684c-2.812,-1.002 -3.158,-1.651 -0.881,-1.651c1.065,0 2.066,-0.21 2.225,-0.467c0.159,-0.257 -0.098,-0.467 -0.57,-0.467c-1.269,0 -2.936,-1.327 -2.936,-2.337c0,-1.303 1.805,-2.338 4.077,-2.338c1.838,0 2,-0.097 2,-1.205c0,-1.199 -0.02,-1.205 -3.375,-1.052c-2.709,0.124 -3.402,0.016 -3.517,-0.547c-0.117,-0.579 0.533,-0.7 3.725,-0.695c4.144,0.006 5.036,0.283 5.036,1.564c0,0.447 -0.263,1.092 -0.584,1.433c-0.467,0.495 -0.467,0.662 0,0.834c1.129,0.414 0.565,1.949 -1.305,3.55l-1.889,1.617l2.062,-0.232c2.526,-0.285 3.317,0.543 1.739,1.82c-1.248,1.011 -3.287,1.071 -5.807,0.173Zm2.252,-4.559c1.024,-1.462 0.918,-1.766 -0.617,-1.766c-1.525,0 -2.632,1.043 -2.228,2.098c0.401,1.045 2.012,0.858 2.845,-0.332Zm-8.5,-9.244c4.014,-3.678 6.652,-7.581 5.976,-8.843c-0.693,-1.295 -0.627,-1.441 0.648,-1.441c1.086,0 2.604,1.068 2.604,1.833c0,0.658 -2.665,4.059 -5.04,6.435c-2.076,2.075 -6.012,4.82 -6.913,4.82c-0.185,0 1.042,-1.262 2.725,-2.804Zm13.668,-1.668c-2.571,-2.409 -4.454,-4.386 -4.185,-4.394c0.637,-0.019 7.161,3.992 8.465,5.205c1.234,1.148 1.649,2.543 0.93,3.13c-0.367,0.3 -2.01,-0.943 -5.21,-3.941Zm-6.576,2.017c1.302,-1.087 1.325,-1.168 0.467,-1.65c-0.839,-0.471 -0.845,-0.528 -0.083,-0.822c1.173,-0.452 2.999,0.11 3.353,1.033c0.446,1.161 -0.733,2.064 -3.056,2.339l-2.051,0.243l1.37,-1.143Z" style="fill:#fe4e4e;fill-rule:nonzero;"/><path id="path3844" d="M8.369,53.526c0,-0.714 6.544,-44.559 6.731,-45.101c0.089,-0.258 3.244,-1.285 7.01,-2.283l6.847,-1.814l6.65,1.759c3.657,0.968 6.793,1.89 6.969,2.05c0.289,0.262 6.926,43.551 6.926,45.175c0,0.595 -2.767,0.688 -20.567,0.688c-13.592,0 -20.566,-0.161 -20.566,-0.474Zm40.188,-1.045c-0.023,-1.385 -6.45,-43.425 -6.672,-43.647c-0.376,-0.376 -11.909,-3.445 -12.946,-3.445c-0.946,0 -12.606,3.097 -12.948,3.44c-0.176,0.175 -6.687,42.847 -6.687,43.823c0,0.233 8.578,0.413 19.631,0.413c15.399,0 19.63,-0.126 19.622,-0.584Zm-22.11,-10.821c-2.46,-0.91 -2.539,-1.107 -0.592,-1.472c1.814,-0.34 2.758,-1.145 1.342,-1.145c-1.269,0 -2.936,-1.327 -2.936,-2.337c0,-1.309 1.809,-2.338 4.108,-2.338c1.94,0 2.024,-0.057 1.883,-1.285c-0.161,-1.399 -0.285,-1.422 -4.229,-0.806c-1.841,0.289 -2.261,0.215 -2.511,-0.437c-0.406,-1.057 0.018,-1.385 1.065,-0.825c0.559,0.299 1.722,0.306 3.305,0.018c1.667,-0.303 2.741,-0.284 3.384,0.06c1.064,0.569 1.229,1.849 0.357,2.773c-0.467,0.495 -0.467,0.662 0,0.834c1.149,0.421 0.551,1.956 -1.402,3.598l-1.987,1.67l2.159,-0.284c2.353,-0.31 3.057,0.161 2.133,1.424c-0.79,1.081 -3.889,1.362 -6.079,0.552l0,0Zm2.228,-4.591c1.024,-1.462 0.918,-1.766 -0.617,-1.766c-1.525,0 -2.632,1.043 -2.228,2.098c0.401,1.045 2.012,0.858 2.845,-0.332Zm-7.427,-10.236c4.264,-4.46 5.698,-6.757 4.958,-7.943c-0.298,-0.478 -0.543,-0.977 -0.543,-1.109c0,-0.58 1.863,-0.162 2.854,0.641l1.088,0.881l-1.306,1.885c-1.774,2.56 -6.713,7.242 -8.714,8.261c-1.425,0.726 -1.212,0.391 1.663,-2.616Zm12.362,-0.904c-2.443,-2.306 -4.02,-4.044 -3.506,-3.863c1.767,0.621 6.545,3.597 7.829,4.875c1.321,1.314 1.742,3.237 0.701,3.2c-0.321,-0.011 -2.582,-1.906 -5.024,-4.212Zm-6.343,2.197c1.296,-1.037 1.321,-1.122 0.474,-1.597c-0.83,-0.464 -0.801,-0.525 0.402,-0.827c1.463,-0.367 3.239,0.826 2.827,1.9c-0.27,0.702 -2.599,1.626 -4.091,1.623c-0.888,-0.003 -0.851,-0.108 0.388,-1.099Z" style="fill:#fe2f2f;fill-rule:nonzero;"/><path id="path3842" d="M8.627,51.78c0.148,-0.964 1.68,-11.2 3.404,-22.747l3.135,-20.994l6.768,-1.805l6.768,-1.806l6.951,1.766c3.823,0.971 7.024,1.976 7.114,2.233c0.145,0.414 6.735,44.334 6.735,44.885c0,0.121 -9.258,0.221 -20.572,0.221l-20.572,0l0.269,-1.753Zm39.94,0.614c0,-1.514 -6.141,-42.17 -6.5,-43.032c-0.306,-0.737 -1.741,-1.281 -6.76,-2.562l-6.372,-1.626l-6.371,1.626c-5.041,1.287 -6.45,1.822 -6.746,2.562c-0.342,0.855 -6.528,41.775 -6.518,43.119c0.003,0.458 4.244,0.584 19.635,0.584c16.756,0 19.632,-0.098 19.632,-0.671Zm-21,-10.63c-2.244,-0.395 -3.707,-1.319 -2.086,-1.319c0.516,0 1.327,-0.284 1.803,-0.632c0.81,-0.592 0.779,-0.653 -0.493,-0.972c-2.647,-0.665 -3.213,-1.92 -1.595,-3.538c0.65,-0.65 1.558,-0.935 2.984,-0.935c1.615,0 2.097,-0.186 2.279,-0.883c0.472,-1.801 -0.262,-2.118 -3.374,-1.458c-2.024,0.43 -3.019,0.464 -3.368,0.114c-0.8,-0.799 -0.017,-1.595 1.021,-1.039c0.598,0.32 1.571,0.321 2.987,0.004c3.469,-0.778 5.727,0.821 3.898,2.76c-0.467,0.495 -0.467,0.662 0,0.833c1.151,0.422 0.55,1.957 -1.402,3.584l-1.987,1.655l2.104,-0.097c1.81,-0.084 2.103,0.03 2.103,0.818c0,1.158 -1.998,1.61 -4.874,1.105l0,0Zm1.185,-4.474c0.342,-0.45 0.628,-1.081 0.636,-1.402c0.015,-0.612 -1.719,-0.787 -2.985,-0.301c-0.745,0.286 -1.006,1.631 -0.428,2.209c0.593,0.594 2.159,0.308 2.777,-0.506Zm-7.21,-10.762c4.214,-4.423 5.425,-6.42 4.646,-7.666c-0.288,-0.462 -0.525,-0.949 -0.525,-1.081c0,-0.576 1.86,-0.164 2.841,0.63l1.074,0.87l-1.691,2.304c-2.161,2.943 -6.255,6.82 -8.327,7.884c-1.348,0.692 -1.026,0.214 1.982,-2.941Zm12.068,-0.666l-4.441,-4.254l3.384,1.802c3.8,2.023 6.666,4.547 6.666,5.87c0,1.575 -1.093,0.909 -5.609,-3.418Zm-6.374,2.396c1.426,-1.121 1.58,-1.82 0.414,-1.873c-0.51,-0.023 -0.327,-0.215 0.483,-0.511c1.5,-0.547 2.672,0.119 2.672,1.518c0,0.591 -0.543,1.007 -1.753,1.343c-2.652,0.737 -3.182,0.598 -1.816,-0.477Z" style="fill:#fe0404;fill-rule:nonzero;"/></g></svg>