<?xml version="1.0" encoding="UTF-8" standalone="no"?><!DOCTYPE svg PUBLIC "-//W3C//DTD SVG 1.1//EN" "http://www.w3.org/Graphics/SVG/1.1/DTD/svg11.dtd"><svg width="100%" height="100%" viewBox="0 0 58 58" version="1.1" xmlns="http://www.w3.org/2000/svg" xmlns:xlink="http://www.w3.org/1999/xlink" xml:space="preserve" xmlns:serif="http://www.serif.com/" style="fill-rule:evenodd;clip-rule:evenodd;stroke-linejoin:round;stroke-miterlimit:1.41421;"><g id="g5555"><path id="path5045" d="M15.812,8.148l-7.084,45.575l40.616,-0.354l-7.084,-44.867l-12.87,-3.778l-13.578,3.424Z" style="fill:#fff;fill-rule:nonzero;"/><path id="path5033" d="M8.081,53.649c-0.013,-1.369 6.75,-45.315 7.019,-45.617c0.189,-0.21 3.376,-1.204 7.084,-2.207l6.742,-1.825l6.931,1.832c3.811,1.007 7.011,1.912 7.11,2.011c0.099,0.099 1.648,10.051 3.444,22.116c1.795,12.066 3.344,22.41 3.443,22.989l0.179,1.052l-20.975,0c-11.535,0 -20.975,-0.158 -20.977,-0.351Zm40.211,-1.389c0,-0.525 -6.064,-41.387 -6.3,-42.45c-0.172,-0.779 -1.322,-1.241 -6.571,-2.64l-6.362,-1.696l-6.397,1.666c-3.518,0.917 -6.428,1.684 -6.467,1.705c-0.039,0.021 -1.465,9.505 -3.168,21.077c-1.703,11.571 -3.177,21.407 -3.275,21.857c-0.167,0.769 0.988,0.818 19.181,0.818c10.648,0 19.359,-0.152 19.359,-0.337Zm-21.74,-7.92c-2.444,-1.327 -2.785,-2.496 -0.729,-2.496c2.045,0 2.104,-0.657 0.275,-3.052c-1.937,-2.538 -2.286,-5.579 -0.795,-6.927c1.175,-1.064 1.724,-0.976 2.851,0.458l0.969,1.232l0,-3.075c0,-1.691 -0.167,-3.178 -0.372,-3.304c-0.205,-0.127 -1.94,0.709 -3.857,1.858c-2.78,1.666 -3.517,1.939 -3.641,1.349c-0.195,-0.93 0.745,-2.106 1.476,-1.846c0.302,0.107 1.184,-0.379 1.959,-1.08c0.775,-0.702 1.207,-1.118 0.959,-0.925c-0.248,0.193 -0.662,0.351 -0.92,0.351c-0.258,0 0.31,-0.798 1.262,-1.773c2.047,-2.096 2.123,-2.435 0.548,-2.435c-1.704,0 -1.874,-1.08 -0.491,-3.116c1.393,-2.049 1.499,-2.75 0.476,-3.142c-1.108,-0.425 -0.326,-1.222 1.2,-1.222c0.863,0 1.61,0.373 2.076,1.039c0.966,1.379 0.939,1.524 -0.558,2.97l-1.286,1.242l1.462,-0.265c0.935,-0.169 1.778,-0.016 2.338,0.426c0.845,0.667 0.836,0.719 -0.278,1.496c-0.634,0.443 -1.686,1.281 -2.337,1.862l-1.185,1.055l1.317,-0.471c2.233,-0.8 5.217,-0.583 6.148,0.446c1.115,1.232 0.667,2.145 -1.385,2.823c-1.816,0.599 -2.873,0.233 -1.517,-0.526c1.334,-0.747 0.929,-1.344 -0.912,-1.344c-1.529,0 -1.631,0.069 -0.895,0.607c0.76,0.556 0.783,0.927 0.271,4.425c-0.413,2.829 -0.423,4.204 -0.039,5.307c0.285,0.819 0.519,1.937 0.519,2.484c0,1.021 -1.611,2.735 -2.731,2.907c-0.768,0.117 -1.245,0.554 -0.939,0.859c0.124,0.125 0.943,0.02 1.82,-0.231c2.271,-0.651 3.34,-0.201 3.163,1.331c-0.133,1.147 -0.33,1.255 -2.482,1.356c-1.463,0.068 -2.863,-0.176 -3.74,-0.653l0,0Zm1.165,-9.046c-0.547,-0.769 -1.219,-1.398 -1.492,-1.398c-0.805,0 -0.078,3.122 1.116,4.797l1.081,1.515l0.145,-1.758c0.101,-1.22 -0.159,-2.186 -0.85,-3.156Z" style="fill:#fed1d1;fill-rule:nonzero;"/><path id="path5031" d="M8.211,52.714c0.134,-0.707 1.671,-10.963 3.416,-22.792c1.744,-11.829 3.308,-21.67 3.474,-21.871c0.167,-0.2 3.372,-1.172 7.122,-2.16l6.818,-1.796l6.937,1.858c3.816,1.022 6.972,1.889 7.014,1.926c0.15,0.135 6.703,44.347 6.703,45.225c0,0.869 -0.618,0.896 -20.864,0.896l-20.864,0l0.244,-1.286Zm40.062,-0.935c-0.011,-0.45 -1.438,-10.286 -3.171,-21.857l-3.151,-21.039l-6.493,-1.743l-6.494,-1.742l-6.349,1.694c-3.492,0.932 -6.397,1.73 -6.457,1.772c-0.059,0.043 -1.48,9.322 -3.158,20.62c-1.678,11.298 -3.172,21.121 -3.319,21.828l-0.268,1.285l19.439,0c18.21,0 19.439,-0.051 19.421,-0.818Zm-22.003,-7.733c-1.637,-1.103 -1.748,-1.879 -0.286,-1.987c1.794,-0.132 1.893,-1.01 0.334,-2.95c-1.9,-2.365 -2.441,-5.677 -1.158,-7.095c1.078,-1.192 1.428,-1.164 2.816,0.224l1.147,1.148l0,-2.99c0,-1.645 -0.181,-3.102 -0.402,-3.239c-0.221,-0.136 -1.787,0.588 -3.48,1.609c-3.877,2.338 -4.658,2.434 -3.591,0.441c0.261,-0.487 0.767,-0.774 1.124,-0.637c0.358,0.137 1.354,-0.41 2.214,-1.217c1.333,-1.249 1.391,-1.384 0.395,-0.911c-0.888,0.42 -0.668,0.034 0.916,-1.607c1.991,-2.063 2.032,-2.16 0.911,-2.16c-2.14,0 -2.392,-0.855 -0.992,-3.377c1.234,-2.224 1.244,-2.305 0.379,-2.949c-0.839,-0.623 -0.842,-0.679 -0.062,-0.979c0.455,-0.174 1.382,-0.124 2.059,0.113c1.555,0.544 1.93,2.596 0.644,3.524c-1.646,1.187 -1.493,1.569 0.565,1.406c2.517,-0.201 3.251,0.944 1.291,2.012c-0.698,0.38 -2.006,1.326 -2.906,2.101l-1.636,1.41l1.964,-0.929c2.483,-1.174 5.309,-1.202 6.711,-0.067c1.399,1.132 0.97,2.092 -1.237,2.769c-1.91,0.586 -2.81,0.332 -1.473,-0.417c1.321,-0.739 0.936,-1.344 -0.856,-1.344c-1.557,0 -1.617,0.052 -0.892,0.778c0.555,0.555 0.692,1.191 0.477,2.221c-0.726,3.483 -0.81,5.996 -0.266,7.939c0.517,1.848 0.485,2.209 -0.287,3.269c-0.478,0.656 -1.211,1.199 -1.629,1.207c-0.419,0.008 -1.007,0.311 -1.308,0.674c-0.464,0.558 -0.117,0.62 2.28,0.402c2.574,-0.233 2.828,-0.175 2.828,0.65c0,1.404 -0.944,2.029 -3.064,2.029c-1.249,0 -2.508,-0.382 -3.53,-1.071Zm2.853,-5.485c0,-1.398 -2.086,-5.133 -2.867,-5.133c-0.584,0 -0.499,2.685 0.122,3.888c0.695,1.345 1.856,2.658 2.35,2.658c0.217,0 0.395,-0.636 0.395,-1.413Z" style="fill:#feb0b0;fill-rule:nonzero;"/><path id="path5029" d="M8.314,52.481c0.15,-0.836 1.705,-11.148 3.456,-22.915c1.75,-11.768 3.269,-21.482 3.374,-21.587c0.105,-0.105 3.261,-1.009 7.013,-2.007l6.822,-1.816l7.085,1.85c3.897,1.018 7.085,2.085 7.085,2.371c0,0.285 1.473,10.357 3.273,22.38c1.8,12.024 3.273,22.172 3.273,22.552c0,0.599 -2.768,0.691 -20.827,0.691l-20.826,0l0.272,-1.519Zm39.978,-0.436c0,-1.726 -6.173,-42.674 -6.486,-43.019c-0.161,-0.178 -3.085,-1.08 -6.498,-2.003l-6.205,-1.68l-6.527,1.719c-6.466,1.704 -6.528,1.733 -6.777,3.173c-0.319,1.851 -6.312,42.3 -6.312,42.603c0,0.125 8.731,0.227 19.403,0.227l19.402,0l0,-1.02Zm-21.273,-7.576c-0.771,-0.336 -1.691,-0.959 -2.044,-1.384c-0.567,-0.684 -0.508,-0.773 0.512,-0.773c0.635,0 1.531,-0.417 1.991,-0.926c0.771,-0.851 0.776,-0.949 0.06,-1.223c-1.138,-0.437 -3.09,-4.019 -3.09,-5.672c0,-1.847 1.356,-3.568 2.473,-3.14c0.455,0.175 1.129,0.872 1.496,1.548c0.633,1.165 0.67,1.05 0.688,-2.131c0.01,-1.849 -0.197,-3.496 -0.461,-3.658c-0.263,-0.163 -1.836,0.561 -3.495,1.608c-3.778,2.387 -4.574,2.498 -3.499,0.489c0.288,-0.537 0.76,-0.777 1.2,-0.608c0.443,0.17 1.303,-0.281 2.213,-1.16c3.176,-3.068 8.276,-4.289 10.138,-2.426c1.518,1.518 1.287,1.839 -2.045,2.838c-1.326,0.397 -1.332,0.39 -0.486,-0.545c1.029,-1.137 0.339,-1.813 -1.493,-1.463c-1.041,0.199 -1.088,0.299 -0.464,0.988c0.596,0.659 0.612,1.294 0.118,4.489c-0.479,3.102 -0.464,4.058 0.09,5.741c0.634,1.926 0.615,2.072 -0.414,3.167c-0.594,0.632 -1.332,1.149 -1.642,1.149c-0.309,0 -0.829,0.321 -1.154,0.713c-0.523,0.63 -0.286,0.677 2.037,0.404c2.194,-0.258 2.678,-0.182 2.924,0.462c0.744,1.937 -2.616,2.837 -5.653,1.513Zm2.104,-5.989c0,-1.457 -2.041,-5.052 -2.869,-5.052c-0.582,0 -0.497,2.687 0.124,3.888c0.695,1.345 1.856,2.658 2.35,2.658c0.217,0 0.395,-0.672 0.395,-1.494Zm-2.824,-13.616c2.026,-2.128 2.051,-2.189 0.875,-2.189c-2.11,0 -2.35,-0.953 -0.85,-3.364c1.159,-1.861 1.254,-2.25 0.672,-2.733c-1.006,-0.835 -0.824,-1.383 0.458,-1.383c2.489,0 3.453,2.695 1.436,4.017c-1.684,1.103 -1.442,1.541 0.692,1.254c1.511,-0.202 1.924,-0.089 2.188,0.601c0.198,0.516 0.099,0.927 -0.252,1.044c-0.318,0.106 -1.481,0.882 -2.584,1.724c-1.104,0.842 -2.617,1.91 -3.363,2.374c-1.086,0.675 -0.94,0.406 0.728,-1.345Z" style="fill:#fe9090;fill-rule:nonzero;"/><path id="path5027" d="M8.342,52.714c0.129,-0.707 1.691,-11.04 3.47,-22.961c1.779,-11.922 3.298,-21.736 3.377,-21.809c0.301,-0.28 12.933,-3.503 13.761,-3.511c1.596,-0.016 13.817,3.427 13.997,3.943c0.197,0.564 6.748,44.398 6.748,45.15c0,0.313 -7.048,0.474 -20.794,0.474l-20.793,0l0.234,-1.286Zm40.016,0.129c0.122,-0.122 -1.204,-9.748 -2.947,-21.39c-1.743,-11.642 -3.175,-21.507 -3.183,-21.921c-0.01,-0.574 -1.605,-1.17 -6.683,-2.499l-6.67,-1.744l-6.29,1.704c-3.459,0.937 -6.373,1.788 -6.475,1.89c-0.182,0.182 -6.594,42.453 -6.613,43.598c-0.008,0.458 4.161,0.584 19.315,0.584c10.628,0 19.424,-0.1 19.546,-0.222Zm-21.545,-8.545c-1.842,-0.936 -2.41,-1.986 -1.074,-1.986c0.496,0 1.25,-0.385 1.675,-0.855c0.725,-0.801 0.697,-0.924 -0.456,-1.987c-2.409,-2.221 -3.163,-5.599 -1.663,-7.451c0.747,-0.923 0.964,-0.973 1.84,-0.426c0.547,0.342 1.204,1.052 1.46,1.579c0.356,0.734 0.472,0.172 0.497,-2.404c0.017,-1.849 -0.177,-3.491 -0.431,-3.648c-0.254,-0.157 -1.944,0.595 -3.755,1.671c-1.812,1.077 -3.407,1.844 -3.545,1.706c-0.455,-0.455 0.903,-2.123 1.533,-1.881c0.339,0.13 1.392,-0.445 2.34,-1.277c3.627,-3.185 8.105,-4.188 10.042,-2.251l1.011,1.01l-1.062,0.86c-0.585,0.473 -1.486,0.86 -2.003,0.86c-0.794,0 -0.848,-0.112 -0.342,-0.721c0.839,-1.011 -0.035,-1.747 -1.607,-1.353c-1.12,0.282 -1.184,0.4 -0.586,1.078c0.578,0.657 0.583,1.306 0.034,4.704c-0.351,2.167 -0.462,4.166 -0.248,4.441c0.214,0.275 0.513,1.158 0.665,1.961c0.215,1.137 0.042,1.68 -0.783,2.454c-0.582,0.547 -1.282,0.995 -1.555,0.995c-0.274,0 -0.764,0.321 -1.089,0.713c-0.523,0.63 -0.286,0.677 2.037,0.404c2.194,-0.258 2.678,-0.182 2.925,0.462c0.787,2.052 -2.832,2.881 -5.86,1.342l0,0Zm2.31,-5.852c0,-1.531 -1.96,-5.018 -2.822,-5.018c-0.62,0 -0.568,2.64 0.077,3.888c0.695,1.345 1.856,2.658 2.35,2.658c0.217,0 0.395,-0.688 0.395,-1.528Zm-2.547,-13.783l1.804,-1.752l-1.376,-0.238c-1.834,-0.318 -1.952,-1.388 -0.409,-3.719c1.203,-1.818 1.225,-1.948 0.425,-2.533c-0.616,-0.45 -0.691,-0.71 -0.279,-0.965c1.054,-0.652 2.822,0.166 3.145,1.455c0.25,0.993 0.069,1.41 -0.928,2.135c-1.726,1.258 -1.544,1.711 0.572,1.427c2.24,-0.3 3.056,0.61 1.526,1.701c-0.567,0.404 -2.019,1.524 -3.226,2.488c-2.831,2.26 -3.581,2.261 -1.254,0.001l0,0Z" style="fill:#fe7070;fill-rule:nonzero;"/><path id="path5025" d="M8.395,52.948c0.099,-0.579 1.649,-10.924 3.444,-22.99c1.795,-12.065 3.315,-21.972 3.378,-22.014c0.063,-0.042 3.165,-0.885 6.893,-1.873l6.78,-1.796l6.779,1.756c3.728,0.965 6.909,1.897 7.068,2.07c0.159,0.173 1.69,9.789 3.402,21.369c1.713,11.58 3.241,21.836 3.396,22.792l0.282,1.738l-20.801,0l-20.802,0l0.181,-1.052Zm40.217,-0.935c-0.137,-0.579 -1.653,-10.52 -3.368,-22.091c-1.715,-11.572 -3.157,-21.081 -3.206,-21.132c-0.048,-0.051 -2.921,-0.869 -6.384,-1.817l-6.297,-1.725l-6.21,1.566c-3.416,0.861 -6.453,1.715 -6.749,1.898c-0.443,0.274 -6.85,40.713 -6.897,43.535c-0.013,0.766 1.23,0.818 19.673,0.818l19.687,0l-0.249,-1.052Zm-21.71,-7.819c-2.059,-0.935 -2.625,-1.882 -1.124,-1.882c0.475,0 1.211,-0.385 1.636,-0.855c0.724,-0.8 0.701,-0.922 -0.369,-1.926c-2.489,-2.338 -3.247,-5.664 -1.721,-7.548l0.876,-1.082l2.923,2.923l0,-3.47c0,-2.465 -0.169,-3.471 -0.584,-3.471c-0.322,0 -1.952,0.842 -3.624,1.87c-1.671,1.028 -3.192,1.87 -3.379,1.87c-0.187,0 -0.109,-0.509 0.175,-1.132c0.298,-0.654 0.782,-1.029 1.148,-0.889c0.347,0.134 1.503,-0.503 2.568,-1.414c2.018,-1.728 5.322,-3.11 7.432,-3.11c0.677,0 1.71,0.447 2.297,0.993c0.888,0.827 0.961,1.094 0.438,1.605c-0.344,0.337 -1.258,0.767 -2.029,0.955c-1.284,0.313 -1.347,0.274 -0.745,-0.457c0.889,-1.078 0.032,-1.909 -1.557,-1.511c-1.038,0.261 -1.127,0.421 -0.656,1.177c0.416,0.666 0.417,1.789 0.005,4.708c-0.363,2.561 -0.389,4.119 -0.081,4.696c0.759,1.418 0.533,3.461 -0.478,4.327c-0.517,0.443 -1.123,0.806 -1.345,0.806c-0.223,0 -0.684,0.336 -1.025,0.746c-0.56,0.675 -0.367,0.716 1.99,0.421c2.865,-0.358 3.567,0.061 2.728,1.628c-0.653,1.222 -2.837,1.23 -5.499,0.022Zm2.221,-5.915c0,-1.549 -1.913,-4.851 -2.81,-4.851c-1.275,0 -0.632,3.353 1.095,5.709c1.149,1.568 1.715,1.284 1.715,-0.858Zm-2.164,-13.72l1.342,-1.622l-1.459,-0.378c-1.791,-0.464 -1.831,-1.212 -0.193,-3.686c1.166,-1.763 1.203,-1.958 0.474,-2.491c-0.877,-0.642 -0.6,-1.187 0.603,-1.187c0.955,0 2.332,1.439 2.332,2.437c0,0.4 -0.526,1.072 -1.168,1.494c-1.709,1.119 -1.435,1.634 0.818,1.534c2.574,-0.115 2.556,0.583 -0.069,2.566c-3.939,2.976 -4.109,3.061 -2.68,1.333Z" style="fill:#fe5050;fill-rule:nonzero;"/><path id="path5023" d="M8.552,53.053c0,-1.869 6.567,-44.612 6.903,-44.931c0.189,-0.179 3.319,-1.106 6.957,-2.059l6.613,-1.733l6.848,1.809c5.647,1.492 6.886,1.973 7.066,2.744c0.119,0.514 1.587,10.192 3.261,21.507c1.675,11.314 3.169,21.255 3.322,22.091l0.277,1.519l-20.624,0c-20.396,0 -20.623,-0.01 -20.623,-0.947Zm39.987,-1.508c-0.145,-0.835 -1.633,-10.768 -3.307,-22.071c-1.675,-11.304 -3.242,-20.675 -3.483,-20.824c-0.241,-0.149 -3.236,-0.984 -6.655,-1.856l-6.217,-1.586l-5.972,1.565c-3.285,0.861 -6.249,1.792 -6.588,2.071c-0.394,0.324 -1.732,8.065 -3.725,21.546c-1.71,11.571 -3.109,21.407 -3.107,21.857c0.002,0.766 1.25,0.818 19.659,0.818l19.658,0l-0.263,-1.52Zm-20.378,-6.871c-2.821,-0.856 -4.34,-2.362 -2.383,-2.362c0.475,0 1.211,-0.385 1.636,-0.855c0.724,-0.8 0.7,-0.922 -0.384,-1.94c-0.636,-0.598 -1.504,-1.998 -1.929,-3.111c-1.428,-3.738 0.843,-6.426 3.053,-3.616l0.969,1.232l0,-3.569c0,-2.451 -0.174,-3.57 -0.557,-3.57c-0.306,0 -1.974,0.842 -3.705,1.87c-3.602,2.14 -3.91,2.229 -3.211,0.922c0.279,-0.521 0.712,-0.822 0.962,-0.667c0.25,0.155 1.481,-0.577 2.735,-1.627c3.567,-2.987 7.24,-4.006 9.283,-2.575c1.366,0.957 1.314,1.801 -0.152,2.469c-1.704,0.777 -2.276,0.67 -1.353,-0.253c0.749,-0.749 0.739,-0.821 -0.171,-1.227c-0.531,-0.237 -1.531,-0.289 -2.222,-0.116c-1.166,0.293 -1.196,0.36 -0.417,0.929c0.773,0.565 0.794,0.928 0.273,4.65c-0.394,2.823 -0.418,4.31 -0.079,4.943c0.761,1.423 0.57,3.22 -0.451,4.24c-0.514,0.515 -1.119,0.936 -1.345,0.936c-0.226,0 -0.689,0.336 -1.03,0.746c-0.56,0.675 -0.363,0.715 2.047,0.414c2.623,-0.328 2.666,-0.314 2.666,0.84c0,1.658 -1.516,2.122 -4.235,1.297Zm0.962,-6.237c0,-1.548 -0.316,-2.374 -1.389,-3.624c-1.165,-1.358 -1.467,-1.505 -1.875,-0.917c-0.267,0.386 -0.365,1.227 -0.218,1.87c0.335,1.47 2.407,4.675 3.021,4.675c0.254,0 0.461,-0.902 0.461,-2.004Zm1.403,0.107c0,-0.242 -0.211,-0.44 -0.468,-0.44c-0.257,0 -0.467,0.328 -0.467,0.729c0,0.401 0.21,0.599 0.467,0.44c0.257,-0.159 0.468,-0.487 0.468,-0.729Zm-3.515,-13.922c1.165,-1.273 1.28,-1.596 0.701,-1.962c-0.381,-0.241 -1.061,-0.441 -1.511,-0.445c-1.118,-0.01 -1.031,-0.647 0.432,-3.143c1.159,-1.977 1.192,-2.177 0.454,-2.717c-1.145,-0.837 0.145,-1.256 1.614,-0.524c1.698,0.846 1.657,2.079 -0.119,3.604l-1.563,1.342l2.338,-0.103c1.472,-0.065 2.338,0.091 2.338,0.42c0,0.437 -1.988,2.119 -5.377,4.549c-0.386,0.277 -0.074,-0.183 0.693,-1.021Z" style="fill:#fe2f2f;fill-rule:nonzero;"/><path id="path5021" d="M8.552,53.056c0,-1.462 6.671,-44.687 6.933,-44.92c0.172,-0.154 3.279,-1.061 6.903,-2.017l6.589,-1.737l6.67,1.755c5.332,1.404 6.749,1.949 7.069,2.718c0.221,0.53 1.776,10.325 3.457,21.768c1.681,11.443 3.165,21.279 3.298,21.858l0.242,1.051l-20.581,0c-13.653,0 -20.58,-0.16 -20.58,-0.476Zm40.2,-0.342c-0.029,-1.322 -6.528,-43.744 -6.733,-43.948c-0.142,-0.142 -3.131,-1.028 -6.642,-1.97l-6.384,-1.711l-6.534,1.758c-3.594,0.967 -6.582,1.822 -6.641,1.899c-0.058,0.078 -0.988,6.137 -2.067,13.466c-1.079,7.328 -2.552,17.269 -3.274,22.091l-1.312,8.766l19.798,0c10.888,0 19.793,-0.158 19.789,-0.351Zm-20.503,-8.065c-0.867,-0.205 -1.99,-0.786 -2.495,-1.291c-0.913,-0.913 -0.897,-0.918 2.741,-0.852c3.16,0.058 3.682,0.185 3.826,0.932c0.296,1.534 -1.032,1.929 -4.072,1.211Zm-1.394,-5.381c-1.865,-2.476 -2.518,-4.854 -1.754,-6.386c0.815,-1.635 2.028,-1.618 2.972,0.041c0.449,0.789 0.922,1.436 1.05,1.437c0.198,0.003 0.227,-3.83 0.051,-6.659c-0.068,-1.09 -1.367,-1.03 -3.09,0.143c-0.771,0.526 -2.205,1.377 -3.185,1.892l-1.783,0.937l0.521,-0.973c0.286,-0.535 0.724,-0.847 0.973,-0.693c0.249,0.154 1.524,-0.573 2.833,-1.616c1.309,-1.042 3.481,-2.242 4.825,-2.666c2.125,-0.67 2.622,-0.685 3.8,-0.121c1.773,0.85 1.953,1.968 0.428,2.663c-1.591,0.725 -1.866,0.695 -1.182,-0.13c1.091,-1.314 -0.841,-2.195 -2.997,-1.368c-0.688,0.264 -0.686,0.339 0.021,0.856c0.696,0.509 0.717,0.973 0.206,4.573c-0.414,2.914 -0.43,4.266 -0.06,4.958c0.784,1.465 0.607,3.253 -0.426,4.286c-0.514,0.514 -1.093,0.928 -1.285,0.92c-0.193,-0.008 -1.056,-0.95 -1.918,-2.094l0,0Zm2.268,-0.707c0,-1.826 -1.926,-5.6 -2.858,-5.6c-0.74,0 -0.991,2.349 -0.403,3.768c0.709,1.712 2.233,3.712 2.828,3.712c0.238,0 0.433,-0.846 0.433,-1.88Zm1.403,0.244c0,-0.386 -0.211,-0.701 -0.468,-0.701c-0.257,0 -0.467,0.315 -0.467,0.701c0,0.386 0.21,0.701 0.467,0.701c0.257,0 0.468,-0.315 0.468,-0.701Zm-3.572,-14.123c1.471,-1.611 1.321,-2.474 -0.43,-2.474c-1.449,0 -1.442,-0.744 0.028,-2.906c1.386,-2.04 1.437,-2.502 0.35,-3.135c-0.679,-0.395 -0.562,-0.479 0.685,-0.491c1.06,-0.01 1.659,0.277 2.031,0.971c0.452,0.846 0.306,1.219 -1.036,2.634l-1.563,1.648l1.781,-0.271c1.843,-0.28 3.128,-0.026 3.128,0.618c0,0.205 -0.683,0.804 -1.519,1.333c-0.836,0.529 -2.256,1.541 -3.156,2.249l-1.636,1.287l1.337,-1.463l0,0Z" style="fill:#fe0505;fill-rule:nonzero;"/></g></svg>