<?xml version="1.0" encoding="UTF-8" standalone="no"?><!DOCTYPE svg PUBLIC "-//W3C//DTD SVG 1.1//EN" "http://www.w3.org/Graphics/SVG/1.1/DTD/svg11.dtd"><svg width="100%" height="100%" viewBox="0 0 39 39" version="1.1" xmlns="http://www.w3.org/2000/svg" xmlns:xlink="http://www.w3.org/1999/xlink" xml:space="preserve" xmlns:serif="http://www.serif.com/" style="fill-rule:evenodd;clip-rule:evenodd;stroke-miterlimit:2;"><g id="g5555"><g id="path5045"><path d="M12.337,8.084l-3.837,24.686l22,-0.191l-3.837,-24.303l-6.971,-2.046l-7.355,1.854Z" style="fill:none;fill-rule:nonzero;stroke:#f00;stroke-width:2px;"/><path d="M12.337,8.084l-3.837,24.686l22,-0.191l-3.837,-24.303l-6.971,-2.046l-7.355,1.854Z" style="fill:#fff;fill-rule:nonzero;"/></g><path id="path5027" d="M18.296,27.665c-0.998,-0.507 -1.306,-1.076 -0.582,-1.076c0.269,0 0.677,-0.208 0.907,-0.463c0.393,-0.433 0.378,-0.5 -0.247,-1.076c-1.304,-1.203 -1.713,-3.033 -0.9,-4.036c0.404,-0.5 0.522,-0.527 0.996,-0.231c0.297,0.186 0.652,0.57 0.791,0.856c0.193,0.397 0.256,0.093 0.269,-1.302c0.01,-1.002 -0.096,-1.891 -0.233,-1.976c-0.138,-0.085 -1.053,0.322 -2.034,0.905c-0.982,0.583 -1.845,0.999 -1.92,0.924c-0.247,-0.247 0.489,-1.15 0.83,-1.019c0.184,0.07 0.754,-0.241 1.268,-0.692c1.964,-1.725 4.39,-2.268 5.439,-1.219l0.548,0.547l-0.576,0.466c-0.317,0.256 -0.805,0.466 -1.085,0.466c-0.43,0 -0.459,-0.061 -0.185,-0.391c0.455,-0.547 -0.019,-0.946 -0.87,-0.733c-0.607,0.153 -0.642,0.217 -0.318,0.584c0.313,0.356 0.316,0.708 0.019,2.548c-0.19,1.174 -0.251,2.257 -0.135,2.406c0.116,0.149 0.278,0.627 0.361,1.062c0.116,0.616 0.022,0.91 -0.425,1.329c-0.315,0.296 -0.694,0.539 -0.842,0.539c-0.148,0 -0.414,0.174 -0.59,0.386c-0.283,0.341 -0.155,0.367 1.104,0.219c1.188,-0.14 1.45,-0.099 1.584,0.25c0.426,1.112 -1.534,1.561 -3.174,0.727Zm1.251,-3.17c0,-0.829 -1.062,-2.718 -1.528,-2.718c-0.336,0 -0.308,1.43 0.041,2.106c0.377,0.729 1.006,1.44 1.273,1.44c0.118,0 0.214,-0.373 0.214,-0.828Zm-1.379,-7.465l0.977,-0.949l-0.746,-0.129c-0.993,-0.172 -1.057,-0.752 -0.221,-2.015c0.651,-0.984 0.663,-1.055 0.23,-1.372c-0.334,-0.243 -0.374,-0.384 -0.151,-0.522c0.571,-0.353 1.528,0.09 1.703,0.788c0.136,0.538 0.038,0.764 -0.502,1.156c-0.935,0.682 -0.837,0.927 0.31,0.773c1.213,-0.162 1.655,0.331 0.826,0.922c-0.307,0.218 -1.093,0.825 -1.747,1.347c-1.534,1.224 -1.94,1.225 -0.679,0.001Z" style="fill:#f00;fill-rule:nonzero;"/></g></svg>