<?xml version="1.0" encoding="UTF-8" standalone="no"?><!DOCTYPE svg PUBLIC "-//W3C//DTD SVG 1.1//EN" "http://www.w3.org/Graphics/SVG/1.1/DTD/svg11.dtd"><svg width="100%" height="100%" viewBox="0 0 39 39" version="1.1" xmlns="http://www.w3.org/2000/svg" xmlns:xlink="http://www.w3.org/1999/xlink" xml:space="preserve" xmlns:serif="http://www.serif.com/" style="fill-rule:evenodd;clip-rule:evenodd;stroke-linejoin:round;stroke-miterlimit:2;"><g id="g6723"><path id="path6213" d="M12.652,8.968l-3.652,23.282l21,-0.13l-3.457,-23.218l-6.978,-2.152l-6.913,2.218Z" style="fill:#fff;fill-rule:nonzero;"/><path id="path6195" d="M19.824,26.802c-1.699,-0.859 -2.398,-2.034 -2.269,-3.814c0.056,-0.782 0.274,-1.769 0.483,-2.195c0.326,-0.666 0.329,-0.921 0.027,-1.808c-0.285,-0.837 -0.293,-1.311 -0.042,-2.495c0.266,-1.254 0.251,-1.581 -0.109,-2.302c-0.588,-1.178 -0.26,-1.304 0.673,-0.26c0.787,0.881 0.789,0.89 0.628,3.158l-0.162,2.275l0.837,-0.51c1.082,-0.66 1.74,-0.66 1.74,0c0,0.33 -0.343,0.686 -0.969,1.007c-1.639,0.841 -2.259,1.7 -2.259,3.13c0,1.506 0.688,2.381 2.296,2.917c0.746,0.249 1.061,0.499 1.061,0.845c0,0.707 -0.608,0.723 -1.935,0.052Z" style="fill:#f00;fill-rule:nonzero;"/></g></svg>