<?xml version="1.0" encoding="UTF-8" standalone="no"?><!DOCTYPE svg PUBLIC "-//W3C//DTD SVG 1.1//EN" "http://www.w3.org/Graphics/SVG/1.1/DTD/svg11.dtd"><svg width="100%" height="100%" viewBox="0 0 58 58" version="1.1" xmlns="http://www.w3.org/2000/svg" xmlns:xlink="http://www.w3.org/1999/xlink" xml:space="preserve" xmlns:serif="http://www.serif.com/" style="fill-rule:evenodd;clip-rule:evenodd;stroke-linejoin:round;stroke-miterlimit:1.41421;"><g id="g6723"><path id="path6213" d="M15.711,8.672l-7.022,44.765l40.377,-0.25l-6.646,-44.641l-13.417,-4.138l-13.292,4.264Z" style="fill:#fff;fill-rule:nonzero;"/><path id="path6201" d="M8.14,53.379c-0.008,-0.792 6.572,-45.258 6.727,-45.458c0.063,-0.082 3.269,-0.998 7.124,-2.035l7.009,-1.886l7.009,1.886c3.855,1.037 7.061,1.953 7.124,2.035c0.155,0.2 6.735,44.666 6.727,45.458c-0.004,0.487 -4.511,0.621 -20.86,0.621c-16.349,0 -20.856,-0.134 -20.86,-0.621Zm39.991,-1.986c-0.139,-0.614 -1.616,-10.39 -3.284,-21.723c-1.667,-11.333 -3.066,-20.638 -3.108,-20.676c-0.304,-0.277 -11.908,-3.158 -12.718,-3.158c-0.562,0 -3.662,0.697 -6.889,1.549l-5.867,1.548l-3.105,20.92c-1.707,11.506 -3.214,21.311 -3.348,21.788c-0.229,0.817 0.919,0.869 19.164,0.869l19.408,0l-0.253,-1.117Zm-19.276,-8.361c-2.667,-1.408 -3.823,-3.54 -3.825,-7.056c-0.001,-1.678 0.331,-3.524 0.796,-4.423c0.685,-1.325 0.707,-1.82 0.159,-3.482c-0.48,-1.455 -0.515,-2.689 -0.141,-4.953c0.427,-2.58 0.369,-3.269 -0.4,-4.777c-1.109,-2.177 -0.812,-2.565 0.957,-1.252c2.027,1.504 2.773,4.233 2.141,7.831c-0.285,1.621 -0.429,3.035 -0.321,3.143c0.108,0.108 0.761,-0.174 1.452,-0.626c1.485,-0.973 3.476,-0.821 3.686,0.282c0.095,0.5 -0.745,1.265 -2.343,2.135c-3.163,1.721 -4.002,2.941 -4.002,5.818c0,2.864 1.352,4.758 3.713,5.201c1.845,0.346 3.525,1.835 3.009,2.669c-0.508,0.823 -2.811,0.582 -4.881,-0.51Z" style="fill:#fecfcf;fill-rule:nonzero;"/><path id="path6199" d="M8.271,52.386c0.141,-0.887 1.674,-11.198 3.407,-22.913l3.151,-21.3l1.5,-0.598c0.824,-0.329 4.013,-1.24 7.085,-2.025l5.586,-1.427l5.586,1.427c3.072,0.785 6.261,1.696 7.085,2.025l1.5,0.598l3.151,21.3c1.733,11.715 3.266,22.026 3.407,22.913l0.255,1.614l-20.984,0l-20.984,0l0.255,-1.614Zm39.896,-1.241c-0.153,-0.751 -1.627,-10.512 -3.277,-21.692c-1.65,-11.179 -3.063,-20.389 -3.14,-20.466c-0.076,-0.077 -2.981,-0.895 -6.455,-1.819l-6.315,-1.68l-6.321,1.71c-3.476,0.94 -6.356,1.744 -6.399,1.787c-0.043,0.044 -1.445,9.24 -3.115,20.437c-1.671,11.196 -3.162,20.972 -3.313,21.723l-0.276,1.365l38.888,0l-0.277,-1.365Zm-19.031,-8.115c-1.154,-0.571 -2.55,-1.77 -3.103,-2.665c-1.228,-1.987 -1.339,-5.955 -0.242,-8.582c0.636,-1.521 0.664,-2.216 0.172,-4.136c-0.453,-1.77 -0.456,-2.846 -0.012,-4.611c0.479,-1.9 0.448,-2.62 -0.178,-4.117c-0.916,-2.192 -0.681,-2.556 0.958,-1.483c1.75,1.147 2.394,3.925 1.736,7.486c-0.291,1.573 -0.421,2.967 -0.289,3.098c0.132,0.132 0.804,-0.131 1.495,-0.583c1.377,-0.902 3.355,-0.845 3.669,0.106c0.109,0.332 -1.04,1.396 -2.554,2.365c-3.253,2.081 -3.774,2.905 -3.774,5.974c0,1.886 0.264,2.569 1.451,3.757c0.799,0.798 1.866,1.451 2.372,1.451c0.507,0 1.428,0.355 2.048,0.79c0.895,0.626 1.008,0.934 0.547,1.489c-0.798,0.961 -1.835,0.879 -4.296,-0.339l0,0Z" style="fill:#feb0b0;fill-rule:nonzero;"/><path id="path6197" d="M8.398,51.89c4.512,-30.432 6.553,-43.59 6.798,-43.836c0.167,-0.166 3.285,-1.102 6.93,-2.078l6.626,-1.776l6.595,1.668c3.628,0.918 6.854,1.828 7.17,2.023c0.479,0.296 2.073,10.196 7.085,43.999l0.313,2.11l-20.915,0l-20.915,0l0.313,-2.11Zm39.964,0.745c-0.009,-1.071 -6.429,-43.466 -6.611,-43.647c-0.117,-0.117 -3.034,-0.965 -6.482,-1.884l-6.269,-1.671l-6.269,1.671c-3.448,0.919 -6.345,1.747 -6.438,1.839c-0.153,0.154 -6.654,42.822 -6.657,43.692c0,0.204 8.713,0.372 19.364,0.372c10.651,0 19.363,-0.168 19.362,-0.372Zm-18.626,-9.248c-0.825,-0.364 -2.249,-1.516 -3.164,-2.559c-1.614,-1.838 -1.658,-2.001 -1.424,-5.276c0.133,-1.859 0.567,-3.868 0.963,-4.465c0.631,-0.951 0.628,-1.344 -0.029,-3.169c-0.64,-1.782 -0.655,-2.477 -0.099,-4.795c0.575,-2.397 0.553,-2.9 -0.189,-4.335c-0.98,-1.896 -0.774,-2.351 0.66,-1.455c1.692,1.056 2.222,3.077 1.878,7.149c-0.172,2.034 -0.148,3.691 0.054,3.682c0.201,-0.008 0.799,-0.343 1.33,-0.744c1.26,-0.954 3.072,-0.932 3.446,0.042c0.201,0.523 -0.209,1.042 -1.275,1.613c-0.864,0.464 -2.357,1.54 -3.318,2.392c-1.572,1.395 -1.746,1.806 -1.746,4.114c0,3.026 1.219,4.577 4.411,5.614c1.439,0.466 1.987,0.918 1.987,1.635c0,1.232 -1.439,1.462 -3.485,0.557l0,0Z" style="fill:#fe8e8e;fill-rule:nonzero;"/><path id="path6195" d="M8.421,52.138c0.158,-1.024 1.694,-11.309 3.414,-22.856c1.72,-11.546 3.243,-21.109 3.384,-21.251c0.142,-0.141 3.3,-1.055 7.019,-2.03l6.762,-1.772l6.762,1.772c3.719,0.975 6.877,1.889 7.019,2.03c0.141,0.142 1.664,9.705 3.384,21.251c1.72,11.547 3.256,21.832 3.414,22.856l0.287,1.862l-20.866,0l-20.866,0l0.287,-1.862Zm39.943,0.248c-0.001,-1.35 -6.365,-43.15 -6.605,-43.391c-0.142,-0.141 -3.07,-1.02 -6.508,-1.953l-6.251,-1.697l-6.251,1.697c-3.438,0.933 -6.354,1.8 -6.481,1.927c-0.224,0.223 -6.63,42.165 -6.632,43.417c-0.001,0.486 4.203,0.621 19.364,0.621c15.161,0 19.365,-0.135 19.364,-0.621Zm-18.863,-9.423c-3.267,-1.652 -4.611,-3.912 -4.364,-7.335c0.109,-1.502 0.527,-3.401 0.929,-4.22c0.627,-1.279 0.634,-1.771 0.053,-3.476c-0.548,-1.609 -0.563,-2.52 -0.081,-4.797c0.511,-2.411 0.482,-3.04 -0.209,-4.425c-1.131,-2.266 -0.501,-2.509 1.294,-0.5c1.513,1.693 1.516,1.711 1.207,6.071l-0.311,4.374l1.608,-0.98c2.081,-1.27 3.345,-1.27 3.345,-0.001c0,0.635 -0.659,1.32 -1.862,1.937c-3.152,1.617 -4.344,3.268 -4.344,6.017c0,2.897 1.323,4.579 4.414,5.609c1.436,0.479 2.041,0.96 2.041,1.625c0,1.36 -1.17,1.391 -3.72,0.101l0,0Z" style="fill:#fe7070;fill-rule:nonzero;"/><path id="path6193" d="M8.352,52.635c0.157,-0.751 1.622,-10.415 3.256,-21.476c1.634,-11.06 3.092,-20.804 3.239,-21.652c0.266,-1.529 0.333,-1.561 7.211,-3.373l6.942,-1.828l6.942,1.828c6.878,1.812 6.945,1.844 7.211,3.373c0.147,0.848 1.605,10.592 3.239,21.652c1.634,11.061 3.099,20.725 3.256,21.476l0.285,1.365l-20.933,0l-20.933,0l0.285,-1.365Zm40.013,-0.358c0,-1.642 -6.026,-41.799 -6.41,-42.717c-0.325,-0.778 -1.799,-1.344 -6.809,-2.615l-6.394,-1.622l-6.202,1.67c-5.87,1.581 -6.223,1.748 -6.587,3.112c-0.419,1.566 -6.328,40.935 -6.328,42.156c0,0.651 2.473,0.746 19.365,0.746c16.711,0 19.365,-0.1 19.365,-0.73Zm-18.839,-9.314c-3.271,-1.673 -4.255,-3.304 -4.225,-7c0.015,-1.875 0.35,-3.677 0.861,-4.639c0.765,-1.441 0.77,-1.728 0.06,-3.428c-0.66,-1.579 -0.685,-2.308 -0.171,-4.896c0.527,-2.65 0.498,-3.248 -0.222,-4.641c-0.997,-1.928 -0.425,-2.074 1.222,-0.312c1.112,1.188 1.198,1.643 1.122,5.917l-0.082,4.63l1.7,-1.003c0.935,-0.552 2.033,-0.875 2.441,-0.719c1.395,0.535 0.739,1.743 -1.653,3.046c-3.758,2.045 -5.046,5.346 -3.359,8.608c0.699,1.351 1.535,1.904 4.658,3.08c1.057,0.398 1.583,0.898 1.484,1.41c-0.233,1.207 -1.405,1.191 -3.836,-0.053Z" style="fill:#fe4e4e;fill-rule:nonzero;"/><path id="path6191" d="M8.383,52.883c0.141,-0.615 1.715,-10.935 3.497,-22.935c1.781,-11.999 3.29,-21.862 3.352,-21.918c0.062,-0.056 3.186,-0.907 6.941,-1.892l6.827,-1.79l6.827,1.79c3.755,0.985 6.879,1.836 6.941,1.892c0.062,0.056 1.571,9.919 3.352,21.918c1.782,12 3.356,22.32 3.497,22.935l0.256,1.117l-20.873,0l-20.873,0l0.256,-1.117Zm39.99,-0.745c0.024,-2.417 -6.19,-42.657 -6.66,-43.136c-0.301,-0.307 -3.279,-1.279 -6.617,-2.16l-6.069,-1.601l-6.287,1.661c-4.887,1.292 -6.378,1.883 -6.697,2.657c-0.423,1.021 -6.408,40.682 -6.408,42.459c0,0.971 0.359,0.989 19.365,0.989c18.108,0 19.365,-0.056 19.373,-0.869Zm-19.92,-9.692c-2.514,-1.68 -3.545,-4.011 -3.196,-7.233c0.157,-1.457 0.613,-3.282 1.013,-4.056c0.641,-1.239 0.638,-1.619 -0.024,-3.205c-0.635,-1.519 -0.658,-2.257 -0.143,-4.747c0.536,-2.596 0.504,-3.166 -0.264,-4.777l-0.872,-1.83l1.147,0.755c2.042,1.344 2.456,2.763 2.115,7.243l-0.314,4.113l2.014,-1.05c1.107,-0.577 2.245,-0.906 2.528,-0.731c1.079,0.666 0.428,1.639 -1.972,2.945c-2.724,1.482 -3.969,3.32 -3.966,5.855c0.003,2.239 1.635,4.765 3.335,5.16c1.715,0.398 3.615,1.554 3.615,2.2c0,0.912 -3.327,0.486 -5.016,-0.642l0,0Z" style="fill:#fe2f2f;fill-rule:nonzero;"/><path id="path6189" d="M8.642,52.726c0,-0.817 6.496,-44.626 6.627,-44.695c0.042,-0.023 3.149,-0.841 6.904,-1.82l6.827,-1.779l6.827,1.779c3.755,0.979 6.862,1.798 6.904,1.82c0.131,0.069 6.627,43.878 6.627,44.695c0,0.693 -2.216,0.777 -20.358,0.777c-18.142,0 -20.358,-0.084 -20.358,-0.777Zm39.927,-1.085c-0.146,-0.751 -1.652,-10.729 -3.346,-22.173l-3.079,-20.808l-6.448,-1.725l-6.448,-1.725l-6.599,1.674c-5.453,1.383 -6.64,1.847 -6.829,2.671c-0.126,0.549 -1.566,10.048 -3.2,21.108c-1.633,11.06 -3.054,20.612 -3.157,21.227l-0.187,1.117l39.56,0l-0.267,-1.366Zm-19.898,-9.091c-2.47,-1.582 -3.367,-3.315 -3.325,-6.425c0.021,-1.502 0.401,-3.589 0.846,-4.638c0.527,-1.242 0.655,-2.194 0.369,-2.731c-0.653,-1.225 -0.746,-2.982 -0.324,-6.092c0.295,-2.179 0.198,-3.134 -0.446,-4.379c-0.817,-1.58 -0.815,-1.588 0.242,-1.022c1.838,0.984 2.586,3.634 2.197,7.783l-0.344,3.678l2.079,-1.084c1.632,-0.85 2.205,-0.953 2.667,-0.477c0.631,0.651 0.367,0.918 -3.128,3.163c-2.32,1.49 -3.071,3.061 -2.832,5.928c0.23,2.759 1.241,4.073 3.754,4.882c3.307,1.065 4.118,2.442 1.429,2.428c-0.887,-0.004 -2.321,-0.461 -3.184,-1.014Z" style="fill:#fe0505;fill-rule:nonzero;"/></g></svg>