<?xml version="1.0" encoding="UTF-8" standalone="no"?><!DOCTYPE svg PUBLIC "-//W3C//DTD SVG 1.1//EN" "http://www.w3.org/Graphics/SVG/1.1/DTD/svg11.dtd"><svg width="100%" height="100%" viewBox="0 0 39 39" version="1.1" xmlns="http://www.w3.org/2000/svg" xmlns:xlink="http://www.w3.org/1999/xlink" xml:space="preserve" xmlns:serif="http://www.serif.com/" style="fill-rule:evenodd;clip-rule:evenodd;stroke-miterlimit:2;"><g id="g3804"><g id="path3034"><path d="M6.5,35.4l4.161,-29.452l8.575,-2.356l8.851,2.507l4.413,29.309l-26,-0.008Z" style="fill:none;fill-rule:nonzero;stroke:#d00813;stroke-width:1.6px;"/><path d="M6.5,35.4l4.161,-29.452l8.575,-2.356l8.851,2.507l4.413,29.309l-26,-0.008Z" style="fill:#fff;fill-rule:nonzero;"/></g><g id="path3004"><path d="M16.308,32.485c-1.485,-0.867 -1.623,-1.365 -0.321,-1.153c1.146,0.186 1.23,0.03 0.44,-0.818c-0.669,-0.719 -0.722,-1.9 -0.135,-3.035c0.442,-0.856 0.91,-1.052 2.803,-1.179c1.084,-0.072 1.126,-0.112 1.212,-1.152c0.083,-1.013 0.049,-1.066 -0.562,-0.877c-0.358,0.11 -0.991,0.374 -1.408,0.586c-1.297,0.66 -3.033,0.312 -3.033,-0.607c0,-0.296 0.334,-0.413 1.193,-0.415c0.657,-0.003 1.745,-0.196 2.418,-0.431c2.039,-0.71 3.064,0.092 2.736,2.14c-0.097,0.606 -0.049,1.144 0.111,1.243c0.854,0.528 -0.748,2.918 -2.637,3.936c-1.198,0.644 -1.334,1.124 -0.241,0.851c1.9,-0.475 2.491,-0.48 2.87,-0.023c0.674,0.812 -0.265,1.382 -2.449,1.486c-1.572,0.075 -2.083,-0.019 -2.997,-0.552Zm2.629,-3.558c0.459,-0.908 0.756,-1.729 0.659,-1.825c-0.268,-0.269 -1.105,-0.207 -1.861,0.137c-1.597,0.728 -1.479,3.141 0.162,3.317c0.114,0.012 0.582,-0.721 1.04,-1.629Zm2.826,-6.683c-1.612,-0.324 -2.097,-1.826 -1.4,-4.334c0.211,-0.76 0.183,-1.247 -0.109,-1.942l-0.39,-0.928l-1.026,1.546c-0.645,0.971 -1.111,2.081 -1.254,2.984c-0.255,1.616 -0.695,2.303 -1.472,2.303c-0.643,0 -0.693,-0.938 -0.106,-1.966c0.567,-0.992 0.523,-1.123 -0.373,-1.123c-0.931,0 -1.777,0.818 -2.394,2.317c-0.499,1.211 -1.024,1.384 -1.024,0.337c0,-0.864 0.587,-2.062 1.881,-3.841l0.965,-1.327l-1.022,0.426c-1.149,0.481 -1.798,0.366 -2.532,-0.447c-0.494,-0.544 -0.479,-0.554 0.798,-0.554c0.716,0 2.138,-0.315 3.162,-0.7c1.023,-0.385 1.974,-0.631 2.113,-0.546c0.452,0.28 0.265,0.663 -0.524,1.071c-0.426,0.22 -1.202,0.995 -1.724,1.723c-0.796,1.108 -0.85,1.269 -0.335,0.994c0.338,-0.182 0.953,-0.291 1.365,-0.242c0.656,0.076 0.939,-0.191 2.278,-2.16l1.53,-2.246l0.126,-2.891c0.107,-2.418 0.051,-2.974 -0.339,-3.405c-0.384,-0.425 -0.397,-0.541 -0.072,-0.665c0.216,-0.083 0.695,0.003 1.065,0.191c0.587,0.3 0.665,0.52 0.616,1.745l-0.056,1.401l1.179,0.408c1.618,0.56 1.579,1.275 -0.133,2.374c-1.554,0.996 -1.895,1.913 -1.207,3.243c0.431,0.835 0.431,0.982 -0.002,2.115c-0.255,0.669 -0.425,1.633 -0.376,2.142c0.087,0.902 0.123,0.926 1.55,1.008c0.943,0.055 1.772,-0.076 2.338,-0.369c0.83,-0.429 0.867,-0.517 0.682,-1.615l-0.196,-1.161l1.043,1.106c1.157,1.227 1.11,1.605 -0.303,2.429c-0.872,0.509 -3.177,0.828 -4.322,0.599Zm0.833,-10.904c0.005,-0.156 -0.231,-0.434 -0.524,-0.617c-0.455,-0.284 -0.557,-0.242 -0.698,0.284c-0.091,0.339 -0.167,0.844 -0.169,1.121c-0.004,0.485 0.022,0.485 0.689,0c0.381,-0.277 0.698,-0.632 0.702,-0.788Zm0.29,6.632c0.886,-0.783 0.934,-0.898 0.491,-1.165c-0.585,-0.354 -0.613,-0.997 -0.083,-1.953c0.28,-0.507 0.304,-0.803 0.086,-1.066c-0.479,-0.577 0.145,-1.029 0.879,-0.636c0.692,0.37 0.762,1.089 0.18,1.858c-0.581,0.767 -0.539,0.874 0.412,1.064c0.613,0.123 0.843,0.328 0.843,0.753c0,0.572 -1.21,1.283 -3.089,1.815c-0.635,0.18 -0.608,0.115 0.281,-0.67Zm-8.074,-3.584c0.663,-0.759 0.633,-0.836 -0.421,-1.084c-0.9,-0.212 -0.893,-0.218 0.492,-0.427c0.772,-0.117 1.612,-0.297 1.866,-0.401c1.014,-0.413 0.741,0.425 -0.386,1.188c-1.833,1.242 -2.121,1.376 -1.551,0.724Zm0.211,-2.005c0,-0.124 0.139,-0.365 0.309,-0.534c0.224,-0.225 0.076,-0.36 -0.543,-0.496c-0.467,-0.103 -0.983,-0.346 -1.143,-0.54c-0.229,-0.275 0.001,-0.36 1.033,-0.384c0.73,-0.017 1.643,-0.071 2.029,-0.121c1.057,-0.134 0.853,0.464 -0.492,1.437c-0.656,0.476 -1.193,0.763 -1.193,0.638Zm1.024,-3.752c0.674,-0.703 0.736,-0.895 0.44,-1.37c-0.295,-0.471 -0.272,-0.552 0.156,-0.552c0.66,0 1.749,0.775 1.749,1.245c0,0.577 -0.745,1.059 -1.99,1.287l-1.138,0.208l0.783,-0.818Z" style="fill:none;fill-rule:nonzero;stroke:#d00813;stroke-width:0.1px;"/><path d="M16.308,32.485c-1.485,-0.867 -1.623,-1.365 -0.321,-1.153c1.146,0.186 1.23,0.03 0.44,-0.818c-0.669,-0.719 -0.722,-1.9 -0.135,-3.035c0.442,-0.856 0.91,-1.052 2.803,-1.179c1.084,-0.072 1.126,-0.112 1.212,-1.152c0.083,-1.013 0.049,-1.066 -0.562,-0.877c-0.358,0.11 -0.991,0.374 -1.408,0.586c-1.297,0.66 -3.033,0.312 -3.033,-0.607c0,-0.296 0.334,-0.413 1.193,-0.415c0.657,-0.003 1.745,-0.196 2.418,-0.431c2.039,-0.71 3.064,0.092 2.736,2.14c-0.097,0.606 -0.049,1.144 0.111,1.243c0.854,0.528 -0.748,2.918 -2.637,3.936c-1.198,0.644 -1.334,1.124 -0.241,0.851c1.9,-0.475 2.491,-0.48 2.87,-0.023c0.674,0.812 -0.265,1.382 -2.449,1.486c-1.572,0.075 -2.083,-0.019 -2.997,-0.552Zm2.629,-3.558c0.459,-0.908 0.756,-1.729 0.659,-1.825c-0.268,-0.269 -1.105,-0.207 -1.861,0.137c-1.597,0.728 -1.479,3.141 0.162,3.317c0.114,0.012 0.582,-0.721 1.04,-1.629Zm2.826,-6.683c-1.612,-0.324 -2.097,-1.826 -1.4,-4.334c0.211,-0.76 0.183,-1.247 -0.109,-1.942l-0.39,-0.928l-1.026,1.546c-0.645,0.971 -1.111,2.081 -1.254,2.984c-0.255,1.616 -0.695,2.303 -1.472,2.303c-0.643,0 -0.693,-0.938 -0.106,-1.966c0.567,-0.992 0.523,-1.123 -0.373,-1.123c-0.931,0 -1.777,0.818 -2.394,2.317c-0.499,1.211 -1.024,1.384 -1.024,0.337c0,-0.864 0.587,-2.062 1.881,-3.841l0.965,-1.327l-1.022,0.426c-1.149,0.481 -1.798,0.366 -2.532,-0.447c-0.494,-0.544 -0.479,-0.554 0.798,-0.554c0.716,0 2.138,-0.315 3.162,-0.7c1.023,-0.385 1.974,-0.631 2.113,-0.546c0.452,0.28 0.265,0.663 -0.524,1.071c-0.426,0.22 -1.202,0.995 -1.724,1.723c-0.796,1.108 -0.85,1.269 -0.335,0.994c0.338,-0.182 0.953,-0.291 1.365,-0.242c0.656,0.076 0.939,-0.191 2.278,-2.16l1.53,-2.246l0.126,-2.891c0.107,-2.418 0.051,-2.974 -0.339,-3.405c-0.384,-0.425 -0.397,-0.541 -0.072,-0.665c0.216,-0.083 0.695,0.003 1.065,0.191c0.587,0.3 0.665,0.52 0.616,1.745l-0.056,1.401l1.179,0.408c1.618,0.56 1.579,1.275 -0.133,2.374c-1.554,0.996 -1.895,1.913 -1.207,3.243c0.431,0.835 0.431,0.982 -0.002,2.115c-0.255,0.669 -0.425,1.633 -0.376,2.142c0.087,0.902 0.123,0.926 1.55,1.008c0.943,0.055 1.772,-0.076 2.338,-0.369c0.83,-0.429 0.867,-0.517 0.682,-1.615l-0.196,-1.161l1.043,1.106c1.157,1.227 1.11,1.605 -0.303,2.429c-0.872,0.509 -3.177,0.828 -4.322,0.599Zm0.833,-10.904c0.005,-0.156 -0.231,-0.434 -0.524,-0.617c-0.455,-0.284 -0.557,-0.242 -0.698,0.284c-0.091,0.339 -0.167,0.844 -0.169,1.121c-0.004,0.485 0.022,0.485 0.689,0c0.381,-0.277 0.698,-0.632 0.702,-0.788Zm0.29,6.632c0.886,-0.783 0.934,-0.898 0.491,-1.165c-0.585,-0.354 -0.613,-0.997 -0.083,-1.953c0.28,-0.507 0.304,-0.803 0.086,-1.066c-0.479,-0.577 0.145,-1.029 0.879,-0.636c0.692,0.37 0.762,1.089 0.18,1.858c-0.581,0.767 -0.539,0.874 0.412,1.064c0.613,0.123 0.843,0.328 0.843,0.753c0,0.572 -1.21,1.283 -3.089,1.815c-0.635,0.18 -0.608,0.115 0.281,-0.67Zm-8.074,-3.584c0.663,-0.759 0.633,-0.836 -0.421,-1.084c-0.9,-0.212 -0.893,-0.218 0.492,-0.427c0.772,-0.117 1.612,-0.297 1.866,-0.401c1.014,-0.413 0.741,0.425 -0.386,1.188c-1.833,1.242 -2.121,1.376 -1.551,0.724Zm0.211,-2.005c0,-0.124 0.139,-0.365 0.309,-0.534c0.224,-0.225 0.076,-0.36 -0.543,-0.496c-0.467,-0.103 -0.983,-0.346 -1.143,-0.54c-0.229,-0.275 0.001,-0.36 1.033,-0.384c0.73,-0.017 1.643,-0.071 2.029,-0.121c1.057,-0.134 0.853,0.464 -0.492,1.437c-0.656,0.476 -1.193,0.763 -1.193,0.638Zm1.024,-3.752c0.674,-0.703 0.736,-0.895 0.44,-1.37c-0.295,-0.471 -0.272,-0.552 0.156,-0.552c0.66,0 1.749,0.775 1.749,1.245c0,0.577 -0.745,1.059 -1.99,1.287l-1.138,0.208l0.783,-0.818Z" style="fill:#d00813;fill-rule:nonzero;"/></g></g></svg>