<?xml version="1.0" encoding="UTF-8" standalone="no"?><!DOCTYPE svg PUBLIC "-//W3C//DTD SVG 1.1//EN" "http://www.w3.org/Graphics/SVG/1.1/DTD/svg11.dtd"><svg width="100%" height="100%" viewBox="0 0 58 58" version="1.1" xmlns="http://www.w3.org/2000/svg" xmlns:xlink="http://www.w3.org/1999/xlink" xml:space="preserve" xmlns:serif="http://www.serif.com/" style="fill-rule:evenodd;clip-rule:evenodd;stroke-linejoin:round;stroke-miterlimit:1.41421;"><g id="g3804"><path id="path3034" d="M9.429,53.399l6.395,-45.018l13.178,-3.621l13.601,3.853l6.782,45.042l-39.956,-0.256Z" style="fill:#fff;fill-rule:nonzero;"/><path id="path3010" d="M8.057,53.029c0.12,-0.534 1.702,-10.875 3.515,-22.98c1.813,-12.105 3.354,-22.075 3.425,-22.156c0.07,-0.08 3.259,-0.99 7.085,-2.02l6.957,-1.873l6.915,1.87c3.803,1.028 6.98,1.937 7.061,2.02c0.081,0.083 1.624,10.054 3.429,22.159c1.805,12.105 3.38,22.446 3.5,22.98l0.218,0.971l-21.162,0l-21.162,0l0.219,-0.971Zm40.361,-0.647c-0.005,-0.797 -6.412,-43.347 -6.548,-43.483c-0.084,-0.084 -3.009,-0.894 -6.499,-1.8l-6.348,-1.648l-6.377,1.657c-3.507,0.911 -6.427,1.705 -6.488,1.765c-0.108,0.107 -6.572,42.871 -6.576,43.509c-0.001,0.178 8.737,0.323 19.418,0.323c10.681,0 19.419,-0.145 19.418,-0.323Zm-21.954,-2.245c-1.624,-0.408 -3.565,-1.711 -3.858,-2.589c-0.141,-0.422 0.102,-0.501 0.917,-0.296c1.309,0.328 1.855,-0.265 0.941,-1.024c-1.043,-0.865 -0.827,-4.048 0.368,-5.438c0.847,-0.984 1.354,-1.174 3.129,-1.168c2.242,0.007 2.748,-0.344 2.759,-1.913c0.007,-1.136 -0.952,-1.256 -2.583,-0.323c-1.607,0.918 -4.033,0.811 -4.965,-0.219c-0.995,-1.099 -0.719,-1.354 1.591,-1.471c1.025,-0.053 2.773,-0.362 3.885,-0.687c1.61,-0.472 2.256,-0.486 3.168,-0.07c1.064,0.484 1.136,0.687 0.999,2.82c-0.096,1.502 0.058,2.545 0.444,3.01c0.504,0.608 0.48,0.881 -0.168,1.869c-0.952,1.453 -2.63,3.044 -4.307,4.083c-1.217,0.754 -1.234,0.803 -0.295,0.804c0.55,0.001 1.399,-0.212 1.889,-0.474c1.141,-0.611 2.937,0.138 2.937,1.226c0,1.594 -3.8,2.626 -6.851,1.86l0,0Zm1.919,-6.553c0.854,-1.687 0.994,-2.297 0.582,-2.552c-0.563,-0.348 -2.341,0.171 -3.295,0.963c-0.698,0.579 -0.72,2.603 -0.036,3.288c0.949,0.949 1.616,0.537 2.749,-1.699l0,0Zm2.539,-10.926c-1.199,-1.199 -1.293,-2.153 -0.511,-5.212c0.395,-1.548 0.424,-2.519 0.103,-3.494l-0.445,-1.35l-1.371,1.998c-1.646,2.396 -2.287,3.993 -2.287,5.693c0,2.007 -2.548,3.984 -3.142,2.438c-0.117,-0.306 0.07,-1.393 0.416,-2.416c0.346,-1.022 0.515,-1.973 0.377,-2.111c-0.138,-0.138 -0.908,0.061 -1.709,0.444c-1.074,0.512 -1.657,1.215 -2.211,2.667c-0.739,1.932 -1.733,2.557 -2.187,1.374c-0.319,-0.832 0.844,-3.448 2.65,-5.962c1.109,-1.544 1.292,-1.996 0.672,-1.665c-1.394,0.746 -2.941,0.523 -4.228,-0.609l-1.211,-1.065l2.025,-0.014c1.114,-0.008 3.393,-0.521 5.066,-1.141c2.899,-1.075 4.345,-1.139 4.345,-0.192c0,0.239 -0.562,0.724 -1.248,1.079c-0.687,0.355 -1.87,1.43 -2.629,2.389l-1.381,1.744l1.175,-0.447c0.647,-0.246 1.494,-0.346 1.883,-0.223c0.501,0.16 1.113,-0.432 2.107,-2.038c0.771,-1.245 1.787,-2.749 2.257,-3.342c1.22,-1.537 1.791,-10.072 0.702,-10.49c-1.114,-0.428 -0.865,-1.594 0.34,-1.594c1.686,0 2.479,1.14 2.342,3.367c-0.118,1.92 -0.092,1.962 1.579,2.541c0.934,0.323 1.865,0.754 2.068,0.957c0.577,0.577 -0.498,1.936 -2.564,3.243c-1.625,1.028 -1.884,1.395 -1.884,2.668c0,0.812 0.23,1.846 0.511,2.296c0.407,0.652 0.347,1.363 -0.296,3.486c-0.586,1.936 -0.685,2.864 -0.36,3.383c0.583,0.93 2.957,1.119 5.119,0.408l1.715,-0.564l-0.15,-2.082l-0.15,-2.081l1.822,1.977c2.086,2.262 1.989,2.646 -1.046,4.115c-1.243,0.601 -2.688,0.884 -4.516,0.884c-2.279,0 -2.85,-0.161 -3.748,-1.059Zm2.771,-16.484c-0.79,-0.951 -1.241,-0.668 -1.241,0.78c0,1.333 0.018,1.345 0.862,0.582c0.657,-0.595 0.747,-0.918 0.379,-1.362l0,0Zm-0.797,11.999c0.006,-0.155 0.678,-0.767 1.491,-1.36c1.293,-0.943 1.394,-1.144 0.799,-1.597c-0.498,-0.378 -0.604,-0.899 -0.395,-1.941c0.374,-1.867 0.419,-2.584 0.208,-3.357c-0.238,-0.875 1.347,-1.061 2.411,-0.283c0.823,0.602 0.826,0.675 0.105,2.189c-0.931,1.951 -0.93,1.968 0.101,1.968c0.942,0 1.844,1.306 1.387,2.008c-0.589,0.908 -6.136,3.062 -6.107,2.373l0,0Zm-11.254,-6.732l0.992,-1.055l-1.456,-0.636c-1.354,-0.59 -1.38,-0.638 -0.377,-0.684c0.609,-0.027 1.416,-0.512 1.854,-1.114c0.767,-1.053 0.763,-1.065 -0.276,-1.065c-0.578,0 -1.51,-0.382 -2.07,-0.849l-1.019,-0.848l1.942,-0.019c1.068,-0.011 2.67,-0.14 3.56,-0.287c1.448,-0.239 1.619,-0.17 1.619,0.652c0,0.506 -0.215,0.92 -0.477,0.92c-0.263,0 -1.084,0.51 -1.824,1.133l-1.347,1.133l1.824,-0.308c2.687,-0.454 2.386,0.593 -0.723,2.511c-2.976,1.837 -3.599,1.982 -2.222,0.516l0,0Zm2.172,-8.844c1.486,-1.232 1.494,-1.256 0.688,-2.146c-0.448,-0.495 -0.639,-0.923 -0.424,-0.95c1.817,-0.231 3.627,0.915 3.627,2.296c0,0.942 -2.312,2.076 -4.193,2.058l-1.201,-0.012l1.503,-1.246Z" style="fill:#fecfcf;fill-rule:nonzero;"/><path id="path3008" d="M8.735,49.145c0.412,-2.67 1.968,-13.011 3.459,-22.98c1.491,-9.968 2.735,-18.166 2.765,-18.216c0.03,-0.051 3.21,-0.948 7.065,-1.995l7.011,-1.903l6.952,1.88c3.824,1.034 6.994,1.932 7.045,1.995c0.051,0.063 1.498,9.533 3.217,21.044c1.718,11.512 3.269,21.853 3.446,22.98l0.322,2.05l-21.016,0l-21.015,0l0.749,-4.855Zm39.666,2.805c-0.034,-1.387 -6.295,-42.815 -6.502,-43.022c-0.113,-0.113 -3.061,-0.974 -6.552,-1.913l-6.347,-1.709l-6.347,1.709c-3.491,0.939 -6.423,1.784 -6.515,1.876c-0.171,0.171 -6.552,42.292 -6.556,43.275c-0.001,0.424 4.169,0.539 19.418,0.539c18.214,0 19.418,-0.047 19.401,-0.755Zm-21.464,-1.872c-1.858,-0.355 -4.41,-1.842 -4.41,-2.57c0,-0.215 0.582,-0.275 1.294,-0.132c1.427,0.285 1.593,-0.066 0.634,-1.334c-1.022,-1.351 -0.806,-3.992 0.426,-5.224c0.838,-0.838 1.503,-1.059 3.19,-1.059c2.204,0 2.655,-0.373 2.655,-2.193c0,-0.987 -1.049,-1.061 -2.589,-0.18c-1.546,0.883 -4.033,0.811 -4.896,-0.142c-1.069,-1.182 -0.899,-1.369 1.242,-1.369c1.075,0 2.653,-0.291 3.505,-0.647c3.376,-1.411 5.162,-0.286 4.79,3.017c-0.122,1.077 -0.05,2.065 0.158,2.194c1.316,0.813 -1.596,4.957 -4.485,6.381l-1.393,0.687l1.215,0.01c0.668,0.005 1.578,-0.184 2.022,-0.422c1.121,-0.6 3.02,0.175 3.02,1.232c0,1.396 -3.38,2.325 -6.378,1.751l0,0Zm1.505,-6.223c0.536,-0.947 0.979,-2.087 0.982,-2.532c0.006,-0.68 -0.212,-0.765 -1.367,-0.534c-0.755,0.151 -1.726,0.594 -2.157,0.984c-1.421,1.286 -0.726,4.246 0.922,3.929c0.354,-0.069 1.083,-0.9 1.62,-1.847l0,0Zm3.097,-10.786c-1.474,-0.801 -1.778,-2.466 -1.033,-5.652c0.37,-1.581 0.443,-2.702 0.192,-2.956c-0.222,-0.226 -0.403,-0.799 -0.403,-1.273c0,-1.128 -0.437,-0.658 -2.345,2.52c-0.924,1.539 -1.539,3.126 -1.539,3.968c0,0.849 -0.399,1.867 -1.008,2.576c-1.736,2.018 -2.729,0.217 -1.351,-2.448c0.6,-1.16 0.598,-1.306 -0.027,-1.545c-1.238,-0.475 -2.814,0.65 -3.693,2.638c-0.927,2.094 -1.55,2.701 -2.154,2.096c-0.628,-0.628 0.262,-2.974 2.214,-5.833c1.275,-1.868 1.565,-2.538 0.995,-2.305c-1.722,0.707 -2.259,0.713 -3.557,0.042c-1.893,-0.979 -1.672,-1.537 0.61,-1.537c1.114,0 3.058,-0.464 4.518,-1.079c1.41,-0.593 2.861,-1.078 3.224,-1.078c1.053,0 0.787,1.6 -0.313,1.876c-0.535,0.135 -1.715,1.239 -2.622,2.453c-1.347,1.805 -1.469,2.113 -0.663,1.682c0.542,-0.29 1.529,-0.512 2.194,-0.493c0.906,0.026 1.365,-0.269 1.834,-1.174c0.343,-0.665 1.338,-2.143 2.209,-3.285c1.551,-2.031 1.589,-2.175 1.806,-6.736c0.192,-4.052 0.128,-4.697 -0.487,-4.933c-0.95,-0.364 -0.905,-1.474 0.059,-1.474c0.421,0 1.214,0.314 1.761,0.696c0.835,0.585 0.971,1.009 0.851,2.657c-0.138,1.893 -0.092,1.977 1.339,2.461c2.923,0.989 2.77,2.325 -0.505,4.392c-1.373,0.867 -1.624,1.259 -1.624,2.536c0,0.831 0.235,1.888 0.523,2.349c0.422,0.676 0.38,1.24 -0.218,2.907c-0.871,2.432 -0.932,3.643 -0.219,4.356c0.709,0.709 3.507,0.651 5.33,-0.111c1.466,-0.612 1.497,-0.675 1.219,-2.481l-0.285,-1.853l1.68,1.712c1.825,1.858 1.879,2.222 0.479,3.231c-2.393,1.724 -6.84,2.267 -8.991,1.098l0,0Zm1.922,-17.122c-0.859,-0.95 -0.822,-0.985 -1.146,1.107l-0.259,1.677l1.061,-0.997c0.995,-0.935 1.016,-1.045 0.344,-1.787l0,0Zm1.081,10.985c1.322,-1.138 1.382,-1.292 0.719,-1.843c-0.531,-0.44 -0.647,-0.953 -0.436,-1.92c0.158,-0.725 0.286,-1.95 0.283,-2.722c-0.006,-1.657 1.063,-1.914 2.297,-0.55c0.719,0.794 0.723,0.925 0.067,1.927c-0.945,1.442 -0.888,1.882 0.267,2.046c0.711,0.101 0.971,0.426 0.971,1.216c0,1.148 -1.701,2.257 -4.316,2.812l-1.294,0.275l1.442,-1.241Zm-12.986,-5.116c1.172,-0.868 1.27,-1.908 0.18,-1.908c-1.952,0 -1.175,-0.678 1.302,-1.136c4.512,-0.835 4.395,0.211 -0.295,2.644c-1.187,0.615 -1.721,0.796 -1.187,0.4Zm1.135,-4.009c0.694,-0.767 0.671,-0.818 -0.473,-1.052c-0.661,-0.135 -1.59,-0.546 -2.065,-0.913c-0.813,-0.629 -0.737,-0.669 1.295,-0.683c1.187,-0.009 2.721,-0.06 3.41,-0.115c1.907,-0.151 1.779,0.672 -0.343,2.195c-2.143,1.539 -2.923,1.782 -1.824,0.568Zm1.13,-5.15c1.216,-1.053 1.406,-1.417 0.971,-1.862c-0.756,-0.777 -0.671,-1.244 0.228,-1.244c1.155,0 2.685,1.235 2.685,2.167c0,1.017 -1.047,1.605 -3.506,1.969l-1.888,0.28l1.51,-1.31Z" style="fill:#feb0b0;fill-rule:nonzero;"/><path id="path3006" d="M8.271,53.461c-0.035,-1.274 6.65,-45.022 6.929,-45.342c0.417,-0.478 12.448,-3.732 13.8,-3.732c1.34,0 13.371,3.249 13.821,3.732c0.305,0.329 6.895,43.463 6.894,45.126c-0.001,0.709 -1.275,0.755 -20.715,0.755c-16.276,0 -20.717,-0.116 -20.729,-0.539Zm40.161,-1.295c0.031,-1.297 -6.229,-42.867 -6.503,-43.186c-0.168,-0.196 -3.145,-1.104 -6.617,-2.018l-6.312,-1.663l-6.292,1.657c-3.461,0.912 -6.407,1.772 -6.547,1.912c-0.267,0.267 -6.534,41.194 -6.563,42.866l-0.018,0.971l19.42,0c15.241,0 19.422,-0.116 19.432,-0.539l0,0Zm-23.93,-3.028c-2.039,-1.161 -2.602,-2.217 -0.963,-1.805c1.628,0.408 2.121,-0.125 1.079,-1.167c-0.727,-0.728 -0.856,-1.264 -0.679,-2.834c0.291,-2.587 1.114,-3.303 4.101,-3.569l2.47,-0.22l0.137,-1.656c0.128,-1.556 0.075,-1.638 -0.863,-1.348c-0.55,0.17 -1.524,0.575 -2.165,0.901c-1.529,0.777 -2.949,0.75 -4.133,-0.079c-1.436,-1.006 -1.166,-1.486 0.837,-1.486c0.988,0 2.819,-0.322 4.07,-0.717c2.144,-0.675 2.339,-0.673 3.437,0.046c1.071,0.702 1.144,0.929 0.915,2.863c-0.137,1.155 -0.065,2.213 0.161,2.353c1.35,0.834 -1.652,5.131 -4.372,6.258c-1.64,0.679 -1.032,1.501 0.64,0.865c1.694,-0.644 3.086,-0.552 3.751,0.249c0.496,0.597 0.435,0.813 -0.427,1.51c-1.483,1.201 -5.752,1.114 -7.996,-0.164Zm3.94,-5.283c0.536,-0.947 0.979,-2.087 0.982,-2.532c0.006,-0.68 -0.212,-0.765 -1.367,-0.534c-2.55,0.51 -3.803,2.479 -2.636,4.144c0.898,1.283 1.883,0.931 3.021,-1.078Zm3.831,-10.588c-0.691,-0.207 -1.417,-0.627 -1.611,-0.934c-0.499,-0.786 -0.452,-4.285 0.078,-5.806c0.329,-0.945 0.295,-1.634 -0.134,-2.654l-0.579,-1.377l-0.888,1.2c-1.51,2.042 -2.728,4.75 -2.728,6.062c0,0.69 -0.396,1.757 -0.879,2.371c-1.645,2.091 -2.9,0.163 -1.495,-2.296c0.847,-1.482 0.8,-1.726 -0.335,-1.726c-1.508,0 -2.892,1.202 -3.786,3.287c-0.902,2.103 -1.705,2.476 -1.705,0.792c0,-1.313 0.877,-3.125 2.87,-5.93l1.469,-2.067l-1.285,0.665c-1.752,0.906 -2.374,0.84 -3.785,-0.401l-1.211,-1.065l1.999,-0.014c1.099,-0.008 3.288,-0.499 4.865,-1.093c1.576,-0.593 3.056,-1.078 3.288,-1.078c0.894,0 0.364,1.302 -0.77,1.888c-0.655,0.339 -1.847,1.53 -2.65,2.648c-1.154,1.606 -1.272,1.932 -0.564,1.553c0.493,-0.264 1.476,-0.479 2.184,-0.479c1.027,0 1.485,-0.328 2.264,-1.619c0.537,-0.89 1.556,-2.367 2.266,-3.282c1.2,-1.55 1.303,-1.977 1.489,-6.161c0.173,-3.873 0.095,-4.612 -0.563,-5.339c-0.699,-0.772 -0.703,-0.866 -0.054,-1.115c0.391,-0.15 1.218,0.061 1.84,0.468c1.025,0.672 1.108,0.929 0.89,2.768l-0.24,2.028l1.804,0.624c2.481,0.858 2.414,1.959 -0.223,3.644c-1.822,1.164 -2.029,1.461 -2.05,2.941c-0.013,0.906 0.185,2.036 0.439,2.511c0.345,0.645 0.291,1.367 -0.216,2.853c-0.869,2.552 -0.867,4.261 0.005,4.595c1.188,0.456 3.607,0.285 5.165,-0.366c1.462,-0.611 1.496,-0.681 1.215,-2.44l-0.289,-1.81l1.747,1.684l1.747,1.684l-1.227,1.16c-1.947,1.84 -5.395,2.512 -8.357,1.626l0,0Zm1.242,-17.422c-0.767,-0.565 -0.873,-0.535 -1.128,0.317c-0.154,0.518 -0.3,1.325 -0.323,1.794c-0.039,0.764 0.08,0.731 1.127,-0.317c1.146,-1.146 1.153,-1.183 0.324,-1.794Zm1.095,11.027c1.445,-1.233 1.475,-1.316 0.692,-1.902c-0.633,-0.473 -0.747,-0.895 -0.504,-1.866c0.173,-0.69 0.347,-1.834 0.387,-2.543c0.086,-1.537 1.105,-1.896 2.14,-0.753c0.672,0.743 0.665,0.895 -0.11,2.34l-0.828,1.546l1.3,0.26c2.781,0.556 0.709,3.022 -3.293,3.917l-1.294,0.29l1.51,-1.289Zm-12.455,-5.637c0.807,-0.658 0.884,-0.874 0.372,-1.038c-2.592,-0.826 -2.186,-1.076 2.758,-1.697c1.637,-0.205 1.075,0.805 -1.205,2.169c-2.623,1.569 -3.454,1.813 -1.925,0.566Zm0.372,-2.94c0,-0.205 0.233,-0.605 0.518,-0.89c0.402,-0.403 0.359,-0.518 -0.196,-0.518c-0.927,0 -2.911,-0.907 -2.911,-1.331c0,-0.181 0.825,-0.339 1.834,-0.351c1.008,-0.012 2.397,-0.076 3.086,-0.141c1.919,-0.182 1.775,0.654 -0.38,2.202c-1.073,0.77 -1.951,1.233 -1.951,1.029Zm1.248,-5.59c1.295,-1.111 1.405,-1.365 0.956,-2.205c-0.437,-0.816 -0.398,-0.949 0.274,-0.949c1.05,0 2.7,1.195 2.7,1.956c0,0.855 -1.622,1.809 -3.668,2.159l-1.726,0.295l1.464,-1.256Z" style="fill:#fe8f8f;fill-rule:nonzero;"/><path id="path3004" d="M8.298,53.245c0.02,-1.299 6.713,-44.953 6.924,-45.164c0.33,-0.33 12.845,-3.709 13.737,-3.709c1.136,0 13.52,3.37 13.866,3.774c0.252,0.292 6.901,44.009 6.893,45.315c-0.003,0.424 -4.436,0.539 -20.718,0.539c-19.445,0 -20.713,-0.046 -20.702,-0.755Zm40.179,-0.309c0.154,-0.155 -6.067,-43.716 -6.301,-44.124c-0.03,-0.05 -2.988,-0.88 -6.575,-1.844l-6.521,-1.752l-5.974,1.566c-3.285,0.861 -6.262,1.724 -6.614,1.917c-0.481,0.264 -1.46,5.834 -3.905,22.195c-1.795,12.013 -3.173,21.933 -3.063,22.043c0.262,0.262 38.691,0.261 38.953,-0.001l0,0Zm-23.975,-3.774c-2.282,-1.332 -2.495,-2.097 -0.493,-1.772c1.761,0.286 1.89,0.046 0.676,-1.257c-1.029,-1.104 -1.11,-2.92 -0.208,-4.663c0.68,-1.316 1.398,-1.618 4.307,-1.812c1.667,-0.111 1.731,-0.172 1.863,-1.771c0.128,-1.556 0.075,-1.638 -0.863,-1.348c-0.55,0.17 -1.524,0.575 -2.165,0.901c-1.993,1.014 -4.661,0.479 -4.661,-0.933c0,-0.455 0.514,-0.634 1.834,-0.638c1.009,-0.004 2.681,-0.301 3.716,-0.662c3.133,-1.091 4.709,0.141 4.205,3.289c-0.149,0.931 -0.075,1.758 0.17,1.91c1.312,0.811 -1.149,4.484 -4.053,6.048c-1.841,0.991 -2.049,1.728 -0.369,1.308c2.919,-0.73 3.827,-0.737 4.41,-0.035c1.036,1.248 -0.408,2.124 -3.764,2.284c-2.415,0.115 -3.201,-0.03 -4.605,-0.849l0,0Zm4.04,-5.467c0.705,-1.396 1.161,-2.658 1.013,-2.805c-0.413,-0.413 -1.699,-0.318 -2.861,0.211c-2.453,1.118 -2.272,4.826 0.25,5.097c0.175,0.019 0.894,-1.108 1.598,-2.503Zm4.342,-10.271c-2.477,-0.497 -3.222,-2.805 -2.151,-6.66c0.324,-1.168 0.282,-1.917 -0.167,-2.985l-0.599,-1.425l-1.577,2.376c-0.991,1.491 -1.708,3.198 -1.927,4.585c-0.393,2.483 -1.068,3.539 -2.263,3.539c-0.987,0 -1.065,-1.442 -0.163,-3.021c0.872,-1.524 0.805,-1.726 -0.572,-1.726c-1.431,0 -2.731,1.258 -3.68,3.561c-0.767,1.861 -1.574,2.126 -1.574,0.518c0,-1.328 0.902,-3.169 2.891,-5.903l1.484,-2.04l-1.572,0.656c-1.765,0.738 -2.762,0.562 -3.891,-0.687c-0.758,-0.836 -0.736,-0.852 1.227,-0.852c1.1,0 3.286,-0.484 4.859,-1.076c1.573,-0.592 3.034,-0.969 3.247,-0.838c0.695,0.43 0.408,1.018 -0.805,1.645c-0.655,0.339 -1.847,1.53 -2.65,2.648c-1.222,1.702 -1.306,1.95 -0.514,1.527c0.52,-0.279 1.464,-0.446 2.097,-0.372c1.009,0.118 1.443,-0.293 3.502,-3.318l2.351,-3.452l0.194,-4.443c0.163,-3.716 0.078,-4.571 -0.521,-5.233c-0.591,-0.653 -0.611,-0.831 -0.112,-1.022c0.333,-0.128 1.069,0.005 1.637,0.294c0.903,0.461 1.022,0.799 0.947,2.681l-0.086,2.154l1.812,0.627c2.487,0.86 2.426,1.959 -0.205,3.647c-2.388,1.532 -2.912,2.941 -1.855,4.984c0.663,1.283 0.663,1.51 -0.002,3.25c-0.393,1.029 -0.653,2.51 -0.578,3.292c0.134,1.387 0.189,1.423 2.382,1.55c1.449,0.084 2.723,-0.117 3.593,-0.568c1.275,-0.659 1.332,-0.794 1.047,-2.481l-0.301,-1.785l1.603,1.7c1.779,1.886 1.706,2.467 -0.465,3.733c-1.341,0.782 -4.883,1.273 -6.643,0.92l0,0Zm1.281,-16.757c0.007,-0.239 -0.355,-0.666 -0.805,-0.947c-0.7,-0.437 -0.857,-0.373 -1.073,0.436c-0.14,0.521 -0.257,1.296 -0.26,1.722c-0.006,0.746 0.034,0.746 1.059,0c0.586,-0.426 1.072,-0.971 1.079,-1.211Zm0.445,10.193c1.362,-1.204 1.436,-1.38 0.755,-1.791c-0.899,-0.544 -0.942,-1.532 -0.128,-3.002c0.431,-0.779 0.468,-1.233 0.133,-1.637c-0.737,-0.887 0.223,-1.582 1.351,-0.978c1.063,0.568 1.17,1.673 0.276,2.855c-0.892,1.179 -0.828,1.344 0.634,1.636c0.941,0.188 1.295,0.504 1.295,1.157c0,0.878 -1.86,1.971 -4.747,2.789c-0.976,0.276 -0.934,0.177 0.431,-1.029Zm-12.407,-5.509c1.019,-1.166 0.973,-1.284 -0.647,-1.665c-1.383,-0.326 -1.373,-0.335 0.755,-0.656c1.187,-0.18 2.478,-0.457 2.869,-0.617c1.558,-0.635 1.138,0.653 -0.594,1.826c-2.817,1.908 -3.26,2.114 -2.383,1.112Zm0.324,-3.08c0,-0.192 0.213,-0.562 0.474,-0.822c0.345,-0.345 0.117,-0.553 -0.833,-0.762c-0.719,-0.158 -1.511,-0.531 -1.758,-0.83c-0.351,-0.422 0.002,-0.553 1.588,-0.59c1.122,-0.026 2.525,-0.109 3.118,-0.185c1.625,-0.206 1.311,0.712 -0.755,2.208c-1.009,0.731 -1.834,1.172 -1.834,0.981Zm1.574,-5.766c1.035,-1.081 1.13,-1.376 0.675,-2.106c-0.453,-0.724 -0.418,-0.848 0.24,-0.848c1.015,0 2.689,1.191 2.689,1.913c0,0.887 -1.146,1.628 -3.059,1.978l-1.749,0.32l1.204,-1.257Z" style="fill:#fe6f6f;fill-rule:nonzero;"/><path id="path3002" d="M8.286,53.602c0,-0.546 6.417,-43.122 6.713,-44.536c0.222,-1.063 0.662,-1.248 7.119,-2.987l6.882,-1.854l6.912,1.862c5.877,1.583 6.944,1.998 7.122,2.771c0.257,1.112 6.68,44.104 6.68,44.71c0,0.282 -7.172,0.432 -20.714,0.432c-12.376,0 -20.714,-0.16 -20.714,-0.398Zm40.263,-0.789c0.169,-0.305 -6.155,-43.743 -6.414,-44.056c-0.067,-0.08 -3.046,-0.915 -6.621,-1.855l-6.5,-1.708l-6.527,1.722c-3.59,0.947 -6.57,1.782 -6.621,1.855c-0.246,0.352 -6.567,43.761 -6.413,44.042c0.098,0.178 8.894,0.324 19.547,0.324c10.653,0 19.45,-0.146 19.549,-0.324Zm-23.835,-3.653c-2.413,-1.292 -2.675,-1.948 -0.684,-1.716c1.744,0.204 1.856,-0.021 0.655,-1.311c-1.029,-1.104 -1.11,-2.92 -0.208,-4.663c0.68,-1.316 1.398,-1.618 4.307,-1.812c1.659,-0.11 1.732,-0.178 1.86,-1.733c0.155,-1.874 -0.14,-1.963 -2.507,-0.755c-1.95,0.995 -3.349,1.078 -4.423,0.262c-1.288,-0.977 -0.845,-1.469 1.51,-1.679c1.246,-0.112 2.954,-0.392 3.795,-0.622c2.92,-0.801 4.496,0.902 3.494,3.777c-0.372,1.065 -0.338,1.369 0.171,1.564c0.347,0.133 0.631,0.619 0.631,1.08c0,1.085 -3.907,4.993 -5.355,5.356c-0.615,0.155 -1.118,0.475 -1.118,0.713c0,0.409 0.922,0.337 4.125,-0.326c0.945,-0.196 1.485,-0.073 1.904,0.432c0.997,1.201 -0.4,2.105 -3.542,2.294c-2.22,0.133 -3.044,-0.021 -4.615,-0.861Zm3.955,-5.552c0.649,-1.286 1.183,-2.484 1.187,-2.662c0.012,-0.55 -2.129,-0.357 -3.414,0.307c-1.953,1.01 -2.307,2.703 -0.867,4.143c1.219,1.219 1.724,0.927 3.094,-1.788Zm4.431,-10.214c-2.678,-0.373 -3.496,-2.666 -2.334,-6.544c0.368,-1.227 0.337,-1.904 -0.14,-3.071l-0.611,-1.498l-1.652,2.488c-1.052,1.585 -1.778,3.284 -1.998,4.679c-0.391,2.474 -0.984,3.406 -2.165,3.406c-0.986,0 -1.047,-1.046 -0.16,-2.746c0.899,-1.723 0.819,-2.001 -0.575,-2.001c-1.431,0 -2.731,1.258 -3.68,3.561c-0.792,1.923 -1.574,2.111 -1.574,0.379c0,-0.758 0.835,-2.518 2.149,-4.532c1.182,-1.81 2.047,-3.292 1.921,-3.292c-0.126,0 -0.791,0.291 -1.478,0.646c-1.338,0.693 -2.838,0.401 -3.781,-0.734c-0.423,-0.511 -0.174,-0.615 1.528,-0.641c1.174,-0.018 3.2,-0.522 4.789,-1.191c1.8,-0.758 2.901,-1.013 3.177,-0.736c0.526,0.526 0.054,1.362 -0.768,1.362c-0.663,0 -4.255,4.289 -3.894,4.65c0.121,0.121 0.505,-0.016 0.852,-0.305c0.347,-0.288 1.178,-0.461 1.845,-0.385c1.085,0.125 1.459,-0.222 3.561,-3.313l2.348,-3.452l0.267,-4.316c0.242,-3.91 0.187,-4.406 -0.589,-5.286l-0.857,-0.971l1.355,0c1.7,0 2.415,1.183 2.044,3.383c-0.264,1.562 -0.235,1.604 1.581,2.233c2.555,0.885 2.568,1.775 0.05,3.488c-1.141,0.777 -2.217,1.619 -2.391,1.872c-0.533,0.773 -0.367,2.589 0.328,3.581c0.597,0.853 0.576,1.183 -0.225,3.561c-1.018,3.023 -0.73,4.094 1.22,4.522c1.63,0.358 5.948,-1.072 5.763,-1.909c-0.074,-0.336 -0.245,-1.163 -0.38,-1.838l-0.245,-1.227l1.615,1.615c1.21,1.211 1.514,1.782 1.214,2.279c-0.917,1.516 -5.121,2.699 -8.11,2.283l0,0Zm1.079,-16.757c0,-0.666 -1.475,-1.584 -1.886,-1.173c-0.15,0.15 -0.272,0.924 -0.272,1.721c0,1.446 0.002,1.447 1.079,0.741c0.593,-0.389 1.079,-0.969 1.079,-1.289Zm0.478,10.221c1.322,-1.215 1.39,-1.389 0.708,-1.796c-0.925,-0.551 -0.954,-1.359 -0.109,-2.993c0.407,-0.788 0.487,-1.347 0.216,-1.515c-0.798,-0.493 -0.438,-1.078 0.662,-1.078c1.372,0 1.784,1.005 1.028,2.509c-0.32,0.638 -0.653,1.305 -0.74,1.483c-0.087,0.178 0.208,0.324 0.655,0.324c0.951,0 1.849,0.787 1.849,1.621c0,0.544 -2.303,1.76 -4.701,2.481c-0.91,0.273 -0.859,0.151 0.432,-1.036Zm-12.454,-5.524c1.021,-1.144 0.973,-1.267 -0.647,-1.651c-1.34,-0.318 -1.297,-0.347 0.971,-0.648c1.305,-0.174 2.568,-0.388 2.805,-0.477c0.237,-0.088 0.529,0.009 0.647,0.216c0.119,0.207 -0.852,1.058 -2.158,1.892c-1.36,0.868 -2.051,1.153 -1.618,0.668Zm0.723,-3.761c0.411,-0.495 0.265,-0.661 -0.78,-0.891c-2.303,-0.505 -2.373,-1.296 -0.122,-1.386c1.107,-0.044 2.479,-0.141 3.048,-0.215c1.675,-0.219 1.499,0.722 -0.364,1.955c-1.92,1.271 -2.548,1.46 -1.782,0.537l0,0Zm1.344,-5.235c0.874,-0.931 0.951,-1.226 0.503,-1.942c-0.45,-0.721 -0.414,-0.845 0.243,-0.845c1.032,0 2.689,1.196 2.689,1.942c0,0.885 -1.736,1.942 -3.192,1.942l-1.274,0l1.031,-1.097Z" style="fill:#fe5050;fill-rule:nonzero;"/><path id="path3000" d="M8.469,52.382c0.143,-0.89 1.706,-11.207 3.473,-22.927c1.768,-11.72 3.271,-21.359 3.339,-21.42c0.069,-0.061 3.185,-0.929 6.924,-1.929l6.798,-1.817l6.883,1.831c6.447,1.715 6.897,1.902 7.116,2.955c0.229,1.104 6.712,44.286 6.712,44.709c0,0.119 -9.338,0.216 -20.752,0.216l-20.752,0l0.259,-1.618l0,0Zm40.217,-0.432c-0.128,-0.653 -1.621,-10.605 -3.317,-22.117c-1.696,-11.511 -3.275,-21.049 -3.509,-21.195c-0.233,-0.146 -3.23,-0.995 -6.66,-1.885l-6.235,-1.619l-6.267,1.661c-3.447,0.913 -6.42,1.761 -6.606,1.884c-0.187,0.124 -1.734,9.643 -3.439,21.154c-1.704,11.512 -3.206,21.464 -3.336,22.117l-0.237,1.187l39.84,0l-0.234,-1.187Zm-23.43,-2.529c-0.753,-0.372 -1.67,-1.008 -2.037,-1.413c-0.618,-0.683 -0.557,-0.724 0.831,-0.562c1.75,0.205 1.81,0.037 0.58,-1.627c-2.012,-2.721 0.256,-6.268 3.827,-5.984c1.752,0.139 1.863,0.077 2.317,-1.299c0.73,-2.213 0.048,-2.531 -2.852,-1.328c-2.217,0.918 -2.539,0.953 -3.558,0.378c-1.775,-1.001 -1.807,-1.868 -0.058,-1.61c0.802,0.118 2.21,-0.051 3.13,-0.375c0.92,-0.324 2.332,-0.589 3.138,-0.589c1.903,0 2.68,1.424 1.995,3.657c-0.361,1.175 -0.33,1.597 0.144,1.991c0.331,0.274 0.602,0.69 0.602,0.924c0,0.937 -2.666,3.706 -4.511,4.685c-1.079,0.572 -1.962,1.187 -1.962,1.365c0,0.491 1.703,0.389 3.333,-0.201c2.509,-0.907 4.156,0.841 1.895,2.01c-1.662,0.86 -5.048,0.848 -6.814,-0.022l0,0Zm3.034,-5.023c0.578,-1.009 1.191,-2.299 1.362,-2.868c0.3,-1.004 0.254,-1.027 -1.569,-0.783c-3.036,0.407 -4.352,2.806 -2.535,4.622c1.219,1.22 1.553,1.102 2.742,-0.971Zm5.025,-11.038c-2.562,-0.24 -3.171,-1.15 -2.798,-4.174c0.42,-3.396 0.391,-5.578 -0.085,-6.428c-0.312,-0.557 -0.696,-0.219 -1.999,1.759c-0.887,1.347 -1.709,2.949 -1.827,3.559c-0.604,3.124 -1.293,4.565 -2.245,4.7c-1.15,0.164 -1.279,-0.839 -0.324,-2.511c1.221,-2.135 0.404,-2.95 -1.858,-1.854c-0.917,0.444 -1.658,1.333 -2.307,2.771c-0.58,1.282 -1.113,1.961 -1.353,1.721c-0.671,-0.671 0.076,-2.729 2.052,-5.655c1.041,-1.54 1.826,-2.867 1.745,-2.948c-0.081,-0.08 -0.539,0.063 -1.018,0.32c-1.377,0.737 -3.307,0.552 -4.168,-0.4c-0.771,-0.851 -0.762,-0.862 0.512,-0.607c0.876,0.175 2.507,-0.163 5.028,-1.042c2.072,-0.723 3.841,-1.124 3.977,-0.903c0.338,0.546 -0.161,1.261 -0.88,1.261c-0.326,0 -1.326,0.922 -2.221,2.05c-2.7,3.398 -2.672,3.336 -1.097,2.521c0.789,-0.408 1.879,-0.683 2.423,-0.611c0.81,0.106 1.419,-0.5 3.352,-3.34l2.362,-3.469l0.26,-4.582c0.248,-4.373 0.216,-4.612 -0.685,-5.242l-0.945,-0.66l1.156,-0.023c1.832,-0.035 2.598,1.048 2.274,3.214l-0.277,1.843l1.876,0.625c2.654,0.884 2.595,1.72 -0.255,3.613c-2.064,1.37 -2.401,1.783 -2.401,2.947c0,0.744 0.283,1.757 0.629,2.25c0.559,0.798 0.526,1.211 -0.294,3.734c-1.055,3.244 -0.795,3.986 1.551,4.426c1.465,0.275 5.708,-1.069 5.614,-1.778c-0.029,-0.219 -0.186,-0.98 -0.349,-1.692l-0.297,-1.295l1.59,1.572c0.878,0.868 1.457,1.787 1.293,2.053c-0.867,1.402 -4.95,2.562 -8.011,2.275l0,0Zm0.742,-16.348c0.245,-0.638 -0.861,-1.851 -1.687,-1.851c-0.192,0 -0.349,0.784 -0.349,1.741c0,1.624 0.06,1.71 0.887,1.267c0.488,-0.262 1.005,-0.782 1.149,-1.157Zm1.015,9.553c0.962,-1.024 0.984,-1.144 0.291,-1.532c-0.931,-0.52 -0.952,-1.331 -0.078,-3.02c0.525,-1.017 0.561,-1.44 0.162,-1.92c-0.421,-0.508 -0.309,-0.617 0.634,-0.617c1.502,0 1.871,1.066 0.925,2.668c-0.415,0.702 -0.686,1.32 -0.604,1.375c0.083,0.054 0.684,0.327 1.337,0.608c1.709,0.734 1.469,1.737 -0.648,2.697c-2.607,1.184 -3.292,1.096 -2.019,-0.259Zm-12.653,-5.38c0.815,-0.886 0.668,-1.144 -0.824,-1.442c-1.869,-0.374 -1.506,-0.532 2.011,-0.875c2.595,-0.254 2.929,-0.211 2.373,0.306c-0.928,0.862 -4.206,2.714 -3.56,2.011Zm0.645,-3.514c0.209,-0.548 -0.027,-0.793 -0.964,-0.999c-0.682,-0.149 -1.438,-0.511 -1.68,-0.802c-0.338,-0.407 -0.091,-0.49 1.059,-0.356c0.824,0.096 2.088,-0.069 2.808,-0.367c1.053,-0.437 1.409,-0.435 1.824,0.006c0.401,0.425 0.392,0.593 -0.04,0.75c-0.305,0.112 -1.169,0.719 -1.92,1.349c-0.942,0.79 -1.279,0.92 -1.087,0.419l0,0Zm1.174,-5.272c0.903,-0.984 0.983,-1.286 0.535,-2.003c-0.599,-0.959 -0.183,-1.066 1.378,-0.355c2.234,1.018 1.541,2.816 -1.252,3.249l-1.725,0.267l1.064,-1.158l0,0Z" style="fill:#fe2f2f;fill-rule:nonzero;"/><path id="path2998" d="M8.524,52.382c0.12,-0.653 1.678,-10.89 3.463,-22.749c1.785,-11.86 3.285,-21.585 3.333,-21.613c0.047,-0.027 3.157,-0.867 6.91,-1.865l6.823,-1.814l6.771,1.815c3.723,0.998 6.822,1.85 6.885,1.893c0.063,0.043 1.563,9.768 3.333,21.612c1.77,11.844 3.316,22.068 3.435,22.721l0.216,1.186l-20.693,0l-20.693,0l0.217,-1.186Zm40.327,0.527c0,-1.288 -6.582,-44.062 -6.811,-44.266c-0.17,-0.151 -3.174,-1.011 -6.675,-1.91l-6.365,-1.634l-6.365,1.634c-3.501,0.899 -6.495,1.755 -6.654,1.903c-0.159,0.147 -1.672,9.589 -3.364,20.982c-1.691,11.392 -3.185,21.345 -3.32,22.116l-0.244,1.403l19.899,0c10.944,0 19.899,-0.102 19.899,-0.228Zm-23.574,-3.621c-2.441,-1.108 -2.75,-1.761 -0.834,-1.761c1.79,0 1.889,-0.223 0.571,-1.29c-1.462,-1.185 -1.279,-4.135 0.344,-5.531c1,-0.86 1.54,-1.004 3.103,-0.828c1.705,0.192 1.933,0.108 2.295,-0.844c1.011,-2.661 -0.036,-3.276 -3.118,-1.833c-1.968,0.922 -2.261,0.956 -3.278,0.383c-0.614,-0.347 -1.206,-0.899 -1.315,-1.228c-0.155,-0.468 0.137,-0.535 1.346,-0.308c1.008,0.189 2.093,0.059 3.129,-0.373c0.872,-0.365 2.246,-0.663 3.054,-0.663c1.812,0 2.553,1.423 1.926,3.696c-0.302,1.094 -0.252,1.566 0.208,1.947c0.334,0.278 0.607,0.683 0.607,0.902c0,0.735 -3.905,4.579 -5.195,5.114c-0.703,0.291 -1.278,0.7 -1.278,0.908c0,0.541 1.921,0.469 3.217,-0.121c0.825,-0.377 1.367,-0.379 2.178,-0.01c1.48,0.675 1.352,1.303 -0.418,2.043c-2.024,0.845 -4.396,0.772 -6.542,-0.203l0,0Zm3.389,-5.435c1.544,-2.823 1.512,-3.231 -0.255,-3.231c-2.975,0 -4.763,2.886 -2.998,4.837c1.091,1.205 1.948,0.782 3.253,-1.606Zm2.492,-11.43c-0.957,-0.957 -1.091,-2.473 -0.418,-4.75c0.461,-1.563 0.155,-5.607 -0.425,-5.607c-0.392,0 -3.058,4.016 -3.809,5.738c-0.29,0.664 -0.527,1.696 -0.527,2.294c0,1.557 -0.757,2.756 -1.741,2.756c-1.031,0 -1.05,-0.342 -0.143,-2.608c0.947,-2.366 0.353,-3.029 -1.795,-2.005c-1.103,0.526 -1.763,1.273 -2.363,2.672c-0.818,1.909 -1.726,2.581 -1.726,1.277c0,-0.947 1.618,-4.015 3.131,-5.937c1.381,-1.755 1.364,-2.387 -0.044,-1.633c-1.295,0.693 -2.867,0.567 -3.958,-0.317l-0.967,-0.783l1.474,0.173c0.854,0.099 2.555,-0.227 4.048,-0.778c3.151,-1.162 4.947,-1.513 4.947,-0.968c0,0.227 -0.473,0.627 -1.051,0.891c-1.07,0.487 -4.748,4.793 -4.395,5.145c0.106,0.106 0.694,-0.135 1.306,-0.536c0.687,-0.45 1.513,-0.629 2.159,-0.467c0.905,0.227 1.231,-0.041 2.434,-2.002c0.764,-1.246 1.821,-2.781 2.349,-3.412c0.804,-0.961 1.01,-1.9 1.271,-5.806c0.267,-3.99 0.214,-4.731 -0.37,-5.158c-0.914,-0.669 -0.86,-1.051 0.15,-1.051c1.523,0 2.255,1.205 1.954,3.213l-0.273,1.819l2.002,0.764c1.1,0.421 1.929,0.988 1.842,1.26c-0.088,0.273 -1.165,1.251 -2.395,2.175c-1.979,1.486 -2.234,1.857 -2.222,3.236c0.008,0.857 0.28,1.909 0.606,2.339c0.507,0.669 0.475,1.113 -0.23,3.118c-1.047,2.98 -1.032,3.457 0.138,4.276c1.279,0.896 3.174,0.833 5.4,-0.177c1.707,-0.775 1.81,-0.919 1.558,-2.179l-0.27,-1.349l1.406,1.284c0.849,0.775 1.279,1.489 1.086,1.802c-1.247,2.018 -8.49,2.94 -10.139,1.291Zm2.567,-16.504c-1.421,-1.15 -1.704,-0.94 -1.704,1.265l0,2.022l1.32,-1.264l1.32,-1.265l-0.936,-0.758Zm1.528,10.72l1.289,-1.032l-1.023,-0.829c-1.014,-0.821 -1.017,-0.844 -0.269,-2.421c0.609,-1.281 0.652,-1.717 0.221,-2.236c-0.452,-0.544 -0.357,-0.645 0.61,-0.645c1.504,0 1.871,1.067 0.92,2.677c-0.797,1.348 -0.586,1.884 0.841,2.141c1.707,0.308 1.211,1.494 -1.027,2.457c-2.771,1.192 -3.158,1.165 -1.562,-0.112Zm-12.603,-5.755c0.751,-0.84 0.735,-0.87 -0.647,-1.196c-1.305,-0.307 -1.196,-0.362 1.367,-0.688c1.532,-0.194 2.853,-0.287 2.935,-0.205c0.082,0.082 -0.88,0.78 -2.138,1.55c-1.534,0.939 -2.034,1.117 -1.517,0.539Zm0.88,-3.443c0.145,-0.234 -0.556,-0.685 -1.557,-1.001l-1.82,-0.576l2.158,-0.303c1.187,-0.166 2.425,-0.373 2.751,-0.459c1.17,-0.309 0.905,0.768 -0.432,1.757c-0.75,0.555 -1.245,0.816 -1.1,0.582Zm1.003,-5.11c1.059,-1.059 1.073,-1.137 0.345,-1.942c-0.963,-1.064 -0.003,-1.175 1.437,-0.166c1.881,1.317 0.66,3.212 -2.07,3.212c-0.725,0 -0.693,-0.124 0.288,-1.104Z" style="fill:#fe0303;fill-rule:nonzero;"/></g></svg>