<?xml version="1.0" encoding="UTF-8" standalone="no"?><!DOCTYPE svg PUBLIC "-//W3C//DTD SVG 1.1//EN" "http://www.w3.org/Graphics/SVG/1.1/DTD/svg11.dtd"><svg width="100%" height="100%" viewBox="0 0 58 58" version="1.1" xmlns="http://www.w3.org/2000/svg" xmlns:xlink="http://www.w3.org/1999/xlink" xml:space="preserve" xmlns:serif="http://www.serif.com/" style="fill-rule:evenodd;clip-rule:evenodd;stroke-linejoin:round;stroke-miterlimit:1.41421;"><g id="g3801"><path id="path3031" d="M8.559,52.948l6.86,-44.754l13.381,-3.936l13.606,4.386l7.084,44.641l-40.931,-0.337Z" style="fill:#fff;fill-rule:nonzero;"/><g id="g3022"><path id="path3010" d="M8.072,53.411c0,-1.925 6.783,-45.508 7.114,-45.713c0.222,-0.137 3.421,-1.025 7.109,-1.973l6.705,-1.725l6.705,1.725c3.688,0.948 6.887,1.836 7.109,1.973c0.331,0.205 7.114,43.788 7.114,45.713c0,0.48 -3.867,0.589 -20.928,0.589c-17.061,0 -20.928,-0.109 -20.928,-0.589Zm40.26,-1.526c-0.096,-0.429 -1.582,-10.281 -3.3,-21.895c-1.719,-11.614 -3.174,-21.153 -3.233,-21.199c-0.06,-0.045 -2.964,-0.84 -6.454,-1.767l-6.345,-1.683l-6.345,1.683c-3.49,0.927 -6.393,1.721 -6.453,1.766c-0.059,0.045 -1.511,9.484 -3.227,20.976c-1.716,11.492 -3.225,21.345 -3.352,21.896l-0.232,1.002l19.559,0c18.397,0 19.548,-0.046 19.382,-0.779Zm-16.283,-10.494c0.398,-0.478 0.06,-0.525 -1.838,-0.255c-4.253,0.606 -6.373,0.467 -7.507,-0.494l-1.051,-0.891l1.073,-0.908c0.59,-0.499 1.371,-1.075 1.735,-1.279c0.58,-0.324 0.573,-0.498 -0.062,-1.404c-0.647,-0.924 -0.653,-1.113 -0.051,-1.778c0.608,-0.671 0.564,-0.815 -0.454,-1.482c-1.823,-1.194 -1.374,-1.645 1.321,-1.329c2.295,0.27 2.449,0.228 2.449,-0.664c0,-0.665 -0.277,-0.952 -0.92,-0.952c-1.067,0 -2.642,-0.76 -2.642,-1.275c0,-0.47 7.01,-1.964 7.575,-1.615c0.932,0.576 0.427,1.917 -0.896,2.378c-1.769,0.617 -1.84,1.927 -0.086,1.576c0.829,-0.166 1.441,-0.019 1.819,0.437c0.693,0.835 0.291,1.616 -0.832,1.616c-1.274,0 -2.237,0.48 -2.237,1.116c0,0.364 0.528,0.55 1.447,0.508c1.019,-0.046 1.448,0.133 1.448,0.603c0,0.369 -0.647,0.858 -1.448,1.094c-0.916,0.269 -1.447,0.71 -1.447,1.202c0,0.633 0.474,0.801 2.561,0.91c2.246,0.117 2.577,0.253 2.699,1.109c0.101,0.71 -0.228,1.166 -1.203,1.67c-1.639,0.848 -2.095,0.882 -1.453,0.107Zm-4.901,-3.395l0.151,-1.054l-1.48,0.936c-1.984,1.257 -2.099,1.839 -0.29,1.471c1.095,-0.223 1.506,-0.566 1.619,-1.353Zm0.071,-3.413c0,-0.469 -0.242,-0.622 -0.704,-0.445c-0.388,0.149 -0.889,0.27 -1.114,0.27c-0.224,0 -0.408,0.201 -0.408,0.445c0,0.245 0.501,0.446 1.113,0.446c0.725,0 1.113,-0.249 1.113,-0.716Zm-8.683,-5.207c3.341,-2.806 6.326,-6.095 7.45,-8.209l1.003,-1.886l-0.998,-0.699c-1.299,-0.91 -1.263,-1.456 0.118,-1.803c0.706,-0.177 1.536,-0.005 2.258,0.468c0.94,0.616 1.116,1.036 1,2.383c-0.14,1.626 -0.118,1.648 3.963,4.088c5.506,3.291 6.802,4.472 6.802,6.197c0,1.029 -0.203,1.376 -0.802,1.376c-0.799,0 -4.038,-2.627 -8.397,-6.812l-2.297,-2.205l-3.063,3.062c-2.636,2.635 -7.678,6.004 -8.88,5.933c-0.211,-0.013 0.619,-0.864 1.843,-1.893Z" style="fill:#fecece;fill-rule:nonzero;"/><path id="path3008" d="M8.07,53.666c-0.004,-0.545 6.76,-45.742 6.862,-45.851c0.051,-0.055 3.237,-0.933 7.081,-1.952l6.987,-1.852l6.987,1.852c3.844,1.019 7.03,1.897 7.081,1.952c0.102,0.109 6.866,45.306 6.862,45.851c-0.001,0.184 -9.42,0.334 -20.93,0.334c-11.51,0 -20.929,-0.15 -20.93,-0.334Zm40.314,-2.004c-0.124,-0.551 -1.535,-9.918 -3.136,-20.816c-1.601,-10.898 -3.017,-20.34 -3.146,-20.983c-0.219,-1.088 -0.652,-1.279 -6.335,-2.791c-3.354,-0.892 -6.4,-1.623 -6.767,-1.623c-0.367,0 -3.413,0.731 -6.767,1.623c-5.682,1.512 -6.116,1.703 -6.335,2.791c-0.13,0.643 -1.544,9.985 -3.144,20.76c-1.6,10.776 -3.023,20.143 -3.162,20.817l-0.255,1.224l39.272,0l-0.225,-1.002Zm-25.284,-10.581c-1.29,-0.8 -0.934,-2.119 0.815,-3.016c1.404,-0.721 1.51,-0.887 0.89,-1.401c-0.789,-0.655 -0.935,-2.06 -0.258,-2.478c0.714,-0.441 0.517,-1.031 -0.445,-1.336c-0.49,-0.156 -0.89,-0.541 -0.89,-0.855c0,-0.419 0.598,-0.516 2.226,-0.359c2.041,0.196 2.226,0.135 2.226,-0.733c0,-0.661 -0.278,-0.948 -0.92,-0.948c-1.064,0 -2.642,-0.759 -2.642,-1.272c0,-0.357 4.654,-1.445 6.667,-1.559c1.672,-0.095 1.698,1.292 0.04,2.149c-1.8,0.931 -1.869,2.2 -0.099,1.811c0.833,-0.183 1.443,-0.063 1.787,0.351c0.643,0.776 -0.06,1.477 -1.711,1.706c-0.632,0.088 -1.174,0.497 -1.261,0.951c-0.122,0.641 0.057,0.744 0.919,0.528c0.693,-0.174 1.273,-0.025 1.643,0.42c0.486,0.585 0.392,0.757 -0.619,1.142c-0.654,0.249 -1.377,0.453 -1.606,0.453c-0.229,0 -0.417,0.39 -0.417,0.867c0,0.73 0.364,0.888 2.292,1.002c2.736,0.16 3.881,1.294 2.41,2.387c-1.045,0.775 -2.215,0.856 -1.761,0.121c0.214,-0.346 0.083,-0.43 -0.388,-0.249c-1.471,0.565 -8.117,0.802 -8.898,0.318l0,0Zm3.34,-1.769c0.535,-0.004 0.779,-0.359 0.779,-1.13c0,-1.091 -0.038,-1.105 -1.257,-0.475c-0.691,0.357 -1.543,0.998 -1.892,1.424c-0.58,0.707 -0.538,0.749 0.477,0.481c0.613,-0.162 1.464,-0.296 1.893,-0.3Zm0.779,-4.506c0,-0.886 -0.357,-1.02 -1.522,-0.573c-1.091,0.419 -0.831,1.281 0.409,1.353c0.818,0.047 1.113,-0.16 1.113,-0.78Zm6.217,-8.128l-5.137,-4.614l-1.319,1.761c-1.33,1.776 -5.544,5.199 -7.899,6.417c-2.508,1.297 -2.05,0.336 1.091,-2.29c3.144,-2.628 6.568,-6.915 6.59,-8.25c0.007,-0.374 -0.428,-1.057 -0.965,-1.517l-0.977,-0.836l1.022,-0.378c0.657,-0.243 1.444,-0.175 2.202,0.192c0.937,0.453 1.18,0.886 1.184,2.117c0.002,0.851 0.158,1.787 0.344,2.079c0.187,0.292 1.876,1.379 3.754,2.416c4.59,2.534 6.892,4.637 6.717,6.138c-0.074,0.631 -0.434,1.2 -0.802,1.264c-0.367,0.063 -2.98,-1.961 -5.805,-4.499Z" style="fill:#feb0b0;fill-rule:nonzero;"/><path id="path3006" d="M8.188,52.776c0.125,-0.674 1.692,-11.076 3.483,-23.117l3.256,-21.891l7.036,-1.839l7.037,-1.839l7.037,1.839l7.036,1.839l3.256,21.891c1.791,12.041 3.358,22.443 3.483,23.117l0.227,1.224l-21.039,0l-21.039,0l0.227,-1.224Zm40.39,0c-0.108,-2.596 -6.669,-43.921 -7.007,-44.128c-0.256,-0.159 -3.19,-0.985 -6.519,-1.837l-6.052,-1.55l-6.052,1.55c-3.329,0.852 -6.266,1.68 -6.526,1.841c-0.363,0.224 -6.914,41.332 -6.996,43.901c-0.014,0.437 4.188,0.556 19.574,0.556c10.776,0 19.586,-0.15 19.578,-0.333Zm-25.255,-11.678c-1.489,-0.635 -1.243,-1.967 0.541,-2.928c1.382,-0.744 1.475,-0.907 0.891,-1.552c-0.858,-0.948 -0.831,-2.169 0.055,-2.509c0.579,-0.223 0.479,-0.459 -0.557,-1.306l-1.264,-1.034l2.338,-0.016c2.035,-0.014 2.337,-0.132 2.337,-0.907c0,-0.576 -0.297,-0.891 -0.841,-0.891c-0.463,0 -1.314,-0.394 -1.892,-0.875l-1.052,-0.876l1.114,-0.02c0.612,-0.011 2.183,-0.305 3.491,-0.653c1.308,-0.348 2.661,-0.525 3.006,-0.393c1.074,0.413 0.688,1.536 -0.709,2.063c-1.651,0.623 -1.944,2.339 -0.33,1.934c0.553,-0.138 1.283,-0.08 1.623,0.13c0.945,0.584 0.247,1.726 -1.151,1.887c-0.799,0.091 -1.305,0.445 -1.407,0.982c-0.131,0.693 0.033,0.79 0.947,0.56c0.716,-0.179 1.299,-0.045 1.651,0.379c0.45,0.542 0.338,0.735 -0.646,1.109c-0.654,0.249 -1.377,0.453 -1.606,0.453c-0.229,0 -0.417,0.39 -0.417,0.867c0,0.73 0.364,0.888 2.292,1.002c2.736,0.16 3.881,1.294 2.41,2.387c-1.035,0.768 -2.215,0.856 -1.767,0.131c0.217,-0.352 -0.016,-0.43 -0.753,-0.251c-2.214,0.536 -7.341,0.738 -8.304,0.327l0,0Zm3.065,-1.786c0.643,-0.005 1.503,-1.709 1.077,-2.134c-0.275,-0.276 -2.721,1.131 -3.395,1.953c-0.58,0.707 -0.538,0.749 0.477,0.481c0.613,-0.162 1.441,-0.296 1.841,-0.3Zm0.831,-4.506c0,-0.886 -0.357,-1.02 -1.522,-0.573c-1.091,0.419 -0.831,1.281 0.409,1.353c0.818,0.047 1.113,-0.16 1.113,-0.78Zm8.611,-6.119c-1.675,-1.459 -4.018,-3.524 -5.207,-4.588l-2.162,-1.936l-3.406,3.34c-2.884,2.828 -7.324,5.817 -7.839,5.277c-0.082,-0.086 1.176,-1.26 2.795,-2.609c3.176,-2.644 6.166,-6.247 6.615,-7.969c0.189,-0.728 0.043,-1.244 -0.455,-1.608c-1.134,-0.83 -0.869,-1.551 0.571,-1.551c1.846,0 2.84,1.134 2.515,2.869c-0.256,1.363 -0.166,1.453 3.766,3.746c5.332,3.11 7.195,4.76 7.021,6.218c-0.074,0.618 -0.368,1.2 -0.652,1.294c-0.285,0.093 -1.888,-1.024 -3.562,-2.483Z" style="fill:#fe8e8e;fill-rule:nonzero;"/><path id="path3004" d="M8.246,52.776c0.134,-0.674 1.679,-10.943 3.432,-22.821c1.753,-11.877 3.312,-21.736 3.465,-21.908c0.153,-0.172 3.333,-1.126 7.068,-2.121l6.789,-1.809l6.789,1.809c3.735,0.995 6.915,1.949 7.068,2.121c0.153,0.172 1.712,10.031 3.465,21.908c1.753,11.878 3.298,22.147 3.432,22.821l0.244,1.224l-20.998,0l-20.998,0l0.244,-1.224Zm40.229,-1.114c-0.129,-0.796 -1.591,-10.664 -3.249,-21.929c-1.658,-11.265 -3.159,-20.651 -3.337,-20.856c-0.177,-0.205 -3.15,-1.126 -6.606,-2.047l-6.283,-1.674l-6.283,1.674c-3.456,0.921 -6.428,1.842 -6.604,2.047c-0.257,0.299 -6.737,42.686 -6.712,43.899c0.004,0.183 8.85,0.333 19.657,0.333l19.65,0l-0.233,-1.447Zm-25.152,-10.647c-0.551,-0.28 -1.002,-0.765 -1.002,-1.077c0,-0.568 1.804,-2.198 2.801,-2.53c0.364,-0.121 0.286,-0.421 -0.245,-0.952c-0.952,-0.953 -1,-1.99 -0.107,-2.332c0.838,-0.321 0.875,-1.052 0.054,-1.052c-0.337,0 -0.862,-0.3 -1.167,-0.668c-0.481,-0.578 -0.251,-0.667 1.726,-0.667c1.984,0 2.281,-0.116 2.281,-0.891c0,-0.576 -0.297,-0.891 -0.841,-0.891c-0.463,0 -1.314,-0.394 -1.892,-0.875l-1.052,-0.876l1.377,-0.015c0.757,-0.008 2.329,-0.301 3.494,-0.652c1.165,-0.35 2.399,-0.529 2.742,-0.398c1.073,0.412 0.685,1.535 -0.711,2.062c-1.633,0.617 -1.888,2.199 -0.334,2.073c1.68,-0.136 2.115,-0.009 2.115,0.621c0,0.332 -0.65,0.79 -1.444,1.017c-1.792,0.514 -2.421,2.226 -0.655,1.782c0.7,-0.175 1.297,-0.048 1.625,0.347c0.576,0.695 0.364,0.892 -1.418,1.318c-0.888,0.212 -1.225,0.569 -1.225,1.298c0,0.899 0.183,0.987 1.732,0.84c3.085,-0.295 4.808,1.457 2.477,2.519c-1.424,0.649 -1.672,0.649 -1.271,0.001c0.234,-0.379 -0.261,-0.432 -1.866,-0.202c-4.517,0.647 -6.221,0.695 -7.194,0.2l0,0Zm4.004,-1.998c0.48,-0.297 0.419,-1.937 -0.072,-1.937c-0.731,0 -3.133,1.541 -3.374,2.165c-0.185,0.479 0.12,0.541 1.437,0.294c0.919,-0.173 1.823,-0.408 2.009,-0.522Zm-0.108,-4.2c0,-0.694 -0.241,-0.882 -0.997,-0.774c-1.437,0.205 -1.54,1.481 -0.13,1.598c0.871,0.072 1.127,-0.115 1.127,-0.824Zm7.971,-6.728c-2.02,-1.79 -4.377,-3.872 -5.238,-4.627l-1.566,-1.373l-2.543,2.709c-2.359,2.514 -6.1,5.179 -8.197,5.84c-0.605,0.191 -0.461,-0.05 0.445,-0.747c4.356,-3.353 8.683,-8.506 8.683,-10.341c0,-0.415 -0.301,-0.87 -0.668,-1.01c-1.196,-0.459 -0.755,-1.497 0.636,-1.497c1.845,0 2.79,1.087 2.462,2.834c-0.26,1.391 -0.195,1.453 4.414,4.193c4.884,2.904 6.643,4.561 6.422,6.047c-0.242,1.628 -1.159,1.244 -4.85,-2.028Z" style="fill:#fe6f6f;fill-rule:nonzero;"/><path id="path3002" d="M8.352,52.553c0.123,-0.796 1.673,-11.165 3.445,-23.043l3.22,-21.595l6.992,-1.863l6.991,-1.863l6.991,1.863l6.992,1.863l3.22,21.595c1.772,11.878 3.322,22.247 3.445,23.043l0.224,1.447l-20.872,0l-20.872,0l0.224,-1.447Zm40.247,0.223c0.031,-1.332 -6.433,-43.61 -6.714,-43.919c-0.197,-0.216 -3.176,-1.151 -6.621,-2.078l-6.264,-1.685l-6.264,1.685c-3.445,0.927 -6.425,1.862 -6.623,2.078c-0.31,0.338 -6.734,42.159 -6.713,43.696c0.007,0.437 4.228,0.556 19.6,0.556c10.776,0 19.595,-0.15 19.599,-0.333Zm-24.785,-11.686c-0.526,-0.212 -1.097,-0.613 -1.268,-0.89c-0.363,-0.587 0.98,-2.23 1.821,-2.23c0.945,0 1.175,-0.85 0.431,-1.593c-0.881,-0.881 -0.894,-1.921 -0.028,-2.253c0.837,-0.321 0.875,-1.052 0.054,-1.052c-0.337,0 -0.862,-0.3 -1.167,-0.668c-0.481,-0.578 -0.251,-0.667 1.726,-0.667c1.984,0 2.281,-0.116 2.281,-0.891c0,-0.576 -0.297,-0.891 -0.841,-0.891c-0.463,0 -1.314,-0.394 -1.892,-0.875l-1.052,-0.876l1.336,-0.02c0.735,-0.011 2.371,-0.296 3.635,-0.632c1.655,-0.441 2.435,-0.477 2.783,-0.129c0.783,0.783 0.568,1.214 -0.852,1.709c-1.989,0.693 -1.838,2.159 0.223,2.159c2.112,0 2.038,1.06 -0.112,1.592c-1.235,0.305 -1.669,0.644 -1.669,1.303c0,0.86 0.109,0.886 2.17,0.515c0.215,-0.039 0.483,0.184 0.597,0.496c0.121,0.33 -0.364,0.765 -1.169,1.045c-0.995,0.347 -1.376,0.761 -1.376,1.495c0,0.929 0.16,0.997 1.893,0.812c1.302,-0.14 2.169,0.016 2.783,0.5c0.884,0.698 0.882,0.71 -0.185,1.613c-0.816,0.69 -1.158,0.775 -1.421,0.349c-0.276,-0.446 -0.982,-0.45 -3.497,-0.019c-3.607,0.619 -3.901,0.624 -5.204,0.098l0,0Zm3.513,-2.073c0.185,-0.115 0.337,-0.704 0.337,-1.309l0,-1.1l-1.773,1.015c-2.487,1.423 -2.756,2.325 -0.573,1.916c0.919,-0.173 1.823,-0.408 2.009,-0.522Zm0.255,-4.275c0.108,-0.57 -0.145,-0.779 -0.944,-0.779c-1.152,0 -2.3,0.978 -1.77,1.508c0.592,0.592 2.564,0.062 2.714,-0.729Zm9.175,-5.319c-1.205,-1.041 -3.555,-3.138 -5.221,-4.66l-3.03,-2.767l-2.981,3.024c-2.566,2.602 -7.102,5.809 -8.236,5.822c-0.197,0.002 0.805,-0.965 2.226,-2.15c3.332,-2.78 5.658,-5.377 6.776,-7.569c0.886,-1.736 0.886,-1.754 0.019,-2.538c-1.207,-1.093 -1.092,-1.542 0.395,-1.542c1.827,0 3.032,1.455 2.383,2.878c-0.576,1.265 -0.203,1.602 4.943,4.452c3.923,2.172 6.217,4.317 6.024,5.633c-0.231,1.572 -0.95,1.445 -3.298,-0.583l0,0Z" style="fill:#fe4f4f;fill-rule:nonzero;"/><path id="path3000" d="M8.289,52.998c0.128,-0.551 1.637,-10.519 3.353,-22.152c1.715,-11.633 3.209,-21.555 3.32,-22.051c0.167,-0.75 1.35,-1.205 7.119,-2.739l6.919,-1.838l6.919,1.838c5.769,1.534 6.952,1.989 7.119,2.739c0.111,0.496 1.605,10.418 3.32,22.051c1.716,11.633 3.225,21.601 3.353,22.152l0.234,1.002l-20.945,0l-20.945,0l0.234,-1.002Zm40.308,-0.445c0.007,-0.719 -6.336,-43.705 -6.475,-43.881c-0.058,-0.074 -3.034,-0.923 -6.614,-1.886l-6.508,-1.752l-6.508,1.752c-3.58,0.963 -6.556,1.812 -6.613,1.886c-0.164,0.209 -6.477,42.785 -6.474,43.658c0.003,0.731 1.234,0.779 19.595,0.779c15.374,0 19.593,-0.119 19.597,-0.556Zm-24.351,-11.322c-1.178,-0.239 -2.107,-1.27 -1.716,-1.903c0.157,-0.254 0.726,-0.697 1.263,-0.983c0.888,-0.473 0.921,-0.452 0.357,0.231c-0.867,1.051 -0.401,1.313 1.703,0.958c1.638,-0.277 1.811,-0.432 1.811,-1.614l0,-1.308l-1.447,0.748c-1.332,0.688 -1.398,0.689 -0.836,0.011c0.523,-0.63 0.514,-0.736 -0.064,-0.736c-0.616,0 -1.215,-0.873 -1.215,-1.77c0,-0.199 0.351,-0.495 0.779,-0.658c0.625,-0.238 0.669,-0.186 0.223,0.264c-0.93,0.937 -0.631,1.337 0.89,1.19c1.104,-0.107 1.448,-0.351 1.448,-1.03c0,-0.601 -0.254,-0.848 -0.78,-0.76c-0.428,0.072 -0.779,-0.078 -0.779,-0.334c0,-0.255 -0.262,-0.465 -0.583,-0.465c-0.32,0 -0.971,-0.307 -1.447,-0.682c-0.803,-0.635 -0.707,-0.674 1.362,-0.557c1.989,0.113 2.241,0.023 2.363,-0.835c0.108,-0.752 -0.152,-1.024 -1.193,-1.253c-0.732,-0.161 -1.548,-0.554 -1.814,-0.874c-0.383,-0.462 0.001,-0.647 1.862,-0.896c3.938,-0.528 5.366,-0.503 5.571,0.097c0.111,0.325 -0.393,0.77 -1.183,1.046c-2.025,0.706 -1.902,2.173 0.183,2.173c1.088,0 1.558,0.202 1.558,0.668c0,0.378 -0.399,0.668 -0.92,0.668c-1.407,0 -2.642,0.827 -2.642,1.769c0,0.725 0.233,0.809 1.618,0.584c1.267,-0.206 1.573,-0.127 1.41,0.362c-0.114,0.344 -0.592,0.696 -1.061,0.784c-1.283,0.239 -1.899,0.895 -1.669,1.775c0.162,0.62 0.676,0.789 2.407,0.789c2.845,0 3.721,0.786 2.231,2.003c-0.783,0.64 -1.164,0.734 -1.403,0.347c-0.3,-0.486 -2.72,-0.398 -6.409,0.232c-0.5,0.085 -1.345,0.067 -1.878,-0.041l0,0Zm-3.583,-13.487c3.265,-3.044 5.598,-5.921 6.249,-7.708c0.184,-0.506 -0.029,-1.064 -0.593,-1.546c-1.225,-1.049 -1.102,-1.447 0.444,-1.447c1.714,0 2.987,1.715 2.269,3.057c-0.545,1.018 -0.182,1.334 5.089,4.422c4.076,2.389 5.465,3.606 5.818,5.1c0.656,2.773 -2.055,1.147 -8.541,-5.126l-2.723,-2.633l-3.288,3.267c-1.809,1.797 -4.391,3.846 -5.738,4.554l-2.449,1.287l3.463,-3.227Z" style="fill:#fe2f2f;fill-rule:nonzero;"/><path id="path2998" d="M8.518,52.9c0,-0.698 6.095,-41.983 6.479,-43.886c0.212,-1.048 0.711,-1.251 7.115,-2.891l6.888,-1.764l6.888,1.764c6.404,1.64 6.903,1.843 7.115,2.891c0.384,1.903 6.479,43.188 6.479,43.886c0,0.567 -2.75,0.655 -20.482,0.655c-17.732,0 -20.482,-0.088 -20.482,-0.655Zm40.074,-0.66c0,-0.863 -6.137,-42.617 -6.379,-43.395c-0.069,-0.224 -3.02,-1.178 -6.558,-2.121l-6.432,-1.716l-6.457,1.636c-3.551,0.9 -6.588,1.755 -6.749,1.899c-0.162,0.144 -1.719,9.88 -3.461,21.635c-1.742,11.755 -3.244,21.724 -3.338,22.152c-0.162,0.733 1.001,0.779 19.601,0.779c19.318,0 19.773,-0.02 19.773,-0.869Zm-25.785,-11.771c-0.658,-0.794 -0.371,-1.408 0.986,-2.106c0.805,-0.414 0.879,-0.398 0.42,0.087c-0.826,0.874 -0.678,1.302 0.446,1.295c2.213,-0.013 3.005,-0.495 3.005,-1.827c0,-1.503 -0.09,-1.53 -1.685,-0.512c-1.147,0.732 -1.178,0.732 -0.598,0c0.528,-0.666 0.512,-0.771 -0.111,-0.771c-0.398,0 -0.723,-0.201 -0.723,-0.446c0,-0.245 0.702,-0.445 1.559,-0.445c1.384,0 1.558,-0.13 1.558,-1.165c0,-0.946 -0.167,-1.121 -0.89,-0.932c-0.49,0.128 -0.891,0.051 -0.891,-0.171c0,-0.222 -0.262,-0.404 -0.583,-0.404c-0.32,0 -0.971,-0.309 -1.447,-0.688c-0.8,-0.636 -0.694,-0.667 1.413,-0.411c1.895,0.229 2.326,0.148 2.568,-0.482c0.385,-1.004 -0.408,-1.895 -1.838,-2.066c-3.211,-0.382 -0.331,-1.617 4.34,-1.86c1.597,-0.084 1.694,0.719 0.181,1.502c-1.885,0.975 -1.753,2.394 0.226,2.424c0.835,0.013 1.602,0.273 1.706,0.58c0.111,0.33 -0.201,0.556 -0.77,0.556c-1.465,0 -2.679,0.823 -2.679,1.817c0,0.788 0.194,0.859 1.616,0.592c2.082,-0.391 1.908,0.711 -0.199,1.257c-1.111,0.288 -1.417,0.604 -1.417,1.467c0,1.049 0.127,1.101 2.672,1.101c2.374,0 2.671,0.099 2.671,0.89c0,0.49 -0.15,0.895 -0.334,0.901c-0.183,0.005 -2.652,0.119 -5.486,0.253c-4.28,0.201 -5.248,0.128 -5.716,-0.436Zm10.717,-14.09l-5,-4.5l-3.013,3.036c-1.657,1.67 -4.105,3.607 -5.439,4.305l-2.426,1.267l1.558,-1.232c2.666,-2.109 6.1,-5.957 7.192,-8.06l1.046,-2.013l-1.002,-0.679c-1.251,-0.847 -1.286,-1.46 -0.082,-1.46c1.787,0 2.714,0.852 2.582,2.376c-0.067,0.782 0.023,1.656 0.2,1.943c0.178,0.287 2.107,1.543 4.288,2.791c5.286,3.025 8.017,6.158 5.751,6.598c-0.36,0.07 -2.905,-1.898 -5.655,-4.372Z" style="fill:#fe0404;fill-rule:nonzero;"/></g></g></svg>