<?xml version="1.0" encoding="UTF-8" standalone="no"?><!DOCTYPE svg PUBLIC "-//W3C//DTD SVG 1.1//EN" "http://www.w3.org/Graphics/SVG/1.1/DTD/svg11.dtd"><svg width="100%" height="100%" viewBox="0 0 39 39" version="1.1" xmlns="http://www.w3.org/2000/svg" xmlns:xlink="http://www.w3.org/1999/xlink" xml:space="preserve" xmlns:serif="http://www.serif.com/" style="fill-rule:evenodd;clip-rule:evenodd;stroke-miterlimit:2;"><g id="g3801"><g id="path3031"><path d="M6.75,34.562l4.274,-27.882l8.336,-2.452l8.477,2.733l4.413,27.811l-25.5,-0.21Z" style="fill:none;fill-rule:nonzero;stroke:#f00;stroke-width:2px;"/><path d="M6.75,34.562l4.274,-27.882l8.336,-2.452l8.477,2.733l4.413,27.811l-25.5,-0.21Z" style="fill:#fff;fill-rule:nonzero;"/></g><g id="g3022"><path id="path3004" d="M15.948,27.128c-0.343,-0.175 -0.624,-0.477 -0.624,-0.671c0,-0.354 1.124,-1.37 1.745,-1.576c0.227,-0.076 0.178,-0.263 -0.153,-0.594c-0.593,-0.593 -0.623,-1.239 -0.067,-1.452c0.523,-0.2 0.546,-0.656 0.034,-0.656c-0.21,0 -0.537,-0.187 -0.727,-0.416c-0.3,-0.36 -0.156,-0.415 1.075,-0.415c1.236,0 1.421,-0.073 1.421,-0.556c0,-0.358 -0.185,-0.555 -0.524,-0.555c-0.288,0 -0.818,-0.245 -1.178,-0.545l-0.656,-0.546l0.858,-0.009c0.472,-0.005 1.451,-0.187 2.177,-0.406c0.726,-0.218 1.495,-0.33 1.708,-0.248c0.669,0.257 0.427,0.956 -0.443,1.285c-1.017,0.384 -1.176,1.37 -0.208,1.291c1.047,-0.085 1.318,-0.006 1.318,0.387c0,0.207 -0.405,0.492 -0.9,0.634c-1.116,0.32 -1.508,1.386 -0.408,1.11c0.436,-0.109 0.808,-0.03 1.013,0.216c0.358,0.433 0.226,0.556 -0.884,0.821c-0.553,0.132 -0.763,0.354 -0.763,0.809c0,0.56 0.114,0.615 1.079,0.523c1.922,-0.184 2.995,0.908 1.543,1.569c-0.887,0.405 -1.041,0.405 -0.792,0.001c0.146,-0.236 -0.162,-0.269 -1.162,-0.126c-2.814,0.403 -3.876,0.433 -4.482,0.125Zm2.494,-1.245c0.299,-0.185 0.261,-1.207 -0.044,-1.207c-0.456,0 -1.952,0.96 -2.102,1.349c-0.116,0.298 0.074,0.337 0.895,0.183c0.572,-0.108 1.136,-0.254 1.251,-0.325Zm-0.067,-2.617c0,-0.432 -0.15,-0.549 -0.621,-0.482c-0.895,0.128 -0.959,0.923 -0.081,0.996c0.543,0.045 0.702,-0.072 0.702,-0.514Zm4.966,-4.191c-1.258,-1.115 -2.727,-2.412 -3.263,-2.883l-0.976,-0.855l-1.584,1.688c-1.47,1.566 -3.8,3.226 -5.107,3.638c-0.377,0.119 -0.287,-0.031 0.277,-0.466c2.714,-2.088 5.41,-5.299 5.41,-6.442c0,-0.259 -0.188,-0.542 -0.416,-0.629c-0.745,-0.286 -0.471,-0.933 0.396,-0.933c1.149,0 1.738,0.677 1.534,1.766c-0.162,0.866 -0.122,0.905 2.75,2.612c3.042,1.809 4.138,2.841 4.001,3.767c-0.151,1.014 -0.722,0.775 -3.022,-1.263Z" style="fill:#f00;fill-rule:nonzero;"/></g></g></svg>