<?xml version="1.0" encoding="UTF-8" standalone="no"?><!DOCTYPE svg PUBLIC "-//W3C//DTD SVG 1.1//EN" "http://www.w3.org/Graphics/SVG/1.1/DTD/svg11.dtd"><svg width="100%" height="100%" viewBox="0 0 58 58" version="1.1" xmlns="http://www.w3.org/2000/svg" xmlns:xlink="http://www.w3.org/1999/xlink" xml:space="preserve" xmlns:serif="http://www.serif.com/" style="fill-rule:evenodd;clip-rule:evenodd;stroke-linejoin:round;stroke-miterlimit:1.41421;"><g id="g6139"><path id="path5629" d="M15.513,8.392l-6.744,44.721l40.639,0.177l-7.453,-44.898l-12.6,-3.727l-13.842,3.727Z" style="fill:#fff;fill-rule:nonzero;"/><path id="path5617" d="M8.124,53.627c-0.013,-0.807 6.66,-45.604 6.825,-45.816c0.097,-0.125 3.333,-1.033 7.193,-2.019l7.017,-1.792l6.974,1.813c3.836,0.997 7.037,2.017 7.114,2.267c0.261,0.845 6.623,44.073 6.623,45c0,0.881 -0.888,0.92 -20.87,0.92c-11.478,0 -20.873,-0.168 -20.876,-0.373Zm40.05,-2.484c-0.331,-1.588 -6.255,-41.161 -6.255,-41.781c0,-0.43 -11.239,-3.56 -12.791,-3.563c-0.48,-0.001 -3.573,0.693 -6.872,1.542l-5.998,1.544l-2.388,16.222c-1.314,8.922 -2.773,18.738 -3.243,21.812l-0.855,5.59l38.686,0l-0.284,-1.366Zm-15.188,-4.123c-2.883,-2.649 -3.088,-2.958 -1.961,-2.958c1.819,0 6.322,2.38 6.689,3.535c0.289,0.912 -0.48,2.458 -1.197,2.404c-0.172,-0.013 -1.761,-1.354 -3.531,-2.981Zm-14.273,2.223c0.218,-0.234 1.448,-0.992 2.733,-1.685c1.552,-0.837 2.39,-1.635 2.495,-2.378c0.18,-1.266 0.971,-1.425 2.292,-0.459c1.233,0.902 0.628,2.615 -1.27,3.597c-1.613,0.834 -6.895,1.615 -6.25,0.925Zm-0.396,-5.766c-2.3,-1.81 -1.645,-2.35 2.473,-2.039c4.205,0.318 4.623,0.003 3.849,-2.906c-0.452,-1.694 -0.9,-1.879 -2.968,-1.219c-1.805,0.575 -1.296,-0.335 1.366,-2.444c1.367,-1.082 2.485,-2.363 2.485,-2.847c0,-1.009 1.011,-1.16 1.888,-0.283c0.826,0.826 0.745,1.894 -0.226,2.967c-0.78,0.862 -0.742,0.909 0.735,0.909c0.857,0 2.47,-0.365 3.586,-0.812c1.614,-0.646 2.282,-0.695 3.279,-0.241c1.433,0.653 1.334,1.726 -0.18,1.95c-0.582,0.086 -1.129,0.624 -1.264,1.242c-0.13,0.6 -0.414,1.515 -0.631,2.034c-0.369,0.885 -0.21,0.922 2.594,0.604c2.509,-0.283 3.173,-0.188 4.14,0.595c1.603,1.298 1.029,2.829 -0.884,2.354c-0.748,-0.185 -3.397,-0.46 -5.886,-0.61c-4.181,-0.251 -5.557,-0.095 -11.25,1.275c-1.541,0.371 -2.078,0.279 -3.106,-0.529Zm12.348,-2.773c0.527,-0.852 0.937,-4.227 0.48,-3.944c-0.263,0.162 -1.426,0.351 -2.585,0.419c-1.858,0.11 -2.076,0.245 -1.835,1.143c0.151,0.561 0.277,1.411 0.281,1.889c0.005,0.658 0.422,0.87 1.716,0.87c0.941,0 1.815,-0.17 1.943,-0.377Zm-7.628,-10.22c0,-0.132 1.234,-0.937 2.742,-1.788c4.406,-2.486 6.699,-4.815 6.699,-6.804c0,-0.925 -0.205,-1.681 -0.456,-1.681c-1.205,0 -2.028,0.711 -2.028,1.751c0,0.632 -0.136,1.503 -0.302,1.935c-0.377,0.983 -2.183,1.041 -2.183,0.07c0,-1.397 -1.046,-1.329 -2.765,0.181c-1.815,1.594 -3.571,1.95 -4.589,0.932c-0.832,-0.832 -0.743,-2.451 0.21,-3.812c0.81,-1.156 1.986,-1.244 4.908,-0.365c1.445,0.434 2.906,-0.856 2.482,-2.192c-0.262,-0.824 -0.592,-0.999 -1.412,-0.75c-2.153,0.655 -2.535,0.509 -3.094,-1.181c-0.308,-0.93 -0.963,-1.986 -1.456,-2.346c-0.796,-0.583 -0.808,-0.689 -0.103,-0.96c1.438,-0.552 2.582,0.019 3.086,1.541c0.456,1.375 0.611,1.459 1.864,1.016c1.09,-0.386 1.365,-0.791 1.359,-2.003c-0.009,-1.761 -0.395,-2.459 -1.608,-2.906c-1.685,-0.622 -0.906,-1.406 1.243,-1.25c1.678,0.121 2.141,0.358 2.255,1.157c0.122,0.848 0.443,0.977 2.054,0.823c1.138,-0.108 2.059,0.06 2.28,0.417c0.502,0.813 -0.655,1.465 -2.614,1.474c-0.962,0.005 -1.615,0.261 -1.615,0.633c0,0.431 0.662,0.572 2.14,0.454c1.485,-0.118 2.334,0.064 2.776,0.596c0.922,1.111 0.237,1.815 -1.439,1.48c-2.238,-0.447 -3.93,0.135 -3.638,1.253c0.21,0.802 0.502,0.876 2.066,0.519c2.17,-0.496 5.321,0.223 5.737,1.309c0.341,0.886 -0.768,1.442 -2.155,1.079c-0.833,-0.218 -0.948,0.001 -0.881,1.675c0.131,3.304 -3.778,6.304 -9.948,7.635c-0.888,0.192 -1.615,0.24 -1.615,0.108Zm0.033,-7.309c1.342,-0.719 1.198,-1.474 -0.281,-1.474c-0.684,0 -1.243,0.094 -1.243,0.208c0,0.115 -0.135,0.562 -0.301,0.994c-0.348,0.905 0.426,1.021 1.825,0.272Z" style="fill:#d0d0d0;fill-rule:nonzero;"/><path id="path5615" d="M8.26,52.634c0.139,-0.752 1.658,-10.982 3.375,-22.734c1.717,-11.751 3.364,-21.613 3.66,-21.914c0.295,-0.301 3.505,-1.302 7.132,-2.223l6.594,-1.676l6.744,1.726c3.709,0.95 6.91,1.839 7.113,1.975c0.314,0.211 7,43.799 6.994,45.591c-0.002,0.487 -4.521,0.621 -20.934,0.621l-20.932,0l0.254,-1.366Zm39.936,-1.74c-0.162,-0.888 -1.647,-10.659 -3.3,-21.712c-1.653,-11.054 -3.067,-20.159 -3.141,-20.233c-0.074,-0.074 -2.95,-0.884 -6.39,-1.799l-6.256,-1.663l-6.376,1.675c-3.507,0.922 -6.418,1.719 -6.467,1.772c-0.05,0.053 -1.456,9.376 -3.125,20.718c-1.668,11.342 -3.147,21.124 -3.286,21.739l-0.253,1.118l38.888,0l-0.294,-1.615Zm-14.848,-3.551c-1.572,-1.451 -2.857,-2.8 -2.857,-2.999c0,-0.198 0.726,-0.204 1.615,-0.013c3.761,0.81 6.595,3.438 5.339,4.951c-0.339,0.409 -0.757,0.733 -0.928,0.72c-0.172,-0.012 -1.598,-1.209 -3.169,-2.659Zm-14.067,1.424c0.531,-0.402 1.18,-0.73 1.444,-0.73c1.003,0 3.863,-2.604 3.604,-3.281c-0.362,-0.943 0.932,-0.884 1.903,0.087c1.008,1.008 0.984,1.297 -0.21,2.579c-1.087,1.167 -3.888,2.108 -6.215,2.087c-1.418,-0.012 -1.443,-0.048 -0.526,-0.742Zm-1.433,-5.809c-0.426,-0.608 -0.774,-1.242 -0.774,-1.409c0,-0.167 1.789,-0.201 3.976,-0.074c4.404,0.255 4.382,0.275 3.665,-3.31c-0.298,-1.491 -0.386,-1.539 -2.36,-1.282l-2.051,0.267l1.231,-0.892c2.88,-2.087 4.418,-3.715 4.156,-4.398c-0.336,-0.875 0.88,-0.96 1.719,-0.121c0.977,0.977 0.683,2.238 -0.77,3.303l-1.367,1.001l2.236,-0.25c1.23,-0.137 3.077,-0.604 4.104,-1.037c1.475,-0.621 2.129,-0.668 3.106,-0.223c1.567,0.713 1.582,1.473 0.038,1.861c-0.696,0.174 -1.32,0.784 -1.488,1.454c-0.159,0.634 -0.44,1.545 -0.624,2.024c-0.303,0.79 -0.057,0.842 2.644,0.559c2.256,-0.235 3.241,-0.127 4.059,0.446c2.282,1.598 0.952,2.899 -2.213,2.164c-2.969,-0.688 -10.068,-0.539 -13.104,0.276c-3.838,1.03 -5.268,0.947 -6.183,-0.359l0,0Zm13.394,-3.898c0.188,-1.112 0.263,-2.076 0.168,-2.143c-0.096,-0.066 -1.344,-0.03 -2.775,0.081c-2.344,0.182 -2.552,0.292 -2.112,1.116c0.269,0.502 0.489,1.376 0.489,1.94c0,0.863 0.311,1.027 1.944,1.027c1.886,0 1.954,-0.061 2.286,-2.021Zm-7.708,-8.654c0,-0.102 1.286,-0.972 2.857,-1.933c4.564,-2.79 6.087,-4.425 6.087,-6.53c0,-1.578 -0.137,-1.782 -1.104,-1.643c-0.86,0.124 -1.196,0.626 -1.52,2.271c-0.463,2.354 -1.33,2.702 -2.478,0.994l-0.752,-1.118l-1.172,1.056c-1.442,1.298 -3.094,2.174 -4.104,2.174c-1.049,0 -1.935,-1.834 -1.577,-3.262c0.451,-1.798 2.03,-2.434 4.33,-1.745c2.389,0.716 4.043,0.017 3.811,-1.611c-0.152,-1.069 -0.552,-1.165 -3.082,-0.744c-0.718,0.12 -1.11,-0.344 -1.657,-1.955c-0.393,-1.162 -0.92,-2.112 -1.171,-2.112c-0.251,0 -0.456,-0.238 -0.456,-0.53c0,-0.291 0.615,-0.459 1.367,-0.373c1.016,0.117 1.494,0.544 1.863,1.664c0.456,1.381 0.61,1.466 1.864,1.022c1.09,-0.386 1.365,-0.791 1.359,-2.003c-0.009,-1.761 -0.395,-2.459 -1.608,-2.906c-1.588,-0.586 -0.941,-1.412 0.983,-1.252c1.247,0.104 2.017,0.479 2.36,1.148c0.387,0.757 0.909,0.956 2.186,0.834c1.973,-0.189 3.196,0.673 2.045,1.441c-0.408,0.272 -1.468,0.388 -2.356,0.259c-1.343,-0.196 -1.615,-0.075 -1.615,0.718c0,0.836 0.26,0.917 2.131,0.661c1.622,-0.223 2.292,-0.099 2.804,0.518c0.945,1.139 0.348,1.503 -2.206,1.346c-2.608,-0.161 -3.216,0.119 -2.898,1.334c0.202,0.771 0.652,0.868 3.185,0.685c3.036,-0.22 4.437,0.329 4.437,1.738c0,0.508 -0.466,0.671 -1.605,0.56c-1.559,-0.151 -1.601,-0.105 -1.462,1.603c0.253,3.093 -2.386,5.369 -8.237,7.104c-1.435,0.425 -2.609,0.69 -2.609,0.587Zm0.285,-7.751c0.931,-1.029 0.928,-1.033 -0.789,-0.869c-1.165,0.111 -1.777,0.446 -1.889,1.034c-0.233,1.233 1.51,1.126 2.678,-0.165Z" style="fill:#b0b0b0;fill-rule:nonzero;"/><path id="path5613" d="M8.406,52.137c0.159,-1.025 1.695,-11.335 3.415,-22.91c1.85,-12.449 3.367,-21.194 3.714,-21.409c0.323,-0.199 3.475,-1.099 7.005,-1.998l6.418,-1.636l6.605,1.618c3.633,0.889 6.856,1.868 7.163,2.175c0.417,0.416 7.18,43.599 7.149,45.65c-0.003,0.205 -9.399,0.373 -20.881,0.373l-20.876,0l0.288,-1.863Zm39.972,0.248c-0.002,-1.234 -6.411,-43.224 -6.631,-43.444c-0.124,-0.124 -3.035,-0.975 -6.469,-1.89l-6.242,-1.663l-6.292,1.676c-3.46,0.923 -6.37,1.756 -6.467,1.853c-0.135,0.135 -6.656,43.166 -6.656,43.921c0,0.093 8.72,0.168 19.379,0.168c15.173,0 19.379,-0.135 19.378,-0.621Zm-28.635,-3.46c0.511,-0.352 1.629,-1.092 2.485,-1.645c0.855,-0.554 1.776,-1.505 2.046,-2.114c0.546,-1.232 1.159,-1.218 1.955,0.044c1.096,1.737 -1.217,3.545 -5.2,4.065c-1.908,0.25 -2.086,0.201 -1.286,-0.35l0,0Zm13.297,-1.912c-1.468,-1.375 -2.568,-2.601 -2.445,-2.724c0.123,-0.123 1.367,0.116 2.765,0.531c3.637,1.08 5.928,4.255 3.303,4.576c-0.569,0.07 -2.033,-0.893 -3.623,-2.383Zm-15.276,-4.209c-1.042,-1.59 -0.715,-1.911 1.376,-1.35c0.913,0.245 2.611,0.35 3.773,0.233c2.276,-0.23 2.408,-0.493 1.795,-3.558c-0.307,-1.536 -0.379,-1.576 -2.36,-1.297c-1.767,0.249 -1.914,0.203 -1.089,-0.34c2.308,-1.521 4.785,-4.07 4.55,-4.683c-0.486,-1.265 1.224,-0.667 1.818,0.636c0.537,1.179 0.459,1.411 -0.821,2.431l-1.414,1.128l2.425,-0.254c1.334,-0.139 3.116,-0.571 3.96,-0.958c1.133,-0.521 1.88,-0.573 2.857,-0.202c1.744,0.663 1.676,1.365 -0.172,1.771c-0.823,0.181 -1.389,0.501 -1.258,0.712c0.13,0.211 -0.026,1.079 -0.346,1.928c-0.321,0.85 -0.482,1.641 -0.357,1.759c0.124,0.117 1.344,0.039 2.71,-0.174c2.775,-0.432 5.218,0.417 5.218,1.814c0,0.696 -0.457,0.744 -3.603,0.384c-4.735,-0.543 -9.891,-0.326 -13.364,0.561c-3.877,0.991 -4.749,0.908 -5.698,-0.541Zm13.407,-2.841c0.165,-0.615 0.303,-1.648 0.307,-2.294c0.005,-0.979 -0.182,-1.126 -1.112,-0.877c-0.614,0.165 -1.839,0.303 -2.72,0.307c-1.531,0.006 -1.58,0.066 -1.098,1.334c0.278,0.731 0.391,1.625 0.252,1.988c-0.187,0.486 0.316,0.66 1.909,0.66c1.823,0 2.21,-0.176 2.462,-1.118Zm-7.637,-9.556c0,-0.102 1.176,-0.858 2.613,-1.68c4.121,-2.358 6.199,-4.492 6.508,-6.683c0.255,-1.807 0.208,-1.887 -1.031,-1.739c-1.037,0.123 -1.407,0.546 -1.842,2.102c-0.632,2.268 -1.481,2.761 -2.257,1.312c-0.736,-1.375 -1.316,-1.293 -3.321,0.467c-1.918,1.684 -2.739,1.835 -3.864,0.71c-1.118,-1.118 -0.966,-2.351 0.456,-3.686c1.148,-1.079 1.373,-1.117 3.158,-0.528c2.955,0.976 4.68,-0.244 3.755,-2.654c-0.266,-0.695 -0.445,-0.697 -1.753,-0.021c-1.81,0.936 -2.295,0.654 -2.714,-1.58c-0.182,-0.969 -0.637,-1.879 -1.013,-2.023c-1.102,-0.423 -0.782,-1.233 0.419,-1.06c0.918,0.132 1.527,0.876 2.703,3.301c0.229,0.472 3.088,-1.508 2.928,-2.028c-0.104,-0.34 -0.321,-1.217 -0.481,-1.951c-0.165,-0.754 -0.744,-1.477 -1.334,-1.664c-1.475,-0.468 -0.432,-1.345 1.357,-1.141c0.863,0.099 1.607,0.571 1.88,1.194c0.354,0.806 0.886,1.023 2.435,0.994c1.167,-0.022 2.069,0.218 2.197,0.584c0.152,0.438 -0.456,0.621 -2.062,0.621c-1.993,0 -2.277,0.133 -2.277,1.059c0,0.94 0.202,1.026 1.809,0.765c1.826,-0.296 3.657,0.292 3.657,1.175c0,0.264 -1.305,0.479 -2.899,0.479c-3.259,0 -3.734,0.233 -2.971,1.456c0.424,0.679 1.059,0.808 3.13,0.636c2.794,-0.231 4.727,0.457 4.727,1.685c0,0.557 -0.429,0.718 -1.614,0.603c-1.555,-0.15 -1.609,-0.095 -1.451,1.485c0.211,2.113 -0.862,3.717 -3.515,5.25c-1.928,1.115 -7.333,3.001 -7.333,2.56l0,0Zm0.124,-7.41c1.299,-0.986 1.058,-1.377 -0.741,-1.203c-1.061,0.103 -1.667,0.453 -1.776,1.026c-0.199,1.05 1.234,1.151 2.517,0.177Zm4.348,-1.296c0,-0.273 -0.098,-0.496 -0.219,-0.496c-0.12,0 -0.357,0.223 -0.526,0.496c-0.169,0.274 -0.07,0.497 0.219,0.497c0.289,0 0.526,-0.223 0.526,-0.497Z" style="fill:#8e8e8e;fill-rule:nonzero;"/><path id="path5611" d="M8.336,52.634c0.157,-0.752 1.725,-11.06 3.484,-22.907c1.76,-11.847 3.297,-21.638 3.418,-21.758c0.12,-0.121 3.21,-1.021 6.866,-2l6.648,-1.78l6.65,1.669c3.657,0.918 6.917,1.895 7.245,2.172c0.341,0.289 1.929,9.63 3.718,21.87c1.717,11.752 3.236,21.982 3.375,22.734l0.254,1.366l-20.971,0l-20.972,0l0.285,-1.366Zm40.035,-0.497c-0.017,-1.703 -6.348,-42.92 -6.637,-43.21c-0.163,-0.162 -3.072,-1.033 -6.466,-1.936l-6.171,-1.641l-6.285,1.658c-3.456,0.912 -6.397,1.771 -6.535,1.909c-0.207,0.207 -6.644,42.504 -6.653,43.717c-0.002,0.204 8.717,0.372 19.376,0.372c18.128,0 19.379,-0.056 19.371,-0.869Zm-29.309,-2.827c0,-0.119 1.123,-0.828 2.496,-1.576c1.559,-0.848 2.605,-1.789 2.785,-2.505c0.238,-0.949 0.45,-1.06 1.23,-0.643c1.182,0.633 1.213,2.059 0.066,3.097c-1.096,0.991 -6.577,2.348 -6.577,1.627Zm14.885,-1.645c-0.947,-1.025 -2.168,-2.117 -2.713,-2.427c-1.744,-0.989 -0.462,-1.237 2.048,-0.395c2.984,1 4.165,1.999 4.165,3.52c0,1.76 -1.504,1.46 -3.5,-0.698Zm-15.859,-4.69c-1.407,-1.511 -1.281,-2.082 0.353,-1.595c1.208,0.361 6.563,0.384 6.916,0.031c0.075,-0.075 -0.147,-1.241 -0.492,-2.593c-0.441,-1.727 -0.843,-2.401 -1.352,-2.266c-3.041,0.807 -3.221,0.689 -1.221,-0.801c2.639,-1.967 3.897,-3.434 3.497,-4.08c-0.502,-0.812 0.558,-0.626 1.436,0.252c1.075,1.075 0.988,1.56 -0.534,2.971l-1.316,1.219l2.434,-0.316c1.338,-0.173 3.167,-0.612 4.065,-0.975c1.124,-0.456 2.012,-0.516 2.857,-0.195c1.619,0.616 1.553,1.295 -0.159,1.637c-0.861,0.173 -1.412,0.618 -1.458,1.18c-0.041,0.497 -0.226,1.512 -0.411,2.257l-0.335,1.353l3.187,-0.298c2.605,-0.243 3.341,-0.144 4.03,0.546c1.581,1.581 1.04,1.935 -2.262,1.479c-4.308,-0.595 -10.319,-0.363 -13.766,0.53c-3.794,0.983 -4.267,0.954 -5.469,-0.336l0,0Zm12.817,-2.17c0.091,-0.077 0.293,-1.087 0.449,-2.246c0.272,-2.032 0.24,-2.095 -0.912,-1.787c-0.656,0.176 -1.905,0.323 -2.774,0.327c-1.525,0.006 -1.565,0.059 -1.144,1.526c0.239,0.835 0.319,1.822 0.177,2.193c-0.203,0.528 0.207,0.615 1.889,0.4c1.182,-0.151 2.224,-0.337 2.315,-0.413Zm-4.141,-12.362c4.012,-2.418 6.211,-4.814 6.211,-6.767c0,-1.374 -0.139,-1.515 -1.353,-1.374c-1.102,0.128 -1.455,0.52 -1.9,2.116c-0.637,2.28 -1.423,2.746 -2.197,1.301c-0.736,-1.375 -1.316,-1.293 -3.321,0.467c-1.918,1.684 -2.739,1.835 -3.864,0.71c-1.118,-1.118 -0.966,-2.351 0.456,-3.686c1.156,-1.087 1.364,-1.12 3.207,-0.512c1.716,0.567 2.132,0.545 3.223,-0.17c1.091,-0.715 1.182,-0.976 0.706,-2.021c-0.471,-1.033 -0.706,-1.127 -1.695,-0.676c-1.608,0.732 -2.552,0.222 -2.951,-1.595c-0.189,-0.857 -0.657,-1.679 -1.041,-1.826c-1.114,-0.428 -0.807,-1.241 0.403,-1.066c0.853,0.123 2.258,1.843 2.658,3.256c0.018,0.063 0.759,-0.159 1.647,-0.494c1.507,-0.569 1.593,-0.727 1.29,-2.352c-0.383,-2.05 -1.052,-2.984 -2.136,-2.984c-0.561,0 -0.631,-0.153 -0.248,-0.536c0.881,-0.882 3.337,-0.33 3.863,0.868c0.376,0.857 0.855,1.061 2.338,0.994c2.597,-0.117 2.64,0.875 0.046,1.063c-1.757,0.127 -2.112,0.326 -2.112,1.183c0,0.908 0.226,1 1.905,0.775c1.919,-0.257 3.561,0.27 3.561,1.143c0,0.26 -1.454,0.472 -3.23,0.472c-1.777,0 -3.23,0.115 -3.23,0.256c0,0.14 0.265,0.679 0.588,1.197c0.494,0.79 0.999,0.899 3.148,0.677c2.762,-0.285 4.711,0.393 4.711,1.637c0,0.585 -0.374,0.68 -1.698,0.432l-1.698,-0.319l0.255,1.911c0.194,1.46 0.006,2.227 -0.799,3.248c-1.15,1.458 -5.232,3.564 -7.985,4.118c-1.575,0.317 -1.457,0.18 1.242,-1.446l0,0Zm-2.236,-6.199c0,-0.235 -0.437,-0.541 -0.971,-0.68c-1.319,-0.346 -2.753,0.767 -2.349,1.822c0.294,0.767 0.443,0.771 1.82,0.059c0.825,-0.426 1.5,-0.967 1.5,-1.201Zm3.478,-0.323c0,-0.426 -0.227,-0.635 -0.505,-0.463c-0.278,0.172 -0.376,0.52 -0.219,0.775c0.426,0.689 0.724,0.56 0.724,-0.312Z" style="fill:#6f6f6f;fill-rule:nonzero;"/><path id="path5609" d="M8.369,52.882c0.142,-0.615 1.712,-10.939 3.49,-22.942c1.777,-12.003 3.292,-21.885 3.366,-21.959c0.075,-0.074 3.188,-0.938 6.917,-1.919l6.782,-1.785l6.783,1.71c3.73,0.94 6.912,1.838 7.07,1.997c0.159,0.158 1.692,9.738 3.408,21.288c1.717,11.551 3.25,21.84 3.409,22.865l0.288,1.863l-20.886,0l-20.885,0l0.258,-1.118Zm40.01,-0.87c0,-1.56 -5.886,-40.852 -6.32,-42.188c-0.338,-1.04 -1.192,-1.411 -6.599,-2.863l-6.212,-1.667l-6.211,1.576c-3.416,0.867 -6.401,1.742 -6.634,1.944c-0.35,0.304 -6.779,41.61 -6.781,43.571c-0.001,0.486 4.206,0.621 19.378,0.621c19.054,0 19.379,-0.016 19.379,-0.994Zm-28.819,-2.869c0.001,-0.198 1.063,-0.919 2.361,-1.603c1.582,-0.833 2.411,-1.61 2.517,-2.359c0.135,-0.949 0.307,-1.038 1.148,-0.588c1.516,0.812 0.991,2.554 -1.058,3.513c-2.02,0.945 -4.97,1.561 -4.968,1.037Zm13.497,-2.374l-2.651,-2.685l2.302,0.693c3.289,0.99 4.739,2.067 4.739,3.52c0,1.957 -1.446,1.453 -4.39,-1.528Zm-14.987,-3.947c-1.445,-1.539 -1.174,-1.866 1.024,-1.235c0.938,0.269 2.774,0.347 4.079,0.174c1.873,-0.248 2.324,-0.485 2.139,-1.119c-0.129,-0.442 -0.385,-1.656 -0.57,-2.697c-0.266,-1.497 -0.505,-1.821 -1.145,-1.551c-2.938,1.243 -3.104,0.705 -0.405,-1.315c2.07,-1.549 2.821,-2.412 2.655,-3.048c-0.3,-1.148 0.293,-1.133 1.349,0.034c1.023,1.13 0.711,2.069 -1.065,3.209c-1.353,0.869 -1.351,0.869 1.627,0.542c1.64,-0.18 3.54,-0.599 4.223,-0.931c1.379,-0.669 3.542,-0.322 3.856,0.619c0.131,0.394 -0.352,0.608 -1.371,0.608c-1.043,0 -1.501,0.209 -1.358,0.621c0.118,0.341 -0.081,1.472 -0.444,2.513l-0.659,1.892l3.342,-0.329c2.993,-0.295 3.441,-0.221 4.28,0.706c0.863,0.953 0.87,1.061 0.099,1.357c-0.46,0.177 -2.154,0.042 -3.763,-0.299c-3.261,-0.692 -8.739,-0.365 -13.035,0.779c-3.449,0.918 -3.503,0.912 -4.858,-0.53Zm13.034,-2.438c0.201,-0.3 0.369,-1.28 0.373,-2.178l0.007,-1.632l-2.608,0.333c-1.435,0.183 -2.629,0.359 -2.653,0.39c-0.025,0.031 0.055,1.006 0.176,2.166l0.22,2.11l2.06,-0.322c1.133,-0.177 2.224,-0.567 2.425,-0.867l0,0Zm-4.34,-11.931c3.989,-2.417 6.211,-4.83 6.211,-6.744c0,-1.332 -0.164,-1.498 -1.485,-1.498c-1.349,0 -1.514,0.182 -1.804,1.998c-0.391,2.443 -1.127,2.998 -2.079,1.565c-0.922,-1.389 -1.646,-1.361 -3.032,0.113c-1.48,1.575 -3.278,1.893 -4.303,0.76c-0.986,-1.089 -0.571,-2.69 0.956,-3.691c0.885,-0.58 1.453,-0.609 2.944,-0.151c1.454,0.446 2.113,0.425 3.09,-0.098c1.401,-0.75 1.516,-1.334 0.521,-2.647c-0.57,-0.752 -0.875,-0.81 -1.763,-0.335c-1.481,0.793 -2.333,0.339 -2.726,-1.453c-0.184,-0.837 -0.708,-1.731 -1.165,-1.988c-0.769,-0.431 -0.765,-0.491 0.045,-0.804c1.162,-0.447 2.354,0.601 2.354,2.071c0,1.361 0.105,1.388 2.325,0.585c1.005,-0.364 1.65,-0.934 1.65,-1.459c0,-1.636 -1.009,-3.507 -2.035,-3.776c-0.784,-0.205 -0.872,-0.37 -0.367,-0.69c1.328,-0.842 2.907,-0.465 3.499,0.835c0.519,1.138 0.776,1.237 2.474,0.95c1.534,-0.259 1.895,-0.17 1.895,0.469c0,0.585 -0.498,0.789 -1.93,0.789c-1.496,0 -1.986,0.218 -2.183,0.971c-0.226,0.865 0.046,0.986 2.511,1.118c1.658,0.088 2.848,0.396 2.971,0.768c0.151,0.458 -0.721,0.621 -3.315,0.621c-1.936,0 -3.52,0.112 -3.52,0.249c0,0.137 0.423,0.671 0.939,1.187c0.727,0.727 1.428,0.886 3.106,0.702c2.541,-0.277 4.899,0.492 4.899,1.599c0,0.627 -0.352,0.715 -1.793,0.444c-1.79,-0.336 -1.792,-0.333 -1.459,1.184c0.555,2.525 -0.819,4.441 -4.36,6.08c-1.689,0.781 -3.742,1.57 -4.562,1.752c-1.129,0.251 -0.768,-0.107 1.491,-1.476l0,0Zm-3.093,-5.359l1.533,-1.091l-1.426,-0.382c-1.632,-0.436 -2.728,0.22 -2.728,1.632c0,1.223 0.744,1.178 2.621,-0.159Zm4.59,-1.801c-0.395,-0.394 -1.249,0.502 -0.946,0.993c0.206,0.334 0.462,0.283 0.726,-0.144c0.225,-0.363 0.323,-0.745 0.22,-0.849Z" style="fill:#4f4f4f;fill-rule:nonzero;"/><path id="path5607" d="M8.627,52.908c0,-1.025 6.453,-44.789 6.627,-44.943c0.045,-0.039 3.174,-0.882 6.954,-1.873l6.873,-1.802l6.907,1.82c6.839,1.801 6.909,1.834 7.177,3.364c0.149,0.849 1.608,10.6 3.243,21.669c1.634,11.068 3.1,20.739 3.256,21.491l0.285,1.366l-20.661,0l-20.661,0l0,-1.092Zm39.756,-1.02c0.01,-2.626 -6.168,-42.411 -6.663,-42.917c-0.3,-0.306 -3.229,-1.271 -6.509,-2.145l-5.963,-1.588l-6.402,1.648c-5.007,1.289 -6.492,1.864 -6.814,2.641c-0.383,0.922 -6.411,41.12 -6.411,42.748c0,0.631 2.655,0.731 19.379,0.731l19.379,0l0.004,-1.118l0,0Zm-15.326,-5.119l-2.651,-2.685l2.301,0.693c3.205,0.964 4.718,2.205 4.733,3.881c0.014,1.58 -1.677,0.852 -4.383,-1.889Zm-11.464,1.114c1.204,-0.631 2.413,-1.643 2.686,-2.249c0.652,-1.448 1.988,-1.165 1.988,0.422c0,1.494 -2.572,2.973 -5.171,2.974l-1.693,0.001l2.19,-1.148l0,0Zm-3.088,-4.651c-1.605,-1.864 -1.55,-2.104 0.359,-1.577c1.552,0.428 6.658,0.161 6.658,-0.348c0,-0.098 -0.246,-1.322 -0.546,-2.721c-0.414,-1.93 -0.724,-2.475 -1.288,-2.258c-0.409,0.156 -1.337,0.408 -2.063,0.559c-1.259,0.262 -1.272,0.244 -0.283,-0.374c2.668,-1.67 4.799,-3.838 4.511,-4.587c-0.355,-0.928 0.219,-1.029 1.06,-0.187c0.973,0.973 0.686,2.232 -0.77,3.37l-1.367,1.067l2.733,-0.304c1.503,-0.168 3.426,-0.55 4.273,-0.851c1.635,-0.579 4.175,-0.212 4.175,0.603c0,0.268 -0.627,0.488 -1.393,0.488c-1.274,0 -1.436,0.214 -1.906,2.506l-0.513,2.507l3.272,-0.323c2.918,-0.287 3.375,-0.21 4.21,0.713c0.833,0.921 0.849,1.069 0.144,1.34c-0.436,0.167 -1.931,0.06 -3.322,-0.238c-3.457,-0.742 -7.042,-0.668 -11.176,0.23c-1.913,0.416 -4.042,0.877 -4.732,1.025c-0.848,0.182 -1.506,-0.025 -2.036,-0.64Zm12.584,-2.796c0.209,-0.329 0.384,-1.345 0.388,-2.259l0.007,-1.662l-2.608,0.351c-1.435,0.194 -2.629,0.382 -2.653,0.42c-0.025,0.037 0.057,1.043 0.181,2.234l0.226,2.166l2.04,-0.326c1.122,-0.179 2.21,-0.595 2.419,-0.924l0,0Zm-5.567,-10.949c0,-0.09 1.104,-0.88 2.453,-1.754c3.236,-2.097 5,-4.249 5,-6.101c0,-1.375 -0.118,-1.473 -1.615,-1.328c-1.47,0.141 -1.637,0.33 -1.863,2.104c-0.137,1.072 -0.501,2.032 -0.808,2.133c-0.824,0.271 -1.291,-1.362 -0.621,-2.169c0.654,-0.788 0.282,-1.438 -0.534,-0.934c-0.296,0.183 -0.391,0.569 -0.212,0.859c0.188,0.305 0.034,0.426 -0.365,0.287c-0.379,-0.132 -1.424,0.398 -2.322,1.178c-2.683,2.33 -5.617,1.422 -4.549,-1.407c0.655,-1.732 2.096,-2.247 4.023,-1.437c1.456,0.613 1.82,0.599 3.025,-0.113c1.531,-0.904 1.653,-1.42 0.649,-2.745c-0.57,-0.752 -0.875,-0.81 -1.763,-0.335c-1.338,0.717 -2.486,0.317 -2.486,-0.866c0,-0.495 -0.358,-1.411 -0.796,-2.036c-0.923,-1.318 -0.533,-2.022 0.696,-1.253c0.465,0.292 0.914,1.211 0.997,2.044l0.152,1.514l1.96,-0.77c1.589,-0.624 1.96,-1.017 1.96,-2.075c0,-1.621 -1.268,-3.503 -2.388,-3.545c-0.577,-0.021 -0.468,-0.181 0.348,-0.507c1.543,-0.617 2.901,-0.167 3.301,1.095c0.255,0.803 0.671,0.971 2.09,0.844c1.097,-0.098 1.854,0.079 1.985,0.463c0.147,0.428 -0.4,0.621 -1.763,0.621c-1.757,0 -2.579,0.567 -2.579,1.78c0,0.114 1.23,0.208 2.733,0.208c1.952,0 2.733,0.19 2.733,0.665c0,0.48 -0.844,0.673 -3.029,0.694c-1.666,0.015 -3.276,0.275 -3.578,0.577c-0.4,0.4 -0.336,0.548 0.238,0.548c0.433,0 0.898,0.424 1.033,0.941c0.22,0.843 0.453,0.886 2.238,0.409c2.383,-0.636 5.249,0.018 5.486,1.25c0.133,0.69 -0.142,0.777 -1.667,0.53l-1.826,-0.296l0.34,1.55c0.516,2.351 -0.919,4.331 -4.403,6.072c-2.595,1.297 -4.273,1.809 -4.273,1.305Zm-1.681,-6.468l1.357,-1.166l-1.377,-0.346c-1.583,-0.397 -2.771,0.352 -2.771,1.746c0,1.269 1.156,1.173 2.791,-0.234Z" style="fill:#2f2f2f;fill-rule:nonzero;"/><path id="path5605" d="M8.613,53.13c-0.008,-0.205 1.482,-10.45 3.31,-22.767l3.323,-22.395l6.851,-1.776l6.852,-1.777l6.96,1.743l6.96,1.743l0.305,2.055c0.167,1.131 1.698,11.391 3.401,22.802l3.096,20.745l-20.522,0c-11.287,0 -20.528,-0.168 -20.536,-0.373Zm39.947,-1.739c-0.14,-0.888 -1.64,-10.874 -3.335,-22.191l-3.081,-20.576l-6.448,-1.725l-6.448,-1.726l-6.604,1.676c-5.456,1.384 -6.644,1.849 -6.835,2.674c-0.404,1.752 -6.188,41.474 -6.188,42.499c0,0.964 0.395,0.984 19.596,0.984l19.597,0l-0.254,-1.615Zm-14.998,-4.367c-2.815,-2.624 -2.817,-2.734 -0.053,-1.966c2.126,0.59 4.185,2.612 3.768,3.699c-0.439,1.145 -0.821,0.967 -3.715,-1.733Zm-11.767,0.918c1.093,-0.641 2.208,-1.665 2.478,-2.275c0.812,-1.835 2.639,-1.151 2.032,0.761c-0.388,1.222 -1.883,2.039 -4.364,2.384l-2.134,0.296l1.988,-1.166Zm-3.376,-4.761c-0.466,-0.515 -0.848,-1.044 -0.848,-1.176c0,-0.132 1.658,-0.227 3.683,-0.21c2.026,0.017 3.84,-0.125 4.031,-0.315c0.479,-0.475 -0.74,-5.368 -1.336,-5.368c-0.264,0 -0.932,0.241 -1.484,0.537c-1.925,1.03 -1.383,0.128 0.882,-1.469c1.255,-0.884 2.398,-2.052 2.54,-2.595c0.325,-1.242 1.323,-0.962 1.529,0.428c0.101,0.685 -0.286,1.336 -1.114,1.879c-2.024,1.326 -1.059,1.655 2.567,0.874c4.438,-0.955 6.202,-1.031 6.461,-0.276c0.132,0.386 -0.249,0.622 -1.006,0.622c-0.988,0 -1.27,0.305 -1.49,1.615c-0.149,0.888 -0.436,2.032 -0.637,2.542c-0.344,0.87 -0.154,0.906 3.075,0.582c3.09,-0.31 3.535,-0.241 4.367,0.677c0.843,0.932 0.852,1.05 0.103,1.338c-0.452,0.174 -1.812,0.066 -3.021,-0.238c-3.951,-0.995 -9.212,-0.615 -16.19,1.167c-0.903,0.231 -1.506,0.055 -2.112,-0.614Zm11.736,-2.067c0.97,-0.369 1.259,-0.887 1.417,-2.541l0.198,-2.076l-2.726,0.32c-1.499,0.176 -2.757,0.369 -2.796,0.429c-0.038,0.059 0.03,1.058 0.151,2.22c0.19,1.817 0.382,2.111 1.379,2.111c0.636,0 1.706,-0.208 2.377,-0.463Zm-2.391,-13.146c3.403,-2.313 5.055,-4.228 5.32,-6.167c0.22,-1.614 0.194,-1.638 -1.558,-1.491c-1.668,0.14 -1.79,0.268 -1.935,2.013c-0.175,2.116 -0.647,2.304 -2.109,0.842l-1.021,-1.021l-1.729,1.518c-2.828,2.482 -5.233,1.816 -4.467,-1.238c0.407,-1.618 1.466,-2.005 3.79,-1.385c1.4,0.374 2.179,0.329 3.154,-0.182c1.444,-0.757 1.612,-1.512 0.634,-2.85c-0.556,-0.761 -0.837,-0.809 -1.778,-0.305c-1.498,0.801 -2.531,0.325 -2.531,-1.167c0,-0.672 -0.325,-1.547 -0.722,-1.944c-0.928,-0.928 -0.418,-1.45 0.787,-0.805c0.587,0.314 0.929,1.04 0.929,1.97c0,1.727 -0.043,1.715 2.219,0.636c1.248,-0.595 1.756,-1.164 1.756,-1.964c0,-1.607 -0.994,-3.575 -1.933,-3.826c-0.44,-0.118 0.039,-0.24 1.064,-0.272c1.576,-0.048 1.863,0.103 1.863,0.979c0,0.912 0.249,1.017 2.067,0.87c1.421,-0.115 2.138,0.045 2.296,0.512c0.177,0.521 -0.247,0.634 -1.818,0.484c-1.126,-0.108 -2.048,-0.04 -2.048,0.15c0,0.189 -0.131,0.686 -0.291,1.103c-0.235,0.611 0.218,0.788 2.321,0.911c1.683,0.097 2.693,0.397 2.84,0.842c0.171,0.519 -0.087,0.613 -1.03,0.376c-1.552,-0.39 -5.828,0.153 -5.828,0.74c0,0.236 0.31,0.429 0.688,0.429c0.378,0 0.797,0.423 0.932,0.939c0.221,0.844 0.471,0.888 2.463,0.432c1.707,-0.391 2.542,-0.35 3.627,0.179c2.116,1.03 2.165,1.937 0.087,1.599l-1.709,-0.277l0.052,2.019c0.069,2.603 -1.801,4.654 -5.505,6.04c-3.63,1.358 -3.75,1.264 -0.877,-0.689Zm-3.977,-4.868c1.276,-1.004 1.31,-1.115 0.44,-1.456c-1.642,-0.645 -2.629,-0.469 -3.183,0.565c-1.109,2.073 0.554,2.613 2.743,0.891Zm4.716,-1.15c0,-0.41 -0.335,-0.745 -0.745,-0.745c-0.776,0 -0.986,0.587 -0.414,1.159c0.571,0.572 1.159,0.362 1.159,-0.414Z" style="fill:#040404;fill-rule:nonzero;"/></g></svg>