<?xml version="1.0" encoding="UTF-8" standalone="no"?><!DOCTYPE svg PUBLIC "-//W3C//DTD SVG 1.1//EN" "http://www.w3.org/Graphics/SVG/1.1/DTD/svg11.dtd"><svg width="100%" height="100%" viewBox="0 0 39 39" version="1.1" xmlns="http://www.w3.org/2000/svg" xmlns:xlink="http://www.w3.org/1999/xlink" xml:space="preserve" xmlns:serif="http://www.serif.com/" style="fill-rule:evenodd;clip-rule:evenodd;stroke-miterlimit:2;"><g id="g6139"><g id="path5629"><path d="M12.485,8.863l-3.485,23.109l21,0.091l-3.851,-23.2l-6.511,-1.926l-7.153,1.926Z" style="fill:none;fill-rule:nonzero;stroke:#000;stroke-width:2px;"/><path d="M12.485,8.863l-3.485,23.109l21,0.091l-3.851,-23.2l-6.511,-1.926l-7.153,1.926Z" style="fill:#fff;fill-rule:nonzero;"/></g><path id="path5611" d="M14.319,30.007c0,-0.062 0.58,-0.428 1.29,-0.815c0.805,-0.438 1.346,-0.924 1.439,-1.294c0.123,-0.491 0.232,-0.548 0.635,-0.332c0.611,0.327 0.627,1.064 0.034,1.6c-0.566,0.512 -3.398,1.213 -3.398,0.841Zm7.692,-0.85c-0.49,-0.53 -1.121,-1.094 -1.402,-1.254c-0.902,-0.512 -0.239,-0.64 1.058,-0.205c1.542,0.517 2.152,1.033 2.152,1.819c0,0.91 -0.777,0.755 -1.808,-0.36Zm-8.195,-2.424c-0.728,-0.781 -0.662,-1.076 0.182,-0.824c0.624,0.186 3.391,0.198 3.574,0.016c0.039,-0.039 -0.076,-0.641 -0.254,-1.34c-0.228,-0.892 -0.436,-1.241 -0.699,-1.171c-1.572,0.417 -1.665,0.356 -0.631,-0.414c1.364,-1.016 2.014,-1.774 1.807,-2.108c-0.259,-0.42 0.288,-0.324 0.742,0.13c0.556,0.556 0.511,0.806 -0.276,1.535l-0.68,0.63l1.258,-0.163c0.691,-0.089 1.636,-0.316 2.1,-0.504c0.581,-0.236 1.04,-0.267 1.477,-0.101c0.836,0.319 0.802,0.67 -0.082,0.846c-0.445,0.09 -0.73,0.32 -0.754,0.61c-0.021,0.257 -0.117,0.781 -0.212,1.166l-0.173,0.699l1.647,-0.154c1.346,-0.125 1.726,-0.074 2.082,0.283c0.817,0.817 0.537,1 -1.169,0.764c-2.226,-0.308 -5.332,-0.188 -7.113,0.274c-1.961,0.508 -2.205,0.493 -2.826,-0.174Zm6.623,-1.121c0.047,-0.04 0.151,-0.562 0.232,-1.161c0.14,-1.05 0.124,-1.082 -0.472,-0.923c-0.339,0.091 -0.984,0.167 -1.433,0.169c-0.788,0.003 -0.809,0.03 -0.591,0.788c0.123,0.432 0.165,0.942 0.091,1.134c-0.105,0.272 0.107,0.317 0.976,0.206c0.611,-0.078 1.15,-0.174 1.197,-0.213Zm-2.14,-6.388c2.073,-1.25 3.209,-2.488 3.209,-3.497c0,-0.71 -0.071,-0.783 -0.699,-0.71c-0.569,0.066 -0.752,0.269 -0.982,1.093c-0.329,1.179 -0.735,1.419 -1.135,0.673c-0.38,-0.711 -0.68,-0.668 -1.716,0.241c-0.991,0.87 -1.415,0.948 -1.997,0.367c-0.577,-0.578 -0.499,-1.215 0.236,-1.905c0.597,-0.562 0.705,-0.579 1.657,-0.264c0.887,0.293 1.102,0.281 1.666,-0.088c0.563,-0.37 0.61,-0.505 0.364,-1.045c-0.243,-0.533 -0.364,-0.582 -0.875,-0.349c-0.831,0.378 -1.319,0.115 -1.525,-0.824c-0.098,-0.443 -0.34,-0.868 -0.538,-0.944c-0.576,-0.221 -0.417,-0.641 0.208,-0.551c0.441,0.064 1.167,0.953 1.373,1.683c0.01,0.033 0.393,-0.082 0.851,-0.255c0.779,-0.294 0.824,-0.376 0.667,-1.216c-0.198,-1.059 -0.544,-1.542 -1.104,-1.542c-0.29,0 -0.326,-0.079 -0.128,-0.277c0.455,-0.455 1.725,-0.17 1.996,0.449c0.195,0.443 0.442,0.548 1.209,0.514c1.341,-0.061 1.364,0.452 0.023,0.549c-0.908,0.065 -1.091,0.168 -1.091,0.611c0,0.469 0.117,0.517 0.984,0.401c0.992,-0.133 1.84,0.139 1.84,0.59c0,0.135 -0.751,0.244 -1.669,0.244c-0.918,0 -1.669,0.06 -1.669,0.132c0,0.073 0.137,0.351 0.304,0.619c0.255,0.408 0.516,0.465 1.627,0.35c1.427,-0.147 2.434,0.203 2.434,0.846c0,0.302 -0.193,0.351 -0.877,0.223l-0.878,-0.165l0.132,0.988c0.1,0.754 0.003,1.15 -0.413,1.678c-0.594,0.753 -2.703,1.842 -4.126,2.128c-0.814,0.164 -0.753,0.093 0.642,-0.747Zm-1.156,-3.204c0,-0.121 -0.225,-0.279 -0.501,-0.351c-0.682,-0.179 -1.423,0.396 -1.214,0.942c0.152,0.396 0.229,0.398 0.94,0.03c0.427,-0.22 0.775,-0.5 0.775,-0.621Zm1.798,-0.166c0,-0.221 -0.118,-0.329 -0.261,-0.24c-0.144,0.089 -0.195,0.269 -0.113,0.401c0.22,0.356 0.374,0.289 0.374,-0.161Z" style="fill-rule:nonzero;"/></g></svg>