<?xml version="1.0" encoding="UTF-8" standalone="no"?><!DOCTYPE svg PUBLIC "-//W3C//DTD SVG 1.1//EN" "http://www.w3.org/Graphics/SVG/1.1/DTD/svg11.dtd"><svg width="100%" height="100%" viewBox="0 0 39 39" version="1.1" xmlns="http://www.w3.org/2000/svg" xmlns:xlink="http://www.w3.org/1999/xlink" xml:space="preserve" xmlns:serif="http://www.serif.com/" style="fill-rule:evenodd;clip-rule:evenodd;stroke-miterlimit:2;"><g id="g3792"><g id="path3022"><path d="M17.937,4.225c-2.248,0.605 -4.539,1.105 -6.717,1.918c-0.397,0.169 -0.25,0.731 -0.389,1.064c-1.571,9.187 -2.816,18.44 -4.31,27.638c-0.134,0.362 0.4,0.294 0.61,0.311c5.64,0.076 11.282,0.013 16.923,0.008c2.73,-0.034 5.463,0.023 8.19,-0.087c0.527,0.012 0.067,-0.71 0.123,-1.023c-1.308,-8.613 -2.532,-17.244 -3.947,-25.837c-0.164,-0.683 -0.172,-1.442 -0.486,-2.069c-1.27,-0.551 -2.663,-0.793 -3.99,-1.197c-1.451,-0.388 -2.901,-0.795 -4.36,-1.144c-0.549,0.139 -1.098,0.279 -1.647,0.418Z" style="fill:none;fill-rule:nonzero;stroke:#000;stroke-width:2px;"/><path d="M17.937,4.225c-2.248,0.605 -4.539,1.105 -6.717,1.918c-0.397,0.169 -0.25,0.731 -0.389,1.064c-1.571,9.187 -2.816,18.44 -4.31,27.638c-0.134,0.362 0.4,0.294 0.61,0.311c5.64,0.076 11.282,0.013 16.923,0.008c2.73,-0.034 5.463,0.023 8.19,-0.087c0.527,0.012 0.067,-0.71 0.123,-1.023c-1.308,-8.613 -2.532,-17.244 -3.947,-25.837c-0.164,-0.683 -0.172,-1.442 -0.486,-2.069c-1.27,-0.551 -2.663,-0.793 -3.99,-1.197c-1.451,-0.388 -2.901,-0.795 -4.36,-1.144c-0.549,0.139 -1.098,0.279 -1.647,0.418Z" style="fill:#fff;fill-rule:nonzero;"/></g><path id="path3004" d="M19.174,33.571c-0.11,-0.111 -0.285,-0.943 -0.387,-1.849l-0.186,-1.645l-1.158,0.177c-0.637,0.096 -1.917,0.41 -2.843,0.696c-0.927,0.285 -2.016,0.521 -2.421,0.523c-0.742,0.003 -2.215,-0.942 -2.215,-1.422c0,-0.143 0.941,-0.26 2.091,-0.26c1.149,0 2.151,-0.099 2.226,-0.22c0.231,-0.374 -0.657,-4.082 -1.094,-4.564c-0.685,-0.757 -0.52,-1.209 0.359,-0.984c0.905,0.231 2.265,0.231 3.933,0c0.967,-0.135 1.194,-0.277 1.194,-0.748c0,-0.521 -0.108,-0.56 -1.053,-0.372c-1.585,0.314 -2.336,0.249 -2.832,-0.248c-0.247,-0.247 -0.328,-0.458 -0.178,-0.47c0.149,-0.011 0.988,-0.061 1.866,-0.111c0.877,-0.05 1.73,-0.175 1.896,-0.277c0.43,-0.266 0.372,-1.166 -0.107,-1.645c-0.51,-0.51 -0.282,-0.756 0.701,-0.756c0.985,0 1.466,0.593 1.233,1.519c-0.208,0.831 -0.158,0.847 1.312,0.406c1.165,-0.349 1.938,-0.026 1.938,0.81c0,0.325 -0.217,0.377 -0.966,0.237c-1.35,-0.253 -2.405,0.059 -2.405,0.711c0,0.629 0.675,0.682 2.827,0.22c1.758,-0.377 2.571,-0.087 3.207,1.143c0.415,0.803 0.407,0.904 -0.135,1.637c-0.317,0.429 -0.654,1.251 -0.747,1.825l-0.169,1.044l1.28,0c1.047,0 1.386,0.134 1.859,0.735c1.018,1.294 0.333,1.524 -2.408,0.81c-0.89,-0.232 -2.534,-0.422 -3.653,-0.422l-2.036,0l-0.166,1.054c-0.281,1.786 -0.553,2.657 -0.763,2.446Zm-0.852,-4.497c0.763,-0.235 0.336,-0.729 -0.475,-0.551c-0.808,0.177 -2.199,-0.296 -1.861,-0.633c0.093,-0.093 0.694,-0.241 1.335,-0.329c0.642,-0.087 1.225,-0.335 1.297,-0.552c0.101,-0.306 -0.071,-0.353 -0.773,-0.213c-0.897,0.179 -1.981,-0.171 -1.981,-0.641c0,-0.134 0.632,-0.331 1.404,-0.438c0.96,-0.132 1.405,-0.323 1.405,-0.605c0,-0.333 -0.255,-0.373 -1.334,-0.206c-0.734,0.113 -1.556,0.192 -1.826,0.175c-0.592,-0.037 -0.623,0.527 -0.156,2.791l0.336,1.627l1.139,-0.159c0.626,-0.087 1.297,-0.207 1.49,-0.266Zm5.856,-2.092c0.292,-1.589 0.277,-1.893 -0.114,-2.334c-0.332,-0.374 -0.708,-0.469 -1.445,-0.361c-0.548,0.08 -1.344,0.15 -1.769,0.155c-0.522,0.008 -0.772,0.16 -0.772,0.469c0,0.374 0.199,0.425 1.103,0.281c0.81,-0.13 1.222,-0.06 1.546,0.264c0.748,0.748 0.501,0.964 -1.104,0.964c-1.224,0 -1.545,0.092 -1.545,0.446c0,0.365 0.205,0.411 1.133,0.254c1.174,-0.198 1.957,0.145 1.957,0.859c0,0.276 -0.38,0.327 -1.545,0.207c-1.325,-0.137 -1.545,-0.092 -1.545,0.314c0,0.405 0.271,0.462 1.882,0.391l1.883,-0.083l0.335,-1.826Zm-6.231,-8.618c-0.719,-0.773 -0.723,-0.796 -0.146,-0.883c0.544,-0.083 0.591,-0.268 0.591,-2.328c0,-2.151 -0.022,-2.226 -0.562,-1.937c-0.309,0.166 -0.562,0.554 -0.562,0.864c0,1.083 -1.085,2.65 -2.486,3.59c-1.561,1.048 -2.008,0.984 -2.008,-0.291c0,-0.675 0.078,-0.795 0.366,-0.557c0.269,0.224 0.599,0.162 1.25,-0.234c0.835,-0.508 1.953,-2.144 1.662,-2.434c-0.073,-0.074 -0.671,0.14 -1.328,0.475c-0.925,0.472 -1.386,0.555 -2.043,0.367c-1.372,-0.394 -1.16,-0.814 0.578,-1.142c2.773,-0.525 3.248,-0.796 3.104,-1.778c-0.097,-0.663 -0.027,-0.831 0.32,-0.765c0.245,0.047 0.485,0.368 0.535,0.714c0.075,0.527 0.177,0.581 0.632,0.338c0.413,-0.221 0.542,-0.593 0.542,-1.563c0,-0.7 -0.137,-1.528 -0.303,-1.84c-0.425,-0.793 -0.082,-1.003 0.811,-0.497c0.697,0.394 0.749,0.545 0.657,1.926c-0.096,1.453 -0.08,1.493 0.564,1.331c1.028,-0.257 1.279,0.093 1.413,1.977c0.158,2.238 0.696,2.89 2.38,2.89l1.221,0l0.01,-1.334l0.011,-1.335l0.399,0.918c0.219,0.504 0.594,0.992 0.832,1.083c0.637,0.245 0.527,1.16 -0.186,1.541c-0.936,0.502 -3.446,0.413 -4.309,-0.152c-0.937,-0.614 -1.533,-2.034 -1.533,-3.653c0,-0.996 -0.088,-1.23 -0.413,-1.106c-0.321,0.124 -0.43,0.846 -0.491,3.269c-0.089,3.464 -0.309,3.835 -1.508,2.546Zm5.291,-3.68c-0.811,-0.132 -0.813,-0.513 -0.001,-0.724c0.711,-0.187 1.674,0.488 1.006,0.705c-0.205,0.067 -0.657,0.075 -1.005,0.019Zm-0.773,-2.179c0.6,-0.465 1.967,-0.46 1.967,0.009c0,0.154 -0.569,0.313 -1.264,0.354c-1.191,0.069 -1.232,0.048 -0.703,-0.363Zm-8.504,-1.091c1.268,-0.893 1.811,-1.774 1.367,-2.217c-0.488,-0.488 -0.36,-0.756 0.361,-0.756c0.368,0 0.835,0.201 1.04,0.448c0.747,0.9 -0.955,2.758 -2.832,3.09l-0.983,0.174l1.047,-0.739Zm7.662,-0.785c-0.927,-0.531 -1.246,-1.142 -1.256,-2.399c-0.004,-0.657 -0.121,-1.195 -0.259,-1.195c-0.137,0 -0.781,0.239 -1.431,0.529c-1.312,0.588 -1.979,0.519 -2.698,-0.275c-0.465,-0.514 -0.45,-0.535 0.412,-0.535c0.492,0 1.666,-0.259 2.61,-0.576c2.321,-0.783 2.593,-0.641 2.359,1.234c-0.154,1.233 -0.094,1.608 0.349,2.155c0.471,0.582 0.652,0.63 1.479,0.393c0.64,-0.184 1.003,-0.492 1.135,-0.965c0.107,-0.383 0.206,-0.537 0.222,-0.344c0.015,0.193 0.276,0.599 0.579,0.903c0.497,0.496 0.509,0.595 0.121,0.983c-0.512,0.513 -2.788,0.57 -3.622,0.092Zm0.28,-1.906c0.327,-0.53 1.142,-0.813 1.561,-0.544c0.353,0.227 0.351,0.298 -0.015,0.538c-0.552,0.362 -1.769,0.367 -1.546,0.006Zm-0.14,-1.617c0,-0.487 1.669,-1.043 2.034,-0.677c0.424,0.423 0.199,0.599 -1.016,0.796c-0.607,0.099 -1.018,0.051 -1.018,-0.119Z" style="fill-rule:nonzero;"/></g></svg>