<?xml version="1.0" encoding="UTF-8" standalone="no"?><!DOCTYPE svg PUBLIC "-//W3C//DTD SVG 1.1//EN" "http://www.w3.org/Graphics/SVG/1.1/DTD/svg11.dtd"><svg width="100%" height="100%" viewBox="0 0 58 58" version="1.1" xmlns="http://www.w3.org/2000/svg" xmlns:xlink="http://www.w3.org/1999/xlink" xml:space="preserve" xmlns:serif="http://www.serif.com/" style="fill-rule:evenodd;clip-rule:evenodd;stroke-linejoin:round;stroke-miterlimit:1.41421;"><g id="g3792"><path id="path3022" d="M26.445,5.628c-3.456,0.929 -6.978,1.698 -10.327,2.948c-0.61,0.259 -0.384,1.123 -0.597,1.636c-2.415,14.123 -4.33,28.348 -6.626,42.488c-0.206,0.557 0.615,0.452 0.937,0.479c8.671,0.117 17.345,0.02 26.016,0.012c4.197,-0.053 8.399,0.035 12.592,-0.133c0.81,0.018 0.103,-1.093 0.188,-1.573c-2.011,-13.241 -3.892,-26.51 -6.067,-39.721c-0.253,-1.049 -0.265,-2.216 -0.748,-3.181c-1.952,-0.847 -4.094,-1.218 -6.133,-1.84c-2.231,-0.596 -4.46,-1.222 -6.703,-1.759c-0.844,0.214 -1.688,0.429 -2.532,0.644l0,0Z" style="fill:#fff;fill-rule:nonzero;"/><path id="path3010" d="M7.961,53.244c0.094,-0.415 1.654,-10.764 3.467,-22.997c1.813,-12.233 3.348,-22.3 3.41,-22.371c0.062,-0.072 3.243,-0.973 7.069,-2.003l6.957,-1.873l6.944,1.852c3.819,1.019 7.01,1.92 7.09,2.003c0.081,0.082 1.625,10.061 3.432,22.176c1.806,12.114 3.382,22.463 3.502,22.997l0.219,0.972l-21.13,0c-19.901,0 -21.12,-0.044 -20.96,-0.756Zm40.34,-0.864c-0.016,-0.852 -6.406,-43.372 -6.538,-43.496c-0.083,-0.078 -2.99,-0.903 -6.461,-1.832l-6.311,-1.69l-6.429,1.687c-3.537,0.928 -6.466,1.721 -6.51,1.761c-0.08,0.074 -6.615,43.188 -6.615,43.645c0,0.137 8.746,0.249 19.435,0.249c10.689,0 19.432,-0.145 19.429,-0.324Zm-20.447,-2.591c-0.148,-0.891 -0.27,-2.181 -0.273,-2.867l-0.005,-1.247l-2.407,0.283c-1.324,0.156 -3.097,0.571 -3.939,0.924c-2.433,1.016 -5.156,0.837 -6.414,-0.42c-1.727,-1.728 -1.391,-2.045 1.855,-1.754c4,0.359 4.257,0.123 3.59,-3.298c-0.294,-1.508 -0.932,-3.39 -1.418,-4.182l-0.883,-1.44l2.109,0.12c4.36,0.247 7.091,-0.017 7.358,-0.713c0.395,-1.029 -0.003,-1.133 -2.147,-0.559c-1.618,0.432 -2.183,0.421 -3.081,-0.06c-1.945,-1.04 -1.328,-1.628 1.899,-1.81c1.65,-0.093 3.139,-0.309 3.309,-0.479c0.171,-0.17 0.041,-0.844 -0.286,-1.499c-0.328,-0.654 -0.668,-1.335 -0.754,-1.513c-0.189,-0.388 2.148,-0.434 3.118,-0.062c0.405,0.156 0.683,0.771 0.683,1.512c0,1.311 0.858,1.649 2.136,0.841c0.918,-0.581 3.016,0.669 3.04,1.812c0.003,0.178 -1.257,0.324 -2.801,0.324c-2.567,0 -2.807,0.077 -2.807,0.91c0,0.725 0.198,0.864 0.972,0.68c2.132,-0.506 5.896,-0.798 6.76,-0.524c0.503,0.16 1.224,0.888 1.602,1.619c0.642,1.242 0.631,1.429 -0.174,2.885c-0.473,0.855 -0.992,2.177 -1.153,2.936l-0.292,1.38l2.283,0.131c1.982,0.115 2.369,0.289 2.944,1.33c0.998,1.807 0.137,2.035 -4.222,1.118c-2.065,-0.434 -4.871,-0.793 -6.237,-0.797l-2.483,-0.008l0,1.354c0,1.589 -0.865,4.693 -1.308,4.693c-0.169,0 -0.427,-0.729 -0.574,-1.62l0,0Zm-1.141,-6.154c0.493,-0.319 0.321,-0.42 -0.721,-0.425c-1.804,-0.009 -2.734,-0.394 -2.734,-1.133c0,-0.377 0.471,-0.602 1.26,-0.602c1.423,0 2.626,-0.377 2.626,-0.823c0,-0.164 -0.635,-0.225 -1.412,-0.134c-1.017,0.119 -1.635,-0.081 -2.207,-0.713c-0.787,-0.87 -0.774,-0.881 1.412,-1.171c1.214,-0.161 2.207,-0.485 2.207,-0.719c0,-0.363 -4.681,-0.083 -5.087,0.304c-0.067,0.064 0.123,1.406 0.422,2.982l0.544,2.866l1.521,-0.007c0.836,-0.003 1.812,-0.195 2.169,-0.425Zm9.066,-3.006c0.279,-1.653 0.382,-3.208 0.23,-3.455c-0.298,-0.482 -4.459,-0.621 -5.59,-0.187c-1.404,0.539 -0.666,1.106 1.059,0.815c1.881,-0.318 3.008,0.229 3.009,1.459c0.001,0.559 -0.457,0.703 -2.228,0.703c-1.491,0 -2.295,0.194 -2.428,0.585c-0.146,0.433 0.069,0.508 0.825,0.29c0.563,-0.163 1.348,-0.386 1.745,-0.496c0.785,-0.217 2.63,1.465 2.261,2.062c-0.125,0.201 -1.284,0.366 -2.576,0.366c-1.293,0 -2.35,0.194 -2.35,0.432c0,0.243 1.21,0.432 2.768,0.432l2.768,0l0.507,-3.006Zm-9.697,-13.293c-1.32,-1.423 -1.402,-1.995 -0.233,-1.624c0.813,0.258 0.864,0.077 0.864,-3.081c0,-3.585 -0.294,-3.697 -1.448,-0.556c-0.763,2.075 -2.171,3.639 -4.443,4.936c-1.855,1.059 -2.737,0.635 -2.665,-1.281c0.062,-1.629 0.298,-1.841 1.126,-1.013c0.671,0.672 2.556,-0.675 3.715,-2.655l0.819,-1.4l-1.774,0.906c-2.001,1.021 -2.944,1.109 -4.696,0.441c-1.172,-0.448 -1.186,-0.486 -0.377,-1.08c0.461,-0.339 1.252,-0.616 1.757,-0.616c0.505,0 1.926,-0.299 3.157,-0.664c2.239,-0.665 2.721,-1.359 1.873,-2.696c-0.281,-0.442 -0.602,-0.421 -1.613,0.106c-0.694,0.362 -1.845,0.658 -2.557,0.659l-1.296,0.001l1.296,-0.801c2.114,-1.306 2.944,-2.476 2.634,-3.713c-0.224,-0.893 -0.119,-1.098 0.561,-1.098c2.014,0 2.84,1.35 1.816,2.967c-0.244,0.385 -0.11,0.855 0.384,1.349c0.417,0.418 0.854,1.026 0.97,1.353c0.333,0.94 0.813,0.17 1.065,-1.71c0.246,-1.832 -0.588,-4.39 -1.431,-4.39c-0.601,0 -2.76,-1.667 -2.76,-2.131c0,-0.187 1.134,-0.444 2.521,-0.569c1.387,-0.126 3.138,-0.548 3.891,-0.937c1.673,-0.865 3.308,-0.269 2.955,1.078c-0.198,0.757 -0.142,0.771 0.704,0.179c1.082,-0.759 2.711,-0.843 3.131,-0.163c0.431,0.697 -0.654,1.233 -2.513,1.24c-1.5,0.006 -1.62,0.1 -1.62,1.267c0,2.172 0.382,2.627 2.206,2.627c1.393,0 1.681,-0.148 1.681,-0.864c0,-1 -0.009,-1.003 -1.52,-0.429c-1.539,0.586 -2.179,0.118 -1.247,-0.911c0.884,-0.976 3.185,-0.955 3.53,0.032c0.126,0.363 0.627,1.102 1.113,1.641c0.808,0.898 0.824,1.039 0.194,1.669c-1.021,1.021 -4.871,0.923 -6.327,-0.16c-0.934,-0.695 -1.165,-1.254 -1.272,-3.073c-0.072,-1.223 -0.211,-2.224 -0.309,-2.224c-0.098,0 -0.867,0.328 -1.708,0.729l-1.528,0.729l1.348,0.567c1.331,0.56 1.344,0.594 1.058,2.885l-0.29,2.319l1.644,-0.051l1.643,-0.052l-0.138,1.994c-0.263,3.812 1.378,5.906 4.305,5.492c0.94,-0.133 1.006,-0.315 0.891,-2.447c-0.081,-1.509 0.03,-2.207 0.324,-2.026c0.247,0.153 0.448,0.542 0.448,0.866c0,0.324 0.501,1.185 1.113,1.912c0.612,0.727 1.048,1.66 0.968,2.074c-0.331,1.717 -4.239,2.406 -7.032,1.239c-1.861,-0.778 -2.822,-2.621 -2.822,-5.411c0,-1.718 -0.148,-2.181 -0.696,-2.181c-0.593,0 -0.679,0.526 -0.58,3.563c0.187,5.736 0.1,6.37 -0.866,6.37c-0.466,0 -1.34,-0.533 -1.944,-1.183l0,0Zm7.865,-5.585c-1.012,-0.275 -0.958,-0.884 0.108,-1.222c1.12,-0.355 2.686,0.146 2.473,0.793c-0.181,0.55 -1.393,0.751 -2.581,0.429Zm-1.188,-2.671c0,-0.623 1.761,-1.79 2.701,-1.79c0.697,0 1.541,1.105 1.131,1.481c-0.473,0.434 -3.832,0.705 -3.832,0.309Z" style="fill:#cfcfcf;fill-rule:nonzero;"/><path id="path3008" d="M8.131,53.46c-0.006,-0.297 1.498,-10.685 3.342,-23.084l3.353,-22.544l3.244,-0.882c1.784,-0.485 4.942,-1.317 7.016,-1.849l3.773,-0.966l6.736,1.719c3.706,0.945 6.887,1.816 7.069,1.935c0.183,0.119 1.742,9.642 3.465,21.162c1.723,11.52 3.277,21.869 3.454,22.998l0.322,2.051l-20.882,0c-16.411,0 -20.884,-0.116 -20.892,-0.54Zm40.157,-1.511c-0.033,-1.388 -6.3,-42.849 -6.507,-43.056c-0.113,-0.113 -3.055,-0.972 -6.538,-1.91l-6.334,-1.705l-6.389,1.727c-3.513,0.95 -6.444,1.781 -6.512,1.847c-0.139,0.134 -6.555,42.469 -6.565,43.313c-0.004,0.423 4.166,0.539 19.429,0.539c18.228,0 19.433,-0.047 19.416,-0.755Zm-19.973,-0.827c-0.172,-0.277 -0.432,-1.653 -0.579,-3.058l-0.267,-2.554l-2.255,0.354c-1.239,0.194 -3.086,0.647 -4.103,1.005c-2.84,1.002 -5.035,0.853 -6.318,-0.431c-0.596,-0.595 -0.971,-1.264 -0.835,-1.485c0.14,-0.227 1.563,-0.292 3.253,-0.151c2.544,0.214 3.045,0.143 3.277,-0.462c0.391,-1.017 -0.661,-6.194 -1.379,-6.79c-0.331,-0.274 -0.602,-0.767 -0.602,-1.094c0,-0.709 1.783,-0.798 2.458,-0.123c0.342,0.341 0.716,0.341 1.354,0c0.485,-0.26 1.866,-0.472 3.07,-0.472c1.899,0 2.187,-0.114 2.187,-0.864c0,-0.997 -0.363,-1.048 -2.629,-0.369c-1.388,0.416 -1.827,0.378 -2.763,-0.235c-1.567,-1.026 -0.984,-1.555 1.712,-1.555c1.273,0 2.622,-0.118 2.997,-0.262c0.864,-0.332 0.884,-1.625 0.036,-2.329c-1.034,-0.858 -0.76,-1.296 0.81,-1.296c1.698,0 2.632,0.903 2.29,2.212c-0.227,0.869 -0.127,0.906 1.748,0.649c1.528,-0.21 2.174,-0.107 2.782,0.443c1.303,1.18 0.931,1.447 -2.016,1.447c-2.519,0 -2.807,0.088 -2.807,0.863c0,1.005 0.124,1.018 3.749,0.387c3.574,-0.622 4.545,-0.339 5.468,1.597c0.649,1.361 0.67,1.675 0.148,2.281c-0.647,0.75 -1.591,3.257 -1.591,4.222c0,0.402 0.594,0.583 1.912,0.583c1.551,0 2.081,0.215 2.807,1.138c0.492,0.626 0.895,1.306 0.895,1.511c0,0.571 -2.269,0.447 -5.036,-0.274c-1.368,-0.356 -3.807,-0.648 -5.42,-0.648l-2.932,0l-0.033,1.404c-0.047,1.969 -1.005,4.974 -1.388,4.356l0,0Zm-1.171,-7.487c0,-0.238 -0.656,-0.432 -1.458,-0.432c-1.569,0 -3.021,-1.115 -1.937,-1.488c0.323,-0.111 1.156,-0.259 1.851,-0.329c0.694,-0.07 1.341,-0.368 1.438,-0.662c0.126,-0.385 -0.199,-0.461 -1.153,-0.271c-1.27,0.254 -2.627,-0.347 -2.627,-1.163c0,-0.194 0.874,-0.484 1.943,-0.644c1.306,-0.196 1.943,-0.503 1.943,-0.937c0,-0.369 -0.253,-0.547 -0.592,-0.417c-0.326,0.125 -1.492,0.362 -2.591,0.527c-2.229,0.334 -2.199,0.259 -1.481,3.738l0.519,2.51l2.073,0c1.14,0 2.072,-0.195 2.072,-0.432Zm8.476,-1.62c0.17,-0.89 0.325,-2.397 0.344,-3.347l0.034,-1.727l-2.987,0c-2.133,0 -3.043,0.168 -3.183,0.586c-0.154,0.462 0.186,0.522 1.599,0.284c1.875,-0.317 3.059,0.202 3.059,1.342c0,0.433 -0.645,0.595 -2.375,0.595c-1.832,0 -2.375,0.149 -2.375,0.653c0,0.52 0.352,0.597 1.725,0.377c1.835,-0.293 3.025,0.278 3.025,1.452c0,0.477 -0.315,0.587 -1.187,0.415c-1.435,-0.283 -3.563,0.08 -3.563,0.608c0,0.21 1.254,0.382 2.787,0.382l2.788,0l0.309,-1.62l0,0Zm-8.953,-14.236c-1.68,-2.024 -1.717,-2.136 -0.701,-2.1c0.9,0.031 0.971,-0.173 1.09,-3.141c0.095,-2.356 -0.008,-3.128 -0.401,-2.997c-0.646,0.215 -1.109,1.049 -1.428,2.575c-0.345,1.646 -2.046,3.503 -4.309,4.704c-1.405,0.745 -2.083,0.904 -2.421,0.566c-0.665,-0.664 -0.051,-2.87 0.716,-2.575c0.987,0.378 2.711,-0.663 3.673,-2.219c0.496,-0.803 0.83,-1.532 0.742,-1.62c-0.087,-0.088 -0.936,0.207 -1.884,0.656c-2.084,0.985 -3.229,1.046 -4.342,0.232c-1.095,-0.801 -0.809,-1.021 2.002,-1.545c4.33,-0.806 5.429,-1.666 4.336,-3.389c-0.304,-0.48 -0.599,-0.461 -1.699,0.108c-0.733,0.378 -1.765,0.688 -2.295,0.688c-0.835,0 -0.718,-0.21 0.883,-1.58c1.593,-1.364 1.811,-1.751 1.594,-2.835c-0.23,-1.154 -0.159,-1.245 0.888,-1.12c1.56,0.187 2.258,1.366 1.515,2.556c-0.494,0.79 -0.456,1.017 0.283,1.705c0.468,0.437 0.932,1.033 1.029,1.326c0.098,0.293 0.409,0.39 0.692,0.215c0.623,-0.385 0.692,-4.425 0.083,-4.802c-0.733,-0.452 -0.477,-1.511 0.365,-1.511c1.505,0 2.256,1.385 1.953,3.6l-0.277,2.016l1.302,-0.26c1.653,-0.331 1.899,0.084 1.986,3.341c0.084,3.169 1.165,4.386 3.707,4.173c1.541,-0.129 1.545,-0.135 1.518,-2.181c-0.015,-1.128 0.029,-2.052 0.099,-2.052c0.069,0 0.523,0.778 1.007,1.728c0.485,0.95 1.072,1.727 1.305,1.727c0.232,0 0.423,0.399 0.423,0.886c0,1.017 -2.257,2.153 -4.197,2.113c-3.658,-0.074 -5.736,-2.293 -5.736,-6.123c0,-1.521 -0.166,-2.058 -0.634,-2.058c-0.512,0 -0.657,0.931 -0.756,4.853c-0.1,3.992 -0.242,4.877 -0.796,4.983c-0.371,0.071 -0.963,-0.218 -1.315,-0.643Zm7.28,-6.028c-1.077,-0.292 -0.935,-0.867 0.289,-1.174c1.268,-0.319 2.506,0.094 2.286,0.761c-0.176,0.536 -1.399,0.732 -2.575,0.413Zm-1.188,-2.703c0,-0.658 2.436,-1.79 3.212,-1.493c0.715,0.275 0.891,0.857 0.351,1.165c-0.845,0.482 -3.563,0.732 -3.563,0.328Zm-1.449,-4.113c-0.913,-0.846 -1.142,-1.453 -1.142,-3.023c0,-1.08 -0.195,-1.964 -0.434,-1.964c-0.238,0 -1.158,0.389 -2.045,0.864c-2.011,1.078 -2.318,1.076 -3.725,-0.031c-1.594,-1.254 -1.43,-1.581 0.816,-1.626c1.074,-0.022 2.854,-0.438 3.954,-0.924c1.887,-0.835 2.047,-0.844 2.812,-0.151c0.446,0.404 0.721,0.971 0.61,1.26c-0.146,0.381 0.119,0.359 0.956,-0.078c1.63,-0.85 2.767,-0.786 2.59,0.146c-0.104,0.549 -0.636,0.792 -1.938,0.887c-1.991,0.146 -2.408,0.695 -1.92,2.532c0.281,1.059 0.563,1.242 2.092,1.355c1.686,0.125 1.782,0.065 2.081,-1.296c0.312,-1.42 0.315,-1.421 0.703,-0.346c0.215,0.593 0.723,1.334 1.13,1.646c0.693,0.531 0.686,0.606 -0.099,1.187c-0.475,0.352 -1.805,0.622 -3.068,0.622c-1.768,0 -2.466,-0.22 -3.373,-1.06l0,0Zm1.821,-2.842c1.143,-0.953 2.023,-1.084 2.465,-0.369c0.406,0.657 -0.626,1.236 -2.189,1.226l-1.296,-0.007l1.02,-0.85l0,0Z" style="fill:#b0b0b0;fill-rule:nonzero;"/><path id="path3006" d="M8.138,53.46c-0.008,-1.353 6.651,-45.062 6.912,-45.364c0.355,-0.411 12.666,-3.762 13.822,-3.762c1.143,0 13.459,3.347 13.843,3.762c0.292,0.316 6.887,43.588 6.887,45.186c0,0.659 -1.689,0.718 -20.73,0.718c-16.294,0 -20.731,-0.116 -20.734,-0.54Zm40.175,-1.08c0.013,-1.493 -6.198,-43.087 -6.484,-43.42c-0.161,-0.187 -3.117,-1.1 -6.569,-2.03l-6.276,-1.69l-6.367,1.683c-3.502,0.926 -6.462,1.778 -6.578,1.895c-0.248,0.247 -6.586,41.908 -6.595,43.347l-0.007,0.971l19.435,0c18.219,0 19.435,-0.047 19.441,-0.756l0,0Zm-20.459,-3.023c-0.148,-0.89 -0.27,-2.141 -0.273,-2.78c-0.004,-1.097 -0.093,-1.147 -1.624,-0.908c-0.891,0.139 -2.591,0.535 -3.779,0.881c-3.841,1.118 -5.918,1.154 -7.018,0.122c-1.69,-1.585 -1.282,-2.143 1.365,-1.87c1.285,0.133 2.815,0.121 3.4,-0.025l1.063,-0.267l-0.638,-3.137c-0.35,-1.725 -0.908,-3.443 -1.24,-3.818c-1.017,-1.151 -0.752,-1.832 0.585,-1.501c1.228,0.305 2,0.315 4.21,0.059c0.713,-0.083 1.83,-0.173 2.484,-0.201c0.882,-0.038 1.187,-0.273 1.187,-0.915c0,-0.997 -0.363,-1.048 -2.629,-0.369c-1.388,0.416 -1.827,0.378 -2.763,-0.235c-1.589,-1.041 -1.033,-1.469 1.907,-1.469c1.411,0 2.772,-0.128 3.025,-0.284c0.659,-0.408 0.568,-1.792 -0.167,-2.527c-0.784,-0.784 -0.433,-1.162 1.078,-1.162c1.536,0 2.254,0.908 1.885,2.382c-0.253,1.005 -0.18,1.135 0.521,0.925c2.637,-0.787 3.248,-0.796 4.061,-0.061c1.236,1.118 0.673,1.505 -2.192,1.505c-2.278,0 -2.566,0.097 -2.566,0.863c0,1.009 0.293,1.033 4.276,0.35c3.336,-0.572 3.883,-0.367 5.05,1.888c0.574,1.111 0.554,1.327 -0.222,2.407c-0.468,0.652 -0.981,1.915 -1.139,2.805l-0.288,1.62l1.961,0c1.61,0 2.122,0.206 2.867,1.154c1.353,1.719 0.58,2.179 -2.466,1.466c-1.365,-0.32 -4.157,-0.669 -6.205,-0.778l-3.724,-0.196l-0.296,2.092c-0.568,4.021 -1.232,4.797 -1.696,1.984Zm-0.79,-5.539c0.974,-0.304 0.156,-0.942 -0.941,-0.732c-1.202,0.23 -3.011,-0.594 -2.636,-1.2c0.139,-0.226 1.019,-0.411 1.955,-0.411c1.213,0 1.702,-0.183 1.702,-0.637c0,-0.477 -0.324,-0.572 -1.294,-0.378c-1.222,0.245 -2.592,-0.364 -2.592,-1.15c0,-0.183 0.907,-0.499 2.015,-0.703c1.109,-0.204 2.104,-0.635 2.211,-0.957c0.156,-0.468 -0.186,-0.517 -1.692,-0.242c-1.037,0.19 -2.324,0.357 -2.858,0.371c-1.126,0.03 -1.147,0.207 -0.452,3.871l0.521,2.743l1.747,-0.199c0.961,-0.109 2.002,-0.278 2.314,-0.376Zm8.474,-1.155c1.008,-4.782 1.022,-5.086 0.254,-5.625c-1.127,-0.791 -6.056,-0.442 -6.056,0.429c0,0.525 0.333,0.612 1.572,0.411c1.75,-0.284 3.178,0.272 3.178,1.237c0,0.479 -0.577,0.633 -2.375,0.633c-1.882,0 -2.375,0.142 -2.375,0.686c0,0.562 0.315,0.632 1.742,0.391c1.834,-0.31 3.008,0.226 3.008,1.371c0,0.465 -0.357,0.547 -1.474,0.338c-1.602,-0.301 -3.276,0.056 -3.276,0.698c0,0.222 1.259,0.403 2.799,0.403c2.554,0 2.817,-0.085 3.003,-0.972Zm-9.252,-15.309l-0.955,-1.21l0.907,-0.138c0.828,-0.126 0.906,-0.419 0.906,-3.379c0,-2.843 -0.091,-3.223 -0.749,-3.096c-0.481,0.092 -0.839,0.696 -1,1.689c-0.346,2.128 -1.772,3.979 -4.128,5.36c-1.679,0.984 -2.082,1.075 -2.578,0.579c-0.83,-0.83 -0.327,-2.484 0.675,-2.222c0.43,0.113 1.298,-0.133 1.928,-0.546c1.133,-0.742 2.653,-3.102 2.255,-3.5c-0.113,-0.113 -1.032,0.216 -2.042,0.731c-1.422,0.725 -2.131,0.853 -3.14,0.564c-2.174,-0.624 -1.802,-1.286 1.038,-1.844c3.897,-0.767 4.778,-1.26 4.628,-2.589c-0.164,-1.448 0.616,-1.821 1.169,-0.56c0.237,0.541 0.723,0.928 1.08,0.86c0.847,-0.16 1.116,-3.588 0.389,-4.947c-0.719,-1.343 -0.162,-1.768 1.256,-0.961c1.063,0.606 1.151,0.856 1.025,2.899l-0.139,2.237l1.274,-0.255c1.621,-0.324 1.87,0.103 1.957,3.347c0.084,3.169 1.165,4.386 3.707,4.173c1.479,-0.124 1.556,-0.213 1.804,-2.073c0.142,-1.069 0.288,-1.632 0.324,-1.251c0.035,0.381 0.561,1.228 1.167,1.882c0.606,0.654 1.041,1.509 0.966,1.899c-0.196,1.016 -3.163,1.872 -5.352,1.543c-3.103,-0.465 -4.49,-2.396 -4.49,-6.247c0,-1.685 -0.13,-2.068 -0.634,-1.875c-0.495,0.19 -0.661,1.304 -0.756,5.056c-0.103,4.053 -0.234,4.834 -0.829,4.948c-0.389,0.075 -1.137,-0.409 -1.663,-1.074Zm7.877,-5.618c-1.304,-0.251 -1.23,-0.832 0.149,-1.178c1.162,-0.292 2.509,0.418 2.088,1.1c-0.243,0.393 -0.549,0.403 -2.237,0.078Zm-1.215,-2.762c-0.306,-0.495 1.282,-1.252 2.626,-1.252c1.709,0 1.083,1.028 -0.814,1.337c-0.88,0.143 -1.695,0.104 -1.812,-0.085Zm-12.805,-2.176c1.585,-1.014 2.937,-3.186 2.249,-3.612c-0.769,-0.475 -0.454,-1.078 0.563,-1.078c1.159,0 2.03,0.743 2.03,1.733c0,1.437 -3.51,3.894 -5.534,3.874c-0.469,-0.005 -0.223,-0.331 0.692,-0.917Zm11.968,-1.302c-1.443,-0.79 -1.943,-1.738 -1.943,-3.687c0,-1.023 -0.189,-1.861 -0.421,-1.861c-0.231,0 -1.299,0.427 -2.374,0.949l-1.953,0.95l-1.162,-0.868c-1.78,-1.329 -1.622,-1.669 0.828,-1.79c1.239,-0.061 2.982,-0.471 3.872,-0.912c1.393,-0.689 1.737,-0.718 2.459,-0.213c0.725,0.508 0.781,0.803 0.409,2.151c-0.802,2.906 0.351,4.641 2.778,4.177c0.81,-0.155 1.274,-0.572 1.459,-1.31c0.251,-1 0.305,-1.021 0.697,-0.273c0.234,0.446 0.741,1.065 1.127,1.377c0.643,0.518 0.631,0.619 -0.136,1.187c-0.983,0.728 -4.397,0.803 -5.64,0.123Zm0.216,-2.731c0,-0.113 0.459,-0.506 1.019,-0.873c1.236,-0.81 2.73,-0.443 1.962,0.482c-0.451,0.544 -2.981,0.876 -2.981,0.391Zm0,-2.764c0,-0.209 0.594,-0.626 1.32,-0.926c1.017,-0.422 1.437,-0.43 1.832,-0.035c0.395,0.395 0.364,0.606 -0.132,0.92c-0.816,0.515 -3.02,0.545 -3.02,0.041l0,0Z" style="fill:#8f8f8f;fill-rule:nonzero;"/><path id="path3004" d="M8.156,53.46c0.032,-1.291 6.742,-45.229 6.936,-45.423c0.118,-0.119 3.219,-1.027 6.89,-2.019l6.674,-1.804l6.643,1.679c3.654,0.924 6.88,1.874 7.169,2.112c0.42,0.345 7.152,43.218 7.138,45.455c-0.003,0.424 -4.44,0.54 -20.734,0.54c-16.304,0 -20.727,-0.115 -20.716,-0.54Zm40.208,-0.525c0.155,-0.155 -6.071,-43.75 -6.306,-44.158c-0.029,-0.051 -3.001,-0.884 -6.605,-1.852l-6.551,-1.761l-6.314,1.709c-3.473,0.94 -6.43,1.825 -6.571,1.966c-0.299,0.299 -6.554,41.345 -6.569,43.11l-0.011,1.187l19.363,0c10.649,0 19.453,-0.09 19.564,-0.201l0,0Zm-20.017,-2.193c-0.17,-0.171 -0.438,-1.45 -0.595,-2.842l-0.286,-2.53l-1.78,0.272c-0.98,0.149 -2.947,0.631 -4.372,1.07c-1.425,0.439 -3.099,0.801 -3.721,0.804c-1.141,0.006 -3.405,-1.447 -3.405,-2.185c0,-0.22 1.446,-0.4 3.214,-0.4c1.767,0 3.307,-0.152 3.422,-0.338c0.356,-0.576 -1.009,-6.275 -1.681,-7.017c-1.053,-1.164 -0.8,-1.858 0.552,-1.513c1.391,0.356 3.481,0.355 6.046,0c1.486,-0.207 1.835,-0.425 1.835,-1.149c0,-0.802 -0.166,-0.861 -1.619,-0.572c-2.436,0.483 -3.59,0.382 -4.354,-0.382c-0.379,-0.38 -0.503,-0.704 -0.273,-0.722c0.229,-0.017 1.519,-0.094 2.868,-0.171c1.349,-0.077 2.661,-0.268 2.915,-0.426c0.662,-0.409 0.572,-1.792 -0.164,-2.528c-0.784,-0.784 -0.433,-1.162 1.078,-1.162c1.514,0 2.254,0.911 1.896,2.334c-0.32,1.278 -0.243,1.302 2.016,0.625c1.791,-0.537 2.979,-0.04 2.979,1.245c0,0.499 -0.333,0.58 -1.485,0.364c-2.075,-0.389 -3.697,0.091 -3.697,1.093c0,0.968 1.038,1.049 4.347,0.339c2.702,-0.58 3.952,-0.134 4.929,1.757c0.639,1.234 0.626,1.39 -0.207,2.516c-0.488,0.66 -1.005,1.923 -1.148,2.806l-0.26,1.605l1.968,0c1.609,0 2.131,0.206 2.858,1.13c1.565,1.989 0.512,2.343 -3.703,1.245c-1.368,-0.356 -3.895,-0.648 -5.616,-0.648l-3.129,0l-0.255,1.62c-0.433,2.746 -0.85,4.085 -1.173,3.76Zm-1.31,-6.914c1.172,-0.361 0.516,-1.12 -0.731,-0.846c-1.241,0.272 -3.38,-0.455 -2.861,-0.974c0.143,-0.143 1.067,-0.37 2.053,-0.505c0.986,-0.134 1.883,-0.516 1.993,-0.849c0.156,-0.471 -0.108,-0.543 -1.188,-0.327c-1.378,0.275 -3.045,-0.264 -3.045,-0.986c0,-0.206 0.971,-0.509 2.159,-0.673c1.475,-0.203 2.159,-0.497 2.159,-0.93c0,-0.513 -0.392,-0.574 -2.051,-0.317c-1.128,0.174 -2.392,0.295 -2.807,0.269c-0.91,-0.057 -0.958,0.81 -0.24,4.291l0.517,2.501l1.751,-0.244c0.963,-0.134 1.994,-0.318 2.291,-0.41Zm9.003,-3.216c0.448,-2.443 0.425,-2.909 -0.176,-3.587c-0.51,-0.576 -1.089,-0.721 -2.221,-0.556c-0.843,0.123 -2.066,0.231 -2.72,0.239c-0.802,0.012 -1.187,0.245 -1.187,0.72c0,0.576 0.306,0.654 1.696,0.432c1.245,-0.199 1.878,-0.091 2.376,0.407c1.15,1.15 0.771,1.481 -1.697,1.481c-1.882,0 -2.375,0.142 -2.375,0.686c0,0.562 0.315,0.632 1.742,0.391c1.805,-0.305 3.008,0.223 3.008,1.32c0,0.425 -0.584,0.503 -2.375,0.319c-2.037,-0.211 -2.375,-0.142 -2.375,0.482c0,0.623 0.417,0.71 2.894,0.601l2.895,-0.128l0.515,-2.807Zm-9.58,-13.248c-1.105,-1.188 -1.111,-1.224 -0.225,-1.358c0.837,-0.127 0.909,-0.412 0.909,-3.578c0,-3.307 -0.033,-3.423 -0.863,-2.978c-0.475,0.254 -0.864,0.851 -0.864,1.328c0,1.664 -1.669,4.074 -3.822,5.519c-2.401,1.611 -3.088,1.512 -3.088,-0.448c0,-1.038 0.121,-1.222 0.563,-0.856c0.414,0.344 0.921,0.249 1.922,-0.359c1.284,-0.781 3.002,-3.297 2.555,-3.743c-0.113,-0.113 -1.032,0.216 -2.042,0.731c-1.422,0.725 -2.131,0.853 -3.14,0.564c-2.109,-0.606 -1.783,-1.251 0.888,-1.756c4.263,-0.806 4.994,-1.224 4.772,-2.733c-0.149,-1.019 -0.041,-1.277 0.492,-1.176c0.376,0.072 0.746,0.565 0.822,1.097c0.116,0.81 0.273,0.894 0.972,0.52c0.635,-0.34 0.833,-0.912 0.833,-2.403c0,-1.076 -0.21,-2.349 -0.466,-2.829c-0.653,-1.219 -0.126,-1.542 1.247,-0.764c1.072,0.607 1.151,0.838 1.01,2.961c-0.148,2.235 -0.122,2.296 0.868,2.047c1.58,-0.396 1.966,0.143 2.171,3.039c0.243,3.44 1.07,4.443 3.659,4.443l1.877,0l0.016,-2.051l0.017,-2.052l0.613,1.411c0.337,0.775 0.913,1.525 1.279,1.665c0.979,0.376 0.81,1.783 -0.285,2.369c-1.44,0.771 -5.299,0.635 -6.625,-0.234c-1.441,-0.944 -2.357,-3.127 -2.357,-5.615c0,-1.532 -0.135,-1.892 -0.634,-1.701c-0.494,0.19 -0.661,1.301 -0.756,5.026c-0.136,5.325 -0.474,5.896 -2.318,3.914l0,0Zm8.134,-5.658c-1.247,-0.202 -1.249,-0.788 -0.002,-1.113c1.094,-0.287 2.574,0.751 1.547,1.084c-0.315,0.103 -1.01,0.116 -1.545,0.029l0,0Zm-1.188,-3.35c0.922,-0.715 3.024,-0.706 3.024,0.014c0,0.237 -0.875,0.482 -1.944,0.544c-1.831,0.106 -1.893,0.074 -1.08,-0.558l0,0Zm-13.074,-1.676c1.949,-1.374 2.784,-2.728 2.102,-3.409c-0.75,-0.751 -0.554,-1.163 0.555,-1.163c0.565,0 1.284,0.31 1.598,0.689c1.149,1.384 -1.468,4.24 -4.353,4.751l-1.511,0.267l1.609,-1.135Zm11.779,-1.207c-1.424,-0.817 -1.915,-1.756 -1.93,-3.689c-0.007,-1.01 -0.186,-1.836 -0.398,-1.836c-0.212,0 -1.202,0.366 -2.2,0.813c-2.017,0.903 -3.043,0.798 -4.148,-0.424c-0.715,-0.79 -0.692,-0.821 0.633,-0.821c0.757,0 2.562,-0.399 4.012,-0.887c3.569,-1.203 3.987,-0.985 3.627,1.898c-0.237,1.895 -0.144,2.472 0.537,3.313c0.724,0.894 1.002,0.968 2.273,0.604c0.984,-0.283 1.543,-0.757 1.745,-1.484c0.164,-0.588 0.317,-0.825 0.341,-0.528c0.023,0.296 0.425,0.921 0.891,1.388c0.763,0.763 0.782,0.915 0.185,1.511c-0.787,0.788 -4.286,0.877 -5.568,0.142Zm0.431,-2.931c0.502,-0.814 1.756,-1.25 2.4,-0.836c0.542,0.349 0.539,0.458 -0.024,0.827c-0.848,0.557 -2.719,0.564 -2.376,0.009l0,0Zm-0.215,-2.485c0,-0.749 2.565,-1.604 3.126,-1.042c0.652,0.651 0.307,0.921 -1.561,1.224c-0.933,0.152 -1.565,0.078 -1.565,-0.182Z" style="fill:#6f6f6f;fill-rule:nonzero;"/><path id="path3002" d="M8.142,53.783c0,-0.422 6.488,-43.637 6.717,-44.743c0.219,-1.053 0.669,-1.24 7.129,-2.959l6.894,-1.834l6.793,1.802c3.735,0.991 6.882,1.893 6.992,2.003c0.184,0.184 6.89,44.18 6.922,45.408c0.01,0.425 -4.413,0.54 -20.717,0.54c-11.402,0 -20.73,-0.097 -20.73,-0.217Zm40.4,-1.618c-0.117,-0.535 -1.605,-10.495 -3.307,-22.134c-1.702,-11.639 -3.142,-21.221 -3.2,-21.292c-0.058,-0.071 -2.995,-0.911 -6.526,-1.866l-6.421,-1.737l-6.262,1.605c-3.445,0.883 -6.475,1.82 -6.735,2.082c-0.26,0.263 -1.881,10 -3.603,21.64c-1.721,11.639 -3.222,21.502 -3.335,21.917c-0.194,0.712 0.952,0.756 19.698,0.756l19.904,0l-0.213,-0.971Zm-20.231,-1.483c-0.119,-0.194 -0.356,-1.479 -0.528,-2.855l-0.311,-2.502l-1.999,0.285c-1.1,0.157 -3.062,0.651 -4.36,1.098c-1.298,0.448 -2.875,0.814 -3.505,0.814c-1.155,0 -3.42,-1.451 -3.42,-2.191c0,-0.22 1.446,-0.4 3.214,-0.4c1.767,0 3.312,-0.16 3.433,-0.356c0.363,-0.587 -0.921,-5.983 -1.71,-7.188c-0.896,-1.367 -0.612,-1.74 0.981,-1.285c1.255,0.358 4.228,0.321 6.283,-0.079c0.834,-0.162 1.187,-0.494 1.187,-1.117c0,-0.791 -0.173,-0.852 -1.619,-0.575c-2.328,0.447 -3.662,0.32 -4.399,-0.416c-0.572,-0.572 -0.451,-0.646 1.067,-0.65c0.942,-0.003 2.459,-0.128 3.372,-0.279c1.499,-0.248 1.64,-0.382 1.464,-1.399c-0.107,-0.618 -0.34,-1.465 -0.518,-1.88c-0.251,-0.587 -0.113,-0.756 0.616,-0.756c1.791,0 2.608,0.761 2.326,2.168c-0.285,1.428 0.425,1.703 2.093,0.811c1.098,-0.588 2.94,0.123 2.94,1.134c0,0.539 -0.306,0.619 -1.508,0.394c-2.129,-0.4 -3.674,0.07 -3.674,1.116c0,1.021 1.36,1.124 4.69,0.355c1.857,-0.428 2.321,-0.397 3.265,0.222c1.577,1.033 1.803,2.499 0.726,4.722c-1.287,2.66 -1.195,3.63 0.378,3.976c0.707,0.155 1.452,0.178 1.657,0.052c0.612,-0.379 2.24,1.015 2.24,1.918c0,1.018 -0.596,1.044 -3.955,0.173c-1.549,-0.401 -3.889,-0.615 -5.893,-0.539l-3.324,0.125l-0.269,2.5c-0.27,2.512 -0.539,3.258 -0.94,2.604Zm-1.76,-6.615c0.621,0 1.025,-0.254 1.025,-0.645c0,-0.476 -0.454,-0.627 -1.742,-0.576c-2.441,0.095 -3.216,-0.79 -1.013,-1.158c2.368,-0.395 2.755,-0.552 2.755,-1.112c0,-0.313 -0.513,-0.416 -1.403,-0.281c-1.413,0.215 -2.915,-0.269 -2.915,-0.938c0,-0.199 0.971,-0.49 2.159,-0.648c1.57,-0.208 2.159,-0.475 2.159,-0.976c0,-0.556 -0.312,-0.638 -1.619,-0.422c-0.891,0.148 -2.154,0.27 -2.807,0.273c-1.392,0.005 -1.47,0.529 -0.662,4.441c0.515,2.495 0.549,2.539 1.781,2.293c0.691,-0.138 1.718,-0.251 2.282,-0.251Zm9.55,-3.317c0.54,-3.156 0.406,-3.874 -0.795,-4.255c-1.477,-0.469 -5.57,0.254 -5.57,0.984c0,0.513 0.368,0.606 1.701,0.427c1.271,-0.171 1.871,-0.04 2.375,0.517c1.031,1.139 0.865,1.272 -1.775,1.411c-1.63,0.087 -2.516,0.333 -2.649,0.736c-0.162,0.49 0.199,0.552 1.864,0.324c2.085,-0.286 3.234,0.144 3.234,1.21c0,0.368 -0.686,0.465 -2.319,0.33c-1.438,-0.119 -2.433,-0.01 -2.617,0.288c-0.564,0.912 0.111,1.128 3.084,0.989l2.984,-0.141l0.483,-2.82Zm-9.641,-13.386c-1.105,-1.188 -1.111,-1.224 -0.225,-1.358c0.837,-0.127 0.909,-0.412 0.909,-3.578c0,-3.307 -0.033,-3.423 -0.863,-2.978c-0.475,0.254 -0.864,0.857 -0.864,1.339c0,2.415 -3.898,6.434 -6.241,6.434c-0.461,0 -0.669,-0.418 -0.669,-1.348c0,-1.059 0.121,-1.248 0.563,-0.882c0.791,0.657 3.086,-0.807 3.983,-2.541c0.385,-0.745 0.619,-1.437 0.519,-1.536c-0.099,-0.1 -1.049,0.203 -2.11,0.672c-1.385,0.613 -2.287,0.758 -3.198,0.514c-1.96,-0.524 -1.515,-1.092 1.291,-1.646c3.986,-0.787 4.696,-1.225 4.47,-2.764c-0.149,-1.014 -0.04,-1.272 0.492,-1.171c0.376,0.072 0.746,0.566 0.822,1.098c0.153,1.072 0.158,1.075 1.122,0.705c0.515,-0.198 0.683,-0.883 0.683,-2.782c0,-1.386 -0.197,-2.642 -0.438,-2.791c-0.689,-0.425 -0.05,-1.067 0.776,-0.78c1.339,0.464 1.702,1.356 1.483,3.635c-0.204,2.126 -0.178,2.192 0.68,1.733c1.641,-0.879 2.25,-0.194 2.25,2.53c0,2.846 0.975,4.519 2.841,4.875c2.14,0.409 2.772,-0.044 2.787,-1.998c0.011,-1.54 0.078,-1.666 0.491,-0.921c0.262,0.475 0.845,1.271 1.294,1.768c1.601,1.773 0.26,2.75 -3.792,2.761c-3.624,0.009 -5.339,-2.113 -5.346,-6.616c-0.002,-1.132 -0.173,-1.599 -0.542,-1.477c-0.372,0.123 -0.607,1.702 -0.756,5.076c-0.24,5.436 -0.577,5.999 -2.412,4.027Zm7.163,-6.136c0,-0.465 1.308,-0.842 2.051,-0.592c1.025,0.344 0.536,0.973 -0.756,0.973c-0.712,0 -1.295,-0.172 -1.295,-0.381Zm-0.191,-2.844c0.94,-0.711 2.605,-0.865 2.97,-0.275c0.312,0.505 -0.783,0.909 -2.465,0.909c-1.274,0 -1.3,-0.033 -0.505,-0.634Zm-13.329,-1.507c1.97,-1.201 2.986,-2.852 2.28,-3.702c-0.299,-0.361 -0.428,-0.772 -0.287,-0.914c0.436,-0.436 2.48,0.267 2.739,0.943c0.392,1.02 -1.062,2.794 -3.015,3.681c-2.359,1.071 -3.478,1.066 -1.717,-0.008l0,0Zm12.656,-1.187c-1.654,-0.605 -2.591,-2.006 -2.591,-3.874c0,-2.035 -0.369,-2.244 -2.16,-1.22c-1.519,0.869 -3.186,0.792 -4.379,-0.201l-1.019,-0.85l1.417,-0.014c0.779,-0.008 2.603,-0.414 4.053,-0.902c3.535,-1.192 3.974,-0.976 3.597,1.765c-0.473,3.442 1.206,5.193 3.702,3.858c0.459,-0.246 0.835,-0.758 0.835,-1.138c0,-0.498 0.242,-0.384 0.864,0.407c0.475,0.604 0.863,1.288 0.863,1.52c0,0.795 -3.561,1.241 -5.182,0.649l0,0Zm0.19,-3.38c0.926,-0.7 2.401,-0.853 2.401,-0.249c0,0.49 -1.091,0.914 -2.302,0.897c-0.917,-0.014 -0.919,-0.028 -0.099,-0.648Zm-0.426,-2.329c0.51,-0.825 2.467,-1.43 2.977,-0.92c0.592,0.593 0.359,0.756 -1.616,1.124c-1.259,0.236 -1.601,0.184 -1.361,-0.204Z" style="fill:#4f4f4f;fill-rule:nonzero;"/><path id="path3000" d="M8.349,52.596c0.135,-0.772 1.691,-11.097 3.458,-22.944c1.766,-11.848 3.267,-21.593 3.336,-21.657c0.069,-0.063 3.191,-0.918 6.938,-1.9l6.813,-1.784l6.879,1.801c6.455,1.69 6.892,1.87 7.111,2.927c0.23,1.106 6.718,44.321 6.718,44.744c0,0.12 -9.337,0.217 -20.75,0.217l-20.749,0l0.246,-1.404Zm40.22,-0.647c-0.131,-0.654 -1.625,-10.614 -3.32,-22.134c-1.695,-11.521 -3.275,-21.067 -3.511,-21.215c-0.236,-0.148 -3.224,-1 -6.64,-1.893l-6.21,-1.624l-6.298,1.668c-3.463,0.918 -6.441,1.77 -6.616,1.893c-0.176,0.124 -1.737,9.748 -3.469,21.387c-1.732,11.639 -3.25,21.599 -3.371,22.134l-0.222,0.971l39.895,0l-0.238,-1.187Zm-20.266,-1.836c-0.127,-0.356 -0.357,-1.591 -0.512,-2.743l-0.281,-2.096l-1.96,0.294c-1.078,0.162 -3.13,0.668 -4.558,1.124c-1.429,0.456 -3.032,0.83 -3.563,0.83c-0.993,0 -3.241,-1.5 -3.241,-2.163c0,-0.204 1.45,-0.344 3.221,-0.31c1.772,0.034 3.34,-0.057 3.485,-0.202c0.442,-0.442 -0.711,-5.651 -1.594,-7.205c-0.982,-1.729 -0.821,-2.023 0.804,-1.466c1.149,0.393 2.939,0.353 6.069,-0.135c1.116,-0.174 1.403,-0.424 1.403,-1.219c0,-0.959 -0.077,-0.983 -1.889,-0.568c-1.982,0.453 -4.157,0.16 -4.157,-0.561c0,-0.233 0.753,-0.423 1.674,-0.423c0.92,0 2.28,-0.122 3.023,-0.27c1.128,-0.226 1.349,-0.47 1.349,-1.486c0,-0.669 -0.197,-1.338 -0.439,-1.488c-0.632,-0.391 -0.081,-1.075 0.866,-1.075c1.223,0 2.083,1.097 1.843,2.351c-0.236,1.235 0.559,1.469 2.132,0.628c1.047,-0.561 2.94,0.105 2.94,1.034c0,0.438 -0.624,0.532 -2.591,0.389c-2.587,-0.187 -2.591,-0.185 -2.591,1.006l0,1.193l2.699,-0.341c4.057,-0.513 5.15,-0.422 5.812,0.484c1.009,1.378 1.15,2.729 0.375,3.585c-0.395,0.436 -0.835,1.516 -0.978,2.401c-0.31,1.906 0.192,2.369 2.574,2.379c1.316,0.006 1.724,0.215 2.122,1.088c0.271,0.595 0.371,1.204 0.222,1.352c-0.149,0.149 -1.532,-0.046 -3.074,-0.433c-1.542,-0.388 -4.464,-0.705 -6.494,-0.705l-3.69,0l-0.03,1.836c-0.037,2.192 -0.613,3.923 -0.971,2.915l0,0Zm-1.482,-6.041c0.415,-0.003 0.755,-0.297 0.755,-0.653c0,-0.48 -0.503,-0.648 -1.943,-0.648c-2.512,0 -2.512,-0.725 0,-1.102c2.529,-0.379 2.62,-1.39 0.141,-1.572c-1.908,-0.141 -2.915,-1.208 -1.149,-1.219c1.73,-0.01 2.951,-0.5 2.951,-1.183c0,-0.532 -0.378,-0.604 -2.003,-0.381c-1.102,0.151 -2.476,0.275 -3.053,0.275c-0.787,0 -0.998,0.188 -0.848,0.755c0.111,0.416 0.446,1.991 0.746,3.501l0.545,2.744l1.551,-0.256c0.853,-0.141 1.891,-0.259 2.307,-0.261Zm7.2,-0.437l1.586,0l0.494,-2.884c0.718,-4.196 0.378,-4.648 -3.249,-4.309c-2.583,0.241 -3.792,0.834 -3.306,1.621c0.102,0.165 0.856,0.148 1.675,-0.037c1.054,-0.237 1.751,-0.154 2.378,0.286c1.188,0.832 1.138,1.602 -0.084,1.283c-1.553,-0.407 -4.211,0.171 -4.211,0.915c0,0.522 0.38,0.599 1.923,0.387c1.494,-0.204 2.091,-0.097 2.673,0.482c0.709,0.705 0.625,0.751 -1.6,0.877c-2.486,0.141 -3.296,0.544 -2.777,1.385c0.195,0.315 0.818,0.413 1.615,0.253c0.713,-0.142 2.011,-0.259 2.883,-0.259Zm-7.554,-16.264c-1.111,-1.193 -1.117,-1.231 -0.232,-1.365c0.836,-0.127 0.909,-0.413 0.909,-3.523c0,-3.104 -0.067,-3.367 -0.814,-3.171c-0.554,0.144 -0.901,0.75 -1.083,1.891c-0.297,1.858 -2.275,4.404 -4.191,5.395c-1.916,0.99 -2.549,0.811 -2.549,-0.723c0,-1.084 0.114,-1.254 0.584,-0.864c1.134,0.941 5.485,-3.091 4.451,-4.125c-0.187,-0.187 -0.926,-0.004 -1.643,0.407c-1.388,0.797 -3.66,0.975 -4.626,0.363c-0.762,-0.483 -0.281,-0.741 2.098,-1.125c1.069,-0.173 2.597,-0.583 3.396,-0.912c1.282,-0.528 1.43,-0.753 1.26,-1.913c-0.151,-1.027 -0.044,-1.287 0.49,-1.185c0.376,0.072 0.746,0.566 0.822,1.098c0.153,1.072 0.158,1.075 1.122,0.705c0.84,-0.323 0.972,-4.891 0.165,-5.698c-0.403,-0.403 -0.262,-0.518 0.633,-0.518c1.533,0 2.09,1.122 1.612,3.243c-0.452,2.005 -0.224,2.522 0.86,1.942c1.471,-0.788 2.135,-0.11 2.043,2.088c-0.119,2.869 0.75,4.675 2.534,5.264c2.322,0.766 3.199,0.253 3.215,-1.877c0.011,-1.556 0.079,-1.687 0.491,-0.943c0.262,0.475 0.888,1.318 1.39,1.872l0.913,1.009l-1.02,0.827c-0.69,0.559 -1.693,0.827 -3.103,0.827c-4.205,0 -5.64,-1.402 -5.737,-5.602c-0.06,-2.637 -0.148,-2.797 -1.286,-2.36c-0.522,0.2 -0.595,1.024 -0.41,4.65c0.188,3.693 0.113,4.5 -0.464,4.979c-0.589,0.489 -0.854,0.394 -1.83,-0.656Zm7.156,-6.194c0,-0.237 0.583,-0.432 1.295,-0.432c0.713,0 1.296,0.195 1.296,0.432c0,0.238 -0.583,0.432 -1.296,0.432c-0.712,0 -1.295,-0.194 -1.295,-0.432Zm0.19,-2.799c1.015,-0.794 2.544,-0.871 2.296,-0.116c-0.098,0.297 -0.843,0.592 -1.656,0.655c-1.395,0.109 -1.431,0.079 -0.64,-0.539Zm-13.252,-1.736c1.849,-1.507 2.476,-2.679 1.842,-3.444c-0.616,-0.742 0.102,-1.25 1.25,-0.886c2.57,0.816 0.37,4.15 -3.419,5.181c-0.994,0.271 -0.969,0.204 0.327,-0.851Zm11.899,-1.083c-1.454,-0.586 -2.38,-2.323 -2.231,-4.185c0.147,-1.822 -0.261,-1.946 -2.522,-0.767c-1.432,0.747 -2.471,0.802 -3.614,0.19c-1.36,-0.728 -0.97,-1.144 1.324,-1.416c1.187,-0.141 2.838,-0.578 3.667,-0.971c2.359,-1.12 2.849,-0.676 2.537,2.303c-0.213,2.038 -0.123,2.664 0.468,3.254c1.238,1.238 4.125,0.641 4.125,-0.853c0,-0.479 0.289,-0.324 0.94,0.505c0.913,1.159 0.917,1.213 0.134,1.785c-0.9,0.659 -3.38,0.738 -4.828,0.155Zm0.54,-3.222c0.931,-0.703 2.35,-0.873 2.35,-0.28c0,0.389 -1.438,0.898 -2.566,0.909c-0.441,0.004 -0.379,-0.179 0.216,-0.629Zm-0.051,-2.618c0.914,-0.691 2.833,-0.865 2.833,-0.257c0,0.208 -0.607,0.5 -1.35,0.648c-2.034,0.407 -2.408,0.308 -1.483,-0.391Z" style="fill:#2e2e2e;fill-rule:nonzero;"/><path id="path2998" d="M8.34,53.028c0.118,-0.534 1.686,-10.876 3.484,-22.982c1.798,-12.105 3.308,-22.031 3.356,-22.056c0.048,-0.025 3.149,-0.853 6.89,-1.84l6.802,-1.794l6.802,1.794c3.741,0.987 6.854,1.827 6.918,1.868c0.063,0.04 1.565,9.771 3.338,21.624c1.772,11.853 3.333,22.182 3.467,22.954l0.244,1.404l-20.758,0l-20.758,0l0.215,-0.972Zm40.398,-0.111c0,-1.315 -6.577,-44.093 -6.81,-44.293c-0.173,-0.149 -3.134,-1.016 -6.578,-1.925l-6.262,-1.653l-6.64,1.695c-3.652,0.933 -6.705,1.89 -6.784,2.128c-0.079,0.237 -1.52,9.663 -3.203,20.946c-1.682,11.283 -3.17,21.146 -3.305,21.918l-0.247,1.403l19.915,0c10.953,0 19.914,-0.098 19.914,-0.219Zm-20.46,-3.037c-0.149,-0.386 -0.273,-1.317 -0.276,-2.07c-0.014,-2.856 -0.961,-2.994 -7.502,-1.095c-3.371,0.979 -4.991,0.741 -5.847,-0.859c-0.43,-0.804 -0.301,-0.84 2.744,-0.777c1.758,0.037 3.333,-0.07 3.501,-0.237c0.499,-0.498 -0.68,-6.081 -1.545,-7.313c-0.945,-1.345 -0.712,-1.76 0.691,-1.227c0.558,0.213 2.044,0.285 3.302,0.161c3.934,-0.388 4.23,-0.51 4.23,-1.736c0,-0.876 -0.159,-1.057 -0.736,-0.835c-1.888,0.724 -4.269,0.76 -4.84,0.072c-0.515,-0.621 -0.355,-0.695 1.529,-0.7c3.247,-0.009 4.047,-0.343 4.047,-1.686c0,-0.637 -0.211,-1.37 -0.469,-1.628c-0.673,-0.673 0.176,-1.089 1.529,-0.749c0.908,0.227 1.1,0.531 1.1,1.74c0,1.193 0.166,1.465 0.892,1.465c0.491,0 1.284,-0.21 1.763,-0.466c0.683,-0.366 1.05,-0.305 1.699,0.283c0.456,0.412 0.829,0.864 0.829,1.006c0.001,0.141 -1.214,0.257 -2.699,0.257c-2.592,0 -2.7,0.043 -2.7,1.079c0,0.823 0.205,1.058 0.864,0.988c0.475,-0.051 2.351,-0.224 4.169,-0.383l3.306,-0.29l0.738,1.428c0.677,1.308 0.682,1.526 0.06,2.578c-0.373,0.632 -0.858,1.947 -1.077,2.922c-0.458,2.037 -0.205,2.259 2.565,2.259c1.397,0 1.79,0.194 2.195,1.081c0.271,0.595 0.367,1.208 0.213,1.362c-0.154,0.154 -1.498,-0.047 -2.986,-0.446c-1.488,-0.399 -4.356,-0.769 -6.374,-0.822l-3.669,-0.096l-0.271,2.5c-0.294,2.719 -0.558,3.323 -0.975,2.234Zm-2.321,-5.659c2.376,-0.392 2.14,-1.45 -0.324,-1.45c-2.511,0 -2.511,-0.68 0,-1.057c1.421,-0.213 1.944,-0.488 1.944,-1.021c0,-0.555 -0.387,-0.729 -1.62,-0.729c-1.721,0 -2.643,-0.763 -1.188,-0.983c2.216,-0.335 2.807,-0.595 2.807,-1.235c0,-0.594 -0.404,-0.647 -2.915,-0.381c-1.603,0.17 -2.985,0.376 -3.072,0.459c-0.086,0.082 0.171,1.618 0.57,3.412c0.784,3.523 0.742,3.491 3.798,2.985Zm7.498,-0.427l2.208,-0.265l0.533,-2.984c0.665,-3.72 0.339,-4.252 -2.598,-4.252c-2.523,0 -4.294,0.615 -4.294,1.493c0,0.521 0.382,0.597 1.937,0.384c1.277,-0.175 2.161,-0.08 2.592,0.277c0.938,0.779 0.805,1.407 -0.229,1.079c-1.415,-0.449 -4.3,0.198 -4.3,0.964c0,0.533 0.385,0.623 1.926,0.449c1.519,-0.171 2.081,-0.046 2.658,0.591c0.708,0.783 0.645,0.809 -1.926,0.809c-2.37,0 -2.658,0.094 -2.658,0.864c0,0.958 0.503,1.029 4.151,0.591Zm-6.891,-16.497c-0.852,-0.94 -0.917,-1.409 -0.175,-1.261c0.389,0.078 0.575,-0.898 0.666,-3.508c0.111,-3.19 0.043,-3.585 -0.575,-3.348c-0.386,0.148 -0.783,0.27 -0.882,0.27c-0.1,0 -0.181,0.396 -0.181,0.881c0,1.572 -1.708,4.282 -3.532,5.603c-2.393,1.733 -3.378,1.706 -3.378,-0.093c0,-1.074 0.115,-1.266 0.518,-0.863c0.726,0.726 0.966,0.667 2.487,-0.613c1.347,-1.133 2.854,-3.519 2.467,-3.906c-0.113,-0.113 -0.994,0.196 -1.958,0.688c-1.863,0.95 -3.754,1.139 -4.798,0.479c-0.735,-0.465 -1,-0.358 3.641,-1.476c3.258,-0.785 3.791,-1.225 3.394,-2.805c-0.191,-0.761 -0.101,-0.979 0.342,-0.833c0.331,0.109 0.663,0.62 0.739,1.136c0.153,1.041 0.16,1.045 1.122,0.676c0.84,-0.323 0.972,-4.891 0.165,-5.698c-0.403,-0.403 -0.331,-0.517 0.324,-0.512c1.731,0.014 2.053,0.607 1.731,3.185c-0.251,2.009 -0.191,2.423 0.35,2.423c0.36,0 0.763,-0.176 0.896,-0.391c0.133,-0.215 0.647,-0.286 1.142,-0.156c0.761,0.199 0.858,0.458 0.629,1.68c-0.456,2.43 0.45,4.842 2.116,5.637c0.88,0.419 1.885,0.578 2.57,0.406c0.99,-0.248 1.126,-0.502 1.128,-2.11l0.003,-1.827l0.654,1.255c0.36,0.69 0.991,1.504 1.401,1.809c0.687,0.51 0.691,0.611 0.05,1.262c-0.842,0.856 -3.645,1.286 -5.775,0.887c-2.165,-0.407 -3.242,-2.254 -3.244,-5.567c-0.002,-2.359 -0.061,-2.505 -0.973,-2.375c-0.937,0.133 -0.967,0.275 -0.83,3.967c0.21,5.647 -0.426,7.097 -2.234,5.098l0,0Zm7.491,-6.12c0,-0.237 0.485,-0.432 1.079,-0.432c0.594,0 1.08,0.195 1.08,0.432c0,0.238 -0.486,0.432 -1.08,0.432c-0.594,0 -1.079,-0.194 -1.079,-0.432Zm-0.242,-2.821c0.923,-0.698 2.401,-0.853 2.401,-0.252c0,0.398 -1.476,0.908 -2.591,0.894c-0.492,-0.006 -0.446,-0.161 0.19,-0.642Zm-12.313,-2.546c1.142,-1.178 1.378,-1.708 1.156,-2.592c-0.309,-1.232 0.048,-1.394 1.208,-0.546c1.156,0.845 0.706,2.489 -0.994,3.632c-2.278,1.531 -3.06,1.249 -1.37,-0.494Zm10.932,-0.438c-1.667,-0.751 -2.392,-2.361 -2.001,-4.445c0.269,-1.432 0.233,-1.49 -0.746,-1.187c-0.566,0.175 -1.554,0.585 -2.195,0.911c-1.592,0.809 -2.666,0.744 -3.534,-0.214c-0.702,-0.777 -0.65,-0.815 1.366,-1.009c1.153,-0.111 2.749,-0.527 3.547,-0.925c0.798,-0.398 1.801,-0.613 2.229,-0.477c0.673,0.214 0.743,0.583 0.519,2.729c-0.208,1.995 -0.116,2.624 0.472,3.212c1.315,1.315 4.116,0.829 4.138,-0.718c0.013,-0.91 0.021,-0.911 0.503,-0.062c0.269,0.475 0.699,1.002 0.955,1.17c0.775,0.51 -0.333,1.255 -2.175,1.461c-0.947,0.107 -2.281,-0.087 -3.078,-0.446Zm0.704,-2.974c0.643,-0.784 2.214,-0.99 2.214,-0.29c0,0.237 -0.146,0.434 -0.324,0.437c-0.178,0.003 -0.809,0.135 -1.403,0.291c-0.97,0.256 -1.019,0.211 -0.487,-0.438Zm-0.187,-2.634c0.932,-0.755 2.833,-0.921 2.833,-0.248c0,0.238 -0.34,0.435 -0.756,0.438c-0.415,0.003 -1.241,0.115 -1.835,0.248c-1.042,0.234 -1.051,0.219 -0.242,-0.438Z" style="fill:#010101;fill-rule:nonzero;"/></g></svg>