<?xml version="1.0" encoding="UTF-8" standalone="no"?><!DOCTYPE svg PUBLIC "-//W3C//DTD SVG 1.1//EN" "http://www.w3.org/Graphics/SVG/1.1/DTD/svg11.dtd"><svg width="100%" height="100%" viewBox="0 0 39 39" version="1.1" xmlns="http://www.w3.org/2000/svg" xmlns:xlink="http://www.w3.org/1999/xlink" xml:space="preserve" xmlns:serif="http://www.serif.com/" style="fill-rule:evenodd;clip-rule:evenodd;stroke-miterlimit:2;"><g id="g4428"><g id="path3918"><path d="M11.206,6.811l-4.456,27.849l25.5,0.105l-4.404,-28.163l-8.425,-2.367l-8.215,2.576Z" style="fill:none;fill-rule:nonzero;stroke:#000;stroke-width:2px;"/><path d="M11.206,6.811l-4.456,27.849l25.5,0.105l-4.404,-28.163l-8.425,-2.367l-8.215,2.576Z" style="fill:#fff;fill-rule:nonzero;"/></g><g id="g3909"><path id="path3891" d="M14.78,31.644c-0.394,-0.568 -1.035,-1.406 -1.424,-1.86c-0.643,-0.751 -0.734,-0.783 -0.989,-0.344c-0.155,0.266 -0.577,0.825 -0.937,1.241c-0.51,0.589 -0.73,0.684 -0.99,0.427c-0.431,-0.423 0.058,-1.695 0.988,-2.568c0.626,-0.588 0.633,-0.641 0.206,-1.536c-0.855,-1.794 0.702,-3.226 1.757,-1.616l0.461,0.704l1.061,-1.036c1.557,-1.52 1.431,-2.648 -0.423,-3.799c-0.618,-0.384 -0.709,-0.548 -0.413,-0.735c1.197,-0.758 3,0.2 3,1.593l0,0.742l0.758,-0.708c1.502,-1.401 2.694,-1.682 3.475,-0.819c0.43,0.475 0.419,0.566 -0.174,1.448c-0.348,0.517 -0.907,0.98 -1.243,1.028c-0.753,0.109 -0.765,-0.08 -0.059,-0.977c0.551,-0.702 0.734,-1.465 0.345,-1.442c-0.114,0.007 -0.839,0.597 -1.61,1.31l-1.403,1.297l-0.306,3.868c-0.168,2.127 -0.387,4.082 -0.487,4.342c-0.286,0.747 -0.817,0.561 -1.593,-0.56Zm1.014,-2.757c0.097,-1.023 0.172,-2.294 0.166,-2.826l-0.011,-0.964l-1.366,1.499c-0.751,0.826 -1.366,1.579 -1.366,1.674c0,0.272 1.948,2.479 2.187,2.479c0.118,0 0.294,-0.838 0.39,-1.862Zm-2.626,-2.504c0.052,-0.359 -0.091,-0.668 -0.357,-0.77c-0.618,-0.238 -0.794,0.024 -0.582,0.869c0.211,0.839 0.81,0.776 0.939,-0.099Zm11.714,5.502c-0.178,-0.284 -0.762,-0.599 -1.297,-0.699c-1.59,-0.299 -1.455,-0.713 0.23,-0.713l1.533,0l0,-1.638c0,-0.901 -0.133,-1.72 -0.295,-1.821c-0.372,-0.229 -2.461,0.075 -3.014,0.439c-0.36,0.238 -0.351,0.309 0.07,0.558c0.692,0.408 0.605,1.541 -0.156,2.04c-0.654,0.428 -3.222,0.909 -3.222,0.603c0,-0.094 0.488,-0.419 1.084,-0.723c1.2,-0.612 1.248,-0.666 1.492,-1.693l0.172,-0.719l-1.219,0.279c-1.009,0.23 -1.344,0.198 -1.935,-0.189c-0.959,-0.629 -0.63,-1.036 0.67,-0.828c0.881,0.141 5.435,-0.536 5.754,-0.856c0.05,-0.051 -0.052,-0.361 -0.228,-0.69c-0.177,-0.33 -0.249,-0.671 -0.162,-0.758c0.285,-0.285 1.54,0.458 1.54,0.911c0,0.341 0.178,0.403 0.777,0.272c0.559,-0.124 0.983,-0.009 1.518,0.413c0.986,0.775 0.678,1.196 -0.712,0.974l-1.105,-0.176l0.188,1.655c0.328,2.902 -0.694,4.943 -1.683,3.359Zm-4.381,-6.407c0.533,-0.419 0.718,-0.788 0.658,-1.309c-0.117,-1.006 0.647,-0.96 1.006,0.06c0.238,0.678 0.187,0.86 -0.368,1.31c-0.355,0.288 -0.959,0.522 -1.342,0.522l-0.696,0l0.742,-0.583Zm3.293,-1.705c1.025,-0.82 0.91,-1.677 -0.24,-1.789c-0.454,-0.045 -1.011,-0.152 -1.239,-0.237c-0.596,-0.224 0.411,-0.604 1.668,-0.628c1.169,-0.023 1.641,0.377 1.641,1.394c0,0.86 -1.114,1.895 -2.036,1.893c-0.535,-0.002 -0.517,-0.054 0.206,-0.633Zm-3.597,-5.638c-0.379,-0.901 -0.392,-1.357 -0.094,-3.548c0.188,-1.382 0.256,-2.902 0.152,-3.377c-0.193,-0.882 0.052,-1.107 0.606,-0.553c0.229,0.229 0.54,0.229 1.199,0c0.489,-0.171 1.242,-0.31 1.675,-0.31c0.515,0 0.786,-0.143 0.786,-0.414c0,-0.485 -0.57,-0.52 -1.995,-0.124c-0.723,0.201 -1.195,0.197 -1.585,-0.011c-0.803,-0.43 -0.684,-0.748 0.34,-0.914c0.493,-0.08 1.406,-0.231 2.028,-0.337c1.488,-0.252 2.315,0.185 2.315,1.225c0,0.964 -0.646,2.562 -1.232,3.048c-0.633,0.526 -0.825,0.153 -0.423,-0.819c0.435,-1.049 0.257,-1.246 -0.794,-0.88c-0.452,0.158 -1.079,0.22 -1.392,0.138c-0.45,-0.118 -0.57,-0.021 -0.57,0.459c0,0.556 0.093,0.592 1.102,0.421c0.741,-0.125 1.103,-0.085 1.103,0.122c0,0.372 -0.635,0.64 -1.605,0.678c-0.849,0.032 -1.084,0.656 -1.125,2.991c-0.025,1.473 0.243,1.988 0.673,1.292c0.099,-0.161 0.51,-0.419 0.912,-0.573l0.732,-0.281l-0.759,-0.608c-0.877,-0.705 -1.01,-1.156 -0.215,-0.73c0.551,0.294 0.981,0.047 2.559,-1.466c0.51,-0.489 0.538,-0.489 0.895,-0.001c0.479,0.655 0.162,1.018 -1.261,1.444l-1.132,0.34l1.239,0.785c1.389,0.88 1.836,1.494 1.638,2.249c-0.21,0.801 -0.774,0.608 -1.721,-0.587c-0.846,-1.068 -0.892,-1.088 -1.639,-0.702c-0.422,0.218 -0.924,0.775 -1.115,1.237c-0.458,1.106 -0.769,1.06 -1.297,-0.194Zm-6.668,0.389c-0.247,-0.298 -0.01,-0.438 1.206,-0.71c1.342,-0.3 1.515,-0.417 1.515,-1.028c0,-0.545 -0.129,-0.678 -0.62,-0.639c-1.787,0.145 -2.116,-0.395 -0.828,-1.357c0.72,-0.537 0.728,-0.567 0.155,-0.575c-1.074,-0.015 -0.936,-0.486 0.195,-0.666c1.117,-0.179 1.608,-0.997 0.599,-0.997c-0.274,0 -0.739,-0.182 -1.033,-0.405c-0.514,-0.387 -0.505,-0.405 0.213,-0.413c0.411,-0.005 1.327,-0.205 2.034,-0.445c1.168,-0.397 1.326,-0.397 1.719,-0.005c0.392,0.392 0.35,0.46 -0.45,0.739c-1.013,0.353 -1.201,1.074 -0.261,0.995c0.873,-0.073 1.04,0.441 0.207,0.636c-0.446,0.105 -0.722,0.386 -0.781,0.797c-0.074,0.513 0.008,0.603 0.428,0.47c0.607,-0.194 1.62,0.45 1.364,0.865c-0.29,0.469 -1.271,0.628 -1.098,0.179c0.102,-0.267 0.01,-0.333 -0.296,-0.216c-0.244,0.094 -0.444,0.46 -0.444,0.814c0,0.53 0.133,0.633 0.758,0.59c1.157,-0.079 0.98,0.726 -0.207,0.94c-0.531,0.095 -1.314,0.314 -1.741,0.487c-1.044,0.422 -2.258,0.396 -2.634,-0.056Zm2.721,-3.809c0,-0.587 -0.007,-0.588 -0.62,-0.072c-0.342,0.288 -0.672,0.555 -0.735,0.595c-0.064,0.039 0.215,0.071 0.619,0.071c0.569,0 0.736,-0.134 0.736,-0.594Zm-1.861,-4.438c1.369,-1.318 1.861,-1.983 1.861,-2.515c0,-0.398 0.132,-0.723 0.293,-0.723c0.626,0 1.361,0.595 1.361,1.102c0,0.293 0.279,0.68 0.62,0.859c0.631,0.332 1.022,0.766 1.03,1.14c0.009,0.423 -1.118,0.188 -1.65,-0.344c-0.666,-0.667 -0.923,-0.688 -1.398,-0.115c-0.528,0.636 -2.489,1.935 -3.289,2.178c-0.506,0.154 -0.195,-0.266 1.172,-1.582Z" style="fill-rule:nonzero;"/></g></g></svg>