<?xml version="1.0" encoding="UTF-8" standalone="no"?><!DOCTYPE svg PUBLIC "-//W3C//DTD SVG 1.1//EN" "http://www.w3.org/Graphics/SVG/1.1/DTD/svg11.dtd"><svg width="100%" height="100%" viewBox="0 0 58 58" version="1.1" xmlns="http://www.w3.org/2000/svg" xmlns:xlink="http://www.w3.org/1999/xlink" xml:space="preserve" xmlns:serif="http://www.serif.com/" style="fill-rule:evenodd;clip-rule:evenodd;stroke-linejoin:round;stroke-miterlimit:1.41421;"><g id="g4428"><path id="path3918" d="M15.51,8.66l-7.196,44.979l41.184,0.169l-7.113,-45.485l-13.606,-3.823l-13.269,4.16Z" style="fill:#fff;fill-rule:nonzero;"/><g id="g3909"><path id="path3897" d="M8.072,53.402c0,-1.944 6.776,-45.495 7.111,-45.701c0.224,-0.139 3.424,-1.028 7.112,-1.976l6.705,-1.725l6.705,1.725c3.688,0.948 6.888,1.837 7.112,1.976c0.335,0.206 7.111,43.757 7.111,45.701c0,0.492 -3.708,0.598 -20.928,0.598c-17.22,0 -20.928,-0.106 -20.928,-0.598Zm40.26,-1.517c-0.096,-0.429 -1.582,-10.281 -3.3,-21.895c-1.719,-11.614 -3.174,-21.153 -3.233,-21.199c-0.06,-0.045 -2.964,-0.84 -6.454,-1.767l-6.345,-1.683l-6.345,1.683c-3.49,0.927 -6.393,1.721 -6.453,1.766c-0.059,0.045 -1.511,9.484 -3.227,20.976c-1.716,11.492 -3.225,21.345 -3.352,21.896l-0.232,1.002l19.559,0c18.397,0 19.548,-0.046 19.382,-0.779Zm-26.825,-2.429c-0.292,-0.562 -1.223,-1.88 -2.069,-2.929l-1.54,-1.908l-1.151,1.825c-0.738,1.169 -1.421,1.772 -1.903,1.679c-1.264,-0.243 -1.136,-1.69 0.332,-3.734c1.132,-1.576 1.309,-2.113 0.932,-2.818c-1.183,-2.21 0.294,-5.069 2.116,-4.094c0.481,0.258 0.997,0.786 1.146,1.173c0.225,0.586 0.572,0.463 2.056,-0.73c2.472,-1.986 2.298,-4.099 -0.454,-5.522c-2.015,-1.042 -1.722,-1.997 0.612,-1.997c2.04,0 3.409,0.953 3.409,2.372c0,0.978 0.522,0.94 1.891,-0.137c1.994,-1.569 3.433,-1.904 4.676,-1.09c0.951,0.623 1.379,0.646 3.085,0.168c1.799,-0.503 2.091,-0.471 3.177,0.354c1.435,1.091 1.485,3.061 0.106,4.186c-0.892,0.729 -0.892,0.735 0.155,0.997c0.578,0.145 1.151,0.644 1.273,1.109c0.167,0.639 0.504,0.789 1.388,0.621c1.361,-0.261 3.395,0.901 3.395,1.939c0,0.555 -0.403,0.67 -1.93,0.546l-1.93,-0.156l0.191,3.117c0.304,4.955 -1.28,7.484 -3.111,4.97c-0.475,-0.652 -1.161,-1.185 -1.524,-1.185c-0.363,0 -1.097,-0.251 -1.632,-0.557c-0.885,-0.506 -0.751,-0.577 1.476,-0.779l2.449,-0.223l-0.01,-2.533c-0.005,-1.393 -0.14,-2.663 -0.299,-2.822c-0.158,-0.159 -1.424,-0.053 -2.813,0.235l-2.524,0.525l0.945,1.006c2.016,2.145 -0.832,4.584 -4.872,4.172l-1.559,-0.159l2.037,-1.042c1.335,-0.683 2.205,-1.488 2.525,-2.337l0.49,-1.296l-2.184,0.289c-1.652,0.219 -2.457,0.111 -3.305,-0.445c-1.793,-1.174 -1.325,-1.573 1.82,-1.548c3.507,0.026 8.642,-0.917 8.622,-1.585c-0.026,-0.872 -1.188,-2.033 -2.039,-2.038c-0.669,-0.004 -0.546,-0.238 0.606,-1.146c1.319,-1.04 1.935,-2.383 1.113,-2.431c-0.184,-0.01 -1.186,-0.184 -2.226,-0.385c-1.041,-0.202 -1.893,-0.2 -1.893,0.004c0,0.648 -2.74,3.518 -3.359,3.518c-1.149,0 -1.147,-0.922 0.006,-2.292c2.142,-2.546 0.225,-2.056 -2.289,0.585c-1.344,1.412 -1.438,1.743 -1.918,6.827c-0.706,7.466 -0.937,8.434 -2.044,8.592c-0.595,0.085 -1.108,-0.23 -1.451,-0.891l0,0Zm1.452,-7.733l0.311,-3.53l-1.793,2.004c-2.525,2.82 -2.605,3.306 -0.861,5.254c1.378,1.539 1.502,1.591 1.757,0.729c0.15,-0.509 0.414,-2.515 0.586,-4.457Zm-4.396,-1.124c0.165,-0.268 -0.023,-0.812 -0.419,-1.208c-0.664,-0.664 -0.721,-0.626 -0.721,0.488c0,1.229 0.593,1.604 1.14,0.72Zm10.66,-1.115c0.489,-0.376 1.185,-0.853 1.544,-1.06c0.397,-0.228 0.613,-0.917 0.55,-1.751c-0.084,-1.101 0.068,-1.374 0.763,-1.374c1.003,0 1.572,1.373 1.193,2.882c-0.267,1.062 -2.201,2.029 -4.005,2.002c-0.931,-0.015 -0.932,-0.018 -0.045,-0.699Zm-9.685,-11.345c-1.143,-0.666 -0.971,-1.746 0.278,-1.746c2.557,0 3.841,-0.53 3.841,-1.586c0,-0.916 -0.162,-1.003 -1.468,-0.791c-2.096,0.34 -2.963,-0.755 -1.602,-2.024c0.87,-0.81 0.898,-0.949 0.246,-1.199c-1.344,-0.516 -0.814,-1.464 0.897,-1.608c1.854,-0.157 2.646,-1.252 0.905,-1.252c-0.602,0 -1.333,-0.286 -1.623,-0.635c-0.366,-0.441 -1.025,-0.555 -2.153,-0.372l-1.626,0.264l3.015,-2.821c1.892,-1.769 3.11,-3.291 3.268,-4.081c0.376,-1.88 2.807,-1.45 2.815,0.499c0.002,0.379 0.603,1.031 1.336,1.448c1.442,0.821 1.753,2.003 0.639,2.431c-0.413,0.158 -1.182,-0.196 -1.893,-0.872l-1.198,-1.137l-2.226,1.799l-2.226,1.799l2.003,-0.245c1.102,-0.135 2.631,-0.378 3.398,-0.54c0.865,-0.182 1.514,-0.101 1.708,0.214c0.425,0.686 -0.566,1.804 -1.598,1.804c-0.46,0 -0.836,0.213 -0.836,0.473c0,0.261 0.35,0.438 0.779,0.394c2.263,-0.23 2.744,1.078 0.557,1.515c-1.665,0.333 -1.773,1.514 -0.157,1.707c1.095,0.131 2.394,1.392 1.921,1.865c-0.114,0.114 -0.788,0.353 -1.498,0.531c-0.92,0.231 -1.199,0.178 -0.974,-0.186c0.173,-0.281 0.103,-0.511 -0.157,-0.511c-0.259,0 -0.471,0.389 -0.471,0.863c0,0.647 0.361,0.897 1.447,1.002c2.225,0.214 1.797,1.283 -0.779,1.946c-1.225,0.315 -2.791,0.789 -3.48,1.053c-1.53,0.585 -2.081,0.585 -3.088,-0.001l0,0Zm4.119,-6.437c0,-0.545 -0.18,-0.587 -0.891,-0.207c-1.13,0.605 -1.13,0.891 0,0.891c0.504,0 0.891,-0.297 0.891,-0.684Zm6.305,5.784c-0.662,-1.454 -0.658,-4.456 0.012,-8.092c0.419,-2.273 0.413,-3.058 -0.031,-3.768c-0.706,-1.131 -0.273,-1.607 0.834,-0.915c0.666,0.415 1.244,0.388 2.708,-0.129c1.023,-0.361 2.276,-0.656 2.784,-0.656c0.63,0 0.779,-0.145 0.468,-0.456c-0.31,-0.31 -1.182,-0.288 -2.74,0.072c-1.819,0.42 -2.424,0.411 -2.973,-0.044c-0.378,-0.315 -0.688,-0.7 -0.688,-0.857c0,-0.245 2.056,-0.865 5.607,-1.692c0.587,-0.137 1.41,0.193 2.222,0.892l1.289,1.109l-0.849,2.499c-0.467,1.375 -1.066,2.668 -1.331,2.874c-0.265,0.206 -1.563,0.392 -2.885,0.414c-1.321,0.021 -2.578,0.214 -2.792,0.429c-0.537,0.536 -1.062,6.507 -0.552,6.272c0.222,-0.103 0.96,-0.465 1.639,-0.805l1.235,-0.618l-1.235,-1.31l-1.235,-1.309l1.374,0.292c1.187,0.252 1.62,0.052 3.191,-1.473c1.764,-1.712 1.841,-1.739 2.577,-0.927c1.066,1.179 0.598,1.949 -1.583,2.602l-1.881,0.564l1.723,1.137c2.087,1.377 2.836,2.262 2.836,3.347c0,1.558 -1.332,1.42 -3.116,-0.322c-1.975,-1.929 -2.623,-1.862 -4.101,0.419c-1.213,1.871 -1.811,1.979 -2.507,0.451l0,0Zm6.111,-10.765c0.505,-0.971 0.467,-0.989 -1.939,-0.891c-1.945,0.079 -2.456,0.252 -2.459,0.836c-0.003,0.603 0.32,0.694 1.778,0.498c1.286,-0.172 1.781,-0.078 1.781,0.34c0,0.683 0.149,0.544 0.839,-0.783Z" style="fill:#cfcfcf;fill-rule:nonzero;"/><path id="path3895" d="M8.07,53.666c-0.004,-0.545 6.76,-45.742 6.862,-45.851c0.051,-0.055 3.237,-0.933 7.081,-1.952l6.987,-1.852l6.987,1.852c3.844,1.019 7.03,1.897 7.081,1.952c0.102,0.109 6.866,45.306 6.862,45.851c-0.001,0.184 -9.42,0.334 -20.93,0.334c-11.51,0 -20.929,-0.15 -20.93,-0.334Zm40.314,-2.004c-0.124,-0.551 -1.535,-9.918 -3.136,-20.816c-1.601,-10.898 -3.017,-20.34 -3.146,-20.983c-0.219,-1.088 -0.652,-1.279 -6.335,-2.791c-3.354,-0.892 -6.4,-1.623 -6.767,-1.623c-0.367,0 -3.413,0.731 -6.767,1.623c-5.682,1.512 -6.116,1.703 -6.335,2.791c-0.13,0.643 -1.544,9.985 -3.144,20.76c-1.6,10.776 -3.023,20.143 -3.162,20.817l-0.255,1.224l39.272,0l-0.225,-1.002Zm-26.508,-1.645c0,-0.265 -0.898,-1.584 -1.994,-2.93l-1.994,-2.448l-1.182,1.786c-1.21,1.828 -2.24,2.275 -2.669,1.159c-0.296,-0.772 0.75,-2.871 1.99,-3.994c0.834,-0.754 0.859,-0.924 0.269,-1.768c-0.901,-1.286 -0.819,-2.668 0.234,-3.914l0.887,-1.051l2.585,2.804l1.605,-1.643c2.103,-2.154 2.065,-3.321 -0.174,-5.388c-0.977,-0.903 -1.645,-1.774 -1.484,-1.935c0.162,-0.162 1.031,-0.294 1.932,-0.294c1.837,0 3.112,1.063 3.112,2.595c0,1.27 0.258,1.224 2.071,-0.369c1.065,-0.934 1.985,-1.336 3.065,-1.336c0.848,0 1.543,0.201 1.543,0.446c0,0.568 1.828,0.574 3.31,0.011c1.406,-0.535 3.13,0.046 3.789,1.278c0.602,1.124 -0.132,2.884 -1.473,3.533l-0.951,0.46l0.992,0.031c0.545,0.016 1.301,0.502 1.679,1.079c0.505,0.771 0.981,0.994 1.79,0.839c1.305,-0.249 3.331,0.946 3.331,1.965c0,0.58 -0.363,0.674 -1.919,0.499l-1.918,-0.216l0.026,3.926c0.021,3.179 -0.123,4.075 -0.758,4.712c-0.75,0.751 -0.835,0.732 -1.911,-0.428c-0.619,-0.668 -1.48,-1.215 -1.913,-1.215c-0.433,0 -1.176,-0.294 -1.652,-0.653c-0.792,-0.6 -0.652,-0.655 1.696,-0.668l2.561,-0.014l-0.007,-2.338c-0.01,-3.459 -0.297,-3.724 -3.303,-3.051l-2.491,0.557l0.904,1.15c0.793,1.008 0.83,1.265 0.295,2.082c-0.877,1.34 -2.723,2.119 -4.642,1.96l-1.665,-0.138l2.06,-1.211c1.406,-0.827 2.131,-1.58 2.283,-2.372c0.22,-1.154 0.209,-1.159 -1.976,-0.858c-1.763,0.242 -2.368,0.147 -3.061,-0.48c-1.37,-1.24 -1.053,-1.679 0.979,-1.354c1.122,0.179 3.383,-0.001 5.771,-0.461l3.927,-0.755l-0.746,-1.264c-0.424,-0.718 -1.138,-1.268 -1.653,-1.275c-0.789,-0.01 -0.748,-0.11 0.322,-0.773c1.21,-0.75 1.995,-2.152 1.489,-2.658c-0.142,-0.143 -1.167,-0.397 -2.276,-0.565c-1.853,-0.282 -2.061,-0.216 -2.564,0.809c-0.758,1.543 -2.871,3.058 -3.453,2.476c-0.307,-0.307 -0.092,-0.873 0.669,-1.758c1.222,-1.42 1.531,-2.698 0.509,-2.105c-0.338,0.195 -1.468,1.132 -2.511,2.081l-1.898,1.724l-0.413,5.623c-0.531,7.21 -0.783,8.255 -2.037,8.435c-0.543,0.079 -0.987,-0.074 -0.987,-0.34l0,0Zm1.075,-8.039l0.297,-3.785l-2.013,2.226c-1.107,1.225 -2.017,2.498 -2.022,2.83c-0.005,0.333 0.629,1.409 1.408,2.393c1.722,2.175 1.893,1.906 2.33,-3.664Zm-4.476,-1.113c0.478,-1.247 -0.588,-2.669 -1.227,-1.636c-0.304,0.491 0.187,2.303 0.625,2.303c0.19,0 0.461,-0.3 0.602,-0.667Zm10.528,-0.967c0.001,-0.203 0.618,-0.72 1.371,-1.148c1.195,-0.68 1.331,-0.949 1.075,-2.115c-0.215,-0.981 -0.13,-1.336 0.321,-1.336c1.65,0 2.259,2.47 0.903,3.666c-0.888,0.783 -3.674,1.492 -3.67,0.933Zm-9.465,-11.759c-1.143,-0.666 -0.971,-1.746 0.278,-1.746c0.582,0 1.684,-0.125 2.449,-0.278c1.099,-0.22 1.392,-0.505 1.392,-1.356c0,-0.99 -0.127,-1.054 -1.554,-0.786c-1.918,0.36 -2.563,-0.681 -1.292,-2.085c0.78,-0.863 0.782,-0.934 0.044,-1.347c-1.134,-0.635 -0.498,-1.272 1.27,-1.272c1.065,0 1.532,-0.204 1.532,-0.668c0,-0.406 -0.415,-0.668 -1.059,-0.668c-0.582,0 -1.298,-0.288 -1.591,-0.641c-0.444,-0.535 -0.248,-0.691 1.17,-0.933c0.936,-0.16 2.328,-0.504 3.093,-0.764c2.578,-0.874 4.012,0.637 1.504,1.584c-1.75,0.66 -1.75,1.551 0,1.294c1.834,-0.269 1.834,1.03 0,1.397c-0.918,0.184 -1.336,0.53 -1.336,1.107c0,0.638 0.248,0.793 1.029,0.643c0.619,-0.118 1.277,0.103 1.653,0.556c0.543,0.655 0.514,0.832 -0.224,1.371c-0.977,0.715 -2.198,0.834 -1.79,0.175c0.151,-0.245 0.063,-0.446 -0.197,-0.446c-0.259,0 -0.471,0.401 -0.471,0.891c0,0.685 0.297,0.891 1.288,0.891c0.709,0 1.396,0.281 1.528,0.624c0.315,0.821 -0.066,1.157 -1.315,1.157c-0.563,0 -2.04,0.4 -3.282,0.89c-2.549,1.005 -3.017,1.051 -4.119,0.41Zm4.119,-6.421c0,-0.367 -0.176,-0.668 -0.391,-0.668c-0.215,0 -0.64,0.301 -0.945,0.668c-0.463,0.558 -0.399,0.668 0.391,0.668c0.543,0 0.945,-0.284 0.945,-0.668Zm6.712,6.274c-0.91,-1.096 -1.072,-3.792 -0.465,-7.698c0.472,-3.032 0.479,-3.964 0.034,-4.676c-0.711,-1.139 -0.26,-1.594 0.878,-0.883c0.716,0.447 1.266,0.422 2.889,-0.129c1.103,-0.374 2.339,-0.68 2.747,-0.68c0.505,0 0.596,-0.145 0.285,-0.456c-0.31,-0.31 -1.182,-0.288 -2.74,0.072c-1.819,0.42 -2.424,0.411 -2.973,-0.044c-0.93,-0.772 -0.867,-1.353 0.146,-1.353c0.459,0 1.683,-0.299 2.719,-0.665c3.471,-1.225 5.735,0.356 4.89,3.414c-0.528,1.914 -2.024,3.93 -2.916,3.93c-0.558,0 -0.558,-0.199 -0.001,-1.532l0.639,-1.531l-2.414,0.084c-1.976,0.069 -2.414,0.227 -2.415,0.869c0,0.666 0.269,0.741 1.781,0.5c1.165,-0.187 1.781,-0.117 1.781,0.201c0,0.71 -1.737,1.524 -2.709,1.27c-0.656,-0.171 -0.933,0.131 -1.287,1.407c-0.48,1.725 -0.624,5.411 -0.212,5.411c0.134,0 0.857,-0.317 1.607,-0.705l1.362,-0.704l-1.273,-1.349l-1.273,-1.349l1.402,0.298c1.218,0.259 1.642,0.068 3.249,-1.461l1.848,-1.757l0.707,1.078c0.835,1.274 0.871,1.223 -1.614,2.278l-1.949,0.828l1.597,0.942c1.864,1.1 3.205,2.944 2.838,3.901c-0.41,1.067 -1.331,0.791 -2.957,-0.887c-0.831,-0.857 -1.774,-1.558 -2.096,-1.558c-0.321,0 -1.134,0.793 -1.805,1.764c-1.362,1.969 -1.555,2.067 -2.3,1.17l0,0Zm-9.68,-14.023c1.74,-1.801 2.968,-3.46 2.968,-4.007c0,-0.603 0.284,-0.934 0.801,-0.934c1.017,0 1.87,0.842 1.87,1.846c0,0.427 0.551,1.041 1.225,1.364c1.229,0.589 1.684,2.128 0.724,2.448c-0.275,0.092 -1.107,-0.343 -1.848,-0.966l-1.347,-1.134l-1.901,1.588c-2.032,1.698 -4.04,2.869 -4.918,2.869c-0.298,0 0.794,-1.383 2.426,-3.074Z" style="fill:#afafaf;fill-rule:nonzero;"/><path id="path3893" d="M8.188,52.776c0.125,-0.674 1.692,-11.076 3.483,-23.117l3.256,-21.891l7.036,-1.839l7.037,-1.839l7.037,1.839l7.036,1.839l3.256,21.891c1.791,12.041 3.358,22.443 3.483,23.117l0.227,1.224l-21.039,0l-21.039,0l0.227,-1.224Zm40.39,0c-0.108,-2.596 -6.669,-43.921 -7.007,-44.128c-0.256,-0.159 -3.19,-0.985 -6.519,-1.837l-6.052,-1.55l-6.052,1.55c-3.329,0.852 -6.266,1.68 -6.526,1.841c-0.363,0.224 -6.914,41.332 -6.996,43.901c-0.014,0.437 4.188,0.556 19.574,0.556c10.775,0 19.586,-0.15 19.578,-0.333Zm-28.241,-5.229c-2.053,-2.718 -2.231,-2.847 -2.983,-2.168c-0.439,0.398 -0.912,1.079 -1.05,1.514c-0.308,0.973 -1.548,1.502 -2.137,0.913c-0.579,-0.58 0.342,-2.774 1.703,-4.052c1.01,-0.95 1.022,-1.035 0.332,-2.481c-1.381,-2.897 1.133,-5.21 2.837,-2.61l0.745,1.138l1.714,-1.674c2.501,-2.442 2.308,-4.281 -0.638,-6.107c-1.536,-0.952 -1.198,-1.619 0.819,-1.619c1.863,0 3.314,1.304 3.314,2.977l0,1.197l1.224,-1.142c2.289,-2.135 4.412,-2.73 5.417,-1.519c0.435,0.524 0.864,0.532 2.687,0.051c2.8,-0.738 4.192,-0.153 4.388,1.845c0.104,1.068 -0.139,1.602 -1.062,2.328c-0.659,0.518 -1.601,0.942 -2.093,0.942c-0.82,0 -0.797,-0.092 0.283,-1.092c1.253,-1.162 1.539,-2.388 0.621,-2.669c-0.306,-0.094 -1.317,-0.277 -2.247,-0.407c-1.444,-0.201 -1.744,-0.094 -2.063,0.742c-0.415,1.083 -1.642,2.261 -2.771,2.66c-1.24,0.437 -1.297,-0.184 -0.142,-1.557c1.198,-1.423 1.515,-2.864 0.498,-2.263c-0.331,0.196 -1.509,1.161 -2.616,2.144l-2.014,1.789l-0.308,5.558c-0.325,5.864 -0.859,8.453 -1.741,8.453c-0.293,0 -1.516,-1.301 -2.717,-2.891Zm2.648,-5.363l0.28,-3.991l-1.846,1.992c-2.781,3.002 -2.803,3.122 -0.995,5.299c1.965,2.366 2.183,2.085 2.561,-3.3Zm-4.435,-1.587c0.345,-1.086 -0.45,-2.146 -1.112,-1.484c-0.48,0.48 -0.117,2.419 0.452,2.419c0.2,0 0.497,-0.42 0.66,-0.935Zm19.079,8.749c-0.136,-0.355 -0.981,-0.88 -1.878,-1.167c-2.688,-0.858 -2.667,-1.303 0.062,-1.303l2.538,0l-0.007,-2.338c-0.01,-3.221 -0.352,-3.632 -2.727,-3.273c-1.068,0.161 -2.242,0.492 -2.61,0.734c-0.582,0.384 -0.567,0.499 0.112,0.9c1.021,0.602 0.995,2.308 -0.051,3.254c-0.457,0.413 -1.905,0.858 -3.228,0.99c-2.587,0.259 -2.513,-0.047 0.4,-1.658c0.791,-0.437 1.398,-1.201 1.538,-1.935c0.23,-1.205 0.22,-1.21 -1.748,-0.915c-1.457,0.218 -2.266,0.109 -3.063,-0.413c-1.656,-1.085 -1.361,-1.705 0.649,-1.365c1.682,0.284 9.844,-0.919 9.844,-1.451c0,-0.139 -0.328,-0.615 -0.728,-1.057c-0.654,-0.722 -0.657,-0.833 -0.035,-1.072c0.927,-0.355 2.544,0.55 2.544,1.425c0,0.521 0.28,0.631 1.088,0.428c1.242,-0.312 3.2,0.441 3.556,1.366c0.315,0.823 -0.778,1.209 -2.466,0.871l-1.357,-0.272l0.305,2.851c0.372,3.476 -0.316,6.047 -1.62,6.047c-0.478,0 -0.981,-0.291 -1.118,-0.647l0,0Zm-7.38,-10.273c1.241,-1.017 1.427,-1.406 1.189,-2.49c-0.304,-1.384 0.46,-1.771 1.48,-0.75c1.471,1.471 0.089,3.516 -2.805,4.152l-1.336,0.293l1.472,-1.205Zm0.03,-11.189c-0.694,-0.835 -0.777,-4.646 -0.194,-8.939c0.268,-1.98 0.224,-2.956 -0.154,-3.412c-0.704,-0.849 0.2,-1.441 1.083,-0.708c0.479,0.398 0.992,0.407 2.051,0.038c0.776,-0.27 1.982,-0.492 2.68,-0.492c0.699,0 1.27,-0.207 1.27,-0.459c0,-0.787 -1.168,-0.956 -3.069,-0.445c-1.304,0.352 -2.08,0.356 -2.718,0.015c-1.292,-0.692 -1.098,-1.206 0.555,-1.476c0.796,-0.13 2.148,-0.42 3.005,-0.644c1.141,-0.3 1.901,-0.239 2.837,0.226c1.188,0.59 1.262,0.777 1.051,2.65c-0.244,2.164 -1.516,4.272 -2.719,4.509c-0.688,0.135 -0.687,0.031 0.015,-1.442c0.905,-1.897 0.697,-2.228 -0.993,-1.586c-0.698,0.265 -1.728,0.367 -2.288,0.227c-0.812,-0.204 -1.019,-0.072 -1.019,0.648c0,0.806 0.194,0.873 1.781,0.62c1.165,-0.187 1.781,-0.117 1.781,0.201c0,0.698 -1.649,1.483 -2.776,1.322c-0.703,-0.099 -1.044,0.162 -1.274,0.977c-0.431,1.527 -0.479,5.689 -0.069,5.943c0.184,0.113 0.935,-0.272 1.668,-0.857l1.334,-1.064l-1,-0.7c-1.231,-0.862 -1.303,-1.536 -0.132,-1.23c0.871,0.228 3.276,-1.138 4.391,-2.495c0.529,-0.643 0.647,-0.626 1.245,0.181c0.599,0.807 0.571,0.963 -0.299,1.669c-0.528,0.429 -1.327,0.78 -1.776,0.78c-1.466,0 -1.348,0.795 0.266,1.793c1.913,1.182 2.995,2.718 2.614,3.71c-0.452,1.179 -1.382,0.851 -2.884,-1.019c-1.241,-1.543 -1.526,-1.694 -2.428,-1.283c-0.563,0.256 -1.388,1.143 -1.834,1.972c-0.922,1.711 -1.147,1.798 -2.001,0.77l0,0Zm-10.986,-0.244c-0.757,-0.757 -0.662,-1.2 0.245,-1.14c0.429,0.027 1.531,-0.094 2.449,-0.271c1.413,-0.272 1.67,-0.497 1.67,-1.466c0,-1.003 -0.149,-1.117 -1.197,-0.916c-2.274,0.434 -3.005,-0.462 -1.622,-1.99c0.696,-0.769 0.69,-0.86 -0.087,-1.428c-0.761,-0.556 -0.674,-0.633 1.038,-0.923c2.032,-0.343 2.665,-1.573 0.809,-1.573c-0.582,0 -1.288,-0.277 -1.57,-0.615c-0.418,-0.504 -0.134,-0.672 1.562,-0.927c1.141,-0.171 2.556,-0.531 3.145,-0.799c0.86,-0.392 1.218,-0.342 1.811,0.251c0.689,0.689 0.642,0.773 -0.684,1.236c-1.636,0.57 -1.909,1.566 -0.422,1.54c1.419,-0.025 1.666,0.781 0.334,1.093c-0.688,0.162 -1.166,0.624 -1.251,1.21c-0.106,0.726 0.051,0.9 0.668,0.74c1.046,-0.272 2.752,0.951 2.141,1.534c-0.703,0.672 -2.617,1.158 -2.256,0.573c0.168,-0.271 0.093,-0.493 -0.167,-0.493c-0.259,0 -0.471,0.467 -0.471,1.037c0,0.897 0.178,1.009 1.336,0.84c1.124,-0.166 1.335,-0.048 1.335,0.745c0,0.693 -0.277,0.941 -1.057,0.941c-0.581,0 -1.909,0.3 -2.95,0.668c-2.284,0.805 -4.086,0.855 -4.809,0.133Zm4.364,-6.214c0,-0.948 -0.012,-0.949 -1.002,-0.116c-0.551,0.464 -1.085,0.896 -1.187,0.96c-0.103,0.064 0.348,0.116 1.001,0.116c0.919,0 1.188,-0.217 1.188,-0.96Zm-3.006,-7.347c2.014,-1.985 3.006,-3.307 3.006,-4.007c0,-0.574 0.213,-1.044 0.474,-1.044c1.013,0 2.197,0.962 2.197,1.785c0,0.509 0.549,1.147 1.336,1.554c0.735,0.38 1.336,0.987 1.336,1.348c0,0.986 -1.797,0.797 -2.98,-0.315l-1.033,-0.971l-1.222,1.148c-1.779,1.673 -4.575,3.466 -5.402,3.465c-0.431,0 0.485,-1.185 2.288,-2.963Z" style="fill:#8f8f8f;fill-rule:nonzero;"/><path id="path3891" d="M8.245,52.776c0.135,-0.674 1.678,-10.943 3.43,-22.821c1.752,-11.877 3.311,-21.736 3.466,-21.908c0.154,-0.172 3.335,-1.126 7.07,-2.121l6.789,-1.809l6.789,1.809c3.735,0.995 6.916,1.949 7.07,2.121c0.155,0.172 1.714,10.031 3.466,21.908c1.752,11.878 3.295,22.147 3.43,22.821l0.243,1.224l-20.998,0l-20.998,0l0.243,-1.224Zm40.23,-1.114c-0.129,-0.796 -1.591,-10.664 -3.249,-21.929c-1.658,-11.265 -3.149,-20.641 -3.315,-20.834c-0.165,-0.193 -3.138,-1.115 -6.606,-2.048l-6.305,-1.696l-6.305,1.696c-3.468,0.933 -6.44,1.855 -6.604,2.048c-0.242,0.285 -6.714,42.732 -6.69,43.877c0.004,0.183 8.85,0.333 19.657,0.333l19.65,0l-0.233,-1.447Zm-27.192,-2.894c-0.636,-0.918 -1.671,-2.271 -2.3,-3.005c-1.039,-1.213 -1.186,-1.264 -1.598,-0.555c-0.25,0.43 -0.931,1.332 -1.513,2.004c-0.824,0.951 -1.179,1.104 -1.599,0.69c-0.695,-0.684 0.095,-2.738 1.597,-4.148c1.01,-0.95 1.022,-1.035 0.332,-2.481c-1.381,-2.897 1.133,-5.21 2.837,-2.61l0.745,1.138l1.714,-1.674c2.514,-2.455 2.311,-4.277 -0.683,-6.136c-0.998,-0.62 -1.146,-0.884 -0.668,-1.187c1.933,-1.224 4.846,0.323 4.846,2.574l0,1.197l1.224,-1.142c2.426,-2.263 4.351,-2.717 5.612,-1.323c0.695,0.767 0.677,0.914 -0.28,2.338c-0.562,0.835 -1.465,1.583 -2.008,1.661c-1.217,0.176 -1.236,-0.13 -0.096,-1.579c0.891,-1.133 1.186,-2.366 0.557,-2.328c-0.184,0.011 -1.354,0.963 -2.6,2.115l-2.265,2.095l-0.494,6.247c-0.272,3.436 -0.626,6.592 -0.788,7.013c-0.462,1.206 -1.319,0.905 -2.572,-0.904Zm1.638,-4.453c0.156,-1.653 0.277,-3.706 0.267,-4.564l-0.017,-1.558l-2.206,2.422c-1.213,1.333 -2.206,2.549 -2.206,2.703c0,0.439 3.145,4.003 3.532,4.003c0.191,0 0.474,-1.353 0.63,-3.006l0,0Zm-4.242,-4.044c0.085,-0.58 -0.146,-1.08 -0.576,-1.244c-0.999,-0.384 -1.282,0.039 -0.94,1.403c0.34,1.355 1.308,1.254 1.516,-0.159Zm18.919,8.886c-0.287,-0.459 -1.23,-0.968 -2.095,-1.13c-2.567,-0.482 -2.35,-1.151 0.372,-1.151l2.476,0l0,-2.646c0,-1.455 -0.215,-2.778 -0.477,-2.94c-0.6,-0.37 -3.975,0.121 -4.867,0.709c-0.582,0.384 -0.567,0.499 0.112,0.9c1.118,0.659 0.978,2.49 -0.252,3.296c-1.055,0.691 -5.203,1.467 -5.203,0.973c0,-0.151 0.788,-0.676 1.751,-1.167c1.938,-0.989 2.015,-1.076 2.41,-2.735l0.277,-1.161l-1.969,0.45c-1.629,0.373 -2.17,0.32 -3.124,-0.305c-1.55,-1.016 -1.018,-1.673 1.082,-1.337c1.423,0.228 8.777,-0.866 9.293,-1.382c0.081,-0.082 -0.085,-0.584 -0.369,-1.115c-0.285,-0.532 -0.402,-1.083 -0.261,-1.224c0.46,-0.46 2.487,0.74 2.487,1.472c0,0.55 0.287,0.65 1.254,0.438c0.904,-0.199 1.588,-0.013 2.453,0.668c1.592,1.252 1.094,1.932 -1.15,1.573l-1.785,-0.285l0.303,2.673c0.53,4.687 -1.121,7.984 -2.718,5.426Zm-7.075,-10.348c0.861,-0.677 1.16,-1.273 1.062,-2.115c-0.188,-1.624 1.046,-1.549 1.625,0.098c0.385,1.094 0.302,1.389 -0.595,2.115c-0.573,0.465 -1.548,0.844 -2.166,0.844l-1.124,0l1.198,-0.942Zm5.318,-2.754c1.656,-1.325 1.47,-2.708 -0.388,-2.89c-0.733,-0.072 -1.633,-0.244 -2,-0.382c-0.963,-0.362 0.663,-0.975 2.694,-1.015c1.887,-0.037 2.649,0.61 2.649,2.252c0,1.389 -1.799,3.061 -3.288,3.058c-0.863,-0.003 -0.835,-0.088 0.333,-1.023Zm-5.809,-9.105c-0.613,-1.455 -0.633,-2.192 -0.152,-5.73c0.304,-2.233 0.414,-4.688 0.246,-5.455c-0.313,-1.425 0.084,-1.787 0.978,-0.893c0.37,0.37 0.873,0.37 1.936,0c0.79,-0.276 2.007,-0.501 2.705,-0.501c0.832,0 1.27,-0.23 1.27,-0.668c0,-0.783 -0.92,-0.84 -3.222,-0.201c-1.168,0.325 -1.93,0.319 -2.56,-0.018c-1.297,-0.694 -1.105,-1.208 0.55,-1.476c0.796,-0.128 2.27,-0.373 3.275,-0.544c2.403,-0.407 3.738,0.299 3.738,1.978c0,1.558 -1.042,4.138 -1.989,4.924c-1.023,0.849 -1.333,0.247 -0.683,-1.323c0.702,-1.695 0.415,-2.013 -1.282,-1.421c-0.731,0.254 -1.743,0.354 -2.249,0.222c-0.726,-0.19 -0.921,-0.033 -0.921,0.741c0,0.898 0.15,0.956 1.781,0.68c1.196,-0.202 1.781,-0.137 1.781,0.198c0,0.601 -1.026,1.034 -2.592,1.094c-1.372,0.052 -1.751,1.06 -1.817,4.831c-0.041,2.379 0.392,3.211 1.086,2.087c0.161,-0.26 0.824,-0.677 1.474,-0.926l1.181,-0.454l-1.225,-0.982c-1.417,-1.138 -1.632,-1.867 -0.347,-1.179c0.889,0.475 1.584,0.077 4.133,-2.367c0.824,-0.789 0.869,-0.79 1.445,-0.001c0.774,1.057 0.262,1.644 -2.037,2.332l-1.827,0.548l2.001,1.269c2.242,1.421 2.964,2.412 2.645,3.632c-0.339,1.294 -1.251,0.982 -2.78,-0.948c-1.366,-1.725 -1.441,-1.757 -2.646,-1.134c-0.682,0.352 -1.493,1.252 -1.802,1.998c-0.74,1.786 -1.241,1.711 -2.094,-0.313l0,0Zm-10.77,0.627c-0.398,-0.481 -0.015,-0.706 1.949,-1.146c2.166,-0.484 2.446,-0.674 2.446,-1.66c0,-0.881 -0.209,-1.096 -1.002,-1.032c-2.885,0.234 -3.417,-0.639 -1.336,-2.192c1.162,-0.867 1.175,-0.915 0.249,-0.928c-1.733,-0.025 -1.511,-0.785 0.316,-1.077c1.803,-0.288 2.597,-1.609 0.967,-1.609c-0.443,0 -1.194,-0.294 -1.669,-0.654c-0.829,-0.626 -0.815,-0.654 0.344,-0.667c0.665,-0.008 2.144,-0.332 3.286,-0.72c1.886,-0.64 2.142,-0.641 2.776,-0.007c0.633,0.633 0.566,0.743 -0.726,1.194c-1.636,0.57 -1.941,1.733 -0.422,1.606c1.41,-0.118 1.679,0.712 0.334,1.028c-0.721,0.169 -1.166,0.622 -1.261,1.286c-0.12,0.829 0.012,0.974 0.691,0.759c0.981,-0.312 2.617,0.727 2.203,1.397c-0.468,0.758 -2.052,1.015 -1.773,0.289c0.165,-0.43 0.016,-0.537 -0.479,-0.348c-0.394,0.152 -0.717,0.743 -0.717,1.314c0,0.856 0.215,1.023 1.224,0.954c1.87,-0.128 1.584,1.172 -0.334,1.517c-0.857,0.154 -2.122,0.508 -2.812,0.787c-1.686,0.682 -3.647,0.64 -4.254,-0.091l0,0Zm4.395,-6.151c0,-0.948 -0.012,-0.949 -1.002,-0.116c-0.551,0.464 -1.085,0.896 -1.187,0.96c-0.103,0.064 0.348,0.116 1.001,0.116c0.919,0 1.188,-0.217 1.188,-0.96Zm-3.006,-7.168c2.211,-2.129 3.006,-3.203 3.006,-4.062c0,-0.643 0.213,-1.168 0.474,-1.168c1.011,0 2.197,0.961 2.197,1.781c0,0.473 0.451,1.097 1.002,1.387c1.018,0.536 1.651,1.237 1.663,1.841c0.014,0.683 -1.805,0.303 -2.665,-0.556c-1.075,-1.076 -1.49,-1.11 -2.257,-0.186c-0.853,1.028 -4.021,3.126 -5.312,3.519c-0.818,0.248 -0.316,-0.43 1.892,-2.556Z" style="fill:#707070;fill-rule:nonzero;"/><path id="path3889" d="M8.352,52.553c0.123,-0.796 1.673,-11.165 3.445,-23.043l3.22,-21.595l6.992,-1.863l6.991,-1.863l6.991,1.863l6.992,1.863l3.22,21.595c1.772,11.878 3.322,22.247 3.445,23.043l0.224,1.447l-20.872,0l-20.872,0l0.224,-1.447Zm40.247,0.223c0.031,-1.332 -6.433,-43.61 -6.714,-43.919c-0.197,-0.216 -3.176,-1.151 -6.621,-2.078l-6.264,-1.685l-6.264,1.685c-3.445,0.927 -6.425,1.862 -6.623,2.078c-0.31,0.338 -6.734,42.159 -6.713,43.696c0.007,0.437 4.228,0.556 19.6,0.556c10.775,0 19.595,-0.15 19.599,-0.333Zm-26.929,-3.563c-0.765,-1.389 -3.734,-4.809 -3.931,-4.527c-2.073,2.975 -2.662,3.535 -3.223,3.07c-0.747,-0.62 -0.453,-1.527 1.172,-3.621c1.203,-1.549 1.232,-1.692 0.598,-2.961c-1.352,-2.711 1.135,-4.98 2.753,-2.511l0.745,1.138l1.714,-1.674c2.525,-2.465 2.314,-4.274 -0.719,-6.16c-1.22,-0.759 -1.253,-0.846 -0.445,-1.162c2.322,-0.908 4.659,0.382 4.659,2.571c0,0.994 0.063,0.978 2.037,-0.529c2.198,-1.678 3.748,-1.964 4.664,-0.861c0.805,0.97 0.061,2.884 -1.45,3.732c-1.597,0.896 -2.009,0.351 -0.849,-1.124c0.933,-1.187 1.249,-2.431 0.607,-2.392c-0.184,0.011 -1.354,0.963 -2.6,2.115l-2.265,2.095l-0.566,6.456c-0.668,7.617 -1.364,9.138 -2.901,6.345Zm1.251,-4.452c0.156,-1.653 0.286,-3.874 0.287,-4.934l0.003,-1.929l-2.222,2.597c-1.222,1.428 -2.174,2.745 -2.115,2.928c0.181,0.561 3.207,4.308 3.494,4.326c0.148,0.01 0.397,-1.335 0.553,-2.988l0,0Zm-4.237,-4.289c0.082,-0.42 -0.1,-1.063 -0.404,-1.429c-0.782,-0.942 -1.485,-0.078 -1.12,1.375c0.319,1.268 1.282,1.303 1.524,0.054Zm18.933,8.715c-0.277,-0.443 -1.377,-1.094 -2.445,-1.447l-1.942,-0.642l2.581,-0.134l2.581,-0.134l-0.132,-2.76c-0.122,-2.549 -0.216,-2.772 -1.226,-2.914c-1.289,-0.182 -4.472,0.693 -4.472,1.23c0,0.205 0.301,0.623 0.668,0.928c1.733,1.438 0.124,3.279 -3.228,3.69c-2.324,0.285 -2.397,-0.076 -0.252,-1.241c1.423,-0.774 2.852,-3.003 2.288,-3.568c-0.095,-0.094 -1.016,0.042 -2.047,0.304c-1.564,0.397 -2.067,0.35 -3.03,-0.281c-1.508,-0.988 -1.103,-1.311 1.489,-1.193c1.852,0.084 8.443,-1.003 8.91,-1.47c0.095,-0.095 -0.051,-0.59 -0.325,-1.101c-0.445,-0.832 -0.375,-0.929 0.674,-0.929c0.814,0 1.245,0.284 1.414,0.934c0.197,0.75 0.487,0.885 1.481,0.686c0.852,-0.171 1.594,0.034 2.39,0.661c1.531,1.204 1.039,1.862 -1.12,1.497l-1.728,-0.292l0.066,3.489c0.037,1.919 -0.08,3.94 -0.259,4.491c-0.393,1.205 -1.641,1.31 -2.336,0.196Zm-7.119,-10.358c0.79,-0.622 1.174,-1.349 1.174,-2.227c0,-0.717 0.193,-1.303 0.429,-1.303c0.469,0 1.352,1.435 1.352,2.197c0,0.895 -1.782,2.255 -2.955,2.255l-1.173,0l1.173,-0.922Zm4.736,-2.057c0,-0.203 0.413,-0.627 0.918,-0.942c0.577,-0.36 0.867,-0.94 0.78,-1.555c-0.111,-0.78 -0.48,-1.008 -1.81,-1.118c-0.918,-0.076 -1.669,-0.318 -1.669,-0.537c0,-0.665 3.104,-1.032 4.264,-0.504c1.312,0.598 1.48,2.692 0.3,3.729c-0.941,0.826 -2.783,1.44 -2.783,0.927Zm-4.984,-9.154c-0.356,-0.634 -0.502,-2.146 -0.399,-4.119c0.09,-1.714 0.185,-4.444 0.213,-6.066c0.035,-2.08 0.205,-2.889 0.579,-2.746c0.291,0.112 0.659,0.795 0.817,1.517c0.254,1.154 0.459,1.298 1.697,1.187c0.775,-0.069 1.509,0.075 1.631,0.32c0.126,0.251 -0.577,0.503 -1.618,0.579c-1.659,0.121 -1.869,0.27 -2.115,1.503c-0.707,3.532 -0.14,7.294 0.856,5.682c0.161,-0.26 0.803,-0.667 1.427,-0.904l1.135,-0.431l-1.067,-1.155c-0.972,-1.053 -0.988,-1.131 -0.171,-0.881c0.647,0.198 1.415,-0.202 2.776,-1.445c1.531,-1.401 1.974,-1.608 2.383,-1.115c0.799,0.963 0.193,1.74 -1.832,2.346l-1.882,0.564l2.169,1.416c1.759,1.148 2.196,1.69 2.309,2.86c0.193,2 -0.675,1.871 -2.621,-0.391c-1.586,-1.843 -1.596,-1.847 -2.763,-1.083c-0.644,0.422 -1.429,1.352 -1.745,2.066c-0.691,1.56 -1.037,1.618 -1.779,0.296Zm-11.046,-0.111c-0.459,-0.554 -0.411,-0.669 0.28,-0.671c0.458,-0.001 1.585,-0.211 2.503,-0.466c1.35,-0.375 1.67,-0.673 1.67,-1.556c0,-0.977 -0.187,-1.092 -1.781,-1.092c-2.147,0 -2.36,-0.83 -0.557,-2.175c1.184,-0.884 1.192,-0.914 0.223,-0.928c-1.559,-0.022 -1.179,-0.772 0.556,-1.098c1.622,-0.304 2.231,-1.588 0.753,-1.588c-0.443,0 -1.194,-0.294 -1.669,-0.654c-0.817,-0.617 -0.785,-0.654 0.597,-0.667c0.803,-0.008 2.195,-0.321 3.093,-0.696c0.898,-0.375 1.893,-0.582 2.212,-0.46c0.911,0.35 0.682,1.587 -0.295,1.587c-0.481,0 -1.09,0.402 -1.353,0.894c-0.431,0.805 -0.355,0.883 0.763,0.78c1.557,-0.145 2.09,0.718 0.575,0.931c-1.165,0.163 -1.763,0.764 -1.775,1.784c-0.004,0.419 0.326,0.522 1.075,0.334c1.143,-0.287 2.703,0.791 2.236,1.546c-0.36,0.583 -1.43,0.508 -1.637,-0.114c-0.288,-0.864 -1.235,0.05 -1.235,1.19c0,0.88 0.208,1.046 1.224,0.976c2.072,-0.142 1.52,1.177 -0.647,1.547c-1.029,0.176 -2.268,0.532 -2.753,0.791c-1.276,0.683 -3.414,0.58 -4.058,-0.195Zm4.381,-5.371c0.083,-0.069 0.083,-0.441 0,-0.827c-0.124,-0.577 -0.388,-0.504 -1.487,0.416l-1.335,1.117l1.335,-0.291c0.735,-0.16 1.404,-0.347 1.487,-0.415Zm12.294,-4.314c0.167,-0.551 0.411,-1.34 0.542,-1.754c0.21,-0.662 -0.07,-0.726 -2.367,-0.534l-2.605,0.217l1.498,-0.69c0.824,-0.379 2.077,-0.69 2.783,-0.69c0.867,0 1.285,-0.226 1.285,-0.695c0,-0.591 -0.455,-0.65 -3.05,-0.394c-2.503,0.247 -3.096,0.18 -3.308,-0.373c-0.189,-0.492 0.124,-0.736 1.157,-0.904c0.779,-0.127 2.272,-0.374 3.318,-0.55c3.126,-0.527 4.469,1.431 3.133,4.565c-1.041,2.439 -3.036,3.946 -2.386,1.802Zm-15.226,-3.552c2.21,-2.135 3.004,-3.211 3.004,-4.072c0,-0.717 0.246,-1.17 0.636,-1.17c0.928,0 2.126,1.348 1.846,2.078c-0.135,0.351 0.098,0.747 0.531,0.901c0.983,0.348 2.33,1.497 2.33,1.988c0,0.81 -1.839,0.317 -2.758,-0.741l-0.971,-1.116l-1.141,1.047c-1.865,1.711 -4.183,3.286 -5.369,3.648c-0.816,0.249 -0.312,-0.433 1.892,-2.563Z" style="fill:#4f4f4f;fill-rule:nonzero;"/><path id="path3887" d="M8.289,52.998c0.128,-0.551 1.637,-10.519 3.353,-22.152c1.715,-11.633 3.209,-21.555 3.32,-22.051c0.167,-0.75 1.35,-1.205 7.119,-2.739l6.919,-1.838l6.919,1.838c5.769,1.534 6.952,1.989 7.119,2.739c0.111,0.496 1.605,10.418 3.32,22.051c1.716,11.633 3.225,21.601 3.353,22.152l0.234,1.002l-20.945,0l-20.945,0l0.234,-1.002Zm40.308,-0.445c0.007,-0.719 -6.336,-43.705 -6.475,-43.881c-0.058,-0.074 -3.034,-0.923 -6.614,-1.886l-6.508,-1.752l-6.508,1.752c-3.58,0.963 -6.556,1.812 -6.613,1.886c-0.164,0.209 -6.477,42.785 -6.474,43.658c0.003,0.731 1.234,0.779 19.595,0.779c15.374,0 19.593,-0.119 19.597,-0.556Zm-27.116,-3.562c-0.51,-0.796 -1.52,-2.212 -2.244,-3.147l-1.316,-1.7l-1.199,1.811c-0.659,0.996 -1.472,1.811 -1.807,1.811c-1.054,0 -0.663,-1.807 0.787,-3.638c1.042,-1.315 1.268,-1.891 0.891,-2.268c-0.546,-0.546 -0.672,-2.492 -0.236,-3.631c0.417,-1.085 1.914,-0.839 2.483,0.409c0.279,0.612 0.634,1.113 0.788,1.113c0.155,0 1.09,-0.851 2.079,-1.892c1.517,-1.596 1.757,-2.1 1.537,-3.221c-0.166,-0.842 -0.784,-1.657 -1.688,-2.226c-1.742,-1.096 -1.804,-1.463 -0.309,-1.838c1.491,-0.375 3.472,1.048 3.662,2.63l0.138,1.157l2.041,-1.558c2.194,-1.675 3.908,-1.87 4.741,-0.539c0.604,0.966 -0.405,2.964 -1.824,3.61c-1.437,0.655 -1.77,0.045 -0.636,-1.162c0.889,-0.946 1.328,-2.53 0.701,-2.53c-0.146,0 -1.176,0.801 -2.289,1.781c-1.113,0.98 -2.167,1.781 -2.342,1.781c-0.3,0 -0.461,1.389 -1.166,10.019c-0.401,4.912 -1.154,5.783 -2.792,3.228Zm1.51,-4.898c0.167,-2.021 0.235,-4.224 0.151,-4.896c-0.15,-1.194 -0.199,-1.165 -2.157,1.234c-1.102,1.35 -1.975,2.753 -1.941,3.117c0.063,0.676 2.816,4.112 3.348,4.181c0.162,0.02 0.431,-1.616 0.599,-3.636Zm-4.299,-3.147c0.359,-0.434 0.302,-0.851 -0.22,-1.596c-0.885,-1.264 -1.73,-0.6 -1.32,1.037c0.319,1.269 0.804,1.445 1.54,0.559Zm18.896,8.196c-0.292,-0.468 -1.139,-0.984 -1.883,-1.147c-2.162,-0.475 -2.258,-1.297 -0.117,-1.01c2.802,0.376 3.363,-0.27 2.97,-3.419l-0.324,-2.591l-2.454,0.253c-2.994,0.309 -3.673,0.844 -2.589,2.042c1.572,1.738 -0.098,3.585 -3.255,3.599l-1.513,0.007l1.479,-1.002c1.37,-0.928 2.621,-3.194 2.068,-3.746c-0.131,-0.131 -0.941,-0.007 -1.8,0.276c-1.317,0.435 -1.791,0.39 -3.035,-0.289l-1.475,-0.805l2.227,-0.104c2.861,-0.135 8.424,-1.02 9.124,-1.453c0.412,-0.254 0.42,-0.561 0.034,-1.281c-0.457,-0.854 -0.392,-0.947 0.664,-0.947c0.796,0 1.245,0.285 1.403,0.891c0.18,0.687 0.608,0.89 1.873,0.89c1.704,0 2.709,0.626 2.709,1.687c0,0.474 -0.414,0.548 -1.781,0.317l-1.781,-0.301l0,3.63c0,3.661 -0.464,5.354 -1.467,5.354c-0.3,0 -0.784,-0.383 -1.077,-0.851l0,0Zm-7.09,-10.313c0.79,-0.622 1.174,-1.349 1.174,-2.227c0,-1.512 0.645,-1.702 1.344,-0.396c0.665,1.241 0.14,2.62 -1.189,3.126c-1.968,0.748 -2.61,0.505 -1.329,-0.503Zm6.011,-3.331c1.151,-1.464 0.634,-2.426 -1.303,-2.426c-1.904,0 -1.998,-0.804 -0.135,-1.153c1.72,-0.323 2.676,0.034 3.473,1.298c0.658,1.044 -0.563,3.148 -1.941,3.345l-1.05,0.151l0.956,-1.215Zm-6.205,-7.827c-0.6,-1.122 -0.594,-4.908 0.014,-8.569c0.288,-1.732 0.284,-2.898 -0.012,-3.451c-0.347,-0.648 -0.294,-0.835 0.237,-0.835c0.629,0 0.865,0.636 0.797,2.149c-0.018,0.413 0.464,0.547 1.6,0.446c0.894,-0.08 1.726,0.055 1.849,0.3c0.125,0.251 -0.577,0.503 -1.617,0.579l-1.839,0.134l-0.515,2.618c-0.435,2.21 -0.32,4.906 0.209,4.906c0.081,0 0.872,-0.427 1.756,-0.948l1.607,-0.949l-1.025,-1.11c-0.955,-1.034 -0.964,-1.092 -0.13,-0.837c0.646,0.198 1.413,-0.199 2.763,-1.434c1.298,-1.186 2.01,-1.566 2.333,-1.242c0.875,0.874 0.464,1.458 -1.639,2.329l-2.104,0.872l2.1,1.231c2.188,1.282 3.127,3.028 2.152,4.003c-0.388,0.388 -0.93,0.03 -2.216,-1.463c-1.683,-1.955 -1.716,-1.969 -2.836,-1.235c-0.623,0.409 -1.404,1.353 -1.734,2.099c-0.709,1.603 -1.065,1.686 -1.75,0.407l0,0Zm-11.1,-0.164c-0.465,-0.561 -0.392,-0.668 0.45,-0.668c0.553,0 1.789,-0.235 2.748,-0.522c1.382,-0.415 1.715,-0.714 1.61,-1.448c-0.101,-0.701 -0.51,-0.959 -1.691,-1.068c-2.323,-0.213 -2.645,-0.821 -1.104,-2.08c1.262,-1.031 1.278,-1.085 0.325,-1.1c-1.309,-0.021 -1.309,-0.905 0,-0.914c1.211,-0.008 1.868,-0.418 2.225,-1.389c0.201,-0.547 0.061,-0.675 -0.561,-0.512c-0.456,0.119 -1.287,-0.104 -1.847,-0.496c-1.006,-0.704 -0.997,-0.713 0.752,-0.715c0.972,-0.002 2.356,-0.31 3.075,-0.684c1.321,-0.689 2.478,-0.595 2.478,0.203c0,0.239 -0.536,0.696 -1.191,1.016c-1.777,0.866 -1.937,1.865 -0.24,1.492c1.863,-0.409 2.279,0.518 0.445,0.99c-1.015,0.262 -1.506,0.676 -1.605,1.353c-0.12,0.819 0.072,0.976 1.198,0.976c1.512,0 2.196,0.711 1.425,1.482c-0.389,0.388 -0.6,0.375 -0.865,-0.054c-0.598,-0.967 -1.73,-0.171 -1.496,1.051c0.168,0.879 0.445,1.076 1.381,0.98c1.991,-0.204 1.443,1.144 -0.61,1.501c-0.98,0.17 -2.345,0.526 -3.035,0.791c-1.746,0.672 -3.214,0.602 -3.867,-0.185Zm3.756,-5.11c0.628,-0.239 1.142,-0.74 1.142,-1.113c0,-0.945 -0.455,-0.849 -2.004,0.42c-1.402,1.15 -1.061,1.424 0.862,0.693Zm12.876,-4.231c0.161,-0.418 0.416,-1.253 0.567,-1.855c0.271,-1.081 0.246,-1.091 -2.117,-0.847c-2.343,0.242 -2.365,0.234 -1.056,-0.403c0.735,-0.357 1.887,-0.659 2.56,-0.67c0.804,-0.013 1.225,-0.258 1.225,-0.715c0,-0.592 -0.458,-0.649 -3.117,-0.388c-2.012,0.199 -3.117,0.148 -3.117,-0.144c0,-0.533 3.927,-1.89 5.469,-1.89c1.203,0 2.546,1.248 2.546,2.364c0,1.379 -1.441,4.34 -2.347,4.825c-0.77,0.412 -0.861,0.371 -0.613,-0.277Zm-15.055,-3.852c1.328,-1.255 2.658,-2.958 2.957,-3.784c0.299,-0.826 0.689,-1.502 0.867,-1.502c0.673,0 1.765,1.476 1.535,2.075c-0.145,0.377 0.162,0.778 0.772,1.01c0.556,0.211 1.276,0.703 1.6,1.093c0.496,0.598 0.47,0.755 -0.168,1c-0.494,0.189 -1.159,-0.111 -1.909,-0.862l-1.152,-1.152l-2.038,1.692c-4.082,3.391 -5.937,3.715 -2.464,0.43l0,0Z" style="fill:#2f2f2f;fill-rule:nonzero;"/><path id="path3885" d="M8.518,52.9c0,-0.698 6.095,-41.983 6.479,-43.886c0.212,-1.048 0.711,-1.251 7.115,-2.891l6.888,-1.764l6.888,1.764c6.404,1.64 6.903,1.843 7.115,2.891c0.384,1.903 6.479,43.188 6.479,43.886c0,0.567 -2.75,0.655 -20.482,0.655c-17.732,0 -20.482,-0.088 -20.482,-0.655Zm40.074,-0.66c0,-0.863 -6.137,-42.617 -6.379,-43.395c-0.069,-0.224 -3.02,-1.178 -6.558,-2.121l-6.432,-1.716l-6.457,1.636c-3.551,0.9 -6.588,1.755 -6.749,1.899c-0.162,0.144 -1.719,9.88 -3.461,21.635c-1.742,11.755 -3.244,21.724 -3.338,22.152c-0.162,0.733 1.001,0.779 19.601,0.779c19.318,0 19.773,-0.02 19.773,-0.869Zm-26.271,-2.168c0,-0.242 -0.651,-1.221 -1.447,-2.175c-0.796,-0.954 -1.767,-2.217 -2.158,-2.807l-0.711,-1.074l-1.241,1.875c-0.682,1.031 -1.514,1.875 -1.849,1.875c-1.027,0 -0.679,-1.57 0.743,-3.36c0.859,-1.081 1.24,-1.955 1.046,-2.399c-0.664,-1.509 -0.685,-3.426 -0.044,-3.958c0.82,-0.68 1.983,-0.256 2.335,0.853c0.368,1.162 0.588,1.096 2.855,-0.859c1.891,-1.63 1.959,-1.772 1.542,-3.227c-0.268,-0.937 -0.978,-1.863 -1.849,-2.412c-1.686,-1.061 -1.77,-1.37 -0.469,-1.71c1.445,-0.378 3.169,0.636 3.668,2.157c0.608,1.856 0.567,1.843 1.925,0.577c2.512,-2.342 4.643,-2.641 5.248,-0.736c0.313,0.985 -1.681,3.497 -2.776,3.497c-0.835,0 -0.732,-0.363 0.529,-1.862c2.335,-2.775 0.726,-2.948 -2.35,-0.253l-2.16,1.893l-0.547,6.011c-0.3,3.306 -0.688,6.495 -0.861,7.088c-0.313,1.067 -1.429,1.853 -1.429,1.006l0,0Zm0.668,-5.534c0.164,-1.775 0.231,-4.013 0.149,-4.973l-0.149,-1.745l-2.115,2.575c-1.163,1.417 -2.115,2.72 -2.115,2.897c0,0.492 3.189,4.474 3.584,4.474c0.191,0 0.481,-1.452 0.646,-3.228Zm-4.297,-3.509c0.518,-0.829 0.477,-1.065 -0.321,-1.863c-0.828,-0.828 -0.94,-0.843 -1.201,-0.163c-0.327,0.853 0.101,2.975 0.6,2.975c0.181,0 0.596,-0.427 0.922,-0.949Zm18.863,8.059c-0.311,-0.497 -1.164,-1.024 -1.897,-1.17c-2.181,-0.436 -2.178,-1.223 0.003,-0.874c2.938,0.47 3.639,-0.652 2.857,-4.565c-0.249,-1.242 -0.447,-1.392 -1.841,-1.392c-0.859,0 -2.387,0.215 -3.395,0.477c-1.008,0.263 -2.503,0.65 -3.322,0.862c-1.492,0.386 -3.632,-0.183 -3.632,-0.965c0,-0.206 1.178,-0.374 2.617,-0.374c1.44,0 4.052,-0.324 5.806,-0.72l3.188,-0.72l-0.695,-1.061c-0.653,-0.997 -0.641,-1.061 0.202,-1.061c0.493,0 1.147,0.401 1.453,0.891c0.36,0.576 1.039,0.89 1.923,0.89c1.564,0 3.148,0.974 2.717,1.671c-0.164,0.266 -1.021,0.373 -1.966,0.246l-1.675,-0.225l0.162,3.553c0.215,4.749 -0.999,6.949 -2.505,4.537Zm-7.596,-3.176c1.133,-0.657 1.709,-1.357 1.899,-2.308l0.273,-1.364l0.93,0.929c1.725,1.725 -0.058,3.72 -3.303,3.696l-1.426,-0.01l1.627,-0.943l0,0Zm0.683,-6.95c0.595,-0.469 1.029,-1.377 1.113,-2.327l0.139,-1.559l0.868,1.282l0.869,1.283l-1.227,1.055c-0.675,0.58 -1.567,1.051 -1.982,1.045c-0.626,-0.008 -0.589,-0.14 0.22,-0.779Zm5.967,-3.621c1.133,-1.533 0.831,-2.269 -0.93,-2.269c-1.46,0 -2.127,-0.662 -1.074,-1.066c1.98,-0.76 4.191,0.35 4.191,2.103c0,0.932 -1.554,2.526 -2.462,2.526c-0.549,0 -0.495,-0.253 0.275,-1.294Zm-17.108,-7.463c-0.54,-0.54 -0.309,-1.039 0.482,-1.042c0.429,-0.001 1.531,-0.211 2.449,-0.466c1.35,-0.375 1.67,-0.673 1.67,-1.556c0,-0.975 -0.189,-1.092 -1.755,-1.092c-2.249,0 -2.525,-0.496 -1.017,-1.828c1.113,-0.984 1.142,-0.989 0.362,-0.065c-0.636,0.755 -0.69,1.001 -0.219,0.996c2.667,-0.026 3.841,-2.05 1.232,-2.124c-2.199,-0.063 -2.471,-0.824 -0.412,-1.153c1.435,-0.23 1.809,-0.479 1.809,-1.205c0,-0.679 -0.207,-0.849 -0.803,-0.66c-0.441,0.14 -1.192,-0.041 -1.669,-0.401c-0.821,-0.621 -0.79,-0.657 0.594,-0.67c0.804,-0.008 2.129,-0.294 2.945,-0.635c0.886,-0.37 1.732,-0.467 2.097,-0.241c0.733,0.453 0.155,1.144 -1.155,1.38c-0.487,0.088 -0.958,0.537 -1.047,0.998c-0.139,0.72 0.034,0.8 1.219,0.563c0.808,-0.162 1.381,-0.091 1.381,0.169c0,0.245 -0.601,0.566 -1.336,0.712c-1.022,0.205 -1.335,0.509 -1.335,1.297c0,0.836 0.272,1.055 1.447,1.169c1.476,0.142 2.025,1.208 0.828,1.607c-0.396,0.132 -0.498,0.012 -0.284,-0.334c0.233,-0.378 0.017,-0.496 -0.718,-0.392c-0.784,0.111 -1.051,0.431 -1.051,1.262c0,0.933 0.211,1.113 1.297,1.113c0.713,0 1.381,0.251 1.484,0.557c0.103,0.306 -0.135,0.556 -0.528,0.556c-0.394,0 -1.857,0.401 -3.25,0.891c-2.604,0.915 -4.195,1.115 -4.717,0.594Zm10.85,-0.565c-0.604,-1.129 -0.587,-5.182 0.033,-8.074c0.356,-1.659 0.358,-2.595 0.009,-3.361c-0.315,-0.692 -0.327,-1.062 -0.034,-1.062c0.478,0 0.86,0.752 1.054,2.069c0.096,0.655 0.478,0.781 2.08,0.685c1.452,-0.087 1.789,0.002 1.295,0.339c-0.367,0.251 -1.304,0.459 -2.083,0.463c-1.359,0.006 -1.436,0.106 -1.933,2.501c-0.285,1.372 -0.389,3.182 -0.232,4.022l0.287,1.527l1.15,-0.905c0.633,-0.498 1.424,-0.905 1.758,-0.905c0.852,0 0.759,-0.45 -0.333,-1.612c-0.867,-0.922 -0.875,-0.985 -0.102,-0.783c0.555,0.145 1.475,-0.367 2.712,-1.508c1.277,-1.18 2.017,-1.584 2.328,-1.273c0.857,0.858 0.456,1.545 -1.214,2.079c-2.512,0.802 -2.546,1.055 -0.332,2.454c1.983,1.254 2.855,2.741 2.214,3.776c-0.207,0.336 -0.98,-0.139 -2.242,-1.378c-1.909,-1.873 -1.938,-1.883 -3.086,-1.131c-0.637,0.418 -1.382,1.25 -1.655,1.849c-0.599,1.314 -1.059,1.376 -1.674,0.228l0,0Zm5.558,-9.263c0.182,-0.432 0.43,-1.246 0.551,-1.809c0.216,-0.995 0.153,-1.017 -2.172,-0.745c-2.892,0.338 -2.159,-0.487 0.834,-0.94c1.133,-0.171 1.893,-0.523 1.893,-0.877c0,-0.937 -0.511,-1.023 -3.007,-0.506c-1.604,0.332 -2.482,0.34 -2.797,0.025c-0.314,-0.314 0.401,-0.718 2.277,-1.287c2.452,-0.742 2.858,-0.76 3.911,-0.171c0.646,0.361 1.235,1.08 1.31,1.596c0.175,1.204 -1.547,4.891 -2.444,5.235c-0.518,0.199 -0.605,0.071 -0.356,-0.521l0,0Zm-14.549,-4.308c1.508,-1.571 2.742,-3.174 2.742,-3.562c0,-0.389 0.294,-0.707 0.652,-0.707c0.697,0 1.71,1.497 1.295,1.912c-0.137,0.137 0.371,0.569 1.129,0.961c0.757,0.392 1.377,1.008 1.377,1.369c0,0.993 -1.058,0.787 -2.201,-0.43l-1.02,-1.085l-2.869,2.198c-1.578,1.21 -3.089,2.199 -3.358,2.199c-0.269,0 0.745,-1.285 2.253,-2.855Z" style="fill:#030303;fill-rule:nonzero;"/></g></g></svg>