<?xml version="1.0" encoding="UTF-8" standalone="no"?><!DOCTYPE svg PUBLIC "-//W3C//DTD SVG 1.1//EN" "http://www.w3.org/Graphics/SVG/1.1/DTD/svg11.dtd"><svg width="100%" height="100%" viewBox="0 0 39 39" version="1.1" xmlns="http://www.w3.org/2000/svg" xmlns:xlink="http://www.w3.org/1999/xlink" xml:space="preserve" xmlns:serif="http://www.serif.com/" style="fill-rule:evenodd;clip-rule:evenodd;stroke-linejoin:round;stroke-miterlimit:2;"><g id="g3792"><path id="path3022" d="M19.445,2.643c-3.028,0.702 -6.093,1.464 -9.002,2.53c-1.045,4.439 -1.474,9.032 -2.237,13.536c-0.901,5.842 -1.71,11.702 -2.706,17.527c3.398,0.242 7.011,0.034 10.491,0.104l17.509,0c-0.411,-3.967 -1.205,-8.08 -1.755,-12.102c-1.024,-6.282 -1.743,-12.63 -3.006,-18.864c-0.621,-0.766 -1.962,-0.671 -2.831,-1.096c-2.141,-0.568 -4.276,-1.315 -6.463,-1.635Z" style="fill:#fff;fill-rule:nonzero;"/><path id="path3004" d="M25.716,33.224c-0.5,-0.631 -1.435,-1.358 -2.076,-1.615c-0.642,-0.257 -1.166,-0.546 -1.166,-0.642c0,-0.096 0.819,-0.129 1.821,-0.075l1.82,0.1l0.087,-1.971c0.064,-1.472 -0.016,-2.01 -0.318,-2.126c-0.222,-0.085 -1.768,0.064 -3.437,0.331c-1.668,0.267 -3.465,0.55 -3.993,0.63c-1.055,0.157 -1.93,-0.409 -2.195,-1.422c-0.122,-0.467 -0.053,-0.542 0.335,-0.365c0.963,0.438 3.449,0.442 6.129,0.009c1.499,-0.242 2.78,-0.495 2.848,-0.563c0.066,-0.066 0.045,-0.319 -0.047,-0.561c-0.146,-0.378 -0.316,-0.386 -1.246,-0.054c-1.249,0.446 -3.223,0.518 -3.822,0.139c-0.303,-0.193 -0.07,-0.352 0.875,-0.598c0.709,-0.184 1.747,-0.455 2.308,-0.6c1.279,-0.332 2.331,-1.058 2.331,-1.607c0,-0.592 -0.667,-0.523 -1.883,0.195c-0.68,0.401 -1.356,0.568 -1.944,0.482c-0.671,-0.098 -1.074,0.041 -1.583,0.551c-0.801,0.801 -1.733,0.889 -2.002,0.187c-0.136,-0.352 0.233,-0.901 1.28,-1.905c0.808,-0.774 1.467,-1.502 1.463,-1.616c-0.003,-0.115 -0.423,-0.405 -0.932,-0.646c-1.538,-0.726 -1.324,-1.101 0.704,-1.236c1.011,-0.068 2.267,-0.305 2.792,-0.53c1.103,-0.47 1.959,-0.129 1.959,0.779c0,0.453 -0.321,0.596 -1.821,0.809c-1.662,0.237 -1.821,0.321 -1.821,0.967c0,0.389 -0.136,0.96 -0.302,1.27c-0.407,0.761 0.242,0.753 1.683,-0.019c2.7,-1.447 5.149,0.294 3.093,2.2c-0.565,0.523 -0.648,0.714 -0.308,0.714c0.255,0 0.654,0.272 0.886,0.605c0.378,0.539 0.545,0.571 1.547,0.293c0.617,-0.171 1.221,-0.313 1.341,-0.314c0.39,-0.003 1.384,1.152 1.384,1.609c0,0.375 -0.307,0.414 -1.942,0.246c-1.832,-0.187 -1.931,-0.167 -1.722,0.357c0.37,0.934 0.539,4.864 0.255,5.945c-0.388,1.478 -1.235,1.495 -2.381,0.047Zm-13.117,-0.667c-0.511,-0.822 -0.854,-1.569 -0.763,-1.66c0.091,-0.091 0.54,0.056 0.998,0.326l0.833,0.492l0.163,-1.236c0.089,-0.679 0.247,-1.915 0.349,-2.747l0.186,-1.511l-1.48,0.783c-1.303,0.69 -1.479,0.893 -1.481,1.711c-0.005,1.862 -1.03,3.26 -1.816,2.475c-0.281,-0.282 -0.014,-1.281 0.89,-3.329c0.054,-0.121 -0.09,-0.22 -0.319,-0.22c-0.545,0 -1.38,-0.935 -1.38,-1.545c0,-0.395 0.132,-0.429 0.747,-0.196c2.134,0.811 5.08,-0.216 5.08,-1.77c0,-0.143 -0.477,0.065 -1.06,0.46c-1.234,0.838 -1.771,0.892 -2.663,0.267c-0.926,-0.649 -0.801,-1.004 0.354,-1.004c0.993,0 1,-0.009 0.836,-1.093c-0.092,-0.601 -0.434,-1.387 -0.761,-1.748l-0.595,-0.655l0.647,0c0.862,0 2.077,1.253 2.077,2.145c0,1.074 1.051,0.684 1.283,-0.476c0.143,-0.716 0.029,-1.06 -0.551,-1.666c-1.375,-1.434 -0.752,-2.229 1.026,-1.309c1.146,0.593 1.32,1.521 0.723,3.863c-0.275,1.078 -0.592,3.729 -0.703,5.892c-0.287,5.537 -0.934,6.464 -2.62,3.751Zm6.539,-2.268c-0.091,-0.148 0.394,-0.456 1.075,-0.687c1.083,-0.366 1.23,-0.517 1.157,-1.19c-0.065,-0.591 0.044,-0.771 0.464,-0.771c0.776,0 1.604,1.003 1.388,1.683c-0.278,0.878 -3.646,1.673 -4.084,0.965Zm-5.261,-14.171c-1.884,-0.967 -2.114,-2.051 -0.363,-1.728c1.086,0.2 4.617,0.247 4.741,0.062c0.025,-0.038 -0.013,-0.626 -0.084,-1.307c-0.127,-1.219 -0.147,-1.239 -1.248,-1.239c-0.787,0 -1.361,-0.218 -1.936,-0.736l-0.818,-0.737l1.355,0.183c2.002,0.27 2.579,0 2.579,-1.206c0,-0.989 -0.014,-1 -1.295,-1c-0.949,0 -1.514,-0.187 -2.113,-0.703c-1.032,-0.889 -0.839,-1.086 0.721,-0.735c1.135,0.254 2.306,0.171 7.074,-0.505c0.709,-0.1 1.15,-0.009 1.398,0.289c0.558,0.674 -0.649,1.363 -2.388,1.363c-1.336,0 -1.415,0.041 -1.25,0.655c0.097,0.361 0.178,0.9 0.18,1.199c0.003,0.463 0.155,0.514 1.046,0.346c1.086,-0.203 1.871,0.165 1.871,0.879c0,0.253 -0.473,0.416 -1.374,0.474c-1.329,0.086 -1.383,0.126 -1.635,1.198c-0.144,0.609 -0.201,1.168 -0.128,1.242c0.073,0.073 1.158,-0.01 2.411,-0.184c2.083,-0.29 2.341,-0.269 3.032,0.247c0.414,0.309 0.754,0.745 0.754,0.969c0,0.328 -0.858,0.408 -4.516,0.419c-3.614,0.01 -4.734,0.113 -5.6,0.51c-1.316,0.602 -1.325,0.602 -2.414,0.045Zm11.457,-4.41c-0.192,-0.452 -0.61,-1.116 -0.927,-1.477c-0.577,-0.654 -0.577,-0.655 0.012,-0.655c1.006,0 2.571,1.249 2.571,2.051c0,1.1 -1.197,1.159 -1.656,0.081Z" style="fill-rule:nonzero;"/></g></svg>