<?xml version="1.0" encoding="UTF-8" standalone="no"?><!DOCTYPE svg PUBLIC "-//W3C//DTD SVG 1.1//EN" "http://www.w3.org/Graphics/SVG/1.1/DTD/svg11.dtd"><svg width="100%" height="100%" viewBox="0 0 39 39" version="1.1" xmlns="http://www.w3.org/2000/svg" xmlns:xlink="http://www.w3.org/1999/xlink" xml:space="preserve" xmlns:serif="http://www.serif.com/" style="fill-rule:evenodd;clip-rule:evenodd;stroke-linejoin:round;stroke-miterlimit:2;"><g id="g4971"><path id="path4461" d="M12.306,8.307l-3.806,24.451l22,0.065l-3.677,-24.582l-7.161,-2.064l-7.356,2.13Z" style="fill:#fff;fill-rule:nonzero;"/><path id="path4445" d="M19.088,29.423l-0.176,-1.411l-0.928,0.166c-0.51,0.091 -1.388,0.322 -1.95,0.513c-1.452,0.493 -2.774,0.448 -3.282,-0.112c-0.662,-0.732 -0.524,-0.834 1.046,-0.774c2.261,0.086 5.174,-0.307 5.174,-0.696c0,-0.194 -0.374,-0.364 -0.899,-0.411c-1.006,-0.088 -1.23,-0.549 -0.324,-0.667c1.193,-0.156 1.35,-0.4 0.349,-0.545c-1.381,-0.2 -1.475,-0.729 -0.167,-0.938c0.572,-0.091 1.041,-0.309 1.041,-0.484c0,-0.239 -0.292,-0.263 -1.178,-0.097c-0.648,0.121 -1.3,0.145 -1.449,0.053c-0.171,-0.106 -0.207,-0.004 -0.098,0.279c0.094,0.246 0.246,1.087 0.338,1.87c0.123,1.047 0.089,1.375 -0.128,1.241c-0.162,-0.101 -0.296,-0.32 -0.296,-0.487c0,-0.168 -0.383,-1.063 -0.85,-1.989l-0.848,-1.685l2.002,-0.027c2.166,-0.027 2.507,-0.127 2.507,-0.734c0,-0.313 -0.184,-0.363 -0.868,-0.234c-0.861,0.161 -2.198,-0.239 -2.198,-0.658c0,-0.118 0.69,-0.214 1.533,-0.214c1.637,0 1.845,-0.217 1.259,-1.312c-0.251,-0.47 -0.204,-0.505 0.575,-0.43c0.719,0.069 0.861,0.191 0.932,0.808c0.078,0.683 0.138,0.717 0.977,0.56c0.552,-0.104 1.034,-0.052 1.258,0.134c0.662,0.549 0.381,0.751 -1.041,0.751c-1.235,0 -1.405,0.061 -1.405,0.51c0,0.595 0.177,0.613 2.168,0.213c1.419,-0.285 1.509,-0.272 1.959,0.283c0.565,0.698 0.599,1.367 0.109,2.132c-0.199,0.311 -0.4,0.911 -0.447,1.332c-0.082,0.741 -0.046,0.77 1.06,0.848c1.292,0.092 1.793,0.399 1.793,1.099c0,0.574 -0.008,0.575 -1.788,0.097c-0.773,-0.208 -2.181,-0.379 -3.13,-0.38l-1.724,-0.003l-0.003,0.83c-0.005,1.047 -0.25,1.98 -0.52,1.98c-0.113,0 -0.286,-0.635 -0.383,-1.411Zm3.907,-2.541c0.035,-0.027 0.092,-0.787 0.128,-1.689l0.064,-1.64l-0.997,-0.082c-1.217,-0.099 -2.196,0.123 -2.196,0.499c0,0.178 0.311,0.22 0.869,0.115c0.625,-0.117 0.984,-0.047 1.28,0.248c0.514,0.514 0.275,0.954 -0.401,0.74c-0.643,-0.204 -1.748,0.064 -1.748,0.423c0,0.177 0.356,0.213 1.003,0.104c0.851,-0.144 1.045,-0.09 1.286,0.361c0.317,0.592 0.311,0.594 -1.203,0.534c-0.839,-0.033 -1.086,0.049 -1.086,0.362c0,0.342 0.229,0.379 1.469,0.24c0.808,-0.092 1.498,-0.188 1.532,-0.215Zm-1.864,-8.296c-0.134,-0.132 -0.848,-0.276 -1.588,-0.319c-1.889,-0.111 -1.799,-0.574 0.13,-0.666c1.436,-0.068 1.61,-0.137 1.747,-0.682c0.258,-1.031 0.029,-1.546 -0.668,-1.496c-0.347,0.025 -1.24,0.082 -1.986,0.128l-1.356,0.082l0.078,1.38c0.109,1.911 -0.422,2.011 -0.836,0.157c-0.463,-2.068 -0.68,-2.288 -1.911,-1.947c-1.705,0.474 -1.835,0.308 -0.383,-0.493c1.778,-0.98 2.317,-1.476 2.131,-1.961c-0.125,-0.325 -0.059,-0.341 0.4,-0.094c0.746,0.398 0.701,1.24 -0.084,1.597c-0.566,0.258 -0.59,0.322 -0.217,0.594c0.323,0.237 0.763,0.231 1.975,-0.03c2.16,-0.464 3.066,-0.435 3.563,0.115c0.521,0.576 0.543,1.815 0.052,2.99c-0.38,0.912 -0.626,1.063 -1.047,0.645Zm-2.905,-1.785c-0.276,-0.175 -0.123,-0.33 0.636,-0.648c0.794,-0.332 1.132,-0.358 1.638,-0.127c0.62,0.282 0.624,0.301 0.145,0.652c-0.554,0.405 -1.868,0.471 -2.419,0.123Zm4.45,-2.33c-1.004,-0.759 -1.899,-1.733 -1.91,-2.079c-0.003,-0.097 0.828,0.21 1.846,0.682c1.52,0.704 1.853,0.964 1.853,1.45c0,0.851 -0.616,0.833 -1.789,-0.053Zm-4.048,-0.454c-0.525,-0.582 -0.541,-0.841 -0.039,-0.648c0.29,0.112 0.383,-0.046 0.383,-0.649c0,-0.787 -0.013,-0.795 -1.021,-0.634c-0.662,0.106 -1.155,0.051 -1.404,-0.156c-0.683,-0.567 -0.415,-0.768 1.02,-0.768c1.125,0 1.405,-0.082 1.405,-0.414c0,-0.34 0.069,-0.357 0.385,-0.096c0.247,0.206 0.742,0.263 1.385,0.16c1.155,-0.185 1.806,-0.003 1.806,0.506c0,0.256 -0.355,0.355 -1.277,0.355l-1.277,0l0,1.099c0,0.987 -0.329,1.711 -0.778,1.711c-0.091,0 -0.355,-0.21 -0.588,-0.466Zm-1.05,-3.603c-0.162,-0.263 1.603,-1.806 2.065,-1.806c0.528,0 0.738,0.746 0.322,1.146c-0.446,0.43 -2.226,0.921 -2.387,0.66Z" style="fill-rule:nonzero;"/></g></svg>